<svg width="198" height="78" viewBox="0 0 198 78" fill="none" xmlns="http://www.w3.org/2000/svg">
<rect x="0.0449219" width="197.161" height="77.8785" rx="7.88644" fill="white"/>
<path d="M25.9975 47.8955C24.5074 47.8955 23.1699 47.5814 21.985 46.953C20.8002 46.3247 19.8756 45.4539 19.2113 44.3409C18.5471 43.2098 18.2149 41.9352 18.2149 40.5169C18.2149 39.0986 18.5471 37.833 19.2113 36.7199C19.8756 35.6068 20.7912 34.7361 21.9581 34.1077C23.143 33.4794 24.4895 33.1652 25.9975 33.1652C27.4158 33.1652 28.6545 33.4525 29.7138 34.027C30.7909 34.6014 31.5988 35.4273 32.1374 36.5044L29.5522 38.0125C29.1393 37.3482 28.6186 36.8545 27.9903 36.5314C27.3799 36.1903 26.7067 36.0197 25.9706 36.0197C24.7139 36.0197 23.6726 36.4326 22.8468 37.2585C22.021 38.0663 21.608 39.1525 21.608 40.5169C21.608 41.8813 22.012 42.9765 22.8199 43.8023C23.6457 44.6102 24.6959 45.0141 25.9706 45.0141C26.7067 45.0141 27.3799 44.8525 27.9903 44.5294C28.6186 44.1883 29.1393 43.6856 29.5522 43.0213L32.1374 44.5294C31.5809 45.6065 30.764 46.4414 29.6868 47.0338C28.6276 47.6083 27.3978 47.8955 25.9975 47.8955ZM48.9697 33.3268V47.707H45.7651V45.8758C45.2265 46.5221 44.5533 47.0248 43.7454 47.3839C42.9375 47.725 42.0668 47.8955 41.1332 47.8955C39.2123 47.8955 37.6953 47.3659 36.5822 46.3067C35.4871 45.2295 34.9395 43.6407 34.9395 41.5402V33.3268H38.3057V41.0824C38.3057 42.375 38.5929 43.3445 39.1674 43.9908C39.7599 44.6191 40.5947 44.9333 41.6718 44.9333C42.8747 44.9333 43.8262 44.5653 44.5263 43.8292C45.2445 43.0752 45.6035 41.998 45.6035 40.5977V33.3268H48.9697ZM57.8204 47.8955C56.6534 47.8955 55.5134 47.7429 54.4003 47.4377C53.2873 47.1325 52.3986 46.7466 51.7343 46.2798L53.0269 43.7215C53.6733 44.1524 54.4452 44.5024 55.3429 44.7717C56.2585 45.0231 57.1561 45.1487 58.0358 45.1487C60.0465 45.1487 61.0519 44.6191 61.0519 43.5599C61.0519 43.0572 60.7916 42.7072 60.2709 42.5097C59.7682 42.3122 58.9514 42.1237 57.8204 41.9442C56.6355 41.7646 55.666 41.5582 54.912 41.3248C54.1759 41.0914 53.5296 40.6875 52.9731 40.113C52.4345 39.5205 52.1652 38.7037 52.1652 37.6624C52.1652 36.298 52.7307 35.2118 53.8618 34.404C55.0107 33.5781 56.5547 33.1652 58.4936 33.1652C59.481 33.1652 60.4684 33.2819 61.4558 33.5153C62.4432 33.7307 63.2511 34.0269 63.8795 34.404L62.5868 36.9622C61.3661 36.2441 59.9927 35.8851 58.4667 35.8851C57.4793 35.8851 56.7252 36.0377 56.2046 36.3429C55.7019 36.6301 55.4506 37.0161 55.4506 37.5008C55.4506 38.0394 55.7199 38.4254 56.2585 38.6588C56.815 38.8742 57.6678 39.0807 58.8167 39.2782C59.9657 39.4577 60.9083 39.6641 61.6443 39.8975C62.3804 40.1309 63.0087 40.5259 63.5294 41.0824C64.068 41.639 64.3373 42.4289 64.3373 43.4522C64.3373 44.7987 63.7538 45.8758 62.5868 46.6837C61.4199 47.4916 59.8311 47.8955 57.8204 47.8955ZM75.8805 46.9261C75.4855 47.2492 75.0008 47.4916 74.4263 47.6532C73.8697 47.8147 73.2773 47.8955 72.6489 47.8955C71.0691 47.8955 69.8483 47.4826 68.9866 46.6568C68.1248 45.831 67.6939 44.6281 67.6939 43.0483V36.1274H65.3242V33.4345H67.6939V30.1491H71.0601V33.4345H74.911V36.1274H71.0601V42.9675C71.0601 43.6676 71.2307 44.2062 71.5718 44.5832C71.9129 44.9423 72.4066 45.1218 73.0529 45.1218C73.8069 45.1218 74.4352 44.9243 74.9379 44.5294L75.8805 46.9261ZM84.6392 47.8955C83.185 47.8955 81.8745 47.5814 80.7075 46.953C79.5406 46.3247 78.625 45.4539 77.9607 44.3409C77.3144 43.2098 76.9913 41.9352 76.9913 40.5169C76.9913 39.0986 77.3144 37.833 77.9607 36.7199C78.625 35.6068 79.5406 34.7361 80.7075 34.1077C81.8745 33.4794 83.185 33.1652 84.6392 33.1652C86.1113 33.1652 87.4309 33.4794 88.5978 34.1077C89.7647 34.7361 90.6714 35.6068 91.3177 36.7199C91.9819 37.833 92.3141 39.0986 92.3141 40.5169C92.3141 41.9352 91.9819 43.2098 91.3177 44.3409C90.6714 45.4539 89.7647 46.3247 88.5978 46.953C87.4309 47.5814 86.1113 47.8955 84.6392 47.8955ZM84.6392 45.0141C85.878 45.0141 86.9013 44.6012 87.7091 43.7754C88.517 42.9495 88.921 41.8634 88.921 40.5169C88.921 39.1704 88.517 38.0843 87.7091 37.2585C86.9013 36.4326 85.878 36.0197 84.6392 36.0197C83.4005 36.0197 82.3771 36.4326 81.5693 37.2585C80.7793 38.0843 80.3844 39.1704 80.3844 40.5169C80.3844 41.8634 80.7793 42.9495 81.5693 43.7754C82.3771 44.6012 83.4005 45.0141 84.6392 45.0141ZM109.617 27.7255V47.707H106.385V45.8489C105.829 46.5311 105.138 47.0428 104.312 47.3839C103.504 47.725 102.606 47.8955 101.619 47.8955C100.237 47.8955 98.9889 47.5903 97.8758 46.9799C96.7807 46.3695 95.9189 45.5078 95.2906 44.3947C94.6622 43.2637 94.3481 41.9711 94.3481 40.5169C94.3481 39.0627 94.6622 37.7791 95.2906 36.666C95.9189 35.5529 96.7807 34.6912 97.8758 34.0808C98.9889 33.4704 100.237 33.1652 101.619 33.1652C102.57 33.1652 103.441 33.3268 104.231 33.6499C105.021 33.9731 105.694 34.4578 106.251 35.1041V27.7255H109.617ZM102.023 45.0141C102.831 45.0141 103.558 44.8346 104.204 44.4755C104.85 44.0985 105.362 43.5689 105.739 42.8867C106.116 42.2045 106.305 41.4146 106.305 40.5169C106.305 39.6193 106.116 38.8293 105.739 38.1471C105.362 37.4649 104.85 36.9443 104.204 36.5852C103.558 36.2082 102.831 36.0197 102.023 36.0197C101.215 36.0197 100.488 36.2082 99.8416 36.5852C99.1953 36.9443 98.6837 37.4649 98.3067 38.1471C97.9297 38.8293 97.7411 39.6193 97.7411 40.5169C97.7411 41.4146 97.9297 42.2045 98.3067 42.8867C98.6837 43.5689 99.1953 44.0985 99.8416 44.4755C100.488 44.8346 101.215 45.0141 102.023 45.0141ZM127.485 33.3268L120.753 48.865C120.125 50.4269 119.362 51.522 118.464 52.1504C117.566 52.7967 116.48 53.1198 115.205 53.1198C114.487 53.1198 113.778 53.0031 113.078 52.7697C112.378 52.5364 111.803 52.2132 111.355 51.8003L112.701 49.3228C113.024 49.628 113.401 49.8704 113.832 50.0499C114.281 50.2294 114.73 50.3192 115.178 50.3192C115.771 50.3192 116.256 50.1666 116.633 49.8614C117.028 49.5562 117.387 49.0445 117.71 48.3264L117.952 47.7609L111.678 33.3268H115.178L119.703 43.9639L124.254 33.3268H127.485ZM129.772 47.8955C129.162 47.8955 128.641 47.6891 128.21 47.2762C127.779 46.8453 127.564 46.3067 127.564 45.6604C127.564 44.9961 127.77 44.4576 128.183 44.0446C128.614 43.6317 129.144 43.4253 129.772 43.4253C130.4 43.4253 130.921 43.6317 131.334 44.0446C131.765 44.4576 131.98 44.9961 131.98 45.6604C131.98 46.3067 131.765 46.8453 131.334 47.2762C130.903 47.6891 130.382 47.8955 129.772 47.8955ZM141.469 47.8955C140.015 47.8955 138.705 47.5814 137.538 46.953C136.371 46.3247 135.455 45.4539 134.791 44.3409C134.145 43.2098 133.822 41.9352 133.822 40.5169C133.822 39.0986 134.145 37.833 134.791 36.7199C135.455 35.6068 136.371 34.7361 137.538 34.1077C138.705 33.4794 140.015 33.1652 141.469 33.1652C142.942 33.1652 144.261 33.4794 145.428 34.1077C146.595 34.7361 147.502 35.6068 148.148 36.7199C148.812 37.833 149.144 39.0986 149.144 40.5169C149.144 41.9352 148.812 43.2098 148.148 44.3409C147.502 45.4539 146.595 46.3247 145.428 46.953C144.261 47.5814 142.942 47.8955 141.469 47.8955ZM141.469 45.0141C142.708 45.0141 143.732 44.6012 144.539 43.7754C145.347 42.9495 145.751 41.8634 145.751 40.5169C145.751 39.1704 145.347 38.0843 144.539 37.2585C143.732 36.4326 142.708 36.0197 141.469 36.0197C140.231 36.0197 139.207 36.4326 138.4 37.2585C137.61 38.0843 137.215 39.1704 137.215 40.5169C137.215 41.8634 137.61 42.9495 138.4 43.7754C139.207 44.6012 140.231 45.0141 141.469 45.0141ZM155.568 35.4273C156.537 33.9192 158.243 33.1652 160.684 33.1652V36.3698C160.397 36.3159 160.137 36.289 159.903 36.289C158.593 36.289 157.57 36.675 156.833 37.447C156.097 38.201 155.729 39.2961 155.729 40.7323V47.707H152.363V33.3268H155.568V35.4273ZM177.681 33.3268V45.5258C177.681 50.5885 175.096 53.1198 169.925 53.1198C168.543 53.1198 167.232 52.9403 165.994 52.5812C164.755 52.2401 163.732 51.7374 162.924 51.0732L164.432 48.5418C165.06 49.0625 165.85 49.4754 166.802 49.7806C167.771 50.1037 168.749 50.2653 169.737 50.2653C171.317 50.2653 172.475 49.9063 173.211 49.1881C173.947 48.47 174.315 47.3749 174.315 45.9028V45.1487C173.74 45.7771 173.04 46.2528 172.214 46.576C171.388 46.8992 170.482 47.0607 169.494 47.0607C168.13 47.0607 166.891 46.7735 165.778 46.199C164.683 45.6065 163.812 44.7807 163.166 43.7215C162.538 42.6623 162.224 41.4505 162.224 40.086C162.224 38.7216 162.538 37.5188 163.166 36.4775C163.812 35.4183 164.683 34.6014 165.778 34.027C166.891 33.4525 168.13 33.1652 169.494 33.1652C170.536 33.1652 171.478 33.3358 172.322 33.6769C173.184 34.018 173.902 34.5386 174.476 35.2388V33.3268H177.681ZM170.006 44.2062C171.281 44.2062 172.322 43.8292 173.13 43.0752C173.956 42.3032 174.369 41.3068 174.369 40.086C174.369 38.8832 173.956 37.9048 173.13 37.1507C172.322 36.3967 171.281 36.0197 170.006 36.0197C168.714 36.0197 167.654 36.3967 166.828 37.1507C166.021 37.9048 165.617 38.8832 165.617 40.086C165.617 41.3068 166.021 42.3032 166.828 43.0752C167.654 43.8292 168.714 44.2062 170.006 44.2062Z" fill="#17B69C"/>
</svg>
