<svg width="310" height="106" viewBox="0 0 310 106" fill="none" xmlns="http://www.w3.org/2000/svg">
<g filter="url(#filter0_ddd)">
<rect x="5" y="2" width="300" height="95" rx="8" fill="white"/>
</g>
<path d="M82.4526 59.1885C85.2532 59.1885 87.4884 57.9767 88.5925 55.8223L86.0073 54.3143C85.1455 55.6877 83.8529 56.3071 82.4257 56.3071C79.9482 56.3071 78.0631 54.6105 78.0631 51.8099C78.0631 49.0362 79.9482 47.3127 82.4257 47.3127C83.8529 47.3127 85.1455 47.9321 86.0073 49.3055L88.5925 47.7974C87.4884 45.6161 85.2532 44.4582 82.4526 44.4582C77.9015 44.4582 74.67 47.5012 74.67 51.8099C74.67 56.1186 77.9015 59.1885 82.4526 59.1885ZM102.059 44.6198V51.8907C102.059 54.7721 100.47 56.2263 98.1269 56.2263C95.9995 56.2263 94.7608 54.9875 94.7608 52.3754V44.6198H91.3946V52.8332C91.3946 57.1688 93.899 59.1885 97.5883 59.1885C99.4464 59.1885 101.143 58.4883 102.22 57.1688V59H105.425V44.6198H102.059ZM114.275 59.1885C118.315 59.1885 120.792 57.4381 120.792 54.7452C120.792 49.1169 111.906 51.7022 111.906 48.7938C111.906 47.8513 112.875 47.178 114.922 47.178C116.295 47.178 117.669 47.4473 119.042 48.2552L120.335 45.6969C119.042 44.916 116.861 44.4582 114.949 44.4582C111.071 44.4582 108.62 46.2355 108.62 48.9554C108.62 54.6913 117.507 52.1061 117.507 54.8529C117.507 55.8493 116.618 56.4417 114.491 56.4417C112.687 56.4417 110.748 55.8493 109.482 55.0145L108.189 57.5727C109.482 58.4883 111.879 59.1885 114.275 59.1885ZM131.393 55.8223C130.881 56.2263 130.208 56.4148 129.508 56.4148C128.215 56.4148 127.515 55.6608 127.515 54.2604V47.4204H131.366V44.7275H127.515V41.4421H124.149V44.7275H121.779V47.4204H124.149V54.3412C124.149 57.5189 125.953 59.1885 129.104 59.1885C130.316 59.1885 131.528 58.8654 132.336 58.2191L131.393 55.8223ZM141.094 59.1885C145.565 59.1885 148.769 56.1186 148.769 51.8099C148.769 47.5012 145.565 44.4582 141.094 44.4582C136.678 44.4582 133.446 47.5012 133.446 51.8099C133.446 56.1186 136.678 59.1885 141.094 59.1885ZM141.094 56.3071C138.671 56.3071 136.839 54.5567 136.839 51.8099C136.839 49.0631 138.671 47.3127 141.094 47.3127C143.545 47.3127 145.376 49.0631 145.376 51.8099C145.376 54.5567 143.545 56.3071 141.094 56.3071ZM162.706 39.0185V46.3971C161.575 45.0776 159.932 44.4582 158.074 44.4582C153.9 44.4582 150.803 47.3396 150.803 51.8099C150.803 56.2801 153.9 59.1885 158.074 59.1885C160.04 59.1885 161.71 58.5153 162.841 57.1419V59H166.072V39.0185H162.706ZM158.478 56.3071C156.054 56.3071 154.196 54.5567 154.196 51.8099C154.196 49.0631 156.054 47.3127 158.478 47.3127C160.902 47.3127 162.76 49.0631 162.76 51.8099C162.76 54.5567 160.902 56.3071 158.478 56.3071ZM180.709 44.6198L176.158 55.2568L171.634 44.6198H168.133L174.407 59.0539L174.165 59.6194C173.519 61.0466 172.818 61.6121 171.634 61.6121C170.718 61.6121 169.802 61.2351 169.156 60.6158L167.81 63.0933C168.725 63.9281 170.233 64.4128 171.661 64.4128C174.057 64.4128 175.888 63.4164 177.208 60.158L183.94 44.6198H180.709ZM186.227 59.1885C187.439 59.1885 188.435 58.246 188.435 56.9534C188.435 55.6069 187.439 54.7182 186.227 54.7182C185.015 54.7182 184.019 55.6069 184.019 56.9534C184.019 58.246 185.015 59.1885 186.227 59.1885ZM197.925 59.1885C202.395 59.1885 205.599 56.1186 205.599 51.8099C205.599 47.5012 202.395 44.4582 197.925 44.4582C193.508 44.4582 190.277 47.5012 190.277 51.8099C190.277 56.1186 193.508 59.1885 197.925 59.1885ZM197.925 56.3071C195.501 56.3071 193.67 54.5567 193.67 51.8099C193.67 49.0631 195.501 47.3127 197.925 47.3127C200.375 47.3127 202.206 49.0631 202.206 51.8099C202.206 54.5567 200.375 56.3071 197.925 56.3071ZM212.023 46.7202V44.6198H208.818V59H212.184V52.0253C212.184 49.09 213.8 47.582 216.358 47.582C216.601 47.582 216.843 47.6089 217.139 47.6628V44.4582C214.743 44.4582 212.992 45.2122 212.023 46.7202ZM230.931 44.6198V46.5317C229.747 45.1045 227.969 44.4582 225.95 44.4582C221.829 44.4582 218.679 47.205 218.679 51.379C218.679 55.5531 221.829 58.3537 225.95 58.3537C227.888 58.3537 229.585 57.7343 230.77 56.4417V57.1957C230.77 60.1041 229.37 61.5583 226.192 61.5583C224.199 61.5583 222.153 60.8851 220.887 59.8348L219.379 62.3662C221.021 63.7126 223.687 64.4128 226.38 64.4128C231.416 64.4128 234.136 62.043 234.136 56.8187V44.6198H230.931ZM226.461 55.4992C223.903 55.4992 222.072 53.8296 222.072 51.379C222.072 48.9554 223.903 47.3127 226.461 47.3127C228.993 47.3127 230.824 48.9554 230.824 51.379C230.824 53.8296 228.993 55.4992 226.461 55.4992Z" fill="#06335D"/>
<defs>
<filter id="filter0_ddd" x="0" y="0" width="310" height="106" filterUnits="userSpaceOnUse" color-interpolation-filters="sRGB">
<feFlood flood-opacity="0" result="BackgroundImageFix"/>
<feColorMatrix in="SourceAlpha" type="matrix" values="0 0 0 0 0 0 0 0 0 0 0 0 0 0 0 0 0 0 127 0" result="hardAlpha"/>
<feMorphology radius="1" operator="erode" in="SourceAlpha" result="effect1_dropShadow"/>
<feOffset dy="2"/>
<feGaussianBlur stdDeviation="2"/>
<feColorMatrix type="matrix" values="0 0 0 0 0 0 0 0 0 0 0 0 0 0 0 0 0 0 0.04 0"/>
<feBlend mode="normal" in2="BackgroundImageFix" result="effect1_dropShadow"/>
<feColorMatrix in="SourceAlpha" type="matrix" values="0 0 0 0 0 0 0 0 0 0 0 0 0 0 0 0 0 0 127 0" result="hardAlpha"/>
<feMorphology radius="1" operator="erode" in="SourceAlpha" result="effect2_dropShadow"/>
<feOffset dy="4"/>
<feGaussianBlur stdDeviation="3"/>
<feColorMatrix type="matrix" values="0 0 0 0 0 0 0 0 0 0 0 0 0 0 0 0 0 0 0.1 0"/>
<feBlend mode="normal" in2="effect1_dropShadow" result="effect2_dropShadow"/>
<feColorMatrix in="SourceAlpha" type="matrix" values="0 0 0 0 0 0 0 0 0 0 0 0 0 0 0 0 0 0 127 0" result="hardAlpha"/>
<feOffset/>
<feGaussianBlur stdDeviation="1"/>
<feColorMatrix type="matrix" values="0 0 0 0 0 0 0 0 0 0 0 0 0 0 0 0 0 0 0.12 0"/>
<feBlend mode="normal" in2="effect2_dropShadow" result="effect3_dropShadow"/>
<feBlend mode="normal" in="SourceGraphic" in2="effect3_dropShadow" result="shape"/>
</filter>
</defs>
</svg>
