<svg width="310" height="106" viewBox="0 0 310 106" fill="none" xmlns="http://www.w3.org/2000/svg">
<g filter="url(#filter0_ddd)">
<rect x="5" y="2" width="300" height="95" rx="8" fill="white"/>
</g>
<path d="M82.9526 59.1885C81.4625 59.1885 80.125 58.8743 78.9401 58.246C77.7552 57.6176 76.8307 56.7469 76.1664 55.6338C75.5022 54.5028 75.17 53.2282 75.17 51.8099C75.17 50.3916 75.5022 49.1259 76.1664 48.0128C76.8307 46.8998 77.7463 46.0291 78.9132 45.4007C80.0981 44.7724 81.4446 44.4582 82.9526 44.4582C84.3709 44.4582 85.6096 44.7454 86.6688 45.3199C87.746 45.8944 88.5539 46.7202 89.0925 47.7974L86.5073 49.3055C86.0943 48.6412 85.5737 48.1475 84.9454 47.8243C84.335 47.4832 83.6617 47.3127 82.9257 47.3127C81.669 47.3127 80.6277 47.7256 79.8019 48.5514C78.976 49.3593 78.5631 50.4455 78.5631 51.8099C78.5631 53.1743 78.9671 54.2694 79.7749 55.0953C80.6008 55.9031 81.651 56.3071 82.9257 56.3071C83.6617 56.3071 84.335 56.1455 84.9454 55.8223C85.5737 55.4812 86.0943 54.9786 86.5073 54.3143L89.0925 55.8223C88.5359 56.8995 87.7191 57.7343 86.6419 58.3268C85.5827 58.9013 84.3529 59.1885 82.9526 59.1885ZM105.925 44.6198V59H102.72V57.1688C102.182 57.8151 101.508 58.3178 100.7 58.6768C99.8926 59.018 99.0219 59.1885 98.0883 59.1885C96.1674 59.1885 94.6504 58.6589 93.5373 57.5997C92.4422 56.5225 91.8946 54.9337 91.8946 52.8332V44.6198H95.2608V52.3754C95.2608 53.668 95.548 54.6375 96.1225 55.2838C96.7149 55.9121 97.5497 56.2263 98.6269 56.2263C99.8298 56.2263 100.781 55.8582 101.481 55.1222C102.2 54.3682 102.559 53.291 102.559 51.8907V44.6198H105.925ZM114.775 59.1885C113.609 59.1885 112.468 59.0359 111.355 58.7307C110.242 58.4255 109.354 58.0395 108.689 57.5727L109.982 55.0145C110.628 55.4453 111.4 55.7954 112.298 56.0647C113.214 56.316 114.111 56.4417 114.991 56.4417C117.002 56.4417 118.007 55.9121 118.007 54.8529C118.007 54.3502 117.747 54.0001 117.226 53.8026C116.723 53.6052 115.906 53.4167 114.775 53.2371C113.591 53.0576 112.621 52.8511 111.867 52.6178C111.131 52.3844 110.485 51.9804 109.928 51.4059C109.39 50.8135 109.12 49.9966 109.12 48.9554C109.12 47.591 109.686 46.5048 110.817 45.6969C111.966 44.8711 113.51 44.4582 115.449 44.4582C116.436 44.4582 117.423 44.5749 118.411 44.8083C119.398 45.0237 120.206 45.3199 120.835 45.6969L119.542 48.2552C118.321 47.5371 116.948 47.178 115.422 47.178C114.434 47.178 113.68 47.3306 113.16 47.6358C112.657 47.9231 112.406 48.3091 112.406 48.7938C112.406 49.3324 112.675 49.7184 113.214 49.9518C113.77 50.1672 114.623 50.3736 115.772 50.5711C116.921 50.7507 117.863 50.9571 118.599 51.1905C119.335 51.4239 119.964 51.8189 120.484 52.3754C121.023 52.9319 121.292 53.7219 121.292 54.7452C121.292 56.0916 120.709 57.1688 119.542 57.9767C118.375 58.7846 116.786 59.1885 114.775 59.1885ZM132.836 58.2191C132.441 58.5422 131.956 58.7846 131.381 58.9461C130.825 59.1077 130.232 59.1885 129.604 59.1885C128.024 59.1885 126.803 58.7756 125.942 57.9498C125.08 57.1239 124.649 55.9211 124.649 54.3412V47.4204H122.279V44.7275H124.649V41.4421H128.015V44.7275H131.866V47.4204H128.015V54.2604C128.015 54.9606 128.186 55.4992 128.527 55.8762C128.868 56.2353 129.362 56.4148 130.008 56.4148C130.762 56.4148 131.39 56.2173 131.893 55.8223L132.836 58.2191ZM141.594 59.1885C140.14 59.1885 138.83 58.8743 137.663 58.246C136.496 57.6176 135.58 56.7469 134.916 55.6338C134.27 54.5028 133.946 53.2282 133.946 51.8099C133.946 50.3916 134.27 49.1259 134.916 48.0128C135.58 46.8998 136.496 46.0291 137.663 45.4007C138.83 44.7724 140.14 44.4582 141.594 44.4582C143.066 44.4582 144.386 44.7724 145.553 45.4007C146.72 46.0291 147.626 46.8998 148.273 48.0128C148.937 49.1259 149.269 50.3916 149.269 51.8099C149.269 53.2282 148.937 54.5028 148.273 55.6338C147.626 56.7469 146.72 57.6176 145.553 58.246C144.386 58.8743 143.066 59.1885 141.594 59.1885ZM141.594 56.3071C142.833 56.3071 143.856 55.8942 144.664 55.0683C145.472 54.2425 145.876 53.1563 145.876 51.8099C145.876 50.4634 145.472 49.3773 144.664 48.5514C143.856 47.7256 142.833 47.3127 141.594 47.3127C140.356 47.3127 139.332 47.7256 138.524 48.5514C137.734 49.3773 137.339 50.4634 137.339 51.8099C137.339 53.1563 137.734 54.2425 138.524 55.0683C139.332 55.8942 140.356 56.3071 141.594 56.3071ZM166.572 39.0185V59H163.341V57.1419C162.784 57.8241 162.093 58.3357 161.267 58.6768C160.459 59.018 159.561 59.1885 158.574 59.1885C157.192 59.1885 155.944 58.8833 154.831 58.2729C153.736 57.6625 152.874 56.8008 152.246 55.6877C151.617 54.5567 151.303 53.2641 151.303 51.8099C151.303 50.3557 151.617 49.0721 152.246 47.959C152.874 46.8459 153.736 45.9842 154.831 45.3738C155.944 44.7634 157.192 44.4582 158.574 44.4582C159.526 44.4582 160.396 44.6198 161.186 44.9429C161.976 45.2661 162.649 45.7508 163.206 46.3971V39.0185H166.572ZM158.978 56.3071C159.786 56.3071 160.513 56.1275 161.159 55.7685C161.806 55.3915 162.317 54.8619 162.694 54.1797C163.071 53.4974 163.26 52.7075 163.26 51.8099C163.26 50.9122 163.071 50.1223 162.694 49.4401C162.317 48.7579 161.806 48.2373 161.159 47.8782C160.513 47.5012 159.786 47.3127 158.978 47.3127C158.17 47.3127 157.443 47.5012 156.797 47.8782C156.15 48.2373 155.639 48.7579 155.262 49.4401C154.885 50.1223 154.696 50.9122 154.696 51.8099C154.696 52.7075 154.885 53.4974 155.262 54.1797C155.639 54.8619 156.15 55.3915 156.797 55.7685C157.443 56.1275 158.17 56.3071 158.978 56.3071ZM184.44 44.6198L177.708 60.158C177.08 61.7199 176.317 62.815 175.419 63.4433C174.521 64.0896 173.435 64.4128 172.161 64.4128C171.442 64.4128 170.733 64.2961 170.033 64.0627C169.333 63.8293 168.758 63.5062 168.31 63.0933L169.656 60.6158C169.979 60.921 170.356 61.1633 170.787 61.3428C171.236 61.5224 171.685 61.6121 172.134 61.6121C172.726 61.6121 173.211 61.4595 173.588 61.1543C173.983 60.8491 174.342 60.3375 174.665 59.6194L174.907 59.0539L168.633 44.6198H172.134L176.658 55.2568L181.209 44.6198H184.44ZM186.727 59.1885C186.117 59.1885 185.596 58.982 185.165 58.5691C184.734 58.1383 184.519 57.5997 184.519 56.9534C184.519 56.2891 184.725 55.7505 185.138 55.3376C185.569 54.9247 186.099 54.7182 186.727 54.7182C187.355 54.7182 187.876 54.9247 188.289 55.3376C188.72 55.7505 188.935 56.2891 188.935 56.9534C188.935 57.5997 188.72 58.1383 188.289 58.5691C187.858 58.982 187.338 59.1885 186.727 59.1885ZM198.425 59.1885C196.97 59.1885 195.66 58.8743 194.493 58.246C193.326 57.6176 192.41 56.7469 191.746 55.6338C191.1 54.5028 190.777 53.2282 190.777 51.8099C190.777 50.3916 191.1 49.1259 191.746 48.0128C192.41 46.8998 193.326 46.0291 194.493 45.4007C195.66 44.7724 196.97 44.4582 198.425 44.4582C199.897 44.4582 201.216 44.7724 202.383 45.4007C203.55 46.0291 204.457 46.8998 205.103 48.0128C205.767 49.1259 206.099 50.3916 206.099 51.8099C206.099 53.2282 205.767 54.5028 205.103 55.6338C204.457 56.7469 203.55 57.6176 202.383 58.246C201.216 58.8743 199.897 59.1885 198.425 59.1885ZM198.425 56.3071C199.663 56.3071 200.687 55.8942 201.494 55.0683C202.302 54.2425 202.706 53.1563 202.706 51.8099C202.706 50.4634 202.302 49.3773 201.494 48.5514C200.687 47.7256 199.663 47.3127 198.425 47.3127C197.186 47.3127 196.162 47.7256 195.355 48.5514C194.565 49.3773 194.17 50.4634 194.17 51.8099C194.17 53.1563 194.565 54.2425 195.355 55.0683C196.162 55.8942 197.186 56.3071 198.425 56.3071ZM212.523 46.7202C213.492 45.2122 215.198 44.4582 217.639 44.4582V47.6628C217.352 47.6089 217.092 47.582 216.858 47.582C215.548 47.582 214.525 47.968 213.789 48.7399C213.052 49.494 212.684 50.5891 212.684 52.0253V59H209.318V44.6198H212.523V46.7202ZM234.636 44.6198V56.8187C234.636 61.8814 232.051 64.4128 226.88 64.4128C225.498 64.4128 224.187 64.2333 222.949 63.8742C221.71 63.5331 220.687 63.0304 219.879 62.3662L221.387 59.8348C222.015 60.3554 222.805 60.7684 223.757 61.0736C224.726 61.3967 225.704 61.5583 226.692 61.5583C228.272 61.5583 229.43 61.1992 230.166 60.4811C230.902 59.763 231.27 58.6679 231.27 57.1957V56.4417C230.695 57.0701 229.995 57.5458 229.169 57.869C228.344 58.1921 227.437 58.3537 226.45 58.3537C225.085 58.3537 223.846 58.0665 222.733 57.492C221.638 56.8995 220.767 56.0737 220.121 55.0145C219.493 53.9552 219.179 52.7434 219.179 51.379C219.179 50.0146 219.493 48.8118 220.121 47.7705C220.767 46.7113 221.638 45.8944 222.733 45.3199C223.846 44.7454 225.085 44.4582 226.45 44.4582C227.491 44.4582 228.433 44.6287 229.277 44.9698C230.139 45.3109 230.857 45.8316 231.431 46.5317V44.6198H234.636ZM226.961 55.4992C228.236 55.4992 229.277 55.1222 230.085 54.3682C230.911 53.5962 231.324 52.5998 231.324 51.379C231.324 50.1762 230.911 49.1977 230.085 48.4437C229.277 47.6897 228.236 47.3127 226.961 47.3127C225.669 47.3127 224.609 47.6897 223.784 48.4437C222.976 49.1977 222.572 50.1762 222.572 51.379C222.572 52.5998 222.976 53.5962 223.784 54.3682C224.609 55.1222 225.669 55.4992 226.961 55.4992Z" fill="#17B69C"/>
<defs>
<filter id="filter0_ddd" x="0" y="0" width="310" height="106" filterUnits="userSpaceOnUse" color-interpolation-filters="sRGB">
<feFlood flood-opacity="0" result="BackgroundImageFix"/>
<feColorMatrix in="SourceAlpha" type="matrix" values="0 0 0 0 0 0 0 0 0 0 0 0 0 0 0 0 0 0 127 0" result="hardAlpha"/>
<feMorphology radius="1" operator="erode" in="SourceAlpha" result="effect1_dropShadow"/>
<feOffset dy="2"/>
<feGaussianBlur stdDeviation="2"/>
<feColorMatrix type="matrix" values="0 0 0 0 0 0 0 0 0 0 0 0 0 0 0 0 0 0 0.04 0"/>
<feBlend mode="normal" in2="BackgroundImageFix" result="effect1_dropShadow"/>
<feColorMatrix in="SourceAlpha" type="matrix" values="0 0 0 0 0 0 0 0 0 0 0 0 0 0 0 0 0 0 127 0" result="hardAlpha"/>
<feMorphology radius="1" operator="erode" in="SourceAlpha" result="effect2_dropShadow"/>
<feOffset dy="4"/>
<feGaussianBlur stdDeviation="3"/>
<feColorMatrix type="matrix" values="0 0 0 0 0 0 0 0 0 0 0 0 0 0 0 0 0 0 0.1 0"/>
<feBlend mode="normal" in2="effect1_dropShadow" result="effect2_dropShadow"/>
<feColorMatrix in="SourceAlpha" type="matrix" values="0 0 0 0 0 0 0 0 0 0 0 0 0 0 0 0 0 0 127 0" result="hardAlpha"/>
<feOffset/>
<feGaussianBlur stdDeviation="1"/>
<feColorMatrix type="matrix" values="0 0 0 0 0 0 0 0 0 0 0 0 0 0 0 0 0 0 0.12 0"/>
<feBlend mode="normal" in2="effect2_dropShadow" result="effect3_dropShadow"/>
<feBlend mode="normal" in="SourceGraphic" in2="effect3_dropShadow" result="shape"/>
</filter>
</defs>
</svg>
