<svg width="198" height="78" viewBox="0 0 198 78" fill="none" xmlns="http://www.w3.org/2000/svg">
<rect x="0.34082" width="197.161" height="77.8785" rx="7.88644" fill="white"/>
<path d="M26.7934 48.8955C25.3033 48.8955 23.9658 48.5814 22.7809 47.953C21.5961 47.3247 20.6715 46.4539 20.0072 45.3409C19.343 44.2098 19.0108 42.9352 19.0108 41.5169C19.0108 40.0986 19.343 38.833 20.0072 37.7199C20.6715 36.6068 21.5871 35.7361 22.754 35.1077C23.9389 34.4794 25.2854 34.1652 26.7934 34.1652C28.2117 34.1652 29.4504 34.4525 30.5097 35.027C31.5868 35.6014 32.3947 36.4273 32.9333 37.5044L30.3481 39.0125C29.9352 38.3482 29.4145 37.8545 28.7862 37.5314C28.1758 37.1903 27.5026 37.0197 26.7665 37.0197C25.5098 37.0197 24.4685 37.4326 23.6427 38.2585C22.8169 39.0663 22.4039 40.1525 22.4039 41.5169C22.4039 42.8813 22.8079 43.9765 23.6158 44.8023C24.4416 45.6102 25.4918 46.0141 26.7665 46.0141C27.5026 46.0141 28.1758 45.8525 28.7862 45.5294C29.4145 45.1883 29.9352 44.6856 30.3481 44.0213L32.9333 45.5294C32.3768 46.6065 31.5599 47.4414 30.4827 48.0338C29.4235 48.6083 28.1937 48.8955 26.7934 48.8955ZM49.7656 34.3268V48.707H46.561V46.8758C46.0224 47.5221 45.3492 48.0248 44.5413 48.3839C43.7334 48.725 42.8627 48.8955 41.9291 48.8955C40.0082 48.8955 38.4912 48.3659 37.3781 47.3067C36.283 46.2295 35.7354 44.6407 35.7354 42.5402V34.3268H39.1016V42.0824C39.1016 43.375 39.3888 44.3445 39.9633 44.9908C40.5558 45.6191 41.3906 45.9333 42.4677 45.9333C43.6706 45.9333 44.6221 45.5653 45.3222 44.8292C46.0404 44.0752 46.3994 42.998 46.3994 41.5977V34.3268H49.7656ZM58.6163 48.8955C57.4493 48.8955 56.3093 48.7429 55.1962 48.4377C54.0832 48.1325 53.1945 47.7466 52.5302 47.2798L53.8228 44.7215C54.4691 45.1524 55.2411 45.5024 56.1388 45.7717C57.0544 46.0231 57.952 46.1487 58.8317 46.1487C60.8424 46.1487 61.8478 45.6191 61.8478 44.5599C61.8478 44.0572 61.5875 43.7072 61.0668 43.5097C60.5641 43.3122 59.7473 43.1237 58.6163 42.9442C57.4314 42.7646 56.4619 42.5582 55.7079 42.3248C54.9718 42.0914 54.3255 41.6875 53.769 41.113C53.2304 40.5205 52.9611 39.7037 52.9611 38.6624C52.9611 37.298 53.5266 36.2118 54.6577 35.404C55.8066 34.5781 57.3506 34.1652 59.2895 34.1652C60.2769 34.1652 61.2643 34.2819 62.2517 34.5153C63.2391 34.7307 64.047 35.0269 64.6754 35.404L63.3827 37.9622C62.162 37.2441 60.7886 36.8851 59.2626 36.8851C58.2752 36.8851 57.5211 37.0377 57.0005 37.3429C56.4978 37.6301 56.2465 38.0161 56.2465 38.5008C56.2465 39.0394 56.5158 39.4254 57.0544 39.6588C57.6109 39.8742 58.4637 40.0807 59.6126 40.2782C60.7616 40.4577 61.7042 40.6641 62.4402 40.8975C63.1763 41.1309 63.8046 41.5259 64.3253 42.0824C64.8639 42.639 65.1332 43.4289 65.1332 44.4522C65.1332 45.7987 64.5497 46.8758 63.3827 47.6837C62.2158 48.4916 60.627 48.8955 58.6163 48.8955ZM76.6764 47.9261C76.2814 48.2492 75.7967 48.4916 75.2222 48.6532C74.6656 48.8147 74.0732 48.8955 73.4448 48.8955C71.865 48.8955 70.6442 48.4826 69.7825 47.6568C68.9207 46.831 68.4898 45.6281 68.4898 44.0483V37.1274H66.1201V34.4345H68.4898V31.1491H71.856V34.4345H75.7069V37.1274H71.856V43.9675C71.856 44.6676 72.0266 45.2062 72.3677 45.5832C72.7088 45.9423 73.2025 46.1218 73.8488 46.1218C74.6028 46.1218 75.2311 45.9243 75.7338 45.5294L76.6764 47.9261ZM85.4351 48.8955C83.9809 48.8955 82.6704 48.5814 81.5034 47.953C80.3365 47.3247 79.4209 46.4539 78.7566 45.3409C78.1103 44.2098 77.7872 42.9352 77.7872 41.5169C77.7872 40.0986 78.1103 38.833 78.7566 37.7199C79.4209 36.6068 80.3365 35.7361 81.5034 35.1077C82.6704 34.4794 83.9809 34.1652 85.4351 34.1652C86.9072 34.1652 88.2268 34.4794 89.3937 35.1077C90.5606 35.7361 91.4673 36.6068 92.1136 37.7199C92.7778 38.833 93.11 40.0986 93.11 41.5169C93.11 42.9352 92.7778 44.2098 92.1136 45.3409C91.4673 46.4539 90.5606 47.3247 89.3937 47.953C88.2268 48.5814 86.9072 48.8955 85.4351 48.8955ZM85.4351 46.0141C86.6739 46.0141 87.6972 45.6012 88.505 44.7754C89.3129 43.9495 89.7169 42.8634 89.7169 41.5169C89.7169 40.1704 89.3129 39.0843 88.505 38.2585C87.6972 37.4326 86.6739 37.0197 85.4351 37.0197C84.1964 37.0197 83.173 37.4326 82.3652 38.2585C81.5752 39.0843 81.1803 40.1704 81.1803 41.5169C81.1803 42.8634 81.5752 43.9495 82.3652 44.7754C83.173 45.6012 84.1964 46.0141 85.4351 46.0141ZM110.413 28.7255V48.707H107.181V46.8489C106.625 47.5311 105.934 48.0428 105.108 48.3839C104.3 48.725 103.402 48.8955 102.415 48.8955C101.032 48.8955 99.7848 48.5903 98.6717 47.9799C97.5766 47.3695 96.7148 46.5078 96.0865 45.3947C95.4581 44.2637 95.144 42.9711 95.144 41.5169C95.144 40.0627 95.4581 38.7791 96.0865 37.666C96.7148 36.5529 97.5766 35.6912 98.6717 35.0808C99.7848 34.4704 101.032 34.1652 102.415 34.1652C103.366 34.1652 104.237 34.3268 105.027 34.6499C105.817 34.9731 106.49 35.4578 107.047 36.1041V28.7255H110.413ZM102.819 46.0141C103.627 46.0141 104.354 45.8346 105 45.4755C105.646 45.0985 106.158 44.5689 106.535 43.8867C106.912 43.2045 107.101 42.4146 107.101 41.5169C107.101 40.6193 106.912 39.8293 106.535 39.1471C106.158 38.4649 105.646 37.9443 105 37.5852C104.354 37.2082 103.627 37.0197 102.819 37.0197C102.011 37.0197 101.284 37.2082 100.638 37.5852C99.9912 37.9443 99.4796 38.4649 99.1026 39.1471C98.7256 39.8293 98.537 40.6193 98.537 41.5169C98.537 42.4146 98.7256 43.2045 99.1026 43.8867C99.4796 44.5689 99.9912 45.0985 100.638 45.4755C101.284 45.8346 102.011 46.0141 102.819 46.0141ZM128.281 34.3268L121.549 49.865C120.92 51.4269 120.157 52.522 119.26 53.1504C118.362 53.7967 117.276 54.1198 116.001 54.1198C115.283 54.1198 114.574 54.0031 113.874 53.7697C113.174 53.5364 112.599 53.2132 112.15 52.8003L113.497 50.3228C113.82 50.628 114.197 50.8704 114.628 51.0499C115.077 51.2294 115.526 51.3192 115.974 51.3192C116.567 51.3192 117.052 51.1666 117.429 50.8614C117.824 50.5562 118.183 50.0445 118.506 49.3264L118.748 48.7609L112.474 34.3268H115.974L120.499 44.9639L125.05 34.3268H128.281ZM130.568 48.8955C129.958 48.8955 129.437 48.6891 129.006 48.2762C128.575 47.8453 128.36 47.3067 128.36 46.6604C128.36 45.9961 128.566 45.4576 128.979 45.0446C129.41 44.6317 129.94 44.4253 130.568 44.4253C131.196 44.4253 131.717 44.6317 132.13 45.0446C132.561 45.4576 132.776 45.9961 132.776 46.6604C132.776 47.3067 132.561 47.8453 132.13 48.2762C131.699 48.6891 131.178 48.8955 130.568 48.8955ZM142.265 48.8955C140.811 48.8955 139.501 48.5814 138.334 47.953C137.167 47.3247 136.251 46.4539 135.587 45.3409C134.941 44.2098 134.617 42.9352 134.617 41.5169C134.617 40.0986 134.941 38.833 135.587 37.7199C136.251 36.6068 137.167 35.7361 138.334 35.1077C139.501 34.4794 140.811 34.1652 142.265 34.1652C143.738 34.1652 145.057 34.4794 146.224 35.1077C147.391 35.7361 148.298 36.6068 148.944 37.7199C149.608 38.833 149.94 40.0986 149.94 41.5169C149.94 42.9352 149.608 44.2098 148.944 45.3409C148.298 46.4539 147.391 47.3247 146.224 47.953C145.057 48.5814 143.738 48.8955 142.265 48.8955ZM142.265 46.0141C143.504 46.0141 144.527 45.6012 145.335 44.7754C146.143 43.9495 146.547 42.8634 146.547 41.5169C146.547 40.1704 146.143 39.0843 145.335 38.2585C144.527 37.4326 143.504 37.0197 142.265 37.0197C141.027 37.0197 140.003 37.4326 139.195 38.2585C138.406 39.0843 138.011 40.1704 138.011 41.5169C138.011 42.8634 138.406 43.9495 139.195 44.7754C140.003 45.6012 141.027 46.0141 142.265 46.0141ZM156.364 36.4273C157.333 34.9192 159.039 34.1652 161.48 34.1652V37.3698C161.193 37.3159 160.933 37.289 160.699 37.289C159.389 37.289 158.365 37.675 157.629 38.447C156.893 39.201 156.525 40.2961 156.525 41.7323V48.707H153.159V34.3268H156.364V36.4273ZM178.477 34.3268V46.5258C178.477 51.5885 175.892 54.1198 170.721 54.1198C169.339 54.1198 168.028 53.9403 166.79 53.5812C165.551 53.2401 164.527 52.7374 163.72 52.0732L165.228 49.5418C165.856 50.0625 166.646 50.4754 167.597 50.7806C168.567 51.1037 169.545 51.2653 170.533 51.2653C172.113 51.2653 173.271 50.9063 174.007 50.1881C174.743 49.47 175.111 48.3749 175.111 46.9028V46.1487C174.536 46.7771 173.836 47.2528 173.01 47.576C172.184 47.8992 171.278 48.0607 170.29 48.0607C168.926 48.0607 167.687 47.7735 166.574 47.199C165.479 46.6065 164.608 45.7807 163.962 44.7215C163.334 43.6623 163.019 42.4505 163.019 41.086C163.019 39.7216 163.334 38.5188 163.962 37.4775C164.608 36.4183 165.479 35.6014 166.574 35.027C167.687 34.4525 168.926 34.1652 170.29 34.1652C171.332 34.1652 172.274 34.3358 173.118 34.6769C173.98 35.018 174.698 35.5386 175.272 36.2388V34.3268H178.477ZM170.802 45.2062C172.077 45.2062 173.118 44.8292 173.926 44.0752C174.752 43.3032 175.165 42.3068 175.165 41.086C175.165 39.8832 174.752 38.9048 173.926 38.1507C173.118 37.3967 172.077 37.0197 170.802 37.0197C169.509 37.0197 168.45 37.3967 167.624 38.1507C166.816 38.9048 166.413 39.8832 166.413 41.086C166.413 42.3068 166.816 43.3032 167.624 44.0752C168.45 44.8292 169.509 45.2062 170.802 45.2062Z" fill="#06335D"/>
</svg>
