<svg width="310" height="106" viewBox="0 0 310 106" fill="none" xmlns="http://www.w3.org/2000/svg">
<g filter="url(#filter0_ddd)">
<rect x="5" y="2" width="300" height="95" rx="8" fill="white"/>
</g>
<path d="M161.472 41.7322V47.2505H161.522C162.435 46.0522 163.738 45.4527 165.432 45.4527C166.187 45.4527 166.903 45.5761 167.576 45.8222C168.249 46.0683 168.848 46.4394 169.371 46.9361C169.892 47.4322 170.301 48.0522 170.596 48.7966C170.892 49.5405 171.039 50.4 171.039 51.3744C171.039 52.4727 170.838 53.4933 170.433 54.4361C170.027 55.3794 169.397 56.1344 168.542 56.7027C167.687 57.2705 166.626 57.5555 165.358 57.5555C163.528 57.5555 162.224 56.9727 161.447 55.8083H161.398V57.2538H157.922V41.7322H161.472ZM148.134 45.1287C154.889 45.1287 154.311 52.3787 154.311 52.3787H145.064C145.438 53.8215 146.681 54.7698 148.394 54.7698C150.457 54.7698 151.569 53.5242 151.569 53.5242L153.532 55.5287C152.522 56.5315 151.165 57.4476 148.364 57.4476C144.033 57.4476 141.724 54.5837 141.724 51.5481C141.724 48.5126 143.457 45.1287 148.134 45.1287ZM232.25 45.1234C235.157 45.1234 237.004 46.2306 237.004 46.2306L235.811 48.789C231.943 46.7845 230.191 48.1973 230.191 48.9034C230.191 49.6101 230.884 49.6673 233.578 50.164C236.273 50.6606 237.524 51.7862 237.524 53.6001C237.524 55.414 235.964 57.419 232.154 57.419C228.342 57.419 226.611 56.1967 226.611 56.1967L227.766 53.6573C230.749 55.5478 234.136 54.9362 234.136 53.8106C234.136 52.9656 233.01 52.7866 231.798 52.6451L231.276 52.5849C231.044 52.5576 230.815 52.5283 230.595 52.4928C229.055 52.2445 226.765 51.424 226.765 49.0562C226.765 46.689 229.344 45.1234 232.25 45.1234ZM215.234 40.9235V50.298L220.286 45.448H224.415L219.408 50.2546L224.906 57.4191H220.806L217.047 52.5213L215.234 54.2607V57.4191H211.856V40.9235H215.234ZM203.128 45.0475C205.524 45.0475 207.622 46.2392 208.781 48.0253L205.926 49.7031C205.39 48.6875 204.338 47.997 203.128 47.997C201.374 47.997 199.952 49.4458 199.952 51.2331C199.952 53.0197 201.374 54.4692 203.128 54.4692C204.282 54.4692 205.289 53.8397 205.846 52.9008L208.714 54.5397C207.542 56.2697 205.479 57.4192 203.128 57.4192C199.476 57.4192 196.516 54.6492 196.516 51.2331C196.516 47.8164 199.476 45.0475 203.128 45.0475ZM187.43 45.047C191.08 45.047 194.041 47.817 194.041 51.2325C194.041 54.6492 191.08 57.4186 187.43 57.4186C183.777 57.4186 180.818 54.6492 180.818 51.2325C180.818 47.817 183.777 45.047 187.43 45.047ZM127.402 45.3908V57.3047H123.735V45.3908H127.402ZM120.443 41.7823V44.7606H112.243V48.7128H119.489V51.6628H112.243V57.3045H108.576V41.7823H120.443ZM135.227 46.8796C135.227 46.8796 136.526 44.8463 139.211 45.1618V48.4835C139.211 48.4835 136.295 47.7391 135.227 50.7463V57.3041H131.734V45.3907H135.073L135.227 46.7941V46.8796ZM177.323 40.8658V57.2181H173.628V40.8658H177.323ZM164.364 48.0705C162.337 48.0705 161.324 49.3027 161.324 51.7683C161.324 52.7027 161.585 53.4866 162.107 54.12C162.629 54.7527 163.416 55.0694 164.468 55.0694C165.17 55.0694 165.74 54.8866 166.177 54.5211C166.615 54.155 166.925 53.7077 167.108 53.1783C167.292 52.6494 167.384 52.1211 167.384 51.5938C167.384 50.5805 167.144 49.7411 166.663 49.0727C166.182 48.4044 165.415 48.0705 164.364 48.0705ZM187.43 47.997C185.675 47.997 184.253 49.4453 184.253 51.2325C184.253 53.0203 185.675 54.4692 187.43 54.4692C189.183 54.4692 190.605 53.0203 190.605 51.2325C190.605 49.4453 189.183 47.997 187.43 47.997ZM148.191 47.7248C146.405 47.7248 145.411 48.8253 145.076 50.2592H151.064C151.035 49.8865 150.443 47.7248 148.191 47.7248ZM125.568 39.7773C126.758 39.7773 127.724 40.6623 127.724 41.7535C127.724 42.8446 126.758 43.7296 125.568 43.7296C124.378 43.7296 123.413 42.8446 123.413 41.7535C123.413 40.6623 124.378 39.7773 125.568 39.7773Z" fill="#2C2B3D"/>
<path d="M96.322 37C96.8743 37 97.322 37.4477 97.322 38V61C97.322 61.5523 96.8743 62 96.322 62H73C72.4477 62 72 61.5523 72 61V38C72 37.4477 72.4477 37 73 37H96.322ZM84.661 43.9444L77.6271 55.0556H91.6949L84.661 43.9444Z" fill="#2C2B3D"/>
<defs>
<filter id="filter0_ddd" x="0" y="0" width="310" height="106" filterUnits="userSpaceOnUse" color-interpolation-filters="sRGB">
<feFlood flood-opacity="0" result="BackgroundImageFix"/>
<feColorMatrix in="SourceAlpha" type="matrix" values="0 0 0 0 0 0 0 0 0 0 0 0 0 0 0 0 0 0 127 0" result="hardAlpha"/>
<feMorphology radius="1" operator="erode" in="SourceAlpha" result="effect1_dropShadow"/>
<feOffset dy="2"/>
<feGaussianBlur stdDeviation="2"/>
<feColorMatrix type="matrix" values="0 0 0 0 0 0 0 0 0 0 0 0 0 0 0 0 0 0 0.04 0"/>
<feBlend mode="normal" in2="BackgroundImageFix" result="effect1_dropShadow"/>
<feColorMatrix in="SourceAlpha" type="matrix" values="0 0 0 0 0 0 0 0 0 0 0 0 0 0 0 0 0 0 127 0" result="hardAlpha"/>
<feMorphology radius="1" operator="erode" in="SourceAlpha" result="effect2_dropShadow"/>
<feOffset dy="4"/>
<feGaussianBlur stdDeviation="3"/>
<feColorMatrix type="matrix" values="0 0 0 0 0 0 0 0 0 0 0 0 0 0 0 0 0 0 0.1 0"/>
<feBlend mode="normal" in2="effect1_dropShadow" result="effect2_dropShadow"/>
<feColorMatrix in="SourceAlpha" type="matrix" values="0 0 0 0 0 0 0 0 0 0 0 0 0 0 0 0 0 0 127 0" result="hardAlpha"/>
<feOffset/>
<feGaussianBlur stdDeviation="1"/>
<feColorMatrix type="matrix" values="0 0 0 0 0 0 0 0 0 0 0 0 0 0 0 0 0 0 0.12 0"/>
<feBlend mode="normal" in2="effect2_dropShadow" result="effect3_dropShadow"/>
<feBlend mode="normal" in="SourceGraphic" in2="effect3_dropShadow" result="shape"/>
</filter>
</defs>
</svg>
