<svg width="108" height="105" viewBox="0 0 108 105" fill="none" xmlns="http://www.w3.org/2000/svg">
<path d="M65.7299 40.22H41.4299V64.52H65.7299V40.22Z" fill="#FCD000"/>
<path d="M78.52 62.1499C75.32 72.5099 66.5 80.1799 53.84 80.1799C41.69 80.1799 32.48 72.5099 29.03 62.1499H0.130005C4.48 86.5799 25.83 104.86 53.58 104.86C81.33 104.86 102.69 86.4399 107.29 62.1499H78.52Z" fill="black"/>
<path d="M53.45 24.68C65.6 24.68 74.81 32.35 78.26 42.71H107.16C102.81 18.29 81.46 0 53.71 0C25.96 0 4.6 18.42 0 42.71H28.65C31.97 32.35 40.66 24.68 53.45 24.68Z" fill="black"/>
</svg>
