<svg width="208" height="65" viewBox="0 0 208 65" fill="none" xmlns="http://www.w3.org/2000/svg">
<path d="M102.5 50.3H111.6V0.400024H102.5V50.3Z" fill="black"/>
<path d="M84.5 50.3H93.6V0.400024H84.5V50.3Z" fill="black"/>
<path d="M195.5 16.5H204.2L204.3 17.5L181 50.4H172L195.5 16.5Z" fill="#FCD000"/>
<path d="M158.6 16.5H168.2L181 50.5H171.8L158.6 16.5Z" fill="black"/>
<path d="M177.3 16.5H186.7L199.5 50.5H190.4L177.3 16.5Z" fill="black"/>
<path d="M207.7 25L204.6 16.5H195.5L199.1 25H207.7Z" fill="black"/>
<path d="M66.2001 41.6C64.4001 43.1 62.4001 43.6 59.8001 43.6C54.1001 43.6 49.9001 39.1 49.9001 33.6C49.9001 28.1 54.3001 23.6 59.7001 23.6C64.4001 23.6 67.8001 26.5 69.1001 30.6H57.4001V36.6H69.1001H77.7001C77.9001 35.5 78.0001 34.6 78.0001 33.6C78.0001 23.8 69.8001 15.9 59.8001 15.9C49.8001 15.9 41.6001 23.8 41.6001 33.6C41.6001 43.4 49.8001 51.3 59.8001 51.3C67.1001 51.3 73.7001 47.2 76.8001 41.6H66.2001Z" fill="black"/>
<path d="M128.299 30.6C129.599 26.6 133.299 23.6 137.699 23.6C142.099 23.6 145.799 26.5 147.099 30.6H155.699C154.199 22.3 146.799 15.9 137.799 15.9C128.799 15.9 121.299 22.2 119.899 30.6H128.299Z" fill="black"/>
<path d="M147 36.6C145.8 40.7 142 43.6 137.6 43.6C133.2 43.6 129.4 40.6 128.2 36.6H119.6C121.1 44.9 128.5 51.3 137.6 51.3C146.7 51.3 154.1 44.9 155.6 36.6H147Z" fill="black"/>
<path d="M141.4 30.1H133.8V37.2H141.4V30.1Z" fill="#FCD000"/>
<path d="M40.2 16.5H30.5L20.3 39.1L10.6 16.5H0L14.9 50.3L14 52.3C13.2 54.1 11.5 55.2 9.6 55.2H5V64.4H9.6C15.2 64.4 20.3 61.1 22.5 55.9L40.2 16.5Z" fill="black"/>
</svg>
