<svg width="138" height="42" viewBox="0 0 138 42" fill="none" xmlns="http://www.w3.org/2000/svg">
<path d="M37.9909 35.2735C44.2049 35.2735 48.036 31.6292 49.3909 28.5456L43.8311 26.9104C42.8967 28.6858 41.0745 30.0407 38.0844 30.0407C33.786 30.0407 31.6368 27.7046 31.2163 24.6677H49.5778C49.718 23.9202 49.718 23.2194 49.718 22.4718C49.718 15.6972 45.2795 10.3243 37.5237 10.3243C30.095 10.3243 25.1426 15.744 25.1426 22.7989C25.1426 30.2743 30.4221 35.2735 37.9909 35.2735ZM31.2163 20.7899C31.5434 18.08 33.8795 15.5571 37.477 15.5571C41.168 15.5571 43.4106 17.8931 43.6909 20.7899H31.2163Z" fill="#090909"/>
<path d="M54.3773 34.6194H60.5446V0.512817H54.3773V34.6194Z" fill="#090909"/>
<path d="M66.6052 34.6194H72.7724V0.512817H66.6052V34.6194Z" fill="#090909"/>
<path d="M90.0461 35.2735C97.3347 35.2735 102.661 29.8538 102.661 22.7989C102.661 15.6972 97.3347 10.3243 90.0461 10.3243C82.7576 10.3243 77.3847 15.6972 77.3847 22.7989C77.3847 29.8538 82.7576 35.2735 90.0461 35.2735ZM90.0461 29.6669C86.0748 29.6669 83.4117 26.7235 83.4117 22.7989C83.4117 18.8743 86.0748 15.9309 90.0461 15.9309C93.9707 15.9309 96.6806 18.8743 96.6806 22.7989C96.6806 26.7235 93.9707 29.6669 90.0461 29.6669Z" fill="#090909"/>
<path d="M0 11.6194H6.87017L12.081 27.2225L17.0881 11.6194H23.8418L15.0503 35.0824C13.3037 39.7401 11.4114 41.4872 7.53975 41.4872C5.18175 41.4872 3.43505 40.8758 1.77573 39.9149L3.9591 35.228C4.8033 35.7523 5.88043 36.1304 6.72464 36.1304C7.8308 36.1304 8.44216 35.7816 8.99524 34.6459L0 11.6194Z" fill="black"/>
<path d="M128.801 10.6194H134.82L135.069 11.3269L119.023 33.7918H112.662L128.801 10.6194Z" fill="white"/>
<path d="M104 10.7067H110.579L119.043 33.7918H112.694L104 10.7067Z" fill="black"/>
<path d="M116.242 10.6194H122.752L131.543 33.7918H125.44L116.242 10.6194Z" fill="black"/>
<path d="M128.789 10.6194H135.048L137.308 16.4895H131.349L128.789 10.6194Z" fill="black"/>
<rect x="75" y="21.0384" width="31" height="3.58842" fill="#FCD000"/>
<path d="M92.6794 20.323H87.3203V25.323H92.6794V20.323Z" fill="white"/>
</svg>
