<svg width="208" height="65" viewBox="0 0 208 65" fill="none" xmlns="http://www.w3.org/2000/svg">
<path d="M102.5 50.678H111.6V0.800049H102.5V50.678Z" fill="white"/>
<path d="M84.5 50.678H93.6V0.800049H84.5V50.678Z" fill="white"/>
<path d="M195.5 16.8251H204.2L204.3 17.8266L181 50.8783H172L195.5 16.8251Z" fill="#FCD000"/>
<path d="M158.6 16.8251H168.2L181 50.8783H171.8L158.6 16.8251Z" fill="white"/>
<path d="M177.3 16.8251H186.7L199.5 50.8783H190.4L177.3 16.8251Z" fill="white"/>
<path d="M207.7 25.3384L204.6 16.8251H195.5L199.1 25.3384H207.7Z" fill="white"/>
<path d="M66.1999 41.9643C64.3999 43.4667 62.3999 43.9675 59.7999 43.9675C54.0999 43.9675 49.8999 39.4604 49.8999 33.9518C49.8999 28.4432 54.2999 23.9362 59.6999 23.9362C64.3999 23.9362 67.7999 26.8407 69.0999 30.9471H57.3999V36.9565H69.0999H77.6999C77.8999 35.8548 77.9999 34.9534 77.9999 33.9518C77.9999 24.1365 69.7999 16.2241 59.7999 16.2241C49.7999 16.2241 41.3999 24.2366 41.3999 34.052C41.3999 43.8673 49.5999 51.7797 59.5999 51.7797C66.8999 51.7797 73.4999 47.6733 76.5999 42.0645H66.1999V41.9643Z" fill="white"/>
<path d="M128.299 30.9471C129.599 26.9409 133.299 23.9362 137.699 23.9362C142.099 23.9362 145.799 26.8407 147.099 30.9471H155.699C154.199 22.6341 146.799 16.2241 137.799 16.2241C128.799 16.2241 121.299 22.534 119.899 30.9471H128.299Z" fill="white"/>
<path d="M147 36.9565C145.8 41.063 142 43.9675 137.6 43.9675C133.2 43.9675 129.4 40.9628 128.2 36.9565H119.6C121.1 45.2695 128.5 51.6795 137.6 51.6795C146.7 51.6795 154.1 45.2695 155.6 36.9565H147Z" fill="white"/>
<path d="M141.4 30.4464H133.8V37.5575H141.4V30.4464Z" fill="#FCD000"/>
<path d="M40.2 16.8251H30.5L20.3 39.4604L10.6 16.8251H0L14.9 50.678L14 52.6811C13.2 54.4839 11.5 55.5856 9.6 55.5856H5V64.8H9.6C15.2 64.8 20.3 61.4949 22.5 56.2867L40.2 16.8251Z" fill="white"/>
</svg>
