<svg width="208" height="65" viewBox="0 0 208 65" fill="none" xmlns="http://www.w3.org/2000/svg">
<path d="M102.5 50.5H111.6V0.599976H102.5V50.5Z" fill="black"/>
<path d="M84.5 50.5H93.6V0.599976H84.5V50.5Z" fill="black"/>
<path d="M195.5 16.7H204.2L204.3 17.7L181 50.7H172L195.5 16.7Z" fill="white"/>
<path d="M158.6 16.7H168.2L181 50.7H171.8L158.6 16.7Z" fill="black"/>
<path d="M177.3 16.7H186.7L199.5 50.7H190.4L177.3 16.7Z" fill="black"/>
<path d="M207.7 25.2L204.6 16.7H195.5L199.1 25.2H207.7Z" fill="black"/>
<path d="M66.2001 41.8C64.4001 43.3 62.4001 43.8 59.8001 43.8C54.1001 43.8 49.9001 39.3 49.9001 33.8C49.9001 28.3 54.3001 23.8 59.7001 23.8C64.4001 23.8 67.8001 26.7 69.1001 30.8H57.4001V36.8H69.1001H77.7001C77.9001 35.7 78.0001 34.8 78.0001 33.8C78.0001 24 69.8001 16.1 59.8001 16.1C49.8001 16.1 41.6001 24 41.6001 33.8C41.6001 43.6 49.8001 51.5 59.8001 51.5C67.1001 51.5 73.7001 47.4 76.8001 41.8H66.2001Z" fill="black"/>
<path d="M128.299 30.8999C129.599 26.8999 133.299 23.8999 137.699 23.8999C142.099 23.8999 145.799 26.7999 147.099 30.8999H155.699C154.199 22.5999 146.799 16.2 137.799 16.2C128.799 16.2 121.299 22.4999 119.899 30.8999H128.299Z" fill="black"/>
<path d="M147 36.7999C145.8 40.8999 142 43.7999 137.6 43.7999C133.2 43.7999 129.4 40.7999 128.2 36.7999H119.6C121.1 45.0999 128.5 51.4999 137.6 51.4999C146.7 51.4999 154.1 45.0999 155.6 36.7999H147Z" fill="black"/>
<path d="M141.4 30.2999H133.8V37.3999H141.4V30.2999Z" fill="white"/>
<path d="M40.2 16.7H30.5L20.3 39.3L10.6 16.7H0L14.9 50.5L14 52.5C13.2 54.3 11.5 55.3999 9.6 55.3999H5V64.6H9.6C15.2 64.6 20.3 61.3 22.5 56.1L40.2 16.7Z" fill="black"/>
</svg>
