<svg width="137" height="37" viewBox="0 0 137 37" fill="none" xmlns="http://www.w3.org/2000/svg">
<path d="M0 7.1322H6.87017L12.081 22.7353L17.0881 7.1322H23.8418L15.0503 30.5953C13.3037 35.2529 11.4114 37 7.53975 37C5.18175 37 3.43505 36.3886 1.77573 35.4277L3.9591 30.7408C4.8033 31.2651 5.88043 31.6432 6.72464 31.6432C7.8308 31.6432 8.44216 31.2944 8.99524 30.1587L0 7.1322Z" fill="white"/>
<path d="M127.583 8.12195H133.602L133.851 8.82944L117.805 31.2944H111.444L127.583 8.12195Z" fill="#FCD000"/>
<path d="M102.783 8.20926H109.362L117.825 31.2944H111.477L102.783 8.20926Z" fill="white"/>
<path d="M115.025 8.12195H121.535L130.325 31.2944H124.223L115.025 8.12195Z" fill="white"/>
<path d="M127.572 8.12195H133.83L136.091 13.9921H130.132L127.572 8.12195Z" fill="white"/>
<path d="M92.4564 17.0007H86.9248V22.532H92.4564V17.0007Z" fill="#FCD000"/>
<path d="M95.3668 21.9784C94.6392 24.3368 92.6303 26.0832 89.749 26.0832C86.9832 26.0832 84.8873 24.3368 84.1012 21.9784H77.5225C78.5119 27.5392 83.3736 31.7017 89.6905 31.7017C96.0074 31.7017 100.869 27.5099 101.917 21.9784H95.3668Z" fill="white"/>
<path d="M89.6612 13.4492C92.427 13.4492 94.5229 15.1958 95.309 17.5538H101.888C100.898 11.9936 96.0367 7.83075 89.7197 7.83075C83.4028 7.83075 78.5411 12.0228 77.4932 17.5538H84.0141C84.7703 15.1958 86.7499 13.4492 89.6612 13.4492Z" fill="white"/>
<path d="M47.6841 21.9499C47.7132 21.3385 47.7714 20.7564 47.7714 20.2321C47.7714 13.7403 44.2781 7.8017 36.622 7.8017C29.9556 7.8017 25.2979 13.1873 25.2979 19.737V19.8247C25.2979 26.8401 30.3922 31.6725 37.2624 31.6725C41.3962 31.6725 44.4819 30.0424 46.6361 27.3937L42.9099 24.1035C41.1051 25.7628 39.5331 26.462 37.3498 26.462C34.4386 26.462 32.4009 24.9189 31.7605 21.9784C31.5858 21.28 31.4693 20.6101 31.4693 19.8247C31.4693 19.0678 31.4984 18.6598 31.6732 17.8741C32.1971 14.963 33.9438 13.0417 36.622 13.0417C39.3584 13.0417 41.0759 15.0212 41.4544 17.9032H36.5929V21.9499H47.6841Z" fill="white"/>
<path d="M59.3278 24.2491V0H53.0107V26.1709C53.0107 28.9945 55.2814 31.2651 58.1052 31.2651H59.3278H62.5009V25.9084H60.9871C60.0556 25.9084 59.3278 25.1515 59.3278 24.2491Z" fill="white"/>
<path d="M72.1657 24.5401V0H65.8486V26.462C65.8486 29.2855 68.1192 31.5562 70.943 31.5562H72.1657H75.3388V26.1994H73.825C72.9226 26.1994 72.1657 25.4425 72.1657 24.5401Z" fill="white"/>
</svg>
