<svg width="180" height="54" viewBox="0 0 180 54" fill="none" xmlns="http://www.w3.org/2000/svg">
<path d="M0 14.8202H9.00623L15.8372 35.2746L22.4011 14.8202H31.2547L19.7297 45.5784C17.44 51.6841 14.9595 53.9744 9.884 53.9744C6.79286 53.9744 4.50307 53.173 2.32784 51.9132L5.19005 45.7691C6.29674 46.4565 7.70877 46.9521 8.81546 46.9521C10.2655 46.9521 11.067 46.4949 11.792 45.006L0 14.8202Z" fill="#272727"/>
<path d="M168.847 13.5092H176.737L177.064 14.4366L156.029 43.8864H147.69L168.847 13.5092Z" fill="#FCD000"/>
<path d="M136.335 13.6236H144.96L156.055 43.8864H147.732L136.335 13.6236Z" fill="#272727"/>
<path d="M152.384 13.5092H160.917L172.441 43.8864H164.442L152.384 13.5092Z" fill="#272727"/>
<path d="M168.831 13.5092H177.036L180 21.2044H172.187L168.831 13.5092Z" fill="#272727"/>
<path d="M49.8031 45.8288C57.9491 45.8288 62.9714 41.0514 64.7476 37.0091L57.4591 34.8654C56.2341 37.1928 53.8455 38.969 49.9256 38.969C44.2908 38.969 41.4734 35.9066 40.9222 31.9255H64.9926C65.1763 30.9455 65.1763 30.0268 65.1763 29.0469C65.1763 20.1659 59.3578 13.1224 49.1906 13.1224C39.4522 13.1224 32.96 20.2272 32.96 29.4756C32.96 39.2753 39.881 45.8288 49.8031 45.8288ZM40.9222 26.8419C41.3509 23.2896 44.4133 19.9822 49.1294 19.9822C53.968 19.9822 56.9079 23.0446 57.2754 26.8419H40.9222Z" fill="#272727"/>
<path d="M71.2844 44.9713H79.3691V0.260376H71.2844V44.9713Z" fill="#272727"/>
<path d="M87.3141 44.9713H95.3988V0.260376H87.3141V44.9713Z" fill="#272727"/>
<path fill-rule="evenodd" clip-rule="evenodd" d="M118.043 45.8288C126.754 45.8288 133.327 39.9233 134.42 31.8718H126.467C125.543 35.7731 122.352 38.479 118.043 38.479C113.684 38.479 110.527 35.7731 109.615 31.8718H101.607C102.709 39.9233 109.332 45.8288 118.043 45.8288ZM126.488 27.1677H134.433C133.382 19.0262 126.791 13.1224 118.043 13.1224C109.296 13.1224 102.653 19.0262 101.593 27.1677H109.595C110.479 23.219 113.651 20.4722 118.043 20.4722C122.384 20.4722 125.591 23.219 126.488 27.1677Z" fill="#272727"/>
<path d="M121.494 26.2299H114.469V32.7845H121.494V26.2299Z" fill="#FCD000"/>
</svg>
