<svg width="198" height="78" viewBox="0 0 198 78" fill="none" xmlns="http://www.w3.org/2000/svg">
<rect width="197.161" height="77.8785" rx="7.88644" fill="white"/>
<path d="M23.5752 51.5833V50.834H18.5146V58.0193H23.5649V57.2699H19.3256V54.7243H23.0517V54.0058H19.3256V51.5833H23.5752Z" fill="#06335D"/>
<path d="M30.5249 58.0193L28.4822 55.4326L30.4222 52.8972H29.4984L27.9587 54.8885L26.4087 52.8972H25.4849L27.4249 55.4326L25.3822 58.0193H26.3266L27.9587 55.9663L29.5805 58.0193H30.5249Z" fill="#06335D"/>
<path d="M34.7413 58.1527C36.0551 58.1527 36.9071 57.3315 37.1124 56.6027L36.3734 56.4077C36.2091 56.9312 35.583 57.4342 34.7413 57.4342C33.5916 57.4342 32.8526 56.5001 32.8526 55.4634C32.8526 54.3958 33.5916 53.4823 34.7413 53.4823C35.583 53.4823 36.2091 54.016 36.3734 54.5395L37.1124 54.324C36.9071 53.6157 36.0551 52.774 34.7413 52.774C33.2016 52.774 32.0724 53.9236 32.0724 55.4428C32.0724 56.9825 33.2016 58.1527 34.7413 58.1527Z" fill="#06335D"/>
<path d="M42.0935 52.774C41.2005 52.774 40.5538 53.2154 40.1946 53.8005V50.526H39.4042V58.0193H40.1946V55.4428C40.1946 54.2932 40.8926 53.5131 41.919 53.5131C42.8531 53.5131 43.3561 54.1289 43.3561 55.1246V58.0193H44.1465V55.0117C44.1465 53.6054 43.3664 52.774 42.0935 52.774Z" fill="#06335D"/>
<path d="M49.0266 58.1527C49.9401 58.1527 50.6381 57.7421 51.0487 57.0852V58.0193H51.8391V52.8972H51.0487V53.821C50.6381 53.1846 49.9401 52.774 49.0266 52.774C47.5484 52.774 46.4398 53.9134 46.4398 55.4531C46.4398 56.9928 47.5484 58.1527 49.0266 58.1527ZM49.1395 57.4342C48.0104 57.4342 47.22 56.5925 47.22 55.4634C47.22 54.324 48.0104 53.4925 49.1395 53.4925C50.1967 53.4925 51.0692 54.3342 51.0692 55.4634C51.0692 56.5925 50.1967 57.4342 49.1395 57.4342Z" fill="#06335D"/>
<path d="M57.1927 52.774C56.2997 52.774 55.653 53.2154 55.2937 53.8005V52.8972H54.5034V58.0193H55.2937V55.4428C55.2937 54.2932 55.9917 53.5131 57.0182 53.5131C57.9523 53.5131 58.4553 54.1289 58.4553 55.1246V58.0193H59.2457V55.0117C59.2457 53.6054 58.4655 52.774 57.1927 52.774Z" fill="#06335D"/>
<path d="M66.1376 52.8972V53.7491C65.727 53.1435 65.0188 52.774 64.1257 52.774C62.6271 52.774 61.539 53.8621 61.539 55.3607C61.539 56.8286 62.6271 57.9577 64.1257 57.9577C65.0188 57.9577 65.727 57.5779 66.1376 56.9723V57.8448C66.1171 58.8405 65.4909 59.6206 64.3926 59.6206C63.5612 59.6206 62.9966 59.2921 62.6476 58.707L61.9496 58.9636C62.3807 59.7335 63.1711 60.3083 64.3824 60.3083C65.8913 60.3083 66.9177 59.2613 66.9177 57.8448V52.8972H66.1376ZM64.2387 57.2392C63.1095 57.2392 62.3191 56.4385 62.3191 55.371C62.3191 54.2829 63.1095 53.4925 64.2387 53.4925C65.2959 53.4925 66.1479 54.2932 66.1479 55.371C66.1479 56.4385 65.2959 57.2392 64.2387 57.2392Z" fill="#06335D"/>
<path d="M71.9536 58.1527C73.2573 58.1527 74.0374 57.4034 74.3761 56.6746L73.6473 56.459C73.401 56.9825 72.8364 57.4547 71.9536 57.4547C70.8143 57.4547 70.106 56.7362 70.0341 55.7097H74.4069C74.4274 55.5763 74.4274 55.4839 74.4274 55.3402C74.4274 53.9134 73.4934 52.774 71.8613 52.774C70.301 52.774 69.254 53.9442 69.254 55.4531C69.254 57.0954 70.3831 58.1527 71.9536 58.1527ZM70.0341 55.1246C70.106 54.2316 70.8245 53.472 71.8613 53.472C72.9391 53.472 73.5755 54.1597 73.6473 55.1144L70.0341 55.1246Z" fill="#06335D"/>
<path d="M83.3129 58.1527C84.9348 58.1527 86.0434 57.1776 86.0434 56.0279C86.0434 54.9604 85.3351 54.519 84.2162 54.1597L82.4712 53.6054C81.6603 53.3488 81.3524 53.0614 81.3524 52.579C81.3524 51.9733 81.9888 51.4396 82.9229 51.4396C83.9801 51.4396 84.75 51.9323 85.099 52.6816L85.8586 52.4455C85.448 51.4909 84.4318 50.7005 82.9331 50.7005C81.5371 50.7005 80.5312 51.5833 80.5312 52.5995C80.5312 53.472 81.1676 53.975 82.1222 54.2829L83.9185 54.8577C84.8937 55.1657 85.2324 55.5147 85.2324 56.069C85.2324 56.7464 84.5036 57.4137 83.354 57.4137C82.1325 57.4137 81.2395 56.6746 80.9212 55.761L80.1411 55.9971C80.5107 57.1365 81.6808 58.1527 83.3129 58.1527Z" fill="#06335D"/>
<path d="M90.8486 58.1527C92.3986 58.1527 93.5482 56.9825 93.5482 55.4531C93.5482 53.9236 92.3986 52.774 90.8486 52.774C89.2986 52.774 88.1387 53.9236 88.1387 55.4531C88.1387 56.9825 89.2986 58.1527 90.8486 58.1527ZM90.8486 57.4239C89.74 57.4239 88.9086 56.5822 88.9086 55.4634C88.9086 54.3445 89.74 53.4925 90.8486 53.4925C91.9469 53.4925 92.7681 54.3445 92.7681 55.4634C92.7681 56.5822 91.9469 57.4239 90.8486 57.4239Z" fill="#06335D"/>
<path d="M97.066 52.2402C97.066 51.5114 97.3637 51.1008 97.9693 51.1008C98.2567 51.1008 98.4928 51.1522 98.7289 51.2753L98.9342 50.6081C98.6262 50.4542 98.2978 50.3926 97.8974 50.3926C96.8196 50.3926 96.2859 51.0803 96.2859 52.2197V52.8972H95.2081V53.6157H96.2859V58.0193H97.066V53.6157H98.9034V52.8972H97.066V52.2402Z" fill="#06335D"/>
<path d="M103.763 57.1878C103.496 57.3213 103.301 57.3623 103.034 57.3623C102.469 57.3623 102.202 57.0339 102.202 56.459V53.6157H103.958V52.8972H102.202V51.1316H101.412V52.8972H100.396V53.6157H101.412V56.459C101.412 57.4444 101.884 58.0911 102.911 58.0911C103.29 58.0911 103.619 58.0193 103.978 57.8653L103.763 57.1878Z" fill="#06335D"/>
<path d="M112.389 52.8972L111.044 57.0133L109.73 52.8972H109.042L107.728 57.0133L106.384 52.8972H105.552L107.318 58.0193H108.088L109.391 54.0776L110.685 58.0193H111.454L113.21 52.8972H112.389Z" fill="#06335D"/>
<path d="M117.305 58.1527C118.219 58.1527 118.917 57.7421 119.327 57.0852V58.0193H120.118V52.8972H119.327V53.821C118.917 53.1846 118.219 52.774 117.305 52.774C115.827 52.774 114.718 53.9134 114.718 55.4531C114.718 56.9928 115.827 58.1527 117.305 58.1527ZM117.418 57.4342C116.289 57.4342 115.498 56.5925 115.498 55.4634C115.498 54.324 116.289 53.4925 117.418 53.4925C118.475 53.4925 119.348 54.3342 119.348 55.4634C119.348 56.5925 118.475 57.4342 117.418 57.4342Z" fill="#06335D"/>
<path d="M123.572 53.7799V52.8972H122.782V58.0193H123.572V55.6276C123.572 54.016 124.301 53.4309 125.41 53.5746V52.8356C124.506 52.7124 123.88 53.1127 123.572 53.7799Z" fill="#06335D"/>
<path d="M129.57 58.1527C130.874 58.1527 131.654 57.4034 131.993 56.6746L131.264 56.459C131.017 56.9825 130.453 57.4547 129.57 57.4547C128.431 57.4547 127.722 56.7362 127.651 55.7097H132.023C132.044 55.5763 132.044 55.4839 132.044 55.3402C132.044 53.9134 131.11 52.774 129.478 52.774C127.917 52.774 126.87 53.9442 126.87 55.4531C126.87 57.0954 128 58.1527 129.57 58.1527ZM127.651 55.1246C127.722 54.2316 128.441 53.472 129.478 53.472C130.555 53.472 131.192 54.1597 131.264 55.1144L127.651 55.1246Z" fill="#06335D"/>
<path d="M140.929 58.1527C142.551 58.1527 143.66 57.1776 143.66 56.0279C143.66 54.9604 142.951 54.519 141.833 54.1597L140.088 53.6054C139.277 53.3488 138.969 53.0614 138.969 52.579C138.969 51.9733 139.605 51.4396 140.539 51.4396C141.597 51.4396 142.366 51.9323 142.715 52.6816L143.475 52.4455C143.064 51.4909 142.048 50.7005 140.55 50.7005C139.154 50.7005 138.148 51.5833 138.148 52.5995C138.148 53.472 138.784 53.975 139.739 54.2829L141.535 54.8577C142.51 55.1657 142.849 55.5147 142.849 56.069C142.849 56.7464 142.12 57.4137 140.97 57.4137C139.749 57.4137 138.856 56.6746 138.538 55.761L137.758 55.9971C138.127 57.1365 139.297 58.1527 140.929 58.1527Z" fill="#06335D"/>
<path d="M148.676 57.1878C148.409 57.3213 148.214 57.3623 147.947 57.3623C147.382 57.3623 147.115 57.0339 147.115 56.459V53.6157H148.871V52.8972H147.115V51.1316H146.325V52.8972H145.309V53.6157H146.325V56.459C146.325 57.4444 146.797 58.0911 147.824 58.0911C148.203 58.0911 148.532 58.0193 148.891 57.8653L148.676 57.1878Z" fill="#06335D"/>
<path d="M153.13 58.1527C154.043 58.1527 154.741 57.7421 155.152 57.0852V58.0193H155.942V52.8972H155.152V53.821C154.741 53.1846 154.043 52.774 153.13 52.774C151.652 52.774 150.543 53.9134 150.543 55.4531C150.543 56.9928 151.652 58.1527 153.13 58.1527ZM153.243 57.4342C152.114 57.4342 151.323 56.5925 151.323 55.4634C151.323 54.324 152.114 53.4925 153.243 53.4925C154.3 53.4925 155.172 54.3342 155.172 55.4634C155.172 56.5925 154.3 57.4342 153.243 57.4342Z" fill="#06335D"/>
<path d="M160.947 58.1527C162.261 58.1527 163.113 57.3315 163.318 56.6027L162.579 56.4077C162.415 56.9312 161.789 57.4342 160.947 57.4342C159.797 57.4342 159.058 56.5001 159.058 55.4634C159.058 54.3958 159.797 53.4823 160.947 53.4823C161.789 53.4823 162.415 54.016 162.579 54.5395L163.318 54.324C163.113 53.6157 162.261 52.774 160.947 52.774C159.407 52.774 158.278 53.9236 158.278 55.4428C158.278 56.9825 159.407 58.1527 160.947 58.1527Z" fill="#06335D"/>
<path d="M169.151 58.0193H170.085L167.694 55.1246L169.818 52.8972H168.843L166.4 55.4531V50.526H165.61V58.0193H166.4V56.4693L167.18 55.6584L169.151 58.0193Z" fill="#06335D"/>
<path d="M23.5752 51.5833V50.834H18.5146V58.0193H23.5649V57.2699H19.3256V54.7243H23.0517V54.0058H19.3256V51.5833H23.5752Z" stroke="#06335D" stroke-width="0.24058"/>
<path d="M30.5249 58.0193L28.4822 55.4326L30.4222 52.8972H29.4984L27.9587 54.8885L26.4087 52.8972H25.4849L27.4249 55.4326L25.3822 58.0193H26.3266L27.9587 55.9663L29.5805 58.0193H30.5249Z" stroke="#06335D" stroke-width="0.24058"/>
<path d="M34.7413 58.1527C36.0551 58.1527 36.9071 57.3315 37.1124 56.6027L36.3734 56.4077C36.2091 56.9312 35.583 57.4342 34.7413 57.4342C33.5916 57.4342 32.8526 56.5001 32.8526 55.4634C32.8526 54.3958 33.5916 53.4823 34.7413 53.4823C35.583 53.4823 36.2091 54.016 36.3734 54.5395L37.1124 54.324C36.9071 53.6157 36.0551 52.774 34.7413 52.774C33.2016 52.774 32.0724 53.9236 32.0724 55.4428C32.0724 56.9825 33.2016 58.1527 34.7413 58.1527Z" stroke="#06335D" stroke-width="0.24058"/>
<path d="M42.0935 52.774C41.2005 52.774 40.5538 53.2154 40.1946 53.8005V50.526H39.4042V58.0193H40.1946V55.4428C40.1946 54.2932 40.8926 53.5131 41.919 53.5131C42.8531 53.5131 43.3561 54.1289 43.3561 55.1246V58.0193H44.1465V55.0117C44.1465 53.6054 43.3664 52.774 42.0935 52.774Z" stroke="#06335D" stroke-width="0.24058"/>
<path d="M49.0266 58.1527C49.9401 58.1527 50.6381 57.7421 51.0487 57.0852V58.0193H51.8391V52.8972H51.0487V53.821C50.6381 53.1846 49.9401 52.774 49.0266 52.774C47.5484 52.774 46.4398 53.9134 46.4398 55.4531C46.4398 56.9928 47.5484 58.1527 49.0266 58.1527ZM49.1395 57.4342C48.0104 57.4342 47.22 56.5925 47.22 55.4634C47.22 54.324 48.0104 53.4925 49.1395 53.4925C50.1967 53.4925 51.0692 54.3342 51.0692 55.4634C51.0692 56.5925 50.1967 57.4342 49.1395 57.4342Z" stroke="#06335D" stroke-width="0.24058"/>
<path d="M57.1927 52.774C56.2997 52.774 55.653 53.2154 55.2937 53.8005V52.8972H54.5034V58.0193H55.2937V55.4428C55.2937 54.2932 55.9917 53.5131 57.0182 53.5131C57.9523 53.5131 58.4553 54.1289 58.4553 55.1246V58.0193H59.2457V55.0117C59.2457 53.6054 58.4655 52.774 57.1927 52.774Z" stroke="#06335D" stroke-width="0.24058"/>
<path d="M66.1376 52.8972V53.7491C65.727 53.1435 65.0188 52.774 64.1257 52.774C62.6271 52.774 61.539 53.8621 61.539 55.3607C61.539 56.8286 62.6271 57.9577 64.1257 57.9577C65.0188 57.9577 65.727 57.5779 66.1376 56.9723V57.8448C66.1171 58.8405 65.4909 59.6206 64.3926 59.6206C63.5612 59.6206 62.9966 59.2921 62.6476 58.707L61.9496 58.9636C62.3807 59.7335 63.1711 60.3083 64.3824 60.3083C65.8913 60.3083 66.9177 59.2613 66.9177 57.8448V52.8972H66.1376ZM64.2387 57.2392C63.1095 57.2392 62.3191 56.4385 62.3191 55.371C62.3191 54.2829 63.1095 53.4925 64.2387 53.4925C65.2959 53.4925 66.1479 54.2932 66.1479 55.371C66.1479 56.4385 65.2959 57.2392 64.2387 57.2392Z" stroke="#06335D" stroke-width="0.24058"/>
<path d="M71.9536 58.1527C73.2573 58.1527 74.0374 57.4034 74.3761 56.6746L73.6473 56.459C73.401 56.9825 72.8364 57.4547 71.9536 57.4547C70.8143 57.4547 70.106 56.7362 70.0341 55.7097H74.4069C74.4274 55.5763 74.4274 55.4839 74.4274 55.3402C74.4274 53.9134 73.4934 52.774 71.8613 52.774C70.301 52.774 69.254 53.9442 69.254 55.4531C69.254 57.0954 70.3831 58.1527 71.9536 58.1527ZM70.0341 55.1246C70.106 54.2316 70.8245 53.472 71.8613 53.472C72.9391 53.472 73.5755 54.1597 73.6473 55.1144L70.0341 55.1246Z" stroke="#06335D" stroke-width="0.24058"/>
<path d="M83.3129 58.1527C84.9348 58.1527 86.0434 57.1776 86.0434 56.0279C86.0434 54.9604 85.3351 54.519 84.2162 54.1597L82.4712 53.6054C81.6603 53.3488 81.3524 53.0614 81.3524 52.579C81.3524 51.9733 81.9888 51.4396 82.9229 51.4396C83.9801 51.4396 84.75 51.9323 85.099 52.6816L85.8586 52.4455C85.448 51.4909 84.4318 50.7005 82.9331 50.7005C81.5371 50.7005 80.5312 51.5833 80.5312 52.5995C80.5312 53.472 81.1676 53.975 82.1222 54.2829L83.9185 54.8577C84.8937 55.1657 85.2324 55.5147 85.2324 56.069C85.2324 56.7464 84.5036 57.4137 83.354 57.4137C82.1325 57.4137 81.2395 56.6746 80.9212 55.761L80.1411 55.9971C80.5107 57.1365 81.6808 58.1527 83.3129 58.1527Z" stroke="#06335D" stroke-width="0.24058"/>
<path d="M90.8486 58.1527C92.3986 58.1527 93.5482 56.9825 93.5482 55.4531C93.5482 53.9236 92.3986 52.774 90.8486 52.774C89.2986 52.774 88.1387 53.9236 88.1387 55.4531C88.1387 56.9825 89.2986 58.1527 90.8486 58.1527ZM90.8486 57.4239C89.74 57.4239 88.9086 56.5822 88.9086 55.4634C88.9086 54.3445 89.74 53.4925 90.8486 53.4925C91.9469 53.4925 92.7681 54.3445 92.7681 55.4634C92.7681 56.5822 91.9469 57.4239 90.8486 57.4239Z" stroke="#06335D" stroke-width="0.24058"/>
<path d="M97.066 52.2402C97.066 51.5114 97.3637 51.1008 97.9693 51.1008C98.2567 51.1008 98.4928 51.1522 98.7289 51.2753L98.9342 50.6081C98.6262 50.4542 98.2978 50.3926 97.8974 50.3926C96.8196 50.3926 96.2859 51.0803 96.2859 52.2197V52.8972H95.2081V53.6157H96.2859V58.0193H97.066V53.6157H98.9034V52.8972H97.066V52.2402Z" stroke="#06335D" stroke-width="0.24058"/>
<path d="M103.763 57.1878C103.496 57.3213 103.301 57.3623 103.034 57.3623C102.469 57.3623 102.202 57.0339 102.202 56.459V53.6157H103.958V52.8972H102.202V51.1316H101.412V52.8972H100.396V53.6157H101.412V56.459C101.412 57.4444 101.884 58.0911 102.911 58.0911C103.29 58.0911 103.619 58.0193 103.978 57.8653L103.763 57.1878Z" stroke="#06335D" stroke-width="0.24058"/>
<path d="M112.389 52.8972L111.044 57.0133L109.73 52.8972H109.042L107.728 57.0133L106.384 52.8972H105.552L107.318 58.0193H108.088L109.391 54.0776L110.685 58.0193H111.454L113.21 52.8972H112.389Z" stroke="#06335D" stroke-width="0.24058"/>
<path d="M117.305 58.1527C118.219 58.1527 118.917 57.7421 119.327 57.0852V58.0193H120.118V52.8972H119.327V53.821C118.917 53.1846 118.219 52.774 117.305 52.774C115.827 52.774 114.718 53.9134 114.718 55.4531C114.718 56.9928 115.827 58.1527 117.305 58.1527ZM117.418 57.4342C116.289 57.4342 115.498 56.5925 115.498 55.4634C115.498 54.324 116.289 53.4925 117.418 53.4925C118.475 53.4925 119.348 54.3342 119.348 55.4634C119.348 56.5925 118.475 57.4342 117.418 57.4342Z" stroke="#06335D" stroke-width="0.24058"/>
<path d="M123.572 53.7799V52.8972H122.782V58.0193H123.572V55.6276C123.572 54.016 124.301 53.4309 125.41 53.5746V52.8356C124.506 52.7124 123.88 53.1127 123.572 53.7799Z" stroke="#06335D" stroke-width="0.24058"/>
<path d="M129.57 58.1527C130.874 58.1527 131.654 57.4034 131.993 56.6746L131.264 56.459C131.017 56.9825 130.453 57.4547 129.57 57.4547C128.431 57.4547 127.722 56.7362 127.651 55.7097H132.023C132.044 55.5763 132.044 55.4839 132.044 55.3402C132.044 53.9134 131.11 52.774 129.478 52.774C127.917 52.774 126.87 53.9442 126.87 55.4531C126.87 57.0954 128 58.1527 129.57 58.1527ZM127.651 55.1246C127.722 54.2316 128.441 53.472 129.478 53.472C130.555 53.472 131.192 54.1597 131.264 55.1144L127.651 55.1246Z" stroke="#06335D" stroke-width="0.24058"/>
<path d="M140.929 58.1527C142.551 58.1527 143.66 57.1776 143.66 56.0279C143.66 54.9604 142.951 54.519 141.833 54.1597L140.088 53.6054C139.277 53.3488 138.969 53.0614 138.969 52.579C138.969 51.9733 139.605 51.4396 140.539 51.4396C141.597 51.4396 142.366 51.9323 142.715 52.6816L143.475 52.4455C143.064 51.4909 142.048 50.7005 140.55 50.7005C139.154 50.7005 138.148 51.5833 138.148 52.5995C138.148 53.472 138.784 53.975 139.739 54.2829L141.535 54.8577C142.51 55.1657 142.849 55.5147 142.849 56.069C142.849 56.7464 142.12 57.4137 140.97 57.4137C139.749 57.4137 138.856 56.6746 138.538 55.761L137.758 55.9971C138.127 57.1365 139.297 58.1527 140.929 58.1527Z" stroke="#06335D" stroke-width="0.24058"/>
<path d="M148.676 57.1878C148.409 57.3213 148.214 57.3623 147.947 57.3623C147.382 57.3623 147.115 57.0339 147.115 56.459V53.6157H148.871V52.8972H147.115V51.1316H146.325V52.8972H145.309V53.6157H146.325V56.459C146.325 57.4444 146.797 58.0911 147.824 58.0911C148.203 58.0911 148.532 58.0193 148.891 57.8653L148.676 57.1878Z" stroke="#06335D" stroke-width="0.24058"/>
<path d="M153.13 58.1527C154.043 58.1527 154.741 57.7421 155.152 57.0852V58.0193H155.942V52.8972H155.152V53.821C154.741 53.1846 154.043 52.774 153.13 52.774C151.652 52.774 150.543 53.9134 150.543 55.4531C150.543 56.9928 151.652 58.1527 153.13 58.1527ZM153.243 57.4342C152.114 57.4342 151.323 56.5925 151.323 55.4634C151.323 54.324 152.114 53.4925 153.243 53.4925C154.3 53.4925 155.172 54.3342 155.172 55.4634C155.172 56.5925 154.3 57.4342 153.243 57.4342Z" stroke="#06335D" stroke-width="0.24058"/>
<path d="M160.947 58.1527C162.261 58.1527 163.113 57.3315 163.318 56.6027L162.579 56.4077C162.415 56.9312 161.789 57.4342 160.947 57.4342C159.797 57.4342 159.058 56.5001 159.058 55.4634C159.058 54.3958 159.797 53.4823 160.947 53.4823C161.789 53.4823 162.415 54.016 162.579 54.5395L163.318 54.324C163.113 53.6157 162.261 52.774 160.947 52.774C159.407 52.774 158.278 53.9236 158.278 55.4428C158.278 56.9825 159.407 58.1527 160.947 58.1527Z" stroke="#06335D" stroke-width="0.24058"/>
<path d="M169.151 58.0193H170.085L167.694 55.1246L169.818 52.8972H168.843L166.4 55.4531V50.526H165.61V58.0193H166.4V56.4693L167.18 55.6584L169.151 58.0193Z" stroke="#06335D" stroke-width="0.24058"/>
<path d="M29.4195 19.8057C22.8155 19.8057 17.7451 24.563 17.7451 30.8854C17.7451 37.1764 22.8155 42.0277 29.4195 42.0277C36.0235 42.0277 41.0939 37.1764 41.0939 30.8854C41.0939 24.5943 36.0235 19.8057 29.4195 19.8057ZM29.4821 23.5615C33.4883 23.5615 36.8059 26.7539 36.8059 30.8854C36.8059 35.0168 33.4883 38.2718 29.4821 38.2718C25.4446 38.2718 22.033 35.0168 22.033 30.8854C22.033 26.7539 25.4133 23.5615 29.4821 23.5615Z" fill="#06335D"/>
<path d="M54.4769 24.9699C52.5991 24.9699 51.0381 25.5509 49.8733 26.6203C49.5257 26.9394 48.8432 26.7133 48.8432 26.2414V25.5682C48.8432 25.3069 48.6314 25.0951 48.3702 25.0951H45.2474C44.9861 25.0951 44.7744 25.3069 44.7744 25.5681V47.4388C44.7744 47.7 44.9861 47.9118 45.2474 47.9118H48.3702C48.6314 47.9118 48.8432 47.7 48.8432 47.4388V40.6903C48.8432 40.2213 49.5126 39.9971 49.8576 40.3147C51.041 41.4041 52.6198 41.9964 54.5395 41.9964C59.2969 41.9964 62.3955 38.5848 62.3955 33.5457C62.3955 28.4128 59.203 24.9699 54.4769 24.9699ZM53.5693 38.4909C50.7837 38.4909 48.8432 36.4252 48.8432 33.4205C48.8432 30.4785 50.7837 28.3815 53.5693 28.3815C56.3235 28.3815 58.2641 30.4785 58.2641 33.4205C58.2641 36.3939 56.3235 38.4909 53.5693 38.4909Z" fill="#06335D"/>
<path d="M72.9013 24.9699C67.8935 24.9699 64.3881 28.4128 64.3881 33.5144C64.3881 38.5535 67.7996 41.9964 72.9952 41.9964C75.7606 41.9964 78.0835 41.0562 79.7301 39.4357C79.9077 39.261 79.9033 38.9771 79.7309 38.7973L78.1851 37.1853C78 36.9922 77.6927 36.9925 77.4917 37.1691C76.3484 38.1733 74.8951 38.71 73.3394 38.71C71.0996 38.71 69.3866 37.498 68.7083 35.4609C68.6126 35.1735 68.8384 34.8916 69.1413 34.8916H80.4713C80.7203 34.8916 80.9274 34.6974 80.9383 34.4487C81.1942 28.6331 78.641 24.9699 72.9013 24.9699ZM69.0072 32.1686C68.7176 32.1686 68.4945 31.9097 68.5632 31.6284C69.0898 29.4703 70.7032 28.1311 72.9326 28.1311C75.296 28.1311 76.8978 29.4912 77.18 31.6788C77.2144 31.9448 76.9974 32.1686 76.7291 32.1686H69.0072Z" fill="#06335D"/>
<path d="M94.5222 24.9386C92.5147 24.9617 90.8474 25.5292 89.6332 26.7163C89.2814 27.0603 88.5129 26.8308 88.5129 26.3387V25.5681C88.5129 25.3069 88.3011 25.0951 88.0399 25.0951H84.9171C84.6559 25.0951 84.4441 25.3069 84.4441 25.5681V41.3668C84.4441 41.6281 84.6559 41.8399 84.9171 41.8399H88.0399C88.3011 41.8399 88.5129 41.6281 88.5129 41.3668V33.6083C88.5129 30.8541 90.1404 28.8197 92.8947 28.7884C95.2108 28.7884 96.6192 30.2281 96.6192 32.5755V41.3668C96.6192 41.6281 96.831 41.8399 97.0923 41.8399H100.246C100.508 41.8399 100.719 41.6281 100.719 41.3668V31.3861C100.719 27.4112 98.3719 24.9386 94.5222 24.9386Z" fill="#06335D"/>
<path d="M114.554 19.9309H105.919C105.658 19.9309 105.446 20.1426 105.446 20.4039V41.3668C105.446 41.6281 105.658 41.8399 105.919 41.8399H114.397C121.158 41.8399 125.978 37.2703 125.978 30.8854C125.978 24.4692 121.189 19.9309 114.554 19.9309ZM114.648 38.1466H110.113C109.852 38.1466 109.64 37.9348 109.64 37.6736V24.0971C109.64 23.8359 109.852 23.6241 110.113 23.6241H114.491C118.591 23.6241 121.69 26.6288 121.69 30.9167C121.69 35.1733 118.685 38.1466 114.648 38.1466Z" fill="#06335D"/>
<path d="M145.194 41.5496C145.268 41.7254 145.44 41.8399 145.631 41.8399H149.103C149.443 41.8399 149.672 41.4913 149.537 41.1789L140.463 20.216C140.388 20.0429 140.217 19.9309 140.029 19.9309H136.298C136.11 19.9309 135.94 20.0419 135.865 20.2139L126.671 41.1768C126.534 41.4894 126.763 41.8399 127.104 41.8399H130.416C130.607 41.8399 130.779 41.7254 130.852 41.5496L132.55 37.4979C132.623 37.3221 132.795 37.2077 132.986 37.2077H143.061C143.251 37.2077 143.423 37.3221 143.497 37.4979L145.194 41.5496ZM134.886 33.6083C134.548 33.6083 134.319 33.2633 134.451 32.9515L137.615 25.4483C137.778 25.0615 138.327 25.0631 138.488 25.4509L141.602 32.954C141.731 33.2655 141.502 33.6083 141.165 33.6083H134.886Z" fill="#06335D"/>
<path d="M166.115 41.6407C166.204 41.7656 166.348 41.8399 166.501 41.8399H170.376C170.761 41.8399 170.984 41.4046 170.76 41.0915L155.757 20.1286C155.668 20.0045 155.525 19.9309 155.372 19.9309H151.617C151.233 19.9309 151.009 20.3645 151.232 20.6777L166.115 41.6407Z" fill="#06335D"/>
<path d="M150.735 41.0918C150.512 41.4049 150.735 41.8397 151.12 41.8397H154.869C155.023 41.8397 155.168 41.7647 155.256 41.6386L169.959 20.7108C170.179 20.3973 169.955 19.9658 169.572 19.9658H166.065C165.912 19.9658 165.769 20.0396 165.68 20.164L150.735 41.0918Z" fill="#FCD000"/>
<path d="M172.142 23.2889C172.479 23.905 172.213 24.0629 171.934 24.0629H168.673C168.403 24.0629 167.997 23.9829 167.816 23.6759L165.857 20.7374C165.558 20.2556 165.64 19.9634 166.112 19.9634H169.474C169.773 19.9634 170.02 20.0976 170.174 20.3504L172.142 23.2889Z" fill="#06335D"/>
<path d="M166.115 41.6732C166.204 41.7981 166.348 41.8724 166.501 41.8724H170.375C170.76 41.8724 170.984 41.4371 170.76 41.124L155.757 20.1611C155.668 20.037 155.525 19.9634 155.372 19.9634H151.617C151.233 19.9634 151.009 20.397 151.231 20.7103L166.115 41.6732Z" fill="#06335D"/>
<path d="M177.537 24.1783H178.611V20.7199H180.019V19.7158H176.143V20.7199H177.537V24.1783ZM180.48 24.1783H181.511V21.4171L182.92 23.3137L184.273 21.4171V24.1783H185.332V19.7158H184.231L182.906 21.6542L181.553 19.7158H180.48V24.1783Z" fill="#06335D"/>
</svg>
