<svg width="310" height="106" viewBox="0 0 310 106" fill="none" xmlns="http://www.w3.org/2000/svg">
<g filter="url(#filter0_ddd)">
<path d="M5 10C5 5.58172 8.58172 2 13 2H297C301.418 2 305 5.58172 305 10V89C305 93.4183 301.418 97 297 97H13C8.58171 97 5 93.4183 5 89V10Z" fill="white"/>
</g>
<path d="M61.649 69.3826C63.9412 69.3826 65.4999 68.0217 65.9845 66.5154L64.6092 66.1587C64.2425 67.2025 63.1422 68.0349 61.6359 68.0349C59.6188 68.0349 58.309 66.4361 58.309 64.5599C58.309 62.6969 59.6188 61.1246 61.6359 61.1246C63.1553 61.1246 64.2425 61.9966 64.6223 63.0272L65.9976 62.6837C65.513 61.1642 63.9543 59.79 61.6359 59.79C58.9115 59.79 56.8682 61.8513 56.8682 64.5731C56.8682 67.3082 58.9115 69.3826 61.649 69.3826Z" fill="#003568"/>
<path d="M70.285 63.6218V62.5648H68.9097V69.2108H70.285V66.2115C70.285 64.2824 71.1364 63.5689 72.5379 63.7803V62.4855C71.4507 62.3401 70.6779 62.8158 70.285 63.6218Z" fill="#003568"/>
<path d="M80.2512 62.5648L78.2079 67.5064L76.0074 62.5648H74.5142L77.5268 69.0655L76.2955 71.9856H77.7101L81.7182 62.5648H80.2512Z" fill="#003568"/>
<path d="M87.855 62.393C86.8072 62.393 85.9951 62.8554 85.4974 63.5689V62.5648H84.122V71.9856H85.4974V68.2067C85.9951 68.9202 86.8072 69.3826 87.855 69.3826C89.715 69.3826 91.1427 67.8896 91.1427 65.8812C91.1427 63.886 89.715 62.393 87.855 62.393ZM87.6324 68.1406C86.4273 68.1406 85.4581 67.1893 85.4581 65.8812C85.4581 64.5863 86.4273 63.635 87.6324 63.635C88.8898 63.635 89.7805 64.5731 89.7805 65.8812C89.7805 67.1893 88.8898 68.1406 87.6324 68.1406Z" fill="#003568"/>
<path d="M97.4941 67.8631C97.1929 68.0085 96.9571 68.0745 96.6296 68.0745C96.0009 68.0745 95.6866 67.7046 95.6866 67.0571V63.7936H97.7823V62.5648H95.6866V60.345H94.3244V62.5648H93.1193V63.7936H94.3244V67.0571C94.3244 68.4181 94.9662 69.3165 96.3808 69.3165C96.9047 69.3165 97.3369 69.2108 97.8347 68.9994L97.4941 67.8631Z" fill="#003568"/>
<path d="M103.347 69.3826C105.364 69.3826 106.844 67.8763 106.844 65.8812C106.844 63.8993 105.364 62.393 103.347 62.393C101.329 62.393 99.8494 63.8993 99.8494 65.8812C99.8494 67.8763 101.329 69.3826 103.347 69.3826ZM103.347 68.1274C102.089 68.1274 101.185 67.1628 101.185 65.8944C101.185 64.6128 102.089 63.6482 103.347 63.6482C104.604 63.6482 105.508 64.6128 105.508 65.8944C105.508 67.1628 104.604 68.1274 103.347 68.1274Z" fill="#003568"/>
<path d="M121.059 61.2567V59.9618H114.457V69.2108H121.046V67.9028H115.859V65.1281H120.391V63.886H115.859V61.2567H121.059Z" fill="#003568"/>
<path d="M130.058 69.2108L127.517 65.8548L129.94 62.5648H128.368L126.665 64.8638L124.949 62.5648H123.378L125.801 65.8548L123.26 69.2108H124.845L126.665 66.8325L128.473 69.2108H130.058Z" fill="#003568"/>
<path d="M135.344 69.3826C137.099 69.3826 138.212 68.2727 138.461 67.3082L137.191 66.9514C137.007 67.5592 136.3 68.1406 135.344 68.1406C134.06 68.1406 133.222 67.0836 133.222 65.8812C133.222 64.6656 134.06 63.635 135.344 63.635C136.3 63.635 137.007 64.256 137.191 64.8638L138.461 64.4938C138.212 63.5293 137.099 62.393 135.331 62.393C133.34 62.393 131.886 63.8993 131.886 65.8812C131.886 67.8631 133.34 69.3826 135.344 69.3826Z" fill="#003568"/>
<path d="M144.895 62.393C143.847 62.393 143.088 62.8951 142.629 63.5557V59.5654H141.254V69.2108H142.629V65.9076C142.629 64.5731 143.376 63.6879 144.529 63.6879C145.603 63.6879 146.153 64.4014 146.153 65.5641V69.2108H147.515V65.313C147.515 63.5161 146.585 62.393 144.895 62.393Z" fill="#003568"/>
<path d="M153.596 69.3826C154.657 69.3826 155.469 68.9202 155.967 68.2067V69.2108H157.329V62.5648H155.967V63.5689C155.469 62.8554 154.657 62.393 153.596 62.393C151.736 62.393 150.322 63.886 150.322 65.8812C150.322 67.8896 151.736 69.3826 153.596 69.3826ZM153.819 68.1406C152.561 68.1406 151.671 67.1893 151.671 65.8812C151.671 64.5731 152.561 63.635 153.819 63.635C155.024 63.635 155.993 64.5863 155.993 65.8812C155.993 67.1893 155.024 68.1406 153.819 68.1406Z" fill="#003568"/>
<path d="M164.239 62.393C163.191 62.393 162.432 62.8951 161.973 63.5557V62.5648H160.598V69.2108H161.973V65.9076C161.973 64.5731 162.72 63.6879 163.872 63.6879C164.947 63.6879 165.497 64.4014 165.497 65.5641V69.2108H166.859V65.313C166.859 63.5161 165.929 62.393 164.239 62.393Z" fill="#003568"/>
<path d="M175.272 62.5648V63.5029C174.761 62.8158 173.962 62.393 172.953 62.393C171.041 62.393 169.666 63.7936 169.666 65.7623C169.666 67.6649 171.041 69.1316 172.953 69.1316C173.962 69.1316 174.761 68.7088 175.272 68.0085V68.9862C175.259 70.1225 174.591 70.9946 173.333 70.9946C172.39 70.9946 171.761 70.6378 171.368 69.9772L170.163 70.4264C170.713 71.4174 171.722 72.1573 173.307 72.1573C175.311 72.1573 176.647 70.8228 176.647 68.973V62.5648H175.272ZM173.163 67.8896C171.892 67.8896 171.015 66.9911 171.015 65.7623C171.015 64.5335 171.892 63.6482 173.163 63.6482C174.381 63.6482 175.311 64.5335 175.311 65.7623C175.311 66.9911 174.381 67.8896 173.163 67.8896Z" fill="#003568"/>
<path d="M183.021 69.3826C184.736 69.3826 185.771 68.3916 186.177 67.4932L184.92 67.1232C184.645 67.7046 184.029 68.1935 183.047 68.1935C181.711 68.1935 180.951 67.4139 180.859 66.3172H186.217C186.243 66.119 186.256 65.9605 186.256 65.7623C186.256 63.886 185.038 62.393 182.903 62.393C180.859 62.393 179.51 63.9125 179.51 65.8944C179.51 67.9953 180.964 69.3826 183.021 69.3826ZM180.859 65.3923C180.951 64.441 181.724 63.5822 182.903 63.5822C184.108 63.5822 184.828 64.3617 184.907 65.3791L180.859 65.3923Z" fill="#003568"/>
<path d="M200.372 61.2699V59.9618H193.862V69.2108H195.29V65.313H199.704V64.0446H195.29V61.2699H200.372Z" fill="#003568"/>
<path d="M205.724 69.3826C207.741 69.3826 209.221 67.8763 209.221 65.8812C209.221 63.8993 207.741 62.393 205.724 62.393C203.707 62.393 202.227 63.8993 202.227 65.8812C202.227 67.8763 203.707 69.3826 205.724 69.3826ZM205.724 68.1274C204.466 68.1274 203.563 67.1628 203.563 65.8944C203.563 64.6128 204.466 63.6482 205.724 63.6482C206.981 63.6482 207.885 64.6128 207.885 65.8944C207.885 67.1628 206.981 68.1274 205.724 68.1274Z" fill="#003568"/>
<path d="M216.914 62.5648V65.868C216.914 67.2025 216.154 68.0877 215.015 68.0877C213.941 68.0877 213.391 67.3743 213.391 66.2115V62.5648H212.015V66.4626C212.015 68.2595 212.958 69.3826 214.635 69.3826C215.683 69.3826 216.456 68.8805 216.914 68.2067V69.2108H218.276V62.5648H216.914Z" fill="#003568"/>
<path d="M225.196 62.393C224.148 62.393 223.388 62.8951 222.93 63.5557V62.5648H221.554V69.2108H222.93V65.9076C222.93 64.5731 223.676 63.6879 224.829 63.6879C225.903 63.6879 226.453 64.4014 226.453 65.5641V69.2108H227.815V65.313C227.815 63.5161 226.885 62.393 225.196 62.393Z" fill="#003568"/>
<path d="M236.267 59.5654V63.5689C235.77 62.8554 234.958 62.393 233.897 62.393C232.037 62.393 230.622 63.886 230.622 65.8812C230.622 67.8896 232.037 69.3826 233.897 69.3826C234.958 69.3826 235.77 68.9202 236.267 68.2067V69.2108H237.63V59.5654H236.267ZM234.119 68.1406C232.862 68.1406 231.971 67.1893 231.971 65.8812C231.971 64.5731 232.862 63.635 234.119 63.635C235.324 63.635 236.294 64.5863 236.294 65.8812C236.294 67.1893 235.324 68.1406 234.119 68.1406Z" fill="#003568"/>
<path d="M242.274 63.6218V62.5648H240.898V69.2108H242.274V66.2115C242.274 64.2824 243.125 63.5689 244.527 63.7803V62.4855C243.439 62.3401 242.667 62.8158 242.274 63.6218Z" fill="#003568"/>
<path d="M252.24 62.5648L250.197 67.5064L247.996 62.5648H246.503L249.516 69.0655L248.284 71.9856H249.699L253.707 62.5648H252.24Z" fill="#003568"/>
<path d="M67.2409 48.6598C65.1012 48.6598 63.1725 48.1977 61.4647 47.2735C59.747 46.3493 58.4009 45.0735 57.4265 43.4361C56.4721 41.7786 56 39.9001 56 37.8207C56 35.7312 56.4721 33.8728 57.4265 32.2354C58.4009 30.598 59.747 29.3222 61.4647 28.398C63.1825 27.4738 65.1113 27.0117 67.2409 27.0117C69.4007 27.0117 71.3495 27.4738 73.0572 28.398C74.775 29.3222 76.101 30.598 77.0554 32.2354C78.0298 33.8728 78.522 35.7312 78.522 37.8207C78.522 39.9101 78.0298 41.7786 77.0554 43.4461C76.101 45.0836 74.775 46.3593 73.0572 47.2835C71.3495 48.2077 69.4107 48.6598 67.2409 48.6598ZM67.2409 44.4306C69.0591 44.4306 70.566 43.8279 71.7513 42.6124C72.9367 41.3969 73.5294 39.7996 73.5294 37.8207C73.5294 35.8417 72.9367 34.2445 71.7513 33.029C70.566 31.8135 69.0591 31.2107 67.2409 31.2107C65.4227 31.2107 63.9158 31.8135 62.7305 33.029C61.5652 34.2445 60.9926 35.8417 60.9926 37.8207C60.9926 39.7996 61.5752 41.3969 62.7305 42.6124C63.9158 43.8178 65.4227 44.4306 67.2409 44.4306Z" fill="#003568"/>
<path d="M94.392 27.0098C96.4514 27.0098 98.2897 27.4618 99.897 28.3559C101.534 29.2499 102.81 30.5156 103.734 32.1531C104.659 33.7905 105.121 35.679 105.121 37.8187C105.121 39.9584 104.659 41.857 103.734 43.5246C102.81 45.162 101.534 46.4277 99.897 47.3218C98.2897 48.2158 96.4514 48.6679 94.392 48.6679C92.1619 48.6679 90.2935 48.0852 88.7866 46.9199C88.3446 46.5784 87.6214 46.8697 87.6214 47.4222V55.4686C87.6214 55.8001 87.3501 56.0714 87.0186 56.0714H83.2717C82.9402 56.0714 82.6689 55.8001 82.6689 55.4686V27.8435C82.6689 27.512 82.9402 27.2408 83.2717 27.2408H86.7776C87.1091 27.2408 87.3803 27.512 87.3803 27.8435V28.3157C87.3803 28.8782 88.1337 29.1695 88.5757 28.818C89.1182 28.386 89.7209 28.0244 90.3839 27.7531C91.6094 27.2609 92.9354 27.0098 94.392 27.0098ZM93.8395 44.4287C95.6578 44.4287 97.1545 43.8259 98.3098 42.6104C99.4951 41.3949 100.088 39.7977 100.088 37.8187C100.088 35.8398 99.4951 34.2425 98.3098 33.027C97.1445 31.8115 95.6578 31.2088 93.8395 31.2088C92.6542 31.2088 91.5793 31.4901 90.635 32.0426C89.6807 32.575 88.9373 33.3384 88.3748 34.343C87.8122 35.3475 87.541 36.5028 87.541 37.8288C87.541 39.1447 87.8223 40.31 88.3748 41.3145C88.9273 42.3191 89.6807 43.0926 90.635 43.6551C91.5793 44.1574 92.6441 44.4287 93.8395 44.4287Z" fill="#003568"/>
<path d="M130.678 37.9292C130.678 38.1603 130.668 38.4717 130.638 38.8434C130.618 39.1548 130.357 39.3959 130.046 39.3959H114.736C114.355 39.3959 114.073 39.7374 114.184 40.099C114.555 41.3346 115.249 42.3392 116.273 43.1127C117.519 44.0067 119.046 44.4588 120.864 44.4588C122.953 44.4588 124.701 43.846 126.128 42.6104C126.389 42.3794 126.801 42.3894 127.032 42.6606L128.92 44.8305C129.111 45.0515 129.121 45.383 128.92 45.604C128.026 46.5483 126.942 47.2816 125.656 47.7939C124.199 48.3765 122.572 48.6679 120.743 48.6679C118.423 48.6679 116.374 48.2058 114.606 47.2816C112.838 46.3574 111.461 45.0816 110.487 43.4442C109.533 41.7766 109.061 39.9082 109.061 37.8187C109.061 35.7594 109.523 33.911 110.447 32.2736C111.401 30.6061 112.707 29.3202 114.365 28.396C116.032 27.4719 117.901 27.0098 119.99 27.0098C122.049 27.0098 123.888 27.4719 125.495 28.396C127.132 29.2901 128.398 30.5759 129.292 32.2334C130.216 33.8708 130.678 35.7694 130.678 37.9292ZM119.99 30.9677C118.403 30.9677 117.057 31.4398 115.952 32.3941C115.038 33.1777 114.425 34.1923 114.113 35.4279C114.023 35.7895 114.304 36.111 114.676 36.111H125.284C125.646 36.111 125.937 35.7895 125.847 35.4279C125.555 34.2023 124.953 33.1877 124.038 32.3841C122.953 31.4398 121.597 30.9677 119.99 30.9677Z" fill="#003568"/>
<path d="M147.434 27.0098C150.096 27.0098 152.236 27.7933 153.853 29.3504C155.46 30.9074 156.264 33.2179 156.264 36.2818V47.7939C156.264 48.1254 155.993 48.3966 155.661 48.3966H151.914C151.583 48.3966 151.312 48.1254 151.312 47.7939V36.9046C151.312 35.0562 150.88 33.6699 150.006 32.7457C149.132 31.7914 147.896 31.3193 146.289 31.3193C144.471 31.3193 143.024 31.8718 141.969 32.9868C140.915 34.0617 140.382 35.6388 140.382 37.6982V47.7838C140.382 48.1153 140.111 48.3866 139.779 48.3866H136.032C135.701 48.3866 135.43 48.1153 135.43 47.7838V27.8435C135.43 27.512 135.701 27.2408 136.032 27.2408H139.538C139.87 27.2408 140.141 27.512 140.141 27.8435V28.3157C140.141 28.8782 140.884 29.1695 141.336 28.828C141.899 28.396 142.532 28.0344 143.235 27.7531C144.481 27.2609 145.877 27.0098 147.434 27.0098Z" fill="#003568"/>
<path d="M202.332 27.0098C205.446 27.0098 207.827 27.7632 209.454 29.27C211.122 30.7467 211.945 32.9868 211.945 36.0005V47.7939C211.945 48.1254 211.674 48.3966 211.343 48.3966H207.867C207.535 48.3966 207.274 48.1354 207.274 47.8039C207.274 47.2113 206.39 46.8998 205.908 47.2414C205.536 47.5126 205.114 47.7537 204.662 47.9546C203.557 48.4268 202.211 48.6679 200.624 48.6679C199.037 48.6679 197.651 48.4067 196.465 47.8743C195.28 47.3218 194.356 46.5683 193.693 45.614C193.06 44.6396 192.738 43.5446 192.738 42.3291C192.738 40.4305 193.441 38.9137 194.838 37.7785C196.264 36.6133 198.494 36.0407 201.528 36.0407H206.671C206.842 36.0407 206.993 35.9 206.993 35.7192C206.993 34.2425 206.541 33.1074 205.647 32.3138C204.773 31.5202 203.467 31.1284 201.729 31.1284C200.544 31.1284 199.368 31.3092 198.203 31.6809C197.339 31.9622 196.566 32.3339 195.903 32.7859C195.591 32.9969 195.139 32.9165 194.968 32.575L193.622 30.0736C193.482 29.8125 193.552 29.491 193.793 29.3202C194.818 28.617 196.013 28.0746 197.379 27.6828C198.936 27.2308 200.584 27.0098 202.332 27.0098ZM201.649 45.0615C202.894 45.0615 203.989 44.7802 204.934 44.2277C205.878 43.6652 206.551 42.8816 206.953 41.8771C206.983 41.8068 206.993 41.7365 206.993 41.6661V39.9283C206.993 39.5968 206.722 39.3255 206.39 39.3255H201.89C199.037 39.3255 197.61 40.2598 197.61 42.1383C197.61 43.0323 197.972 43.7456 198.675 44.278C199.398 44.8003 200.383 45.0615 201.649 45.0615Z" fill="#003568"/>
<path d="M222.223 28.2758C222.223 28.8785 223.117 29.1799 223.579 28.7981C224.936 27.6931 226.784 27.1004 229.145 27.01C229.476 27 229.747 27.2712 229.747 27.6027V30.9881C229.747 31.3698 229.406 31.6511 229.024 31.6109C228.873 31.6008 228.733 31.5908 228.592 31.5908C226.663 31.5908 225.157 32.1533 224.082 33.2885C222.997 34.3935 222.454 36.0108 222.454 38.1203V47.7741C222.454 48.1056 222.183 48.3768 221.852 48.3768H218.105C217.773 48.3768 217.502 48.1056 217.502 47.7741V27.8438C217.502 27.5123 217.773 27.2411 218.105 27.2411H221.611C221.942 27.2411 222.213 27.5123 222.213 27.8438L222.223 28.2758Z" fill="#003568"/>
<path d="M253.996 37.9292C253.996 38.1603 253.986 38.4717 253.956 38.8434C253.936 39.1548 253.674 39.3959 253.363 39.3959H238.054C237.672 39.3959 237.391 39.7374 237.501 40.099C237.873 41.3346 238.566 42.3392 239.591 43.1127C240.826 44.0067 242.363 44.4588 244.181 44.4588C246.271 44.4588 248.019 43.846 249.445 42.6104C249.706 42.3794 250.118 42.3894 250.349 42.6606L252.238 44.8305C252.429 45.0515 252.439 45.383 252.238 45.604C251.344 46.5483 250.259 47.2816 248.973 47.7939C247.527 48.3765 245.889 48.6679 244.061 48.6679C241.74 48.6679 239.691 48.2058 237.923 47.2816C236.155 46.3574 234.779 45.0816 233.804 43.4442C232.85 41.7766 232.378 39.9082 232.378 37.8187C232.378 35.7594 232.84 33.911 233.764 32.2736C234.719 30.6061 236.024 29.3202 237.682 28.396C239.349 27.4719 241.218 27.0098 243.307 27.0098C245.367 27.0098 247.205 27.4719 248.812 28.396C250.45 29.2901 251.715 30.5759 252.61 32.2334C253.534 33.8708 253.996 35.7694 253.996 37.9292ZM243.307 30.9677C241.72 30.9677 240.374 31.4398 239.269 32.3941C238.355 33.1777 237.742 34.1923 237.431 35.4279C237.34 35.7895 237.622 36.111 237.993 36.111H248.591C248.953 36.111 249.244 35.7895 249.154 35.4279C248.863 34.2023 248.26 33.1877 247.346 32.3841C246.261 31.4398 244.915 30.9677 243.307 30.9677Z" fill="#003568"/>
<path d="M182.602 27.3114C182.823 27.01 183.054 27 183.375 27L187.062 27.0201C187.554 27.0201 188.087 27.4822 187.916 27.9744L174.194 47.7841C173.802 48.3165 173.33 48.2663 173.008 48.2663L169.091 48.2462C168.799 48.2462 168.428 47.7741 168.739 47.322L182.602 27.3114Z" fill="#FCD000"/>
<path d="M173.873 47.2919C174.135 47.9248 173.964 48.2764 173.683 48.2764H169.102C168.8 48.2764 168.539 48.0754 168.439 47.7841L159.257 27.9845C159.097 27.4922 159.448 27 159.92 27H163.848C164.149 27 164.411 27.2009 164.531 27.4922L173.873 47.2919Z" fill="#003568"/>
<path d="M185.997 47.2919C186.258 47.9248 186.087 48.2764 185.806 48.2764H180.964C180.683 48.2764 180.402 48.0754 180.301 47.7841L170.798 27.9845C170.627 27.4922 170.959 27 171.461 27H175.66C175.972 27 176.223 27.2009 176.323 27.4922L185.997 47.2919Z" fill="#003568"/>
<path d="M190.257 31.631C190.608 32.4145 190.166 32.6154 189.875 32.6154H185.897C185.616 32.6154 185.144 32.4447 185.003 32.1232L182.713 27.9845C182.401 27.3717 182.642 27 183.134 27H187.062C187.374 27 187.796 27.1708 187.956 27.4922L190.257 31.631Z" fill="#003568"/>
<defs>
<filter id="filter0_ddd" x="0" y="0" width="310" height="106" filterUnits="userSpaceOnUse" color-interpolation-filters="sRGB">
<feFlood flood-opacity="0" result="BackgroundImageFix"/>
<feColorMatrix in="SourceAlpha" type="matrix" values="0 0 0 0 0 0 0 0 0 0 0 0 0 0 0 0 0 0 127 0" result="hardAlpha"/>
<feMorphology radius="1" operator="erode" in="SourceAlpha" result="effect1_dropShadow"/>
<feOffset dy="2"/>
<feGaussianBlur stdDeviation="2"/>
<feColorMatrix type="matrix" values="0 0 0 0 0 0 0 0 0 0 0 0 0 0 0 0 0 0 0.04 0"/>
<feBlend mode="normal" in2="BackgroundImageFix" result="effect1_dropShadow"/>
<feColorMatrix in="SourceAlpha" type="matrix" values="0 0 0 0 0 0 0 0 0 0 0 0 0 0 0 0 0 0 127 0" result="hardAlpha"/>
<feMorphology radius="1" operator="erode" in="SourceAlpha" result="effect2_dropShadow"/>
<feOffset dy="4"/>
<feGaussianBlur stdDeviation="3"/>
<feColorMatrix type="matrix" values="0 0 0 0 0 0 0 0 0 0 0 0 0 0 0 0 0 0 0.1 0"/>
<feBlend mode="normal" in2="effect1_dropShadow" result="effect2_dropShadow"/>
<feColorMatrix in="SourceAlpha" type="matrix" values="0 0 0 0 0 0 0 0 0 0 0 0 0 0 0 0 0 0 127 0" result="hardAlpha"/>
<feOffset/>
<feGaussianBlur stdDeviation="1"/>
<feColorMatrix type="matrix" values="0 0 0 0 0 0 0 0 0 0 0 0 0 0 0 0 0 0 0.12 0"/>
<feBlend mode="normal" in2="effect2_dropShadow" result="effect3_dropShadow"/>
<feBlend mode="normal" in="SourceGraphic" in2="effect3_dropShadow" result="shape"/>
</filter>
</defs>
</svg>
