<svg width="198" height="78" viewBox="0 0 198 78" fill="none" xmlns="http://www.w3.org/2000/svg">
<rect x="0.793945" width="197.161" height="77.8785" rx="7.88644" fill="white"/>
<path d="M24.3691 51.5833V50.834H19.3086V58.0193H24.3588V57.2699H20.1195V54.7243H23.8456V54.0058H20.1195V51.5833H24.3691Z" fill="#0030AE"/>
<path d="M31.3188 58.0193L29.2761 55.4326L31.2162 52.8972H30.2923L28.7526 54.8885L27.2027 52.8972H26.2788L28.2189 55.4326L26.1762 58.0193H27.1205L28.7526 55.9663L30.3745 58.0193H31.3188Z" fill="#0030AE"/>
<path d="M35.5352 58.1527C36.8491 58.1527 37.7011 57.3315 37.9064 56.6027L37.1673 56.4077C37.0031 56.9312 36.3769 57.4342 35.5352 57.4342C34.3856 57.4342 33.6465 56.5001 33.6465 55.4634C33.6465 54.3958 34.3856 53.4823 35.5352 53.4823C36.3769 53.4823 37.0031 54.016 37.1673 54.5395L37.9064 54.324C37.7011 53.6157 36.8491 52.774 35.5352 52.774C33.9955 52.774 32.8664 53.9236 32.8664 55.4428C32.8664 56.9825 33.9955 58.1527 35.5352 58.1527Z" fill="#0030AE"/>
<path d="M42.8875 52.774C41.9945 52.774 41.3478 53.2154 40.9885 53.8005V50.526H40.1981V58.0193H40.9885V55.4428C40.9885 54.2932 41.6865 53.5131 42.713 53.5131C43.6471 53.5131 44.15 54.1289 44.15 55.1246V58.0193H44.9404V55.0117C44.9404 53.6054 44.1603 52.774 42.8875 52.774Z" fill="#0030AE"/>
<path d="M49.8205 58.1527C50.7341 58.1527 51.4321 57.7421 51.8427 57.0852V58.0193H52.633V52.8972H51.8427V53.821C51.4321 53.1846 50.7341 52.774 49.8205 52.774C48.3424 52.774 47.2338 53.9134 47.2338 55.4531C47.2338 56.9928 48.3424 58.1527 49.8205 58.1527ZM49.9334 57.4342C48.8043 57.4342 48.0139 56.5925 48.0139 55.4634C48.0139 54.324 48.8043 53.4925 49.9334 53.4925C50.9907 53.4925 51.8632 54.3342 51.8632 55.4634C51.8632 56.5925 50.9907 57.4342 49.9334 57.4342Z" fill="#0030AE"/>
<path d="M57.9867 52.774C57.0936 52.774 56.447 53.2154 56.0877 53.8005V52.8972H55.2973V58.0193H56.0877V55.4428C56.0877 54.2932 56.7857 53.5131 57.8122 53.5131C58.7463 53.5131 59.2492 54.1289 59.2492 55.1246V58.0193H60.0396V55.0117C60.0396 53.6054 59.2595 52.774 57.9867 52.774Z" fill="#0030AE"/>
<path d="M66.9316 52.8972V53.7491C66.521 53.1435 65.8127 52.774 64.9197 52.774C63.421 52.774 62.333 53.8621 62.333 55.3607C62.333 56.8286 63.421 57.9577 64.9197 57.9577C65.8127 57.9577 66.521 57.5779 66.9316 56.9723V57.8448C66.911 58.8405 66.2849 59.6206 65.1866 59.6206C64.3551 59.6206 63.7906 59.2921 63.4416 58.707L62.7436 58.9636C63.1747 59.7335 63.9651 60.3083 65.1763 60.3083C66.6852 60.3083 67.7117 59.2613 67.7117 57.8448V52.8972H66.9316ZM65.0326 57.2392C63.9035 57.2392 63.1131 56.4385 63.1131 55.371C63.1131 54.2829 63.9035 53.4925 65.0326 53.4925C66.0899 53.4925 66.9418 54.2932 66.9418 55.371C66.9418 56.4385 66.0899 57.2392 65.0326 57.2392Z" fill="#0030AE"/>
<path d="M72.7476 58.1527C74.0512 58.1527 74.8313 57.4034 75.1701 56.6746L74.4413 56.459C74.1949 56.9825 73.6304 57.4547 72.7476 57.4547C71.6082 57.4547 70.8999 56.7362 70.8281 55.7097H75.2009C75.2214 55.5763 75.2214 55.4839 75.2214 55.3402C75.2214 53.9134 74.2873 52.774 72.6552 52.774C71.095 52.774 70.048 53.9442 70.048 55.4531C70.048 57.0954 71.1771 58.1527 72.7476 58.1527ZM70.8281 55.1246C70.8999 54.2316 71.6185 53.472 72.6552 53.472C73.733 53.472 74.3694 54.1597 74.4413 55.1144L70.8281 55.1246Z" fill="#0030AE"/>
<path d="M84.1069 58.1527C85.7287 58.1527 86.8373 57.1776 86.8373 56.0279C86.8373 54.9604 86.129 54.519 85.0102 54.1597L83.2652 53.6054C82.4543 53.3488 82.1463 53.0614 82.1463 52.579C82.1463 51.9733 82.7827 51.4396 83.7168 51.4396C84.7741 51.4396 85.5439 51.9323 85.8929 52.6816L86.6525 52.4455C86.2419 51.4909 85.2257 50.7005 83.7271 50.7005C82.3311 50.7005 81.3251 51.5833 81.3251 52.5995C81.3251 53.472 81.9615 53.975 82.9162 54.2829L84.7125 54.8577C85.6876 55.1657 86.0264 55.5147 86.0264 56.069C86.0264 56.7464 85.2976 57.4137 84.1479 57.4137C82.9264 57.4137 82.0334 56.6746 81.7152 55.761L80.9351 55.9971C81.3046 57.1365 82.4748 58.1527 84.1069 58.1527Z" fill="#0030AE"/>
<path d="M91.6425 58.1527C93.1925 58.1527 94.3422 56.9825 94.3422 55.4531C94.3422 53.9236 93.1925 52.774 91.6425 52.774C90.0926 52.774 88.9327 53.9236 88.9327 55.4531C88.9327 56.9825 90.0926 58.1527 91.6425 58.1527ZM91.6425 57.4239C90.534 57.4239 89.7025 56.5822 89.7025 55.4634C89.7025 54.3445 90.534 53.4925 91.6425 53.4925C92.7409 53.4925 93.5621 54.3445 93.5621 55.4634C93.5621 56.5822 92.7409 57.4239 91.6425 57.4239Z" fill="#0030AE"/>
<path d="M97.8599 52.2402C97.8599 51.5114 98.1576 51.1008 98.7632 51.1008C99.0506 51.1008 99.2867 51.1522 99.5228 51.2753L99.7281 50.6081C99.4202 50.4542 99.0917 50.3926 98.6914 50.3926C97.6136 50.3926 97.0798 51.0803 97.0798 52.2197V52.8972H96.002V53.6157H97.0798V58.0193H97.8599V53.6157H99.6973V52.8972H97.8599V52.2402Z" fill="#0030AE"/>
<path d="M104.557 57.1878C104.29 57.3213 104.095 57.3623 103.828 57.3623C103.263 57.3623 102.996 57.0339 102.996 56.459V53.6157H104.752V52.8972H102.996V51.1316H102.206V52.8972H101.19V53.6157H102.206V56.459C102.206 57.4444 102.678 58.0911 103.705 58.0911C104.084 58.0911 104.413 58.0193 104.772 57.8653L104.557 57.1878Z" fill="#0030AE"/>
<path d="M113.182 52.8972L111.838 57.0133L110.524 52.8972H109.836L108.522 57.0133L107.178 52.8972H106.346L108.112 58.0193H108.882L110.185 54.0776L111.479 58.0193H112.248L114.004 52.8972H113.182Z" fill="#0030AE"/>
<path d="M118.099 58.1527C119.013 58.1527 119.711 57.7421 120.121 57.0852V58.0193H120.912V52.8972H120.121V53.821C119.711 53.1846 119.013 52.774 118.099 52.774C116.621 52.774 115.512 53.9134 115.512 55.4531C115.512 56.9928 116.621 58.1527 118.099 58.1527ZM118.212 57.4342C117.083 57.4342 116.292 56.5925 116.292 55.4634C116.292 54.324 117.083 53.4925 118.212 53.4925C119.269 53.4925 120.142 54.3342 120.142 55.4634C120.142 56.5925 119.269 57.4342 118.212 57.4342Z" fill="#0030AE"/>
<path d="M124.366 53.7799V52.8972H123.576V58.0193H124.366V55.6276C124.366 54.016 125.095 53.4309 126.204 53.5746V52.8356C125.3 52.7124 124.674 53.1127 124.366 53.7799Z" fill="#0030AE"/>
<path d="M130.364 58.1527C131.668 58.1527 132.448 57.4034 132.786 56.6746L132.058 56.459C131.811 56.9825 131.247 57.4547 130.364 57.4547C129.225 57.4547 128.516 56.7362 128.444 55.7097H132.817C132.838 55.5763 132.838 55.4839 132.838 55.3402C132.838 53.9134 131.904 52.774 130.272 52.774C128.711 52.774 127.664 53.9442 127.664 55.4531C127.664 57.0954 128.793 58.1527 130.364 58.1527ZM128.444 55.1246C128.516 54.2316 129.235 53.472 130.272 53.472C131.349 53.472 131.986 54.1597 132.058 55.1144L128.444 55.1246Z" fill="#0030AE"/>
<path d="M141.723 58.1527C143.345 58.1527 144.454 57.1776 144.454 56.0279C144.454 54.9604 143.745 54.519 142.627 54.1597L140.882 53.6054C140.071 53.3488 139.763 53.0614 139.763 52.579C139.763 51.9733 140.399 51.4396 141.333 51.4396C142.39 51.4396 143.16 51.9323 143.509 52.6816L144.269 52.4455C143.858 51.4909 142.842 50.7005 141.343 50.7005C139.947 50.7005 138.942 51.5833 138.942 52.5995C138.942 53.472 139.578 53.975 140.533 54.2829L142.329 54.8577C143.304 55.1657 143.643 55.5147 143.643 56.069C143.643 56.7464 142.914 57.4137 141.764 57.4137C140.543 57.4137 139.65 56.6746 139.332 55.761L138.551 55.9971C138.921 57.1365 140.091 58.1527 141.723 58.1527Z" fill="#0030AE"/>
<path d="M149.47 57.1878C149.203 57.3213 149.008 57.3623 148.741 57.3623C148.176 57.3623 147.909 57.0339 147.909 56.459V53.6157H149.665V52.8972H147.909V51.1316H147.119V52.8972H146.103V53.6157H147.119V56.459C147.119 57.4444 147.591 58.0911 148.618 58.0911C148.997 58.0911 149.326 58.0193 149.685 57.8653L149.47 57.1878Z" fill="#0030AE"/>
<path d="M153.924 58.1527C154.837 58.1527 155.535 57.7421 155.946 57.0852V58.0193H156.736V52.8972H155.946V53.821C155.535 53.1846 154.837 52.774 153.924 52.774C152.446 52.774 151.337 53.9134 151.337 55.4531C151.337 56.9928 152.446 58.1527 153.924 58.1527ZM154.037 57.4342C152.908 57.4342 152.117 56.5925 152.117 55.4634C152.117 54.324 152.908 53.4925 154.037 53.4925C155.094 53.4925 155.966 54.3342 155.966 55.4634C155.966 56.5925 155.094 57.4342 154.037 57.4342Z" fill="#0030AE"/>
<path d="M161.741 58.1527C163.055 58.1527 163.907 57.3315 164.112 56.6027L163.373 56.4077C163.209 56.9312 162.583 57.4342 161.741 57.4342C160.591 57.4342 159.852 56.5001 159.852 55.4634C159.852 54.3958 160.591 53.4823 161.741 53.4823C162.583 53.4823 163.209 54.016 163.373 54.5395L164.112 54.324C163.907 53.6157 163.055 52.774 161.741 52.774C160.201 52.774 159.072 53.9236 159.072 55.4428C159.072 56.9825 160.201 58.1527 161.741 58.1527Z" fill="#0030AE"/>
<path d="M169.945 58.0193H170.879L168.488 55.1246L170.612 52.8972H169.637L167.194 55.4531V50.526H166.404V58.0193H167.194V56.4693L167.974 55.6584L169.945 58.0193Z" fill="#0030AE"/>
<path d="M24.3691 51.5833V50.834H19.3086V58.0193H24.3588V57.2699H20.1195V54.7243H23.8456V54.0058H20.1195V51.5833H24.3691Z" stroke="#0030AE" stroke-width="0.24058"/>
<path d="M31.3188 58.0193L29.2761 55.4326L31.2162 52.8972H30.2923L28.7526 54.8885L27.2027 52.8972H26.2788L28.2189 55.4326L26.1762 58.0193H27.1205L28.7526 55.9663L30.3745 58.0193H31.3188Z" stroke="#0030AE" stroke-width="0.24058"/>
<path d="M35.5352 58.1527C36.8491 58.1527 37.7011 57.3315 37.9064 56.6027L37.1673 56.4077C37.0031 56.9312 36.3769 57.4342 35.5352 57.4342C34.3856 57.4342 33.6465 56.5001 33.6465 55.4634C33.6465 54.3958 34.3856 53.4823 35.5352 53.4823C36.3769 53.4823 37.0031 54.016 37.1673 54.5395L37.9064 54.324C37.7011 53.6157 36.8491 52.774 35.5352 52.774C33.9955 52.774 32.8664 53.9236 32.8664 55.4428C32.8664 56.9825 33.9955 58.1527 35.5352 58.1527Z" stroke="#0030AE" stroke-width="0.24058"/>
<path d="M42.8875 52.774C41.9945 52.774 41.3478 53.2154 40.9885 53.8005V50.526H40.1981V58.0193H40.9885V55.4428C40.9885 54.2932 41.6865 53.5131 42.713 53.5131C43.6471 53.5131 44.15 54.1289 44.15 55.1246V58.0193H44.9404V55.0117C44.9404 53.6054 44.1603 52.774 42.8875 52.774Z" stroke="#0030AE" stroke-width="0.24058"/>
<path d="M49.8205 58.1527C50.7341 58.1527 51.4321 57.7421 51.8427 57.0852V58.0193H52.633V52.8972H51.8427V53.821C51.4321 53.1846 50.7341 52.774 49.8205 52.774C48.3424 52.774 47.2338 53.9134 47.2338 55.4531C47.2338 56.9928 48.3424 58.1527 49.8205 58.1527ZM49.9334 57.4342C48.8043 57.4342 48.0139 56.5925 48.0139 55.4634C48.0139 54.324 48.8043 53.4925 49.9334 53.4925C50.9907 53.4925 51.8632 54.3342 51.8632 55.4634C51.8632 56.5925 50.9907 57.4342 49.9334 57.4342Z" stroke="#0030AE" stroke-width="0.24058"/>
<path d="M57.9867 52.774C57.0936 52.774 56.447 53.2154 56.0877 53.8005V52.8972H55.2973V58.0193H56.0877V55.4428C56.0877 54.2932 56.7857 53.5131 57.8122 53.5131C58.7463 53.5131 59.2492 54.1289 59.2492 55.1246V58.0193H60.0396V55.0117C60.0396 53.6054 59.2595 52.774 57.9867 52.774Z" stroke="#0030AE" stroke-width="0.24058"/>
<path d="M66.9316 52.8972V53.7491C66.521 53.1435 65.8127 52.774 64.9197 52.774C63.421 52.774 62.333 53.8621 62.333 55.3607C62.333 56.8286 63.421 57.9577 64.9197 57.9577C65.8127 57.9577 66.521 57.5779 66.9316 56.9723V57.8448C66.911 58.8405 66.2849 59.6206 65.1866 59.6206C64.3551 59.6206 63.7906 59.2921 63.4416 58.707L62.7436 58.9636C63.1747 59.7335 63.9651 60.3083 65.1763 60.3083C66.6852 60.3083 67.7117 59.2613 67.7117 57.8448V52.8972H66.9316ZM65.0326 57.2392C63.9035 57.2392 63.1131 56.4385 63.1131 55.371C63.1131 54.2829 63.9035 53.4925 65.0326 53.4925C66.0899 53.4925 66.9418 54.2932 66.9418 55.371C66.9418 56.4385 66.0899 57.2392 65.0326 57.2392Z" stroke="#0030AE" stroke-width="0.24058"/>
<path d="M72.7476 58.1527C74.0512 58.1527 74.8313 57.4034 75.1701 56.6746L74.4413 56.459C74.1949 56.9825 73.6304 57.4547 72.7476 57.4547C71.6082 57.4547 70.8999 56.7362 70.8281 55.7097H75.2009C75.2214 55.5763 75.2214 55.4839 75.2214 55.3402C75.2214 53.9134 74.2873 52.774 72.6552 52.774C71.095 52.774 70.048 53.9442 70.048 55.4531C70.048 57.0954 71.1771 58.1527 72.7476 58.1527ZM70.8281 55.1246C70.8999 54.2316 71.6185 53.472 72.6552 53.472C73.733 53.472 74.3694 54.1597 74.4413 55.1144L70.8281 55.1246Z" stroke="#0030AE" stroke-width="0.24058"/>
<path d="M84.1069 58.1527C85.7287 58.1527 86.8373 57.1776 86.8373 56.0279C86.8373 54.9604 86.129 54.519 85.0102 54.1597L83.2652 53.6054C82.4543 53.3488 82.1463 53.0614 82.1463 52.579C82.1463 51.9733 82.7827 51.4396 83.7168 51.4396C84.7741 51.4396 85.5439 51.9323 85.8929 52.6816L86.6525 52.4455C86.2419 51.4909 85.2257 50.7005 83.7271 50.7005C82.3311 50.7005 81.3251 51.5833 81.3251 52.5995C81.3251 53.472 81.9615 53.975 82.9162 54.2829L84.7125 54.8577C85.6876 55.1657 86.0264 55.5147 86.0264 56.069C86.0264 56.7464 85.2976 57.4137 84.1479 57.4137C82.9264 57.4137 82.0334 56.6746 81.7152 55.761L80.9351 55.9971C81.3046 57.1365 82.4748 58.1527 84.1069 58.1527Z" stroke="#0030AE" stroke-width="0.24058"/>
<path d="M91.6425 58.1527C93.1925 58.1527 94.3422 56.9825 94.3422 55.4531C94.3422 53.9236 93.1925 52.774 91.6425 52.774C90.0926 52.774 88.9327 53.9236 88.9327 55.4531C88.9327 56.9825 90.0926 58.1527 91.6425 58.1527ZM91.6425 57.4239C90.534 57.4239 89.7025 56.5822 89.7025 55.4634C89.7025 54.3445 90.534 53.4925 91.6425 53.4925C92.7409 53.4925 93.5621 54.3445 93.5621 55.4634C93.5621 56.5822 92.7409 57.4239 91.6425 57.4239Z" stroke="#0030AE" stroke-width="0.24058"/>
<path d="M97.8599 52.2402C97.8599 51.5114 98.1576 51.1008 98.7632 51.1008C99.0506 51.1008 99.2867 51.1522 99.5228 51.2753L99.7281 50.6081C99.4202 50.4542 99.0917 50.3926 98.6914 50.3926C97.6136 50.3926 97.0798 51.0803 97.0798 52.2197V52.8972H96.002V53.6157H97.0798V58.0193H97.8599V53.6157H99.6973V52.8972H97.8599V52.2402Z" stroke="#0030AE" stroke-width="0.24058"/>
<path d="M104.557 57.1878C104.29 57.3213 104.095 57.3623 103.828 57.3623C103.263 57.3623 102.996 57.0339 102.996 56.459V53.6157H104.752V52.8972H102.996V51.1316H102.206V52.8972H101.19V53.6157H102.206V56.459C102.206 57.4444 102.678 58.0911 103.705 58.0911C104.084 58.0911 104.413 58.0193 104.772 57.8653L104.557 57.1878Z" stroke="#0030AE" stroke-width="0.24058"/>
<path d="M113.182 52.8972L111.838 57.0133L110.524 52.8972H109.836L108.522 57.0133L107.178 52.8972H106.346L108.112 58.0193H108.882L110.185 54.0776L111.479 58.0193H112.248L114.004 52.8972H113.182Z" stroke="#0030AE" stroke-width="0.24058"/>
<path d="M118.099 58.1527C119.013 58.1527 119.711 57.7421 120.121 57.0852V58.0193H120.912V52.8972H120.121V53.821C119.711 53.1846 119.013 52.774 118.099 52.774C116.621 52.774 115.512 53.9134 115.512 55.4531C115.512 56.9928 116.621 58.1527 118.099 58.1527ZM118.212 57.4342C117.083 57.4342 116.292 56.5925 116.292 55.4634C116.292 54.324 117.083 53.4925 118.212 53.4925C119.269 53.4925 120.142 54.3342 120.142 55.4634C120.142 56.5925 119.269 57.4342 118.212 57.4342Z" stroke="#0030AE" stroke-width="0.24058"/>
<path d="M124.366 53.7799V52.8972H123.576V58.0193H124.366V55.6276C124.366 54.016 125.095 53.4309 126.204 53.5746V52.8356C125.3 52.7124 124.674 53.1127 124.366 53.7799Z" stroke="#0030AE" stroke-width="0.24058"/>
<path d="M130.364 58.1527C131.668 58.1527 132.448 57.4034 132.786 56.6746L132.058 56.459C131.811 56.9825 131.247 57.4547 130.364 57.4547C129.225 57.4547 128.516 56.7362 128.444 55.7097H132.817C132.838 55.5763 132.838 55.4839 132.838 55.3402C132.838 53.9134 131.904 52.774 130.272 52.774C128.711 52.774 127.664 53.9442 127.664 55.4531C127.664 57.0954 128.793 58.1527 130.364 58.1527ZM128.444 55.1246C128.516 54.2316 129.235 53.472 130.272 53.472C131.349 53.472 131.986 54.1597 132.058 55.1144L128.444 55.1246Z" stroke="#0030AE" stroke-width="0.24058"/>
<path d="M141.723 58.1527C143.345 58.1527 144.454 57.1776 144.454 56.0279C144.454 54.9604 143.745 54.519 142.627 54.1597L140.882 53.6054C140.071 53.3488 139.763 53.0614 139.763 52.579C139.763 51.9733 140.399 51.4396 141.333 51.4396C142.39 51.4396 143.16 51.9323 143.509 52.6816L144.269 52.4455C143.858 51.4909 142.842 50.7005 141.343 50.7005C139.947 50.7005 138.942 51.5833 138.942 52.5995C138.942 53.472 139.578 53.975 140.533 54.2829L142.329 54.8577C143.304 55.1657 143.643 55.5147 143.643 56.069C143.643 56.7464 142.914 57.4137 141.764 57.4137C140.543 57.4137 139.65 56.6746 139.332 55.761L138.551 55.9971C138.921 57.1365 140.091 58.1527 141.723 58.1527Z" stroke="#0030AE" stroke-width="0.24058"/>
<path d="M149.47 57.1878C149.203 57.3213 149.008 57.3623 148.741 57.3623C148.176 57.3623 147.909 57.0339 147.909 56.459V53.6157H149.665V52.8972H147.909V51.1316H147.119V52.8972H146.103V53.6157H147.119V56.459C147.119 57.4444 147.591 58.0911 148.618 58.0911C148.997 58.0911 149.326 58.0193 149.685 57.8653L149.47 57.1878Z" stroke="#0030AE" stroke-width="0.24058"/>
<path d="M153.924 58.1527C154.837 58.1527 155.535 57.7421 155.946 57.0852V58.0193H156.736V52.8972H155.946V53.821C155.535 53.1846 154.837 52.774 153.924 52.774C152.446 52.774 151.337 53.9134 151.337 55.4531C151.337 56.9928 152.446 58.1527 153.924 58.1527ZM154.037 57.4342C152.908 57.4342 152.117 56.5925 152.117 55.4634C152.117 54.324 152.908 53.4925 154.037 53.4925C155.094 53.4925 155.966 54.3342 155.966 55.4634C155.966 56.5925 155.094 57.4342 154.037 57.4342Z" stroke="#0030AE" stroke-width="0.24058"/>
<path d="M161.741 58.1527C163.055 58.1527 163.907 57.3315 164.112 56.6027L163.373 56.4077C163.209 56.9312 162.583 57.4342 161.741 57.4342C160.591 57.4342 159.852 56.5001 159.852 55.4634C159.852 54.3958 160.591 53.4823 161.741 53.4823C162.583 53.4823 163.209 54.016 163.373 54.5395L164.112 54.324C163.907 53.6157 163.055 52.774 161.741 52.774C160.201 52.774 159.072 53.9236 159.072 55.4428C159.072 56.9825 160.201 58.1527 161.741 58.1527Z" stroke="#0030AE" stroke-width="0.24058"/>
<path d="M169.945 58.0193H170.879L168.488 55.1246L170.612 52.8972H169.637L167.194 55.4531V50.526H166.404V58.0193H167.194V56.4693L167.974 55.6584L169.945 58.0193Z" stroke="#0030AE" stroke-width="0.24058"/>
<path d="M30.2134 19.8057C23.6094 19.8057 18.5391 24.563 18.5391 30.8854C18.5391 37.1764 23.6094 42.0277 30.2134 42.0277C36.8174 42.0277 41.8878 37.1764 41.8878 30.8854C41.8878 24.5943 36.8174 19.8057 30.2134 19.8057ZM30.276 23.5615C34.2822 23.5615 37.5999 26.7539 37.5999 30.8854C37.5999 35.0168 34.2822 38.2718 30.276 38.2718C26.2385 38.2718 22.827 35.0168 22.827 30.8854C22.827 26.7539 26.2072 23.5615 30.276 23.5615Z" fill="#0030AE"/>
<path d="M55.2709 24.9699C53.393 24.9699 51.8321 25.5509 50.6672 26.6203C50.3196 26.9394 49.6371 26.7133 49.6371 26.2414V25.5682C49.6371 25.3069 49.4253 25.0951 49.1641 25.0951H46.0413C45.7801 25.0951 45.5683 25.3069 45.5683 25.5681V47.4388C45.5683 47.7 45.7801 47.9118 46.0413 47.9118H49.1641C49.4253 47.9118 49.6371 47.7 49.6371 47.4388V40.6903C49.6371 40.2213 50.3065 39.9971 50.6515 40.3147C51.8349 41.4041 53.4137 41.9964 55.3335 41.9964C60.0908 41.9964 63.1894 38.5848 63.1894 33.5457C63.1894 28.4128 59.997 24.9699 55.2709 24.9699ZM54.3632 38.4909C51.5776 38.4909 49.6371 36.4252 49.6371 33.4205C49.6371 30.4785 51.5776 28.3815 54.3632 28.3815C57.1175 28.3815 59.058 30.4785 59.058 33.4205C59.058 36.3939 57.1175 38.4909 54.3632 38.4909Z" fill="#0030AE"/>
<path d="M73.6952 24.9699C68.6874 24.9699 65.182 28.4128 65.182 33.5144C65.182 38.5535 68.5935 41.9964 73.7891 41.9964C76.5545 41.9964 78.8775 41.0562 80.5241 39.4357C80.7016 39.261 80.6972 38.9771 80.5248 38.7973L78.9791 37.1853C78.7939 36.9922 78.4866 36.9925 78.2856 37.1691C77.1424 38.1733 75.689 38.71 74.1334 38.71C71.8935 38.71 70.1806 37.498 69.5022 35.4609C69.4065 35.1735 69.6323 34.8916 69.9352 34.8916H81.2653C81.5142 34.8916 81.7213 34.6974 81.7323 34.4487C81.9881 28.6331 79.435 24.9699 73.6952 24.9699ZM69.8011 32.1686C69.5116 32.1686 69.2885 31.9097 69.3571 31.6284C69.8837 29.4703 71.4971 28.1311 73.7265 28.1311C76.0899 28.1311 77.6917 29.4912 77.974 31.6788C78.0083 31.9448 77.7914 32.1686 77.5231 32.1686H69.8011Z" fill="#0030AE"/>
<path d="M95.3162 24.9386C93.3086 24.9617 91.6413 25.5292 90.4271 26.7163C90.0753 27.0603 89.3068 26.8308 89.3068 26.3387V25.5681C89.3068 25.3069 89.0951 25.0951 88.8338 25.0951H85.7111C85.4498 25.0951 85.238 25.3069 85.238 25.5681V41.3668C85.238 41.6281 85.4498 41.8399 85.7111 41.8399H88.8338C89.0951 41.8399 89.3068 41.6281 89.3068 41.3668V33.6083C89.3068 30.8541 90.9344 28.8197 93.6886 28.7884C96.0047 28.7884 97.4132 30.2281 97.4132 32.5755V41.3668C97.4132 41.6281 97.625 41.8399 97.8862 41.8399H101.04C101.302 41.8399 101.513 41.6281 101.513 41.3668V31.3861C101.513 27.4112 99.1659 24.9386 95.3162 24.9386Z" fill="#0030AE"/>
<path d="M115.348 19.9309H106.713C106.452 19.9309 106.24 20.1426 106.24 20.4039V41.3668C106.24 41.6281 106.452 41.8399 106.713 41.8399H115.191C121.952 41.8399 126.772 37.2703 126.772 30.8854C126.772 24.4692 121.983 19.9309 115.348 19.9309ZM115.442 38.1466H110.907C110.646 38.1466 110.434 37.9348 110.434 37.6736V24.0971C110.434 23.8359 110.646 23.6241 110.907 23.6241H115.285C119.385 23.6241 122.484 26.6288 122.484 30.9167C122.484 35.1733 119.479 38.1466 115.442 38.1466Z" fill="#0030AE"/>
<path d="M145.988 41.5496C146.062 41.7254 146.234 41.8399 146.425 41.8399H149.897C150.237 41.8399 150.466 41.4913 150.331 41.1789L141.257 20.216C141.182 20.0429 141.011 19.9309 140.823 19.9309H137.092C136.904 19.9309 136.734 20.0419 136.659 20.2139L127.465 41.1768C127.328 41.4894 127.557 41.8399 127.898 41.8399H131.21C131.401 41.8399 131.573 41.7254 131.646 41.5496L133.344 37.4979C133.417 37.3221 133.589 37.2077 133.78 37.2077H143.855C144.045 37.2077 144.217 37.3221 144.291 37.4979L145.988 41.5496ZM135.68 33.6083C135.342 33.6083 135.113 33.2633 135.245 32.9515L138.409 25.4483C138.572 25.0615 139.121 25.0631 139.282 25.4509L142.395 32.954C142.525 33.2655 142.296 33.6083 141.959 33.6083H135.68Z" fill="#0030AE"/>
<path d="M166.909 41.6407C166.998 41.7656 167.142 41.8399 167.295 41.8399H171.17C171.555 41.8399 171.778 41.4046 171.554 41.0915L156.551 20.1286C156.462 20.0045 156.319 19.9309 156.166 19.9309H152.411C152.027 19.9309 151.803 20.3645 152.026 20.6777L166.909 41.6407Z" fill="#0030AE"/>
<path d="M151.529 41.0918C151.306 41.4049 151.529 41.8397 151.914 41.8397H155.663C155.817 41.8397 155.962 41.7647 156.05 41.6386L170.753 20.7108C170.973 20.3973 170.749 19.9658 170.366 19.9658H166.859C166.706 19.9658 166.563 20.0396 166.474 20.164L151.529 41.0918Z" fill="#FCD000"/>
<path d="M172.936 23.2889C173.273 23.905 173.007 24.0629 172.728 24.0629H169.467C169.197 24.0629 168.791 23.9829 168.61 23.6759L166.651 20.7374C166.352 20.2556 166.434 19.9634 166.906 19.9634H170.268C170.567 19.9634 170.814 20.0976 170.968 20.3504L172.936 23.2889Z" fill="#0030AE"/>
<path d="M166.909 41.6732C166.998 41.7981 167.142 41.8724 167.295 41.8724H171.169C171.554 41.8724 171.778 41.4371 171.554 41.124L156.551 20.1611C156.462 20.037 156.318 19.9634 156.166 19.9634H152.411C152.027 19.9634 151.803 20.397 152.025 20.7103L166.909 41.6732Z" fill="#0030AE"/>
<path d="M178.331 24.1783H179.405V20.7199H180.813V19.7158H176.937V20.7199H178.331V24.1783ZM181.273 24.1783H182.305V21.4171L183.714 23.3137L185.067 21.4171V24.1783H186.126V19.7158H185.025L183.7 21.6542L182.347 19.7158H181.273V24.1783Z" fill="#0030AE"/>
</svg>
