<svg width="198" height="78" viewBox="0 0 198 78" fill="none" xmlns="http://www.w3.org/2000/svg">
<rect x="0.179688" width="197.161" height="77.8785" rx="7.88644" fill="white"/>
<path d="M29.0195 47.7621C34.4466 47.7621 38.4481 43.9606 38.4481 38.7586C38.4481 33.5566 34.4466 29.7551 29.0195 29.7551C23.5924 29.7551 19.5908 33.5816 19.5908 38.7586C19.5908 43.9356 23.5924 47.7621 29.0195 47.7621ZM29.0195 44.911C25.4931 44.911 22.8671 42.335 22.8671 38.7586C22.8671 35.1822 25.4931 32.6062 29.0195 32.6062C32.5458 32.6062 35.1718 35.1822 35.1718 38.7586C35.1718 42.335 32.5458 44.911 29.0195 44.911Z" fill="#06335D"/>
<path d="M48.3114 34.0068C46.4856 34.0068 44.9351 34.632 43.8846 35.9075V34.1568H40.9085V52.3639H44.0347V45.8864C45.1101 47.1118 46.6107 47.6871 48.3114 47.6871C52.2129 47.6871 55.089 44.986 55.089 40.8344C55.089 36.7078 52.2129 34.0068 48.3114 34.0068ZM47.9612 45.011C45.7104 45.011 43.9847 43.3854 43.9847 40.8344C43.9847 38.2834 45.7104 36.6578 47.9612 36.6578C50.2121 36.6578 51.9127 38.2834 51.9127 40.8344C51.9127 43.3854 50.2121 45.011 47.9612 45.011Z" fill="#06335D"/>
<path d="M69.9229 40.9095C69.9229 36.7328 67.0718 34.0068 63.1703 34.0068C59.1937 34.0068 56.2676 36.8579 56.2676 40.8344C56.2676 44.811 59.1687 47.6871 63.6455 47.6871C65.9464 47.6871 67.8221 46.9368 69.0225 45.5112L67.3469 43.5855C66.3965 44.5609 65.2211 45.036 63.7205 45.036C61.3946 45.036 59.769 43.7856 59.3938 41.8348H69.8729C69.8979 41.5347 69.9229 41.1595 69.9229 40.9095ZM63.1703 36.5077C65.2211 36.5077 66.6966 37.8333 66.9467 39.759H59.3688C59.6689 37.8083 61.1445 36.5077 63.1703 36.5077Z" fill="#06335D"/>
<path d="M79.818 34.0068C77.8672 34.0068 76.2416 34.657 75.2162 35.8825V34.1568H72.2401V47.512H75.3663V40.7594C75.3663 38.0834 76.8669 36.7328 79.0927 36.7328C81.0935 36.7328 82.2689 37.8833 82.2689 40.2592V47.512H85.3951V39.859C85.3951 35.8325 83.0192 34.0068 79.818 34.0068Z" fill="#06335D"/>
<path d="M101.755 32.7313V30.0052H88.9753V47.512H92.2266V40.8094H100.68V38.0583H92.2266V32.7313H101.755Z" fill="#06335D"/>
<path d="M105.245 33C106.42 33 107.246 32.1497 107.246 31.0492C107.246 30.0238 106.395 29.2486 105.245 29.2486C104.094 29.2486 103.244 30.0739 103.244 31.1243C103.244 32.1747 104.094 33 105.245 33ZM103.669 47.512H106.796V34.1568H103.669V47.512Z" fill="#06335D"/>
<path d="M117.791 34.0068C115.84 34.0068 114.214 34.657 113.189 35.8825V34.1568H110.213V47.512H113.339V40.7594C113.339 38.0834 114.84 36.7328 117.066 36.7328C119.066 36.7328 120.242 37.8833 120.242 40.2592V47.512H123.368V39.859C123.368 35.8325 120.992 34.0068 117.791 34.0068Z" fill="#06335D"/>
<path d="M131.75 34.0068C129.599 34.0068 127.523 34.557 126.098 35.6574L127.323 37.9333C128.324 37.108 129.874 36.6078 131.375 36.6078C133.601 36.6078 134.701 37.6832 134.701 39.5089V39.709H131.25C127.198 39.709 125.698 41.4597 125.698 43.6855C125.698 46.0114 127.623 47.6871 130.675 47.6871C132.675 47.6871 134.126 47.0368 134.876 45.8864V47.512H137.827V39.684C137.827 35.8325 135.602 34.0068 131.75 34.0068ZM131.325 45.4112C129.724 45.4112 128.774 44.6859 128.774 43.5605C128.774 42.5851 129.349 41.7848 131.475 41.7848H134.701V43.3354C134.176 44.7109 132.85 45.4112 131.325 45.4112Z" fill="#06335D"/>
<path d="M148.732 34.0068C146.781 34.0068 145.155 34.657 144.13 35.8825V34.1568H141.154V47.512H144.28V40.7594C144.28 38.0834 145.781 36.7328 148.006 36.7328C150.007 36.7328 151.183 37.8833 151.183 40.2592V47.512H154.309V39.859C154.309 35.8325 151.933 34.0068 148.732 34.0068Z" fill="#06335D"/>
<path d="M163.838 47.6871C166.439 47.6871 168.515 46.5616 169.541 44.5609L167.14 43.1603C166.339 44.4358 165.139 45.011 163.813 45.011C161.512 45.011 159.762 43.4354 159.762 40.8344C159.762 38.2584 161.512 36.6578 163.813 36.6578C165.139 36.6578 166.339 37.233 167.14 38.5085L169.541 37.108C168.515 35.0822 166.439 34.0068 163.838 34.0068C159.612 34.0068 156.611 36.8329 156.611 40.8344C156.611 44.836 159.612 47.6871 163.838 47.6871Z" fill="#06335D"/>
<path d="M183.917 40.9095C183.917 36.7328 181.066 34.0068 177.164 34.0068C173.188 34.0068 170.261 36.8579 170.261 40.8344C170.261 44.811 173.163 47.6871 177.639 47.6871C179.94 47.6871 181.816 46.9368 183.016 45.5112L181.341 43.5855C180.39 44.5609 179.215 45.036 177.714 45.036C175.388 45.036 173.763 43.7856 173.388 41.8348H183.867C183.892 41.5347 183.917 41.1595 183.917 40.9095ZM177.164 36.5077C179.215 36.5077 180.69 37.8333 180.941 39.759H173.363C173.663 37.8083 175.138 36.5077 177.164 36.5077Z" fill="#06335D"/>
</svg>
