<svg width="199" height="78" viewBox="0 0 199 78" fill="none" xmlns="http://www.w3.org/2000/svg">
<rect x="0.973633" width="197.161" height="77.8785" rx="7.88644" fill="white"/>
<g clip-path="url(#clip0)">
<path d="M23.2931 40.2816L24.5437 41.5322L25.8706 40.2053L23.2474 37.5821L23.2169 37.5516L22.3323 36.667L21.4324 37.5592L21.4172 37.5745L18.7939 40.1977L20.1208 41.5246L21.4096 40.2358C21.6002 44.3232 23.3389 48.0141 26.0536 50.7288C28.9285 53.6037 32.9092 55.3881 37.2863 55.3881H38.2243V53.5046H37.2863C29.8207 53.5122 23.7049 47.648 23.2931 40.2816Z" fill="black"/>
<path d="M54.4677 37.4754L53.179 38.7641C52.9883 34.6767 51.2497 30.9859 48.5349 28.2711C45.66 25.3962 41.687 23.6118 37.3022 23.6118H36.3643V25.4954H37.3022C44.7678 25.4954 50.8836 31.3595 51.2954 38.726L50.0448 37.4754L48.7179 38.8023L51.3412 41.4255L51.3717 41.456L52.2563 42.3406L53.1561 41.4408L53.1713 41.4255L55.7946 38.8023L54.4677 37.4754Z" fill="black"/>
<path d="M37.2936 30.3604C32.253 30.3604 28.1504 34.463 28.1504 39.5036C28.1504 44.5442 32.253 48.6468 37.2936 48.6468C42.3342 48.6468 46.4369 44.5442 46.4369 39.5036C46.4369 34.463 42.3342 30.3604 37.2936 30.3604ZM34.5941 33.2505C34.0374 34.0283 33.496 35.0044 33.13 36.2093H31.3303C32.0624 34.8977 33.2062 33.8453 34.5941 33.2505ZM30.7584 41.4405C30.5754 40.8305 30.4762 40.1823 30.4762 39.5112C30.4762 38.8402 30.5754 38.192 30.7584 37.5819H32.8097C32.7106 38.1843 32.6496 38.8249 32.6496 39.5112C32.6496 40.1975 32.7106 40.8457 32.8097 41.4405H30.7584ZM31.3303 42.8055H33.13C33.496 44.0028 34.0374 44.9865 34.5941 45.7643C33.2062 45.1619 32.0624 44.1172 31.3303 42.8055ZM36.6073 46.0236C35.9439 45.3525 35.1203 44.3002 34.5789 42.8055H36.6073V46.0236ZM36.6073 41.4405H34.2052C34.0908 40.8457 34.0222 40.2052 34.0222 39.5112C34.0222 38.8097 34.0908 38.1691 34.2052 37.5819H36.6073V41.4405ZM36.6073 36.2017H34.5712C35.1127 34.6994 35.9439 33.6394 36.6073 32.976V36.2017ZM43.2493 36.2017H41.4497C41.0836 35.0044 40.5422 34.0207 39.9855 33.2429C41.3734 33.8453 42.5249 34.8977 43.2493 36.2017ZM37.9723 32.9912C38.6358 33.6623 39.4593 34.7146 40.0008 36.2093H37.9723V32.9912ZM37.9723 37.5743H40.3744C40.4888 38.1691 40.5574 38.8097 40.5574 39.5036C40.5574 40.2052 40.4888 40.8457 40.3744 41.4329H37.9647V37.5743H37.9723ZM37.9723 42.8055H40.0084C39.467 44.3078 38.6358 45.3678 37.9723 46.0312V42.8055ZM39.9855 45.7643C40.5422 44.9865 41.0836 44.0104 41.4497 42.8055H43.2493C42.5249 44.1172 41.3734 45.1619 39.9855 45.7643ZM44.1034 39.5036C44.1034 40.1747 44.0043 40.8228 43.8213 41.4329H41.7699C41.8691 40.8305 41.9301 40.1899 41.9301 39.5036C41.9301 38.8173 41.8691 38.1691 41.7699 37.5743H43.8213C44.0043 38.1843 44.1034 38.8325 44.1034 39.5036Z" fill="black"/>
</g>
<path d="M69.899 44.1337C70.934 44.1337 71.754 43.752 72.3591 42.9885C72.9699 42.2251 73.2753 41.1392 73.2753 39.731C73.2753 38.3285 72.9699 37.2455 72.3591 36.4821C71.754 35.7129 70.934 35.3284 69.899 35.3284C68.8641 35.3284 68.0384 35.7101 67.422 36.4736C66.8056 37.237 66.4973 38.3229 66.4973 39.731C66.4973 41.1392 66.8056 42.2251 67.422 42.9885C68.0384 43.752 68.8641 44.1337 69.899 44.1337ZM75.888 39.731C75.888 41.9762 75.2575 43.6954 73.9963 44.8887C73.0519 45.8614 71.6861 46.3478 69.899 46.3478C68.1119 46.3478 66.7462 45.8614 65.8017 44.8887C64.5349 43.6954 63.9015 41.9762 63.9015 39.731C63.9015 37.4406 64.5349 35.7214 65.8017 34.5734C66.7462 33.6007 68.1119 33.1143 69.899 33.1143C71.6861 33.1143 73.0519 33.6007 73.9963 34.5734C75.2575 35.7214 75.888 37.4406 75.888 39.731ZM84.0657 41.3768C84.0657 40.6642 83.9017 40.0336 83.5737 39.485C83.2513 38.9365 82.7254 38.6622 81.9958 38.6622C81.1192 38.6622 80.5169 39.0779 80.1889 39.9092C80.0193 40.3503 79.9344 40.9102 79.9344 41.5888C79.9344 42.6633 80.22 43.4183 80.7912 43.8538C81.1306 44.1083 81.5321 44.2355 81.9958 44.2355C82.6688 44.2355 83.1806 43.9754 83.5312 43.4551C83.8875 42.9348 84.0657 42.242 84.0657 41.3768ZM82.6914 36.5499C83.7716 36.5499 84.6849 36.9486 85.4314 37.746C86.1836 38.5434 86.5597 39.7141 86.5597 41.258C86.5597 42.8867 86.1921 44.1281 85.4569 44.982C84.7274 45.836 83.7857 46.263 82.632 46.263C81.8969 46.263 81.2861 46.0792 80.7997 45.7116C80.5339 45.508 80.2738 45.2111 80.0193 44.8209V49.6392H77.6271V36.7535H79.9429V38.1193C80.2031 37.7177 80.4802 37.401 80.7743 37.1692C81.3115 36.7563 81.9506 36.5499 82.6914 36.5499ZM91.9634 38.501C91.4035 38.501 90.968 38.6763 90.657 39.027C90.3516 39.3776 90.1593 39.8526 90.0801 40.4521H93.8381C93.7985 39.8131 93.6034 39.3295 93.2528 39.0015C92.9078 38.6678 92.478 38.501 91.9634 38.501ZM91.9634 36.5075C92.7325 36.5075 93.4253 36.6517 94.0417 36.9401C94.6581 37.2286 95.1671 37.6838 95.5687 38.3059C95.9306 38.8545 96.1653 39.4907 96.2727 40.2146C96.335 40.6387 96.3604 41.2495 96.3491 42.0469H90.0208C90.0547 42.9744 90.3459 43.6248 90.8945 43.998C91.2282 44.2299 91.6297 44.3458 92.0991 44.3458C92.5968 44.3458 93.0011 44.2044 93.3122 43.9217C93.4818 43.769 93.6317 43.5569 93.7618 43.2854H96.2303C96.1681 43.834 95.8825 44.3911 95.3735 44.9566C94.5818 45.8558 93.4733 46.3054 92.0482 46.3054C90.8719 46.3054 89.8341 45.9265 88.9349 45.1687C88.0357 44.4108 87.5861 43.178 87.5861 41.4701C87.5861 39.8696 87.9905 38.6424 88.7992 37.7884C89.6136 36.9345 90.6683 36.5075 91.9634 36.5075ZM103.11 36.533C104.066 36.533 104.846 36.7846 105.451 37.2879C106.062 37.7856 106.368 38.6141 106.368 39.7735V46H103.89V40.3758C103.89 39.8894 103.825 39.5161 103.695 39.256C103.458 38.781 103.005 38.5434 102.338 38.5434C101.518 38.5434 100.955 38.8912 100.65 39.5868C100.492 39.9544 100.412 40.4238 100.412 40.995V46H98.0033V36.7705H100.336V38.1193C100.647 37.6442 100.941 37.3021 101.218 37.0928C101.716 36.7196 102.347 36.533 103.11 36.533ZM113.637 33.513H122.502V35.7101H116.233V38.5858H121.722V40.7575H116.233V46H113.637V33.513ZM126.549 35.6507H124.097V33.4197H126.549V35.6507ZM124.097 36.7535H126.549V46H124.097V36.7535ZM134.022 36.533C134.978 36.533 135.758 36.7846 136.363 37.2879C136.974 37.7856 137.28 38.6141 137.28 39.7735V46H134.803V40.3758C134.803 39.8894 134.738 39.5161 134.608 39.256C134.37 38.781 133.918 38.5434 133.25 38.5434C132.43 38.5434 131.867 38.8912 131.562 39.5868C131.404 39.9544 131.325 40.4238 131.325 40.995V46H128.915V36.7705H131.248V38.1193C131.559 37.6442 131.853 37.3021 132.13 37.0928C132.628 36.7196 133.259 36.533 134.022 36.533ZM144.617 41.504C144.465 41.6001 144.309 41.6793 144.151 41.7415C143.998 41.7981 143.786 41.8518 143.515 41.9027L142.972 42.0045C142.463 42.095 142.098 42.2053 141.877 42.3353C141.504 42.5559 141.318 42.898 141.318 43.3618C141.318 43.7746 141.431 44.0744 141.657 44.261C141.889 44.442 142.169 44.5324 142.497 44.5324C143.017 44.5324 143.495 44.3797 143.93 44.0744C144.371 43.769 144.601 43.2119 144.617 42.4032V41.504ZM143.15 40.3758C143.597 40.3192 143.916 40.2485 144.108 40.1637C144.453 40.0166 144.626 39.7876 144.626 39.4766C144.626 39.0976 144.493 38.8375 144.227 38.6961C143.967 38.5491 143.583 38.4756 143.074 38.4756C142.502 38.4756 142.098 38.6169 141.86 38.8997C141.691 39.109 141.578 39.3917 141.521 39.748H139.188C139.239 38.9393 139.465 38.2748 139.867 37.7545C140.506 36.9401 141.603 36.533 143.158 36.533C144.171 36.533 145.07 36.7337 145.856 37.1352C146.642 37.5368 147.035 38.2946 147.035 39.4087V43.6502C147.035 43.9443 147.041 44.3006 147.052 44.7191C147.069 45.0358 147.117 45.2507 147.196 45.3638C147.275 45.4769 147.394 45.5702 147.553 45.6437V46H144.923C144.849 45.8134 144.798 45.6381 144.77 45.4741C144.742 45.31 144.719 45.1234 144.702 44.9142C144.369 45.2761 143.984 45.5843 143.549 45.8388C143.028 46.1386 142.44 46.2884 141.784 46.2884C140.947 46.2884 140.254 46.0509 139.706 45.5758C139.163 45.0951 138.891 44.4165 138.891 43.5399C138.891 42.4032 139.33 41.5803 140.206 41.0714C140.687 40.7943 141.394 40.5963 142.327 40.4776L143.15 40.3758ZM154.314 36.533C155.269 36.533 156.05 36.7846 156.655 37.2879C157.266 37.7856 157.571 38.6141 157.571 39.7735V46H155.094V40.3758C155.094 39.8894 155.029 39.5161 154.899 39.256C154.661 38.781 154.209 38.5434 153.542 38.5434C152.722 38.5434 152.159 38.8912 151.853 39.5868C151.695 39.9544 151.616 40.4238 151.616 40.995V46H149.207V36.7705H151.54V38.1193C151.851 37.6442 152.145 37.3021 152.422 37.0928C152.92 36.7196 153.55 36.533 154.314 36.533ZM165.333 40.0704C165.288 39.7254 165.172 39.4143 164.985 39.1372C164.714 38.764 164.292 38.5774 163.721 38.5774C162.907 38.5774 162.35 38.9817 162.05 39.7904C161.892 40.2202 161.813 40.7914 161.813 41.504C161.813 42.1826 161.892 42.7284 162.05 43.1412C162.339 43.9103 162.881 44.2949 163.679 44.2949C164.244 44.2949 164.646 44.1422 164.883 43.8368C165.121 43.5314 165.265 43.1356 165.316 42.6492H167.785C167.728 43.3844 167.462 44.08 166.987 44.736C166.229 45.7936 165.107 46.3224 163.619 46.3224C162.132 46.3224 161.038 45.8812 160.337 44.999C159.635 44.1168 159.285 42.9716 159.285 41.5634C159.285 39.9742 159.672 38.7385 160.447 37.8563C161.222 36.9741 162.29 36.533 163.653 36.533C164.813 36.533 165.76 36.7931 166.495 37.3134C167.236 37.8337 167.674 38.7527 167.81 40.0704H165.333ZM173.129 38.501C172.569 38.501 172.134 38.6763 171.823 39.027C171.517 39.3776 171.325 39.8526 171.246 40.4521H175.004C174.964 39.8131 174.769 39.3295 174.418 39.0015C174.073 38.6678 173.644 38.501 173.129 38.501ZM173.129 36.5075C173.898 36.5075 174.591 36.6517 175.207 36.9401C175.824 37.2286 176.333 37.6838 176.734 38.3059C177.096 38.8545 177.331 39.4907 177.438 40.2146C177.5 40.6387 177.526 41.2495 177.515 42.0469H171.186C171.22 42.9744 171.511 43.6248 172.06 43.998C172.394 44.2299 172.795 44.3458 173.265 44.3458C173.762 44.3458 174.167 44.2044 174.478 43.9217C174.647 43.769 174.797 43.5569 174.927 43.2854H177.396C177.334 43.834 177.048 44.3911 176.539 44.9566C175.747 45.8558 174.639 46.3054 173.214 46.3054C172.037 46.3054 171 45.9265 170.1 45.1687C169.201 44.4108 168.752 43.178 168.752 41.4701C168.752 39.8696 169.156 38.6424 169.965 37.7884C170.779 36.9345 171.834 36.5075 173.129 36.5075Z" fill="black"/>
<defs>
<clipPath id="clip0">
<rect width="37" height="37" fill="white" transform="translate(18.7939 21)"/>
</clipPath>
</defs>
</svg>
