<svg width="624" height="824" viewBox="0 0 624 824" fill="none" xmlns="http://www.w3.org/2000/svg">
<rect x="356" y="54" width="20" height="770" fill="#FCD000"/>
<line x1="367" y1="116" x2="110" y2="116" stroke="#FCD000" stroke-width="20"/>
<path d="M371.774 116L366 121.774L360.226 116L366 110.227L371.774 116ZM366 117L110 117L110 115L366 115L366 117Z" fill="#272727"/>
<path d="M259.341 182.72L260.367 181.388L258.657 180.128C259.575 179.012 260.115 177.5 260.115 175.736C260.115 171.938 257.451 169.256 254.139 169.256C250.827 169.256 248.163 171.92 248.163 175.7C248.163 179.498 250.827 182.18 254.139 182.18C255.435 182.18 256.461 181.856 257.379 181.262L259.341 182.72ZM254.121 180.272C251.871 180.272 250.269 178.346 250.269 175.754C250.269 173.108 251.871 171.146 254.139 171.146C256.425 171.146 258.045 173.126 258.045 175.79C258.045 177.05 257.649 178.13 256.983 178.904L255.093 177.5L254.067 178.814L255.561 179.912C255.219 180.11 254.643 180.272 254.121 180.272ZM269.582 182V179.498H271.202V177.662H269.582V169.4H267.368L261.59 177.788V179.462H267.602V182H269.582ZM267.602 172.1V177.662H263.624L267.602 172.1ZM277.391 172.064H279.533V169.76H278.453C278.435 169.022 278.759 168.716 279.425 168.698V167.6C278.201 167.6 277.427 168.23 277.409 169.76L277.391 172.064ZM280.777 182H289.399V180.164H283.531L285.403 178.508C287.491 176.654 289.309 175.358 289.309 173.126C289.309 170.894 287.527 169.238 285.115 169.238C282.541 169.238 280.741 170.894 280.633 173.36H282.703C282.865 171.974 283.801 171.074 285.097 171.074C286.429 171.074 287.311 171.92 287.311 173.216C287.311 174.692 285.925 175.646 283.639 177.608L280.777 180.074V182ZM299.159 182V180.344H296.009V169.4H294.425L291.131 171.83V173.684L294.155 171.524V180.344H291.131V182H299.159Z" fill="#FF9110"/>
<path d="M230.532 220H234.822L226.752 199H221.412L213.372 220H217.632L219.372 215.44H228.822L230.532 220ZM220.722 211.81L224.082 202.93L227.442 211.81H220.722ZM236.852 220H240.812V198.1H236.852V220ZM253.584 204.4C251.424 204.4 249.774 205.27 248.664 206.65V204.82H244.704V226.3H248.664V218.14C249.774 219.52 251.424 220.42 253.584 220.42C257.784 220.42 261.054 217 261.054 212.41C261.054 207.79 257.784 204.4 253.584 204.4ZM252.894 216.88C250.494 216.88 248.574 215.02 248.574 212.38C248.574 209.77 250.494 207.94 252.894 207.94C255.384 207.94 257.154 209.77 257.154 212.38C257.154 215.02 255.384 216.88 252.894 216.88ZM272.89 204.4C270.7 204.4 269.05 205.39 268 206.74V198.1H264.04V220H268V212.5C268 209.83 269.44 208.09 271.66 208.09C273.85 208.09 274.9 209.56 274.9 211.87V220H278.86V211.12C278.86 207.07 276.85 204.4 272.89 204.4ZM289.184 220.42C291.314 220.42 292.994 219.52 294.074 218.14V220H298.064V204.82H294.074V206.65C292.994 205.27 291.314 204.4 289.184 204.4C284.984 204.4 281.684 207.79 281.684 212.41C281.684 217 284.984 220.42 289.184 220.42ZM289.874 216.88C287.384 216.88 285.614 215.02 285.614 212.38C285.614 209.77 287.384 207.94 289.874 207.94C292.274 207.94 294.194 209.77 294.194 212.38C294.194 215.02 292.274 216.88 289.874 216.88Z" fill="#272727"/>
<path d="M117.236 252.016H118.452V247.376H121.62C123.652 247.376 124.996 246.032 124.996 244.112C124.996 242.176 123.684 240.8 121.716 240.784L117.236 240.8V252.016ZM118.452 246.272L118.468 241.888H121.54C122.868 241.888 123.796 242.72 123.796 244.112C123.796 245.456 122.868 246.272 121.54 246.272H118.452ZM126.882 252H128.066V247.536C128.066 245.6 129.234 245.056 130.61 245.104L130.722 245.088V243.888L130.578 243.872C128.898 243.792 128.242 244.672 128.066 245.088V244H126.882V252ZM135.387 252.176C137.227 252.176 138.555 251.024 138.779 249.44H137.627C137.339 250.512 136.347 251.072 135.419 251.072C133.899 251.072 132.939 250.016 132.939 248.336V248.32H138.907C138.971 245.776 137.675 243.904 135.371 243.904C133.099 243.904 131.675 245.616 131.675 248.064C131.675 250.576 133.179 252.176 135.387 252.176ZM132.987 247.248C133.131 245.92 133.947 244.992 135.339 244.992C136.779 244.992 137.467 245.92 137.611 247.248H132.987ZM143.667 252.176C145.443 252.176 146.675 251.136 146.675 249.744C146.675 248.384 145.859 247.68 143.619 247.36C142.467 247.184 141.779 246.8 141.779 246.08C141.779 245.376 142.515 244.928 143.411 244.928C144.419 244.928 145.267 245.36 145.347 246.576H146.499C146.467 244.672 144.995 243.856 143.363 243.856C141.731 243.856 140.563 244.864 140.563 246.08C140.563 247.2 141.299 248.048 143.635 248.432C144.947 248.64 145.443 249.008 145.443 249.712C145.443 250.432 144.947 251.12 143.715 251.12C142.579 251.12 141.667 250.56 141.539 249.44H140.323C140.419 251.264 141.955 252.176 143.667 252.176ZM151.797 252.176C153.637 252.176 154.965 251.024 155.189 249.44H154.037C153.749 250.512 152.757 251.072 151.829 251.072C150.309 251.072 149.349 250.016 149.349 248.336V248.32H155.317C155.381 245.776 154.085 243.904 151.781 243.904C149.509 243.904 148.085 245.616 148.085 248.064C148.085 250.576 149.589 252.176 151.797 252.176ZM149.397 247.248C149.541 245.92 150.357 244.992 151.749 244.992C153.189 244.992 153.877 245.92 154.021 247.248H149.397ZM157.373 252H158.573V247.696C158.589 245.952 159.613 244.864 160.877 244.864C161.997 244.864 162.781 245.712 162.781 247.168V252H164.045V247.088C164.045 244.848 162.621 243.792 161.069 243.792C159.853 243.792 158.957 244.48 158.573 245.088V244H157.373V252ZM168.617 252H169.753V250.88H168.793C168.137 250.88 167.801 250.56 167.801 249.76V245.072H169.737V244H167.801V241.648H166.601V244H165.385V245.072H166.601V249.936C166.601 251.216 167.417 252 168.617 252ZM173.629 252.16C174.829 252.16 175.725 251.616 176.285 250.88V252H177.517V246.496C177.517 244.928 176.429 243.808 174.493 243.808C172.621 243.808 171.389 244.896 171.229 246.464L172.493 246.448C172.621 245.552 173.309 244.896 174.525 244.896C175.501 244.896 176.285 245.36 176.285 246.176C176.285 247.088 174.861 247.216 173.837 247.312C172.925 247.392 172.205 247.6 171.677 248.016C171.181 248.416 170.925 249.056 170.925 249.744C170.925 251.28 172.205 252.16 173.629 252.16ZM173.789 251.056C172.973 251.04 172.205 250.56 172.205 249.696C172.205 248.896 172.813 248.4 174.125 248.288C175.245 248.192 175.949 248.016 176.285 247.712V248.784C176.269 250.416 174.845 251.072 173.789 251.056ZM182.011 252H183.147V250.88H182.187C181.531 250.88 181.195 250.56 181.195 249.76V245.072H183.131V244H181.195V241.648H179.995V244H178.779V245.072H179.995V249.936C179.995 251.216 180.811 252 182.011 252ZM184.799 242.32H186.191V240.8H184.799V242.32ZM184.879 252H186.111V244H184.879V252ZM191.948 252.08C194.108 252.08 195.708 250.384 195.708 248C195.708 245.584 194.204 243.888 191.948 243.888C189.772 243.888 188.172 245.584 188.172 248C188.172 250.384 189.772 252.08 191.948 252.08ZM191.916 250.944C190.396 250.944 189.388 249.712 189.388 248C189.388 246.272 190.412 245.024 191.948 245.024C193.596 245.024 194.524 246.288 194.524 248.032C194.524 249.728 193.5 250.944 191.916 250.944ZM197.757 252H198.957V247.696C198.973 245.952 199.997 244.864 201.261 244.864C202.381 244.864 203.165 245.712 203.165 247.168V252H204.429V247.088C204.429 244.848 203.005 243.792 201.453 243.792C200.237 243.792 199.341 244.48 198.957 245.088V244H197.757V252ZM214.507 252.08C216.667 252.08 218.267 250.384 218.267 248C218.267 245.584 216.763 243.888 214.507 243.888C212.331 243.888 210.731 245.584 210.731 248C210.731 250.384 212.331 252.08 214.507 252.08ZM214.475 250.944C212.955 250.944 211.947 249.712 211.947 248C211.947 246.272 212.971 245.024 214.507 245.024C216.155 245.024 217.083 246.288 217.083 248.032C217.083 249.728 216.059 250.944 214.475 250.944ZM220.412 252H221.612V245.072H223.532V244H221.612V243.04C221.612 242.24 221.948 241.904 222.604 241.904H223.564V240.8H222.428C221.228 240.8 220.412 241.584 220.412 242.864V244H219.276V245.072H220.412V252ZM232.176 252H233.424V247.392L237.504 240.8H236.208L232.8 246.288L229.456 240.8H228.096L232.176 247.392V252ZM241.106 252.176C242.946 252.176 244.274 251.024 244.498 249.44H243.346C243.058 250.512 242.066 251.072 241.138 251.072C239.618 251.072 238.658 250.016 238.658 248.336V248.32H244.626C244.69 245.776 243.394 243.904 241.09 243.904C238.818 243.904 237.394 245.616 237.394 248.064C237.394 250.576 238.898 252.176 241.106 252.176ZM238.706 247.248C238.85 245.92 239.666 244.992 241.058 244.992C242.498 244.992 243.186 245.92 243.33 247.248H238.706ZM246.682 252H247.93V240.8H246.682V252ZM250.551 252H251.799V240.8H250.551V252ZM257.636 252.08C259.796 252.08 261.396 250.384 261.396 248C261.396 245.584 259.892 243.888 257.636 243.888C255.46 243.888 253.86 245.584 253.86 248C253.86 250.384 255.46 252.08 257.636 252.08ZM257.604 250.944C256.084 250.944 255.076 249.712 255.076 248C255.076 246.272 256.1 245.024 257.636 245.024C259.284 245.024 260.212 246.288 260.212 248.032C260.212 249.728 259.188 250.944 257.604 250.944ZM264.84 252H266.264L267.976 245.92L269.688 252H271.112L273.624 244H272.248L270.408 250.544L268.552 244H267.384L265.544 250.544L263.688 244H262.328L264.84 252ZM273.889 252H275.425V250.368H273.889V252ZM280.695 252.08C282.855 252.08 284.455 250.384 284.455 248C284.455 245.584 282.951 243.888 280.695 243.888C278.519 243.888 276.919 245.584 276.919 248C276.919 250.384 278.519 252.08 280.695 252.08ZM280.663 250.944C279.143 250.944 278.135 249.712 278.135 248C278.135 246.272 279.159 245.024 280.695 245.024C282.343 245.024 283.271 246.288 283.271 248.032C283.271 249.728 282.247 250.944 280.663 250.944ZM286.504 252H287.688V247.536C287.688 245.6 288.856 245.056 290.232 245.104L290.344 245.088V243.888L290.2 243.872C288.52 243.792 287.864 244.672 287.688 245.088V244H286.504V252ZM295.025 255.312C297.233 255.312 298.849 254.064 298.849 251.408V244H297.665V245.392C297.153 244.432 296.017 243.824 294.881 243.824C292.785 243.824 291.297 245.568 291.297 247.952C291.297 250.352 292.705 252.08 294.833 252.08C296.033 252.08 297.169 251.44 297.665 250.48V251.408C297.665 253.376 296.561 254.24 295.041 254.24C294.289 254.24 292.993 253.888 292.801 252.576H291.585C291.665 254.144 293.025 255.312 295.025 255.312ZM295.057 250.944C293.569 250.944 292.593 249.712 292.593 248C292.593 246.24 293.569 244.976 295.057 244.976C296.609 244.976 297.633 246.192 297.633 247.888C297.633 249.664 296.609 250.944 295.057 250.944ZM59.8767 276H61.1087V265.968H65.1087V264.8H55.8607V265.968H59.8767V276ZM69.0949 276.08C71.2549 276.08 72.8549 274.384 72.8549 272C72.8549 269.584 71.3509 267.888 69.0949 267.888C66.9189 267.888 65.3189 269.584 65.3189 272C65.3189 274.384 66.9189 276.08 69.0949 276.08ZM69.0629 274.944C67.5429 274.944 66.5349 273.712 66.5349 272C66.5349 270.272 67.5589 269.024 69.0949 269.024C70.7429 269.024 71.6709 270.288 71.6709 272.032C71.6709 273.728 70.6469 274.944 69.0629 274.944ZM74.9039 276H76.1039V273.344L77.3519 272.032L80.0559 275.984L81.4479 276L78.1519 271.136L81.1279 268H79.6239L76.1039 271.728V264.8H74.9039V276ZM85.8465 276.176C87.6865 276.176 89.0145 275.024 89.2385 273.44H88.0865C87.7985 274.512 86.8065 275.072 85.8785 275.072C84.3585 275.072 83.3985 274.016 83.3985 272.336V272.32H89.3665C89.4305 269.776 88.1345 267.904 85.8305 267.904C83.5585 267.904 82.1345 269.616 82.1345 272.064C82.1345 274.576 83.6385 276.176 85.8465 276.176ZM83.4465 271.248C83.5905 269.92 84.4065 268.992 85.7985 268.992C87.2385 268.992 87.9265 269.92 88.0705 271.248H83.4465ZM91.4226 276H92.6226V271.696C92.6386 269.952 93.6626 268.864 94.9266 268.864C96.0466 268.864 96.8306 269.712 96.8306 271.168V276H98.0946V271.088C98.0946 268.848 96.6706 267.792 95.1186 267.792C93.9026 267.792 93.0066 268.48 92.6226 269.088V268H91.4226V276ZM105.189 266.32H106.581V264.8H105.189V266.32ZM105.269 276H106.501V268H105.269V276ZM109.123 276H110.323V271.696C110.339 269.952 111.363 268.864 112.627 268.864C113.747 268.864 114.531 269.712 114.531 271.168V276H115.795V271.088C115.795 268.848 114.371 267.792 112.819 267.792C111.603 267.792 110.707 268.48 110.323 269.088V268H109.123V276ZM120.367 276H121.503V274.88H120.543C119.887 274.88 119.551 274.56 119.551 273.76V269.072H121.487V268H119.551V265.648H118.351V268H117.135V269.072H118.351V273.936C118.351 275.216 119.167 276 120.367 276ZM126.231 276.176C128.071 276.176 129.399 275.024 129.623 273.44H128.471C128.183 274.512 127.191 275.072 126.263 275.072C124.743 275.072 123.783 274.016 123.783 272.336V272.32H129.751C129.815 269.776 128.519 267.904 126.215 267.904C123.943 267.904 122.519 269.616 122.519 272.064C122.519 274.576 124.023 276.176 126.231 276.176ZM123.831 271.248C123.975 269.92 124.791 268.992 126.183 268.992C127.623 268.992 128.311 269.92 128.455 271.248H123.831ZM134.975 279.312C137.183 279.312 138.799 278.064 138.799 275.408V268H137.615V269.392C137.103 268.432 135.967 267.824 134.831 267.824C132.735 267.824 131.247 269.568 131.247 271.952C131.247 274.352 132.655 276.08 134.783 276.08C135.983 276.08 137.119 275.44 137.615 274.48V275.408C137.615 277.376 136.511 278.24 134.991 278.24C134.239 278.24 132.943 277.888 132.751 276.576H131.535C131.615 278.144 132.975 279.312 134.975 279.312ZM135.007 274.944C133.519 274.944 132.543 273.712 132.543 272C132.543 270.24 133.519 268.976 135.007 268.976C136.559 268.976 137.583 270.192 137.583 271.888C137.583 273.664 136.559 274.944 135.007 274.944ZM141.332 276H142.516V271.536C142.516 269.6 143.684 269.056 145.06 269.104L145.172 269.088V267.888L145.028 267.872C143.348 267.792 142.692 268.672 142.516 269.088V268H141.332V276ZM148.985 276.16C150.185 276.16 151.081 275.616 151.641 274.88V276H152.873V270.496C152.873 268.928 151.785 267.808 149.849 267.808C147.977 267.808 146.745 268.896 146.585 270.464L147.849 270.448C147.977 269.552 148.665 268.896 149.881 268.896C150.857 268.896 151.641 269.36 151.641 270.176C151.641 271.088 150.217 271.216 149.193 271.312C148.281 271.392 147.561 271.6 147.033 272.016C146.537 272.416 146.281 273.056 146.281 273.744C146.281 275.28 147.561 276.16 148.985 276.16ZM149.145 275.056C148.329 275.04 147.561 274.56 147.561 273.696C147.561 272.896 148.169 272.4 149.481 272.288C150.601 272.192 151.305 272.016 151.641 271.712V272.784C151.625 274.416 150.201 275.072 149.145 275.056ZM157.367 276H158.503V274.88H157.543C156.887 274.88 156.551 274.56 156.551 273.76V269.072H158.487V268H156.551V265.648H155.351V268H154.135V269.072H155.351V273.936C155.351 275.216 156.167 276 157.367 276ZM160.155 266.32H161.547V264.8H160.155V266.32ZM160.235 276H161.467V268H160.235V276ZM167.304 276.08C169.464 276.08 171.064 274.384 171.064 272C171.064 269.584 169.56 267.888 167.304 267.888C165.128 267.888 163.528 269.584 163.528 272C163.528 274.384 165.128 276.08 167.304 276.08ZM167.272 274.944C165.752 274.944 164.744 273.712 164.744 272C164.744 270.272 165.768 269.024 167.304 269.024C168.952 269.024 169.88 270.288 169.88 272.032C169.88 273.728 168.856 274.944 167.272 274.944ZM173.113 276H174.313V271.696C174.329 269.952 175.353 268.864 176.617 268.864C177.737 268.864 178.521 269.712 178.521 271.168V276H179.785V271.088C179.785 268.848 178.361 267.792 176.809 267.792C175.593 267.792 174.697 268.48 174.313 269.088V268H173.113V276ZM188.2 276H189.624L191.336 269.92L193.048 276H194.472L196.984 268H195.608L193.768 274.544L191.912 268H190.744L188.904 274.544L187.048 268H185.688L188.2 276ZM198.561 266.32H199.953V264.8H198.561V266.32ZM198.641 276H199.873V268H198.641V276ZM204.526 276H205.662V274.88H204.702C204.046 274.88 203.71 274.56 203.71 273.76V269.072H205.646V268H203.71V265.648H202.51V268H201.294V269.072H202.51V273.936C202.51 275.216 203.326 276 204.526 276ZM207.394 276H208.594V271.696C208.61 269.952 209.538 268.864 210.898 268.864C212.018 268.864 212.802 269.808 212.802 271.168V276H214.066V271.088C214.066 268.848 212.642 267.792 211.09 267.792C209.874 267.792 208.978 268.48 208.594 269.088V264.8H207.394V276ZM223.957 276H225.205V271.392L229.285 264.8H227.989L224.581 270.288L221.237 264.8H219.877L223.957 271.392V276ZM232.887 276.176C234.727 276.176 236.055 275.024 236.279 273.44H235.127C234.839 274.512 233.847 275.072 232.919 275.072C231.399 275.072 230.439 274.016 230.439 272.336V272.32H236.407C236.471 269.776 235.175 267.904 232.871 267.904C230.599 267.904 229.175 269.616 229.175 272.064C229.175 274.576 230.679 276.176 232.887 276.176ZM230.487 271.248C230.631 269.92 231.447 268.992 232.839 268.992C234.279 268.992 234.967 269.92 235.111 271.248H230.487ZM238.463 276H239.711V264.8H238.463V276ZM242.332 276H243.58V264.8H242.332V276ZM249.417 276.08C251.577 276.08 253.177 274.384 253.177 272C253.177 269.584 251.673 267.888 249.417 267.888C247.241 267.888 245.641 269.584 245.641 272C245.641 274.384 247.241 276.08 249.417 276.08ZM249.385 274.944C247.865 274.944 246.857 273.712 246.857 272C246.857 270.272 247.881 269.024 249.417 269.024C251.065 269.024 251.993 270.288 251.993 272.032C251.993 273.728 250.969 274.944 249.385 274.944ZM256.621 276H258.045L259.757 269.92L261.469 276H262.893L265.405 268H264.029L262.189 274.544L260.333 268H259.165L257.325 274.544L255.469 268H254.109L256.621 276ZM265.671 276H267.207V274.368H265.671V276ZM272.348 276.112C274.14 276.112 275.532 274.928 275.74 273.296H274.524C274.348 274.24 273.516 275.008 272.396 275.008C270.972 275.008 269.98 273.808 269.98 271.984C269.98 270.112 270.988 268.912 272.412 268.912C273.468 268.912 274.316 269.648 274.524 270.608H275.74C275.532 268.992 274.156 267.84 272.412 267.84C270.236 267.84 268.7 269.504 268.7 272C268.7 274.448 270.252 276.112 272.348 276.112ZM281.017 276.08C283.177 276.08 284.777 274.384 284.777 272C284.777 269.584 283.273 267.888 281.017 267.888C278.841 267.888 277.241 269.584 277.241 272C277.241 274.384 278.841 276.08 281.017 276.08ZM280.985 274.944C279.465 274.944 278.457 273.712 278.457 272C278.457 270.272 279.481 269.024 281.017 269.024C282.665 269.024 283.593 270.288 283.593 272.032C283.593 273.728 282.569 274.944 280.985 274.944ZM286.826 276H288.026V271.696C288.042 269.952 289.002 268.864 290.266 268.864C291.386 268.864 292.17 269.712 292.17 271.168V276H293.434V271.696C293.45 269.952 294.41 268.864 295.674 268.864C296.794 268.864 297.578 269.712 297.578 271.168V276H298.842V271.088C298.842 268.848 297.402 267.792 295.882 267.792C294.522 267.792 293.562 268.528 293.066 269.408C292.426 268.144 291.29 267.792 290.458 267.792C289.242 267.792 288.41 268.48 288.026 269.088V268H286.826V276Z" fill="#272727"/>
<line x1="367" y1="413" x2="110" y2="413" stroke="#FCD000" stroke-width="20"/>
<path d="M371.774 413L366 418.774L360.226 413L366 407.227L371.774 413ZM366 414L110 414L110 412L366 412L366 414Z" fill="#272727"/>
<path d="M260.15 479.72L261.176 478.388L259.466 477.128C260.384 476.012 260.924 474.5 260.924 472.736C260.924 468.938 258.26 466.256 254.948 466.256C251.636 466.256 248.972 468.92 248.972 472.7C248.972 476.498 251.636 479.18 254.948 479.18C256.244 479.18 257.27 478.856 258.188 478.262L260.15 479.72ZM254.93 477.272C252.68 477.272 251.078 475.346 251.078 472.754C251.078 470.108 252.68 468.146 254.948 468.146C257.234 468.146 258.854 470.126 258.854 472.79C258.854 474.05 258.458 475.13 257.792 475.904L255.902 474.5L254.876 475.814L256.37 476.912C256.028 477.11 255.452 477.272 254.93 477.272ZM262.705 479H271.327V477.164H265.459L267.331 475.508C269.419 473.654 271.237 472.358 271.237 470.126C271.237 467.894 269.455 466.238 267.043 466.238C264.469 466.238 262.669 467.894 262.561 470.36H264.631C264.793 468.974 265.729 468.074 267.025 468.074C268.357 468.074 269.239 468.92 269.239 470.216C269.239 471.692 267.853 472.646 265.567 474.608L262.705 477.074V479ZM277.655 469.064H279.797V466.76H278.717C278.699 466.022 279.023 465.716 279.689 465.698V464.6C278.465 464.6 277.691 465.23 277.673 466.76L277.655 469.064ZM281.041 479H289.663V477.164H283.795L285.667 475.508C287.755 473.654 289.573 472.358 289.573 470.126C289.573 467.894 287.791 466.238 285.379 466.238C282.805 466.238 281.005 467.894 280.897 470.36H282.967C283.129 468.974 284.065 468.074 285.361 468.074C286.693 468.074 287.575 468.92 287.575 470.216C287.575 471.692 286.189 472.646 283.903 474.608L281.041 477.074V479ZM290.926 479H299.548V477.164H293.68L295.552 475.508C297.64 473.654 299.458 472.358 299.458 470.126C299.458 467.894 297.676 466.238 295.264 466.238C292.69 466.238 290.89 467.894 290.782 470.36H292.852C293.014 468.974 293.95 468.074 295.246 468.074C296.578 468.074 297.46 468.92 297.46 470.216C297.46 471.692 296.074 472.646 293.788 474.608L290.926 477.074V479Z" fill="#FF9110"/>
<path d="M144.798 496H134.958V517H139.038V510.58H144.618C149.448 510.58 152.088 506.83 152.088 503.29C152.088 499.81 149.418 496 144.798 496ZM144.498 506.92H139.038V499.72H144.678C146.688 499.72 148.098 501.46 148.098 503.32C148.098 505.15 146.718 506.92 144.498 506.92ZM165.062 501.82V509.29C165.062 511.99 163.652 513.73 161.402 513.73C159.212 513.73 158.162 512.23 158.162 509.92V501.82H154.202V510.67C154.202 514.75 156.212 517.42 160.202 517.42C162.392 517.42 164.042 516.43 165.062 515.08V517H169.022V501.82H165.062ZM181.807 501.4C179.647 501.4 177.997 502.27 176.887 503.65V495.1H172.927V517H176.887V515.14C177.997 516.52 179.647 517.42 181.807 517.42C186.007 517.42 189.277 514 189.277 509.41C189.277 504.79 186.007 501.4 181.807 501.4ZM181.117 513.88C178.717 513.88 176.797 512.02 176.797 509.38C176.797 506.77 178.717 504.94 181.117 504.94C183.607 504.94 185.377 506.77 185.377 509.38C185.377 512.02 183.607 513.88 181.117 513.88ZM192.263 517H196.223V495.1H192.263V517ZM202.124 499.69C203.444 499.69 204.494 498.67 204.494 497.35C204.494 496.09 203.444 495.07 202.124 495.07C200.804 495.07 199.754 496.09 199.754 497.35C199.754 498.67 200.804 499.69 202.124 499.69ZM200.084 517H204.074V501.82H200.084V517ZM215.164 517.42C219.334 517.42 221.944 514.78 222.544 512.47L218.854 511.45C218.524 512.71 217.114 513.88 215.134 513.88C212.614 513.88 210.994 511.75 210.994 509.38C210.994 506.98 212.614 504.91 215.134 504.91C217.114 504.91 218.524 506.17 218.854 507.43L222.544 506.38C221.944 504.1 219.334 501.4 215.134 501.4C210.514 501.4 207.094 504.85 207.094 509.38C207.094 513.94 210.514 517.42 215.164 517.42ZM247.149 505.99C248.769 505.12 249.759 503.62 249.759 501.61C249.729 498.28 246.939 496 242.829 496H232.809V517H243.399C247.869 517 250.539 514.66 250.539 511.06C250.539 508.69 249.219 506.92 247.149 505.99ZM242.799 499.54C244.539 499.51 245.709 500.62 245.709 502.09C245.739 503.53 244.599 504.73 242.889 504.73H236.829V499.54H242.799ZM243.369 513.43H236.829V507.97H243.399C245.349 507.97 246.459 509.17 246.459 510.67C246.459 512.2 245.319 513.43 243.369 513.43ZM260.901 517.42C264.891 517.42 267.351 515.08 268.221 513.1L264.651 512.05C264.051 513.19 262.881 514.06 260.961 514.06C258.201 514.06 256.821 512.56 256.551 510.61H268.341C268.431 510.13 268.431 509.68 268.431 509.2C268.431 504.85 265.581 501.4 260.601 501.4C255.831 501.4 252.651 504.88 252.651 509.41C252.651 514.21 256.041 517.42 260.901 517.42ZM256.551 508.12C256.761 506.38 258.261 504.76 260.571 504.76C262.941 504.76 264.381 506.26 264.561 508.12H256.551ZM279.653 513.31C279.053 513.61 278.543 513.73 277.853 513.73C276.593 513.73 275.993 513.04 275.993 511.81V505.3H280.433V501.82H275.993V496.9H272.003V501.82H269.453V505.3H272.003V511.81C272.003 515.08 273.593 517.24 277.073 517.24C278.333 517.24 279.413 517 280.613 516.52L279.653 513.31ZM289.184 517.42C291.314 517.42 292.994 516.52 294.074 515.14V517H298.064V501.82H294.074V503.65C292.994 502.27 291.314 501.4 289.184 501.4C284.984 501.4 281.684 504.79 281.684 509.41C281.684 514 284.984 517.42 289.184 517.42ZM289.874 513.88C287.384 513.88 285.614 512.02 285.614 509.38C285.614 506.77 287.384 504.94 289.874 504.94C292.274 504.94 294.194 506.77 294.194 509.38C294.194 512.02 292.274 513.88 289.874 513.88Z" fill="#272727"/>
<path d="M177.404 549.016H178.62V544.376H181.788C183.82 544.376 185.164 543.032 185.164 541.112C185.164 539.176 183.852 537.8 181.884 537.784L177.404 537.8V549.016ZM178.62 543.272L178.636 538.888H181.708C183.036 538.888 183.964 539.72 183.964 541.112C183.964 542.456 183.036 543.272 181.708 543.272H178.62ZM189.947 549.208C191.179 549.208 192.075 548.52 192.443 547.912V549H193.643V541H192.443V545.304C192.427 547.048 191.515 548.136 190.139 548.136C189.019 548.136 188.251 547.192 188.235 545.832V541H186.971V545.912C186.971 548.152 188.395 549.208 189.947 549.208ZM200.119 549.176C202.055 549.176 203.735 547.592 203.735 545.048C203.735 542.52 202.119 540.92 200.167 540.92C198.919 540.92 197.911 541.56 197.431 542.36V537.8H196.263V549H197.431V547.72C197.831 548.472 198.887 549.176 200.119 549.176ZM199.991 548.024C198.439 548.024 197.399 546.808 197.399 545.112C197.399 543.336 198.439 542.056 199.991 542.056C201.479 542.056 202.455 543.288 202.455 545C202.455 546.76 201.479 548.024 199.991 548.024ZM205.788 549H207.036V537.8H205.788V549ZM209.577 539.32H210.969V537.8H209.577V539.32ZM209.657 549H210.889V541H209.657V549ZM216.598 549.112C218.39 549.112 219.782 547.928 219.99 546.296H218.774C218.598 547.24 217.766 548.008 216.646 548.008C215.222 548.008 214.23 546.808 214.23 544.984C214.23 543.112 215.238 541.912 216.662 541.912C217.718 541.912 218.566 542.648 218.774 543.608H219.99C219.782 541.992 218.406 540.84 216.662 540.84C214.486 540.84 212.95 542.504 212.95 545C212.95 547.448 214.502 549.112 216.598 549.112ZM228.077 549H229.213V547.88H228.253C227.597 547.88 227.261 547.56 227.261 546.76V542.072H229.197V541H227.261V538.648H226.061V541H224.845V542.072H226.061V546.936C226.061 548.216 226.877 549 228.077 549ZM234.004 549.08C236.164 549.08 237.764 547.384 237.764 545C237.764 542.584 236.26 540.888 234.004 540.888C231.828 540.888 230.228 542.584 230.228 545C230.228 547.384 231.828 549.08 234.004 549.08ZM233.972 547.944C232.452 547.944 231.444 546.712 231.444 545C231.444 543.272 232.468 542.024 234.004 542.024C235.652 542.024 236.58 543.288 236.58 545.032C236.58 546.728 235.556 547.944 233.972 547.944ZM239.813 549H241.013V546.344L242.261 545.032L244.965 548.984L246.357 549L243.061 544.136L246.037 541H244.533L241.013 544.728V537.8H239.813V549ZM250.756 549.176C252.596 549.176 253.924 548.024 254.148 546.44H252.996C252.708 547.512 251.716 548.072 250.788 548.072C249.268 548.072 248.308 547.016 248.308 545.336V545.32H254.276C254.34 542.776 253.044 540.904 250.74 540.904C248.468 540.904 247.044 542.616 247.044 545.064C247.044 547.576 248.548 549.176 250.756 549.176ZM248.356 544.248C248.5 542.92 249.316 541.992 250.708 541.992C252.148 541.992 252.836 542.92 252.98 544.248H248.356ZM256.332 549H257.532V544.696C257.548 542.952 258.572 541.864 259.836 541.864C260.956 541.864 261.74 542.712 261.74 544.168V549H263.004V544.088C263.004 541.848 261.58 540.792 260.028 540.792C258.812 540.792 257.916 541.48 257.532 542.088V541H256.332V549ZM268.249 549.176C270.025 549.176 271.257 548.136 271.257 546.744C271.257 545.384 270.441 544.68 268.201 544.36C267.049 544.184 266.361 543.8 266.361 543.08C266.361 542.376 267.097 541.928 267.993 541.928C269.001 541.928 269.849 542.36 269.929 543.576H271.081C271.049 541.672 269.577 540.856 267.945 540.856C266.312 540.856 265.145 541.864 265.145 543.08C265.145 544.2 265.881 545.048 268.217 545.432C269.529 545.64 270.025 546.008 270.025 546.712C270.025 547.432 269.529 548.12 268.297 548.12C267.161 548.12 266.249 547.56 266.121 546.44H264.905C265.001 548.264 266.537 549.176 268.249 549.176ZM279.939 549.176C281.715 549.176 282.947 548.136 282.947 546.744C282.947 545.384 282.131 544.68 279.891 544.36C278.739 544.184 278.051 543.8 278.051 543.08C278.051 542.376 278.787 541.928 279.683 541.928C280.691 541.928 281.539 542.36 281.619 543.576H282.771C282.739 541.672 281.267 540.856 279.635 540.856C278.003 540.856 276.835 541.864 276.835 543.08C276.835 544.2 277.571 545.048 279.907 545.432C281.219 545.64 281.715 546.008 281.715 546.712C281.715 547.432 281.219 548.12 279.987 548.12C278.851 548.12 277.939 547.56 277.811 546.44H276.595C276.691 548.264 278.227 549.176 279.939 549.176ZM288.068 549.176C289.908 549.176 291.236 548.024 291.46 546.44H290.308C290.02 547.512 289.028 548.072 288.1 548.072C286.58 548.072 285.62 547.016 285.62 545.336V545.32H291.588C291.652 542.776 290.356 540.904 288.052 540.904C285.78 540.904 284.356 542.616 284.356 545.064C284.356 547.576 285.86 549.176 288.068 549.176ZM285.668 544.248C285.812 542.92 286.628 541.992 288.02 541.992C289.46 541.992 290.148 542.92 290.292 544.248H285.668ZM293.645 549H294.893V537.8H293.645V549ZM297.513 549H298.761V537.8H297.513V549ZM155.036 573.032L159.276 573C162.252 573 164.252 570.696 164.252 567.32C164.252 564.024 162.188 561.752 159.116 561.768L155.036 561.8V573.032ZM156.252 571.832V563.032L159.1 563C161.436 562.968 163.004 564.728 163.004 567.384C163.004 570.024 161.404 571.784 159.02 571.8L156.252 571.832ZM169.615 573.176C171.455 573.176 172.783 572.024 173.007 570.44H171.855C171.567 571.512 170.575 572.072 169.647 572.072C168.127 572.072 167.167 571.016 167.167 569.336V569.32H173.135C173.199 566.776 171.903 564.904 169.599 564.904C167.327 564.904 165.903 566.616 165.903 569.064C165.903 571.576 167.407 573.176 169.615 573.176ZM167.215 568.248C167.359 566.92 168.175 565.992 169.567 565.992C171.007 565.992 171.695 566.92 171.839 568.248H167.215ZM175.191 573H176.375V568.536C176.375 566.6 177.543 566.056 178.919 566.104L179.031 566.088V564.888L178.887 564.872C177.207 564.792 176.551 565.672 176.375 566.088V565H175.191V573ZM180.621 563.32H182.013V561.8H180.621V563.32ZM180.701 573H181.933V565H180.701V573ZM186.634 573H187.914L191.066 565H189.738L187.274 571.528L184.81 565H183.514L186.634 573ZM194.629 573.16C195.829 573.16 196.725 572.616 197.285 571.88V573H198.517V567.496C198.517 565.928 197.429 564.808 195.493 564.808C193.621 564.808 192.389 565.896 192.229 567.464L193.493 567.448C193.621 566.552 194.309 565.896 195.525 565.896C196.501 565.896 197.285 566.36 197.285 567.176C197.285 568.088 195.861 568.216 194.837 568.312C193.925 568.392 193.205 568.6 192.677 569.016C192.181 569.416 191.925 570.056 191.925 570.744C191.925 572.28 193.205 573.16 194.629 573.16ZM194.789 572.056C193.973 572.04 193.205 571.56 193.205 570.696C193.205 569.896 193.813 569.4 195.125 569.288C196.245 569.192 196.949 569.016 197.285 568.712V569.784C197.269 571.416 195.845 572.072 194.789 572.056ZM203.011 573H204.147V571.88H203.187C202.531 571.88 202.195 571.56 202.195 570.76V566.072H204.131V565H202.195V562.648H200.995V565H199.779V566.072H200.995V570.936C200.995 572.216 201.811 573 203.011 573ZM205.799 563.32H207.191V561.8H205.799V563.32ZM205.879 573H207.111V565H205.879V573ZM211.812 573H213.092L216.244 565H214.916L212.452 571.528L209.988 565H208.692L211.812 573ZM220.815 573.176C222.655 573.176 223.983 572.024 224.207 570.44H223.055C222.767 571.512 221.775 572.072 220.847 572.072C219.327 572.072 218.367 571.016 218.367 569.336V569.32H224.335C224.399 566.776 223.103 564.904 220.799 564.904C218.527 564.904 217.103 566.616 217.103 569.064C217.103 571.576 218.607 573.176 220.815 573.176ZM218.415 568.248C218.559 566.92 219.375 565.992 220.767 565.992C222.207 565.992 222.895 566.92 223.039 568.248H218.415ZM230.873 573H237.929V571.8H232.105V567.912H237.593V566.744H232.105V563H237.929V561.8H230.873V573ZM239.108 573H240.516L242.692 569.976L244.836 573H246.244L243.38 569L246.244 565H244.82L242.692 568.024L240.532 565H239.108L241.988 569L239.108 573ZM250.758 573.112C252.55 573.112 253.942 571.928 254.15 570.296H252.934C252.758 571.24 251.926 572.008 250.806 572.008C249.382 572.008 248.39 570.808 248.39 568.984C248.39 567.112 249.398 565.912 250.822 565.912C251.878 565.912 252.726 566.648 252.934 567.608H254.15C253.942 565.992 252.566 564.84 250.822 564.84C248.646 564.84 247.11 566.504 247.11 569C247.11 571.448 248.662 573.112 250.758 573.112ZM256.21 573H257.41V568.696C257.426 566.952 258.354 565.864 259.714 565.864C260.834 565.864 261.618 566.808 261.618 568.168V573H262.882V568.088C262.882 565.848 261.458 564.792 259.906 564.792C258.69 564.792 257.794 565.48 257.41 566.088V561.8H256.21V573ZM267.567 573.16C268.767 573.16 269.663 572.616 270.223 571.88V573H271.455V567.496C271.455 565.928 270.367 564.808 268.431 564.808C266.559 564.808 265.327 565.896 265.167 567.464L266.431 567.448C266.559 566.552 267.247 565.896 268.463 565.896C269.439 565.896 270.223 566.36 270.223 567.176C270.223 568.088 268.799 568.216 267.775 568.312C266.863 568.392 266.143 568.6 265.615 569.016C265.119 569.416 264.863 570.056 264.863 570.744C264.863 572.28 266.143 573.16 267.567 573.16ZM267.727 572.056C266.911 572.04 266.143 571.56 266.143 570.696C266.143 569.896 266.751 569.4 268.063 569.288C269.183 569.192 269.887 569.016 270.223 568.712V569.784C270.207 571.416 268.783 572.072 267.727 572.056ZM273.916 573H275.116V568.696C275.132 566.952 276.156 565.864 277.42 565.864C278.54 565.864 279.324 566.712 279.324 568.168V573H280.588V568.088C280.588 565.848 279.164 564.792 277.612 564.792C276.396 564.792 275.5 565.48 275.116 566.088V565H273.916V573ZM286.297 576.312C288.505 576.312 290.121 575.064 290.121 572.408V565H288.937V566.392C288.425 565.432 287.289 564.824 286.153 564.824C284.057 564.824 282.569 566.568 282.569 568.952C282.569 571.352 283.977 573.08 286.105 573.08C287.305 573.08 288.441 572.44 288.937 571.48V572.408C288.937 574.376 287.833 575.24 286.313 575.24C285.561 575.24 284.265 574.888 284.073 573.576H282.857C282.937 575.144 284.297 576.312 286.297 576.312ZM286.329 571.944C284.841 571.944 283.865 570.712 283.865 569C283.865 567.24 284.841 565.976 286.329 565.976C287.881 565.976 288.905 567.192 288.905 568.888C288.905 570.664 287.881 571.944 286.329 571.944ZM295.806 573.176C297.646 573.176 298.974 572.024 299.198 570.44H298.046C297.758 571.512 296.766 572.072 295.838 572.072C294.318 572.072 293.358 571.016 293.358 569.336V569.32H299.326C299.39 566.776 298.094 564.904 295.79 564.904C293.518 564.904 292.094 566.616 292.094 569.064C292.094 571.576 293.598 573.176 295.806 573.176ZM293.406 568.248C293.55 566.92 294.366 565.992 295.758 565.992C297.198 565.992 297.886 566.92 298.03 568.248H293.406Z" fill="#272727"/>
<line y1="-10" x2="257" y2="-10" transform="matrix(1 0 0 -1 367 248)" stroke="#FCD000" stroke-width="20"/>
<path d="M361.226 258L367 263.774L372.774 258L367 252.226L361.226 258ZM367 259L624 259L624 257L367 257L367 259Z" fill="#272727"/>
<path d="M443.898 324.72L444.924 323.388L443.214 322.128C444.132 321.012 444.672 319.5 444.672 317.736C444.672 313.938 442.008 311.256 438.696 311.256C435.384 311.256 432.72 313.92 432.72 317.7C432.72 321.498 435.384 324.18 438.696 324.18C439.992 324.18 441.018 323.856 441.936 323.262L443.898 324.72ZM438.678 322.272C436.428 322.272 434.826 320.346 434.826 317.754C434.826 315.108 436.428 313.146 438.696 313.146C440.982 313.146 442.602 315.126 442.602 317.79C442.602 319.05 442.206 320.13 441.54 320.904L439.65 319.5L438.624 320.814L440.118 321.912C439.776 322.11 439.2 322.272 438.678 322.272ZM454.949 324V322.344H451.799V311.4H450.215L446.921 313.83V315.684L449.945 313.524V322.344H446.921V324H454.949ZM461.667 314.064H463.809V311.76H462.729C462.711 311.022 463.035 310.716 463.701 310.698V309.6C462.477 309.6 461.703 310.23 461.685 311.76L461.667 314.064ZM465.053 324H473.675V322.164H467.807L469.679 320.508C471.767 318.654 473.585 317.358 473.585 315.126C473.585 312.894 471.803 311.238 469.391 311.238C466.817 311.238 465.017 312.894 464.909 315.36H466.979C467.141 313.974 468.077 313.074 469.373 313.074C470.705 313.074 471.587 313.92 471.587 315.216C471.587 316.692 470.201 317.646 467.915 319.608L465.053 322.074V324ZM474.938 324H483.56V322.164H477.692L479.564 320.508C481.652 318.654 483.47 317.358 483.47 315.126C483.47 312.894 481.688 311.238 479.276 311.238C476.702 311.238 474.902 312.894 474.794 315.36H476.864C477.026 313.974 477.962 313.074 479.258 313.074C480.59 313.074 481.472 313.92 481.472 315.216C481.472 316.692 480.086 317.646 477.8 319.608L474.938 322.074V324Z" fill="#FF9110"/>
<path d="M443.79 341H433.95V362H438.03V355.58H443.61C448.44 355.58 451.08 351.83 451.08 348.29C451.08 344.81 448.41 341 443.79 341ZM443.49 351.92H438.03V344.72H443.67C445.68 344.72 447.09 346.46 447.09 348.32C447.09 350.15 445.71 351.92 443.49 351.92ZM457.305 349.07V346.82H453.345V362H457.305V355.4C457.305 351.32 459.075 349.82 462.315 350.33V346.61C459.945 346.28 458.205 347.3 457.305 349.07ZM466.897 344.69C468.218 344.69 469.268 343.67 469.268 342.35C469.268 341.09 468.218 340.07 466.897 340.07C465.578 340.07 464.528 341.09 464.528 342.35C464.528 343.67 465.578 344.69 466.897 344.69ZM464.858 362H468.848V346.82H464.858V362ZM483.658 346.82L479.488 357.62L475.318 346.82H470.968L477.238 362H481.708L487.978 346.82H483.658ZM496.125 362.42C498.255 362.42 499.935 361.52 501.015 360.14V362H505.005V346.82H501.015V348.65C499.935 347.27 498.255 346.4 496.125 346.4C491.925 346.4 488.625 349.79 488.625 354.41C488.625 359 491.925 362.42 496.125 362.42ZM496.815 358.88C494.325 358.88 492.555 357.02 492.555 354.38C492.555 351.77 494.325 349.94 496.815 349.94C499.215 349.94 501.135 351.77 501.135 354.38C501.135 357.02 499.215 358.88 496.815 358.88ZM517.561 358.31C516.961 358.61 516.451 358.73 515.761 358.73C514.501 358.73 513.901 358.04 513.901 356.81V350.3H518.341V346.82H513.901V341.9H509.911V346.82H507.361V350.3H509.911V356.81C509.911 360.08 511.501 362.24 514.981 362.24C516.241 362.24 517.321 362 518.521 361.52L517.561 358.31ZM542.978 350.99C544.598 350.12 545.588 348.62 545.588 346.61C545.558 343.28 542.768 341 538.658 341H528.638V362H539.228C543.698 362 546.368 359.66 546.368 356.06C546.368 353.69 545.048 351.92 542.978 350.99ZM538.628 344.54C540.368 344.51 541.538 345.62 541.538 347.09C541.568 348.53 540.428 349.73 538.718 349.73H532.658V344.54H538.628ZM539.198 358.43H532.658V352.97H539.228C541.178 352.97 542.288 354.17 542.288 355.67C542.288 357.2 541.148 358.43 539.198 358.43ZM556.729 362.42C560.719 362.42 563.179 360.08 564.049 358.1L560.479 357.05C559.879 358.19 558.709 359.06 556.789 359.06C554.029 359.06 552.649 357.56 552.379 355.61H564.169C564.259 355.13 564.259 354.68 564.259 354.2C564.259 349.85 561.409 346.4 556.429 346.4C551.659 346.4 548.479 349.88 548.479 354.41C548.479 359.21 551.869 362.42 556.729 362.42ZM552.379 353.12C552.589 351.38 554.089 349.76 556.399 349.76C558.769 349.76 560.209 351.26 560.389 353.12H552.379ZM575.481 358.31C574.881 358.61 574.371 358.73 573.681 358.73C572.421 358.73 571.821 358.04 571.821 356.81V350.3H576.261V346.82H571.821V341.9H567.831V346.82H565.281V350.3H567.831V356.81C567.831 360.08 569.421 362.24 572.901 362.24C574.161 362.24 575.241 362 576.441 361.52L575.481 358.31ZM585.012 362.42C587.142 362.42 588.822 361.52 589.902 360.14V362H593.892V346.82H589.902V348.65C588.822 347.27 587.142 346.4 585.012 346.4C580.812 346.4 577.512 349.79 577.512 354.41C577.512 359 580.812 362.42 585.012 362.42ZM585.702 358.88C583.212 358.88 581.442 357.02 581.442 354.38C581.442 351.77 583.212 349.94 585.702 349.94C588.102 349.94 590.022 351.77 590.022 354.38C590.022 357.02 588.102 358.88 585.702 358.88Z" fill="#272727"/>
<path d="M433.92 394L435.04 390.976H439.856L441.008 394H442.416L438.112 382.8H436.784L432.512 393.984L433.92 394ZM435.44 389.776L437.456 384.256L439.472 389.776H435.44ZM448.16 394.176C450.096 394.176 451.776 392.592 451.776 390.048C451.776 387.52 450.16 385.92 448.208 385.92C446.96 385.92 445.952 386.56 445.472 387.36V382.8H444.304V394H445.472V392.72C445.872 393.472 446.928 394.176 448.16 394.176ZM448.032 393.024C446.48 393.024 445.44 391.808 445.44 390.112C445.44 388.336 446.48 387.056 448.032 387.056C449.52 387.056 450.496 388.288 450.496 390C450.496 391.76 449.52 393.024 448.032 393.024ZM453.749 384.32H455.141V382.8H453.749V384.32ZM453.829 394H455.061V386H453.829V394ZM457.682 394H458.93V382.8H457.682V394ZM461.471 384.32H462.863V382.8H461.471V384.32ZM461.551 394H462.783V386H461.551V394ZM467.436 394H468.572V392.88H467.612C466.956 392.88 466.62 392.56 466.62 391.76V387.072H468.556V386H466.62V383.648H465.42V386H464.204V387.072H465.42V391.936C465.42 393.216 466.236 394 467.436 394ZM469.728 397.2H470.384C471.872 397.184 472.592 396.432 473.088 395.184L476.704 386H475.36L473.024 392.016L470.624 386H469.264L472.4 393.52L471.872 394.928C471.6 395.632 471.136 396.064 470.304 396.064H469.728V397.2ZM484.48 394H485.616V392.88H484.656C484 392.88 483.664 392.56 483.664 391.76V387.072H485.6V386H483.664V383.648H482.464V386H481.248V387.072H482.464V391.936C482.464 393.216 483.28 394 484.48 394ZM490.407 394.08C492.567 394.08 494.167 392.384 494.167 390C494.167 387.584 492.663 385.888 490.407 385.888C488.231 385.888 486.631 387.584 486.631 390C486.631 392.384 488.231 394.08 490.407 394.08ZM490.375 392.944C488.855 392.944 487.847 391.712 487.847 390C487.847 388.272 488.871 387.024 490.407 387.024C492.055 387.024 492.983 388.288 492.983 390.032C492.983 391.728 491.959 392.944 490.375 392.944ZM500.538 394H501.786V382.8H500.538V394ZM504.327 384.32H505.719V382.8H504.327V384.32ZM504.407 394H505.639V386H504.407V394ZM510.964 394.176C512.74 394.176 513.972 393.136 513.972 391.744C513.972 390.384 513.156 389.68 510.916 389.36C509.764 389.184 509.076 388.8 509.076 388.08C509.076 387.376 509.812 386.928 510.708 386.928C511.716 386.928 512.564 387.36 512.644 388.576H513.796C513.764 386.672 512.292 385.856 510.66 385.856C509.028 385.856 507.86 386.864 507.86 388.08C507.86 389.2 508.596 390.048 510.932 390.432C512.244 390.64 512.74 391.008 512.74 391.712C512.74 392.432 512.244 393.12 511.012 393.12C509.876 393.12 508.964 392.56 508.836 391.44H507.62C507.716 393.264 509.252 394.176 510.964 394.176ZM517.973 394H519.109V392.88H518.149C517.493 392.88 517.157 392.56 517.157 391.76V387.072H519.093V386H517.157V383.648H515.957V386H514.741V387.072H515.957V391.936C515.957 393.216 516.773 394 517.973 394ZM524.431 397.2H525.087C526.575 397.184 527.295 396.432 527.791 395.184L531.407 386H530.063L527.727 392.016L525.327 386H523.967L527.103 393.52L526.575 394.928C526.303 395.632 525.839 396.064 525.007 396.064H524.431V397.2ZM536.045 394.08C538.205 394.08 539.805 392.384 539.805 390C539.805 387.584 538.301 385.888 536.045 385.888C533.869 385.888 532.269 387.584 532.269 390C532.269 392.384 533.869 394.08 536.045 394.08ZM536.013 392.944C534.493 392.944 533.485 391.712 533.485 390C533.485 388.272 534.509 387.024 536.045 387.024C537.693 387.024 538.621 388.288 538.621 390.032C538.621 391.728 537.597 392.944 536.013 392.944ZM544.75 394.208C545.982 394.208 546.878 393.52 547.246 392.912V394H548.446V386H547.246V390.304C547.23 392.048 546.318 393.136 544.942 393.136C543.822 393.136 543.054 392.192 543.038 390.832V386H541.774V390.912C541.774 393.152 543.198 394.208 544.75 394.208ZM551.066 394H552.25V389.536C552.25 387.6 553.418 387.056 554.794 387.104L554.906 387.088V385.888L554.762 385.872C553.082 385.792 552.426 386.672 552.25 387.088V386H551.066V394ZM562.602 394H563.738V392.88H562.778C562.122 392.88 561.786 392.56 561.786 391.76V387.072H563.722V386H561.786V383.648H560.586V386H559.37V387.072H560.586V391.936C560.586 393.216 561.402 394 562.602 394ZM568.529 394.08C570.689 394.08 572.289 392.384 572.289 390C572.289 387.584 570.785 385.888 568.529 385.888C566.353 385.888 564.753 387.584 564.753 390C564.753 392.384 566.353 394.08 568.529 394.08ZM568.497 392.944C566.977 392.944 565.969 391.712 565.969 390C565.969 388.272 566.993 387.024 568.529 387.024C570.177 387.024 571.105 388.288 571.105 390.032C571.105 391.728 570.081 392.944 568.497 392.944ZM574.338 394H575.538V391.344L576.786 390.032L579.49 393.984L580.882 394L577.586 389.136L580.562 386H579.058L575.538 389.728V382.8H574.338V394ZM585.281 394.176C587.121 394.176 588.449 393.024 588.673 391.44H587.521C587.233 392.512 586.241 393.072 585.313 393.072C583.793 393.072 582.833 392.016 582.833 390.336V390.32H588.801C588.865 387.776 587.569 385.904 585.265 385.904C582.993 385.904 581.569 387.616 581.569 390.064C581.569 392.576 583.073 394.176 585.281 394.176ZM582.881 389.248C583.025 387.92 583.841 386.992 585.233 386.992C586.673 386.992 587.361 387.92 587.505 389.248H582.881ZM590.857 394H592.057V389.696C592.073 387.952 593.097 386.864 594.361 386.864C595.481 386.864 596.265 387.712 596.265 389.168V394H597.529V389.088C597.529 386.848 596.105 385.792 594.553 385.792C593.337 385.792 592.441 386.48 592.057 387.088V386H590.857V394Z" fill="#272727"/>
<line y1="-10" x2="257" y2="-10" transform="matrix(1 0 0 -1 366 562)" stroke="#FCD000" stroke-width="20"/>
<path d="M361.226 572L367 577.774L372.774 572L367 566.226L361.226 572ZM367 573L623 573L623 571L367 571L367 573Z" fill="#272727"/>
<path d="M443.898 638.72L444.924 637.388L443.214 636.128C444.132 635.012 444.672 633.5 444.672 631.736C444.672 627.938 442.008 625.256 438.696 625.256C435.384 625.256 432.72 627.92 432.72 631.7C432.72 635.498 435.384 638.18 438.696 638.18C439.992 638.18 441.018 637.856 441.936 637.262L443.898 638.72ZM438.678 636.272C436.428 636.272 434.826 634.346 434.826 631.754C434.826 629.108 436.428 627.146 438.696 627.146C440.982 627.146 442.602 629.126 442.602 631.79C442.602 633.05 442.206 634.13 441.54 634.904L439.65 633.5L438.624 634.814L440.118 635.912C439.776 636.11 439.2 636.272 438.678 636.272ZM452.933 631.484C453.869 631.142 455.003 630.098 455.003 628.532C455.003 626.606 453.311 625.22 450.881 625.22C448.181 625.22 446.525 626.894 446.471 629.432H448.523C448.577 627.956 449.369 627.092 450.809 627.092C452.069 627.092 452.933 627.776 452.933 628.82C452.933 629.99 451.997 630.71 450.467 630.71H449.729V632.654H450.539C452.267 632.654 453.185 633.428 453.185 634.58C453.185 635.678 452.231 636.398 450.863 636.398C449.333 636.398 448.343 635.462 448.397 634.112H446.327C446.399 636.542 448.217 638.252 450.917 638.252C453.455 638.252 455.237 636.74 455.273 634.652C455.309 632.96 454.211 631.952 452.933 631.484ZM461.614 628.064H463.756V625.76H462.676C462.658 625.022 462.982 624.716 463.648 624.698V623.6C462.424 623.6 461.65 624.23 461.632 625.76L461.614 628.064ZM465 638H473.622V636.164H467.754L469.626 634.508C471.714 632.654 473.532 631.358 473.532 629.126C473.532 626.894 471.75 625.238 469.338 625.238C466.764 625.238 464.964 626.894 464.856 629.36H466.926C467.088 627.974 468.024 627.074 469.32 627.074C470.652 627.074 471.534 627.92 471.534 629.216C471.534 630.692 470.148 631.646 467.862 633.608L465 636.074V638ZM474.885 638H483.507V636.164H477.639L479.511 634.508C481.599 632.654 483.417 631.358 483.417 629.126C483.417 626.894 481.635 625.238 479.223 625.238C476.649 625.238 474.849 626.894 474.741 629.36H476.811C476.973 627.974 477.909 627.074 479.205 627.074C480.537 627.074 481.419 627.92 481.419 629.216C481.419 630.692 480.033 631.646 477.747 633.608L474.885 636.074V638Z" fill="#FF9110"/>
<path d="M448.68 655L442.68 670.78L436.68 655H432.15L440.43 676H444.93L453.21 655H448.68ZM460.225 676.42C464.215 676.42 466.675 674.08 467.545 672.1L463.975 671.05C463.375 672.19 462.205 673.06 460.285 673.06C457.525 673.06 456.145 671.56 455.875 669.61H467.665C467.755 669.13 467.755 668.68 467.755 668.2C467.755 663.85 464.905 660.4 459.925 660.4C455.155 660.4 451.975 663.88 451.975 668.41C451.975 673.21 455.365 676.42 460.225 676.42ZM455.875 667.12C456.085 665.38 457.585 663.76 459.895 663.76C462.265 663.76 463.705 665.26 463.885 667.12H455.875ZM474.707 663.07V660.82H470.747V676H474.707V669.4C474.707 665.32 476.477 663.82 479.717 664.33V660.61C477.347 660.28 475.607 661.3 474.707 663.07ZM488.143 676.42C492.013 676.42 494.713 674.32 494.713 671.47C494.713 668.74 492.733 667.81 490.453 667.15L486.673 666.07C485.833 665.83 485.413 665.47 485.413 664.87C485.413 664.15 486.343 663.49 487.573 663.49C489.163 663.49 490.273 664.3 490.813 665.26L494.323 664.24C493.363 661.96 490.873 660.4 487.603 660.4C484.273 660.4 481.513 662.41 481.513 664.96C481.513 667.12 483.103 668.38 485.263 669.01L489.133 670.15C490.243 670.48 490.813 670.9 490.813 671.65C490.813 672.49 489.823 673.21 488.293 673.21C486.283 673.21 484.843 672.13 484.333 670.69L480.763 671.74C481.513 674.2 484.393 676.42 488.143 676.42ZM499.739 658.69C501.059 658.69 502.109 657.67 502.109 656.35C502.109 655.09 501.059 654.07 499.739 654.07C498.419 654.07 497.369 655.09 497.369 656.35C497.369 657.67 498.419 658.69 499.739 658.69ZM497.699 676H501.689V660.82H497.699V676ZM512.839 676.42C517.519 676.42 520.939 672.94 520.939 668.41C520.939 663.85 517.519 660.4 512.839 660.4C508.159 660.4 504.709 663.85 504.709 668.41C504.709 672.94 508.159 676.42 512.839 676.42ZM512.839 672.82C510.289 672.82 508.579 670.93 508.579 668.41C508.579 665.89 510.289 664 512.839 664C515.359 664 517.099 665.89 517.099 668.41C517.099 670.93 515.359 672.82 512.839 672.82ZM532.8 660.4C530.61 660.4 528.96 661.39 527.91 662.74V660.82H523.95V676H527.91V668.5C527.91 665.83 529.35 664.09 531.57 664.09C533.76 664.09 534.81 665.56 534.81 667.87V676H538.77V667.12C538.77 663.07 536.76 660.4 532.8 660.4ZM555.337 672.28L560.077 667.9C562.477 665.68 563.917 663.82 563.917 661.18C563.917 656.95 560.827 654.58 556.447 654.58C552.277 654.58 549.427 657.52 549.007 660.67L552.697 661.72C553.147 659.65 554.587 658.27 556.537 658.27C558.607 658.27 559.837 659.47 559.837 661.39C559.837 662.89 558.817 664.03 557.257 665.47L549.067 673.18V676H564.247V672.28H555.337Z" fill="#272727"/>
<path d="M436.208 708H437.44V697.968H441.44V696.8H432.192V697.968H436.208V708ZM445.426 708.08C447.586 708.08 449.186 706.384 449.186 704C449.186 701.584 447.682 699.888 445.426 699.888C443.25 699.888 441.65 701.584 441.65 704C441.65 706.384 443.25 708.08 445.426 708.08ZM445.394 706.944C443.874 706.944 442.866 705.712 442.866 704C442.866 702.272 443.89 701.024 445.426 701.024C447.074 701.024 448.002 702.288 448.002 704.032C448.002 705.728 446.978 706.944 445.394 706.944ZM451.235 708H452.435V705.344L453.683 704.032L456.387 707.984L457.779 708L454.483 703.136L457.459 700H455.955L452.435 703.728V696.8H451.235V708ZM462.178 708.176C464.018 708.176 465.346 707.024 465.57 705.44H464.418C464.13 706.512 463.138 707.072 462.21 707.072C460.69 707.072 459.73 706.016 459.73 704.336V704.32H465.698C465.762 701.776 464.466 699.904 462.162 699.904C459.89 699.904 458.466 701.616 458.466 704.064C458.466 706.576 459.97 708.176 462.178 708.176ZM459.778 703.248C459.922 701.92 460.738 700.992 462.13 700.992C463.57 700.992 464.258 701.92 464.402 703.248H459.778ZM467.754 708H468.954V703.696C468.97 701.952 469.994 700.864 471.258 700.864C472.378 700.864 473.162 701.712 473.162 703.168V708H474.426V703.088C474.426 700.848 473.002 699.792 471.45 699.792C470.234 699.792 469.338 700.48 468.954 701.088V700H467.754V708ZM479.67 708.176C481.446 708.176 482.678 707.136 482.678 705.744C482.678 704.384 481.862 703.68 479.622 703.36C478.47 703.184 477.782 702.8 477.782 702.08C477.782 701.376 478.518 700.928 479.414 700.928C480.422 700.928 481.27 701.36 481.35 702.576H482.502C482.47 700.672 480.998 699.856 479.366 699.856C477.734 699.856 476.566 700.864 476.566 702.08C476.566 703.2 477.302 704.048 479.638 704.432C480.95 704.64 481.446 705.008 481.446 705.712C481.446 706.432 480.95 707.12 479.718 707.12C478.582 707.12 477.67 706.56 477.542 705.44H476.326C476.422 707.264 477.958 708.176 479.67 708.176ZM491.865 708.208C493.097 708.208 493.993 707.52 494.361 706.912V708H495.561V700H494.361V704.304C494.345 706.048 493.433 707.136 492.057 707.136C490.937 707.136 490.169 706.192 490.153 704.832V700H488.889V704.912C488.889 707.152 490.313 708.208 491.865 708.208ZM498.182 708H499.382V703.696C499.398 701.952 500.422 700.864 501.686 700.864C502.806 700.864 503.59 701.712 503.59 703.168V708H504.854V703.088C504.854 700.848 503.43 699.792 501.878 699.792C500.662 699.792 499.766 700.48 499.382 701.088V700H498.182V708ZM507.394 708H508.642V696.8H507.394V708ZM514.479 708.08C516.639 708.08 518.239 706.384 518.239 704C518.239 701.584 516.735 699.888 514.479 699.888C512.303 699.888 510.703 701.584 510.703 704C510.703 706.384 512.303 708.08 514.479 708.08ZM514.447 706.944C512.927 706.944 511.919 705.712 511.919 704C511.919 702.272 512.943 701.024 514.479 701.024C516.127 701.024 517.055 702.288 517.055 704.032C517.055 705.728 516.031 706.944 514.447 706.944ZM523.376 708.112C525.168 708.112 526.56 706.928 526.768 705.296H525.552C525.376 706.24 524.544 707.008 523.424 707.008C522 707.008 521.008 705.808 521.008 703.984C521.008 702.112 522.016 700.912 523.44 700.912C524.496 700.912 525.344 701.648 525.552 702.608H526.768C526.56 700.992 525.184 699.84 523.44 699.84C521.264 699.84 519.728 701.504 519.728 704C519.728 706.448 521.28 708.112 523.376 708.112ZM528.829 708H530.029V705.344L531.277 704.032L533.981 707.984L535.373 708L532.077 703.136L535.053 700H533.549L530.029 703.728V696.8H528.829V708ZM437.904 732.096C440.496 732.096 442.272 730.432 442.64 728.288H441.296C440.992 729.664 439.696 730.848 437.92 730.848C435.728 730.848 434.208 729.04 434.208 726.48C434.208 723.824 435.744 721.92 437.984 721.92C439.712 721.92 440.976 723.088 441.296 724.48H442.64C442.304 722.336 440.528 720.704 438 720.704C434.992 720.704 432.832 723.056 432.832 726.464C432.832 729.776 435.008 732.096 437.904 732.096ZM444.773 732H445.957V727.536C445.957 725.6 447.125 725.056 448.501 725.104L448.613 725.088V723.888L448.469 723.872C446.789 723.792 446.133 724.672 445.957 725.088V724H444.773V732ZM453.342 732.08C455.502 732.08 457.102 730.384 457.102 728C457.102 725.584 455.598 723.888 453.342 723.888C451.166 723.888 449.566 725.584 449.566 728C449.566 730.384 451.166 732.08 453.342 732.08ZM453.31 730.944C451.79 730.944 450.782 729.712 450.782 728C450.782 726.272 451.806 725.024 453.342 725.024C454.99 725.024 455.918 726.288 455.918 728.032C455.918 729.728 454.894 730.944 453.31 730.944ZM461.855 732.176C463.631 732.176 464.863 731.136 464.863 729.744C464.863 728.384 464.047 727.68 461.807 727.36C460.655 727.184 459.967 726.8 459.967 726.08C459.967 725.376 460.703 724.928 461.599 724.928C462.607 724.928 463.455 725.36 463.535 726.576H464.687C464.655 724.672 463.183 723.856 461.551 723.856C459.919 723.856 458.751 724.864 458.751 726.08C458.751 727.2 459.487 728.048 461.823 728.432C463.135 728.64 463.631 729.008 463.631 729.712C463.631 730.432 463.135 731.12 461.903 731.12C460.767 731.12 459.855 730.56 459.727 729.44H458.511C458.607 731.264 460.143 732.176 461.855 732.176ZM469.536 732.176C471.312 732.176 472.544 731.136 472.544 729.744C472.544 728.384 471.728 727.68 469.488 727.36C468.336 727.184 467.648 726.8 467.648 726.08C467.648 725.376 468.384 724.928 469.28 724.928C470.288 724.928 471.136 725.36 471.216 726.576H472.368C472.336 724.672 470.864 723.856 469.232 723.856C467.6 723.856 466.432 724.864 466.432 726.08C466.432 727.2 467.168 728.048 469.504 728.432C470.816 728.64 471.312 729.008 471.312 729.712C471.312 730.432 470.816 731.12 469.584 731.12C468.448 731.12 467.536 730.56 467.408 729.44H466.192C466.288 731.264 467.824 732.176 469.536 732.176ZM474.785 727.28H480.385V726.352H474.785V727.28ZM486.345 732.112C488.137 732.112 489.529 730.928 489.737 729.296H488.521C488.345 730.24 487.513 731.008 486.393 731.008C484.969 731.008 483.977 729.808 483.977 727.984C483.977 726.112 484.985 724.912 486.409 724.912C487.465 724.912 488.313 725.648 488.521 726.608H489.737C489.529 724.992 488.153 723.84 486.409 723.84C484.233 723.84 482.697 725.504 482.697 728C482.697 730.448 484.249 732.112 486.345 732.112ZM491.798 732H492.998V727.696C493.014 725.952 493.942 724.864 495.302 724.864C496.422 724.864 497.206 725.808 497.206 727.168V732H498.47V727.088C498.47 724.848 497.046 723.792 495.494 723.792C494.278 723.792 493.382 724.48 492.998 725.088V720.8H491.798V732ZM503.154 732.16C504.354 732.16 505.25 731.616 505.81 730.88V732H507.042V726.496C507.042 724.928 505.954 723.808 504.018 723.808C502.146 723.808 500.914 724.896 500.754 726.464L502.018 726.448C502.146 725.552 502.834 724.896 504.05 724.896C505.026 724.896 505.81 725.36 505.81 726.176C505.81 727.088 504.386 727.216 503.362 727.312C502.45 727.392 501.73 727.6 501.202 728.016C500.706 728.416 500.45 729.056 500.45 729.744C500.45 731.28 501.73 732.16 503.154 732.16ZM503.314 731.056C502.498 731.04 501.73 730.56 501.73 729.696C501.73 728.896 502.338 728.4 503.65 728.288C504.77 728.192 505.474 728.016 505.81 727.712V728.784C505.794 730.416 504.37 731.072 503.314 731.056ZM509.424 722.32H510.816V720.8H509.424V722.32ZM509.504 732H510.736V724H509.504V732ZM513.357 732H514.557V727.696C514.573 725.952 515.597 724.864 516.861 724.864C517.981 724.864 518.765 725.712 518.765 727.168V732H520.029V727.088C520.029 724.848 518.605 723.792 517.053 723.792C515.837 723.792 514.941 724.48 514.557 725.088V724H513.357V732ZM529.595 732.176C531.371 732.176 532.603 731.136 532.603 729.744C532.603 728.384 531.787 727.68 529.547 727.36C528.395 727.184 527.707 726.8 527.707 726.08C527.707 725.376 528.443 724.928 529.339 724.928C530.347 724.928 531.195 725.36 531.275 726.576H532.427C532.395 724.672 530.923 723.856 529.291 723.856C527.659 723.856 526.491 724.864 526.491 726.08C526.491 727.2 527.227 728.048 529.563 728.432C530.875 728.64 531.371 729.008 531.371 729.712C531.371 730.432 530.875 731.12 529.643 731.12C528.507 731.12 527.595 730.56 527.467 729.44H526.251C526.347 731.264 527.883 732.176 529.595 732.176ZM537.725 732.176C539.565 732.176 540.893 731.024 541.117 729.44H539.965C539.677 730.512 538.685 731.072 537.757 731.072C536.237 731.072 535.277 730.016 535.277 728.336V728.32H541.245C541.309 725.776 540.013 723.904 537.709 723.904C535.437 723.904 534.013 725.616 534.013 728.064C534.013 730.576 535.517 732.176 537.725 732.176ZM535.325 727.248C535.469 725.92 536.285 724.992 537.677 724.992C539.117 724.992 539.805 725.92 539.949 727.248H535.325ZM545.333 732H546.469V730.88H545.509C544.853 730.88 544.517 730.56 544.517 729.76V725.072H546.453V724H544.517V721.648H543.317V724H542.101V725.072H543.317V729.936C543.317 731.216 544.133 732 545.333 732ZM550.233 732H551.369V730.88H550.409C549.753 730.88 549.417 730.56 549.417 729.76V725.072H551.353V724H549.417V721.648H548.217V724H547.001V725.072H548.217V729.936C548.217 731.216 549.033 732 550.233 732ZM553.101 732H554.349V720.8H553.101V732ZM560.122 732.176C561.962 732.176 563.29 731.024 563.514 729.44H562.362C562.074 730.512 561.082 731.072 560.154 731.072C558.634 731.072 557.674 730.016 557.674 728.336V728.32H563.642C563.706 725.776 562.41 723.904 560.106 723.904C557.834 723.904 556.41 725.616 556.41 728.064C556.41 730.576 557.914 732.176 560.122 732.176ZM557.722 727.248C557.866 725.92 558.682 724.992 560.074 724.992C561.514 724.992 562.202 725.92 562.346 727.248H557.722ZM565.698 732H566.898V727.696C566.914 725.952 567.874 724.864 569.138 724.864C570.258 724.864 571.042 725.712 571.042 727.168V732H572.306V727.696C572.322 725.952 573.282 724.864 574.546 724.864C575.666 724.864 576.45 725.712 576.45 727.168V732H577.714V727.088C577.714 724.848 576.274 723.792 574.754 723.792C573.394 723.792 572.434 724.528 571.938 725.408C571.298 724.144 570.162 723.792 569.33 723.792C568.114 723.792 567.282 724.48 566.898 725.088V724H565.698V732ZM583.406 732.176C585.246 732.176 586.574 731.024 586.798 729.44H585.646C585.358 730.512 584.366 731.072 583.438 731.072C581.918 731.072 580.958 730.016 580.958 728.336V728.32H586.926C586.99 725.776 585.694 723.904 583.39 723.904C581.118 723.904 579.694 725.616 579.694 728.064C579.694 730.576 581.198 732.176 583.406 732.176ZM581.006 727.248C581.15 725.92 581.966 724.992 583.358 724.992C584.798 724.992 585.486 725.92 585.63 727.248H581.006ZM588.982 732H590.182V727.696C590.198 725.952 591.222 724.864 592.486 724.864C593.606 724.864 594.39 725.712 594.39 727.168V732H595.654V727.088C595.654 724.848 594.23 723.792 592.678 723.792C591.462 723.792 590.566 724.48 590.182 725.088V724H588.982V732ZM600.226 732H601.362V730.88H600.402C599.746 730.88 599.41 730.56 599.41 729.76V725.072H601.346V724H599.41V721.648H598.21V724H596.994V725.072H598.21V729.936C598.21 731.216 599.026 732 600.226 732ZM605.799 732.176C607.575 732.176 608.807 731.136 608.807 729.744C608.807 728.384 607.991 727.68 605.751 727.36C604.599 727.184 603.911 726.8 603.911 726.08C603.911 725.376 604.647 724.928 605.543 724.928C606.551 724.928 607.399 725.36 607.479 726.576H608.631C608.599 724.672 607.127 723.856 605.495 723.856C603.863 723.856 602.695 724.864 602.695 726.08C602.695 727.2 603.431 728.048 605.767 728.432C607.079 728.64 607.575 729.008 607.575 729.712C607.575 730.432 607.079 731.12 605.847 731.12C604.711 731.12 603.799 730.56 603.671 729.44H602.455C602.551 731.264 604.087 732.176 605.799 732.176Z" fill="#272727"/>
<rect x="344.5" y="12.5" width="44" height="44" rx="22" stroke="#FCD000" stroke-width="25"/>
</svg>
