<svg width="198" height="78" xmlns="http://www.w3.org/2000/svg" fill="none">
  <rect y="0" fill="white" rx="7.88644" height="77.8785" width="198" x="0"/>
  <path fill="#0030AE" d="m43.10012,45.713l0,-19.0304l-4.5421,0l0,23.2078l16.1129,0l0,-4.1774l-11.5708,0z"/>
  <path fill="#0030AE" d="m76.32772,26.6826l0,15.052l-11.6702,-15.052l-3.7464,0l0,23.2078l4.5421,0l0,-15.085l11.6702,15.085l3.7464,0l0,-23.2078l-4.5421,0z"/>
  <path fill="#FCD000" d="m12.16092,49.109c-0.2317,0.3333 0.0002,0.7962 0.399,0.7962l3.8859,0c0.1597,0 0.3094,-0.0799 0.4012,-0.2141l15.2398,-22.278c0.2282,-0.3336 -0.0042,-0.793 -0.4012,-0.793l-3.6353,0c-0.1584,0 -0.307,0.0786 -0.399,0.2109l-15.4904,22.278z"/>
  <path fill="#0030AE" d="m34.34732,30.1568c0.3494,0.6558 0.0736,0.8239 -0.2158,0.8239l-3.3803,0c-0.2795,0 -0.7008,-0.0852 -0.8883,-0.4119l-2.0305,-3.1282c-0.3094,-0.5128 -0.225,-0.8239 0.2641,-0.8239l3.4856,0c0.3094,0 0.5651,0.1429 0.7248,0.412l2.0404,3.1281z"/>
  <path fill="#0030AE" d="m28.10192,49.7271c0.0919,0.133 0.2409,0.212 0.3997,0.212l4.016,0c0.399,0 0.631,-0.4634 0.3987,-0.7966l-15.5512,-22.3153c-0.0921,-0.1321 -0.2405,-0.2105 -0.3987,-0.2105l-3.8919,0c-0.3981,0 -0.6302,0.4616 -0.3997,0.7951l15.4271,22.3153z"/>
  <path fill="#0030AE" d="m92.70162,35.2052l5.3356,0l0,-0.7849l-4.5139,0l0,-3.1767l4.2559,0l0,-0.7727l-4.2559,0l0,-3.0663l4.5139,0l0,-0.785l-5.3356,0l0,8.5856z"/>
  <path fill="#0030AE" d="m98.98422,35.2052l0.933,0l1.717,-2.4162l1.705,2.4162l0.932,0l-2.184,-3.0662l2.184,-3.0663l-0.945,0l-1.692,2.4039l-1.717,-2.4039l-0.933,0l2.184,3.0663l-2.184,3.0662z"/>
  <path fill="#0030AE" d="m107.72822,35.2911c1.349,0 2.392,-0.8954 2.551,-2.1341l-0.785,0c-0.135,0.7727 -0.846,1.3859 -1.729,1.3859c-1.153,0 -1.938,-0.9567 -1.938,-2.3917c0,-1.4963 0.797,-2.4775 1.962,-2.4775c0.834,0 1.546,0.5764 1.705,1.3737l0.785,0c-0.159,-1.2266 -1.202,-2.0974 -2.502,-2.0974c-1.631,0 -2.797,1.2633 -2.797,3.189c0,1.8888 1.19,3.1521 2.748,3.1521z"/>
  <path fill="#0030AE" d="m111.90322,35.2052l0.797,0l0,-3.3729c0.013,-1.3491 0.712,-2.2077 1.84,-2.2077c0.92,0 1.533,0.8095 1.545,1.8398l0,3.7408l0.822,0l0,-3.7654c0,-1.6067 -0.969,-2.5266 -2.269,-2.5266c-0.92,0 -1.631,0.5029 -1.938,1.018l0,-3.3116l-0.797,0l0,8.5856z"/>
  <path fill="#0030AE" d="m120.54322,35.3279c1.018,0 1.68,-0.4661 2.11,-1.0303l0,0.9076l0.809,0l0,-4.2437c0,-1.1897 -0.834,-2.036 -2.294,-2.036c-1.398,0 -2.342,0.7972 -2.465,1.9747l0.834,-0.0123c0.111,-0.7482 0.699,-1.251 1.656,-1.251c0.785,0 1.46,0.3556 1.46,1.067c0,0.7114 -1.166,0.8341 -1.951,0.9076c-0.699,0.0614 -1.238,0.2208 -1.643,0.5397c-0.38,0.3066 -0.589,0.7973 -0.589,1.3247c0,1.1774 0.981,1.852 2.073,1.852zm0.098,-0.7604c-0.662,0 -1.325,-0.368 -1.325,-1.1162c0,-0.65 0.479,-1.067 1.607,-1.1774c0.945,-0.0736 1.472,-0.2331 1.73,-0.4784l0,0.8954c0,1.3491 -1.166,1.8888 -2.012,1.8766z"/>
  <path fill="#0030AE" d="m125.39322,35.2052l0.797,0l0,-3.3729c0.012,-1.3491 0.81,-2.2077 1.84,-2.2077c0.907,0 1.545,0.7114 1.545,1.8398l0,3.7408l0.822,0l0,-3.7654c0,-1.6067 -0.969,-2.5266 -2.269,-2.5266c-0.92,0 -1.631,0.5029 -1.938,1.018l0,-0.8585l-0.797,0l0,6.1325z"/>
  <path fill="#0030AE" d="m134.76922,37.7441c1.655,0 2.87,-0.9444 2.87,-2.9436l0,-5.7278l-0.798,0l0,1.067c-0.392,-0.7359 -1.263,-1.202 -2.134,-1.202c-1.606,0 -2.747,1.3369 -2.747,3.1645c0,1.8397 1.104,3.1644 2.711,3.1644c0.919,0 1.79,-0.4906 2.17,-1.2265l0,0.7604c0,1.5331 -0.858,2.2077 -2.072,2.2077c-0.712,0 -1.656,-0.3434 -1.779,-1.3491l-0.809,0c0.061,1.2265 1.116,2.085 2.588,2.085zm0.012,-3.238c-1.202,0 -1.963,-0.9935 -1.963,-2.3917c0,-1.3982 0.761,-2.404 1.963,-2.404c1.263,0 2.073,0.969 2.073,2.3304c0,1.4228 -0.81,2.4653 -2.073,2.4653z"/>
  <path fill="#0030AE" d="m142.00522,35.3402c1.386,0 2.428,-0.8954 2.588,-2.0974l-0.761,0c-0.208,0.8218 -0.969,1.3492 -1.803,1.3492c-1.226,0 -1.987,-0.8831 -1.987,-2.2568l0,-0.0123l4.649,0c0.024,-1.9379 -0.969,-3.3238 -2.686,-3.3238c-1.754,0 -2.809,1.3123 -2.809,3.1889c0,1.9134 1.141,3.1522 2.809,3.1522zm-1.926,-3.7409c0.135,-1.0916 0.748,-1.8643 1.901,-1.8643c1.202,0 1.717,0.7727 1.84,1.8643l-3.741,0z"/>
  <path fill="#0030AE" d="m92.70162,49.8896l4.7586,0l0,-0.7849l-3.9124,0l0,-7.8007l-0.8462,0l0,8.5856z"/>
  <path fill="#0030AE" d="m98.83122,42.3343l0.932,0l0,-1.0303l-0.932,0l0,1.0303zm0.061,7.5553l0.81,0l0,-6.1325l-0.81,0l0,6.1325z"/>
  <path fill="#0030AE" d="m106.17222,52.3427l0.785,0l0,-8.5856l-0.785,0l0,1.018c-0.343,-0.6501 -1.189,-1.153 -2.097,-1.153c-1.546,0 -2.76,1.2756 -2.76,3.1645c0,1.8888 1.19,3.1644 2.723,3.1644c0.945,0 1.766,-0.4906 2.134,-1.1652l0,3.5569zm-2.036,-3.1522c-1.202,0 -1.962,-0.9934 -1.962,-2.3917c0,-1.3982 0.76,-2.4039 1.962,-2.4039c1.251,0 2.073,0.9689 2.073,2.3303c0,1.4228 -0.822,2.4653 -2.073,2.4653z"/>
  <path fill="#0030AE" d="m111.21222,50.0491c0.92,0 1.631,-0.5029 1.938,-1.018l0,0.8585l0.797,0l0,-6.1325l-0.797,0l0,3.3729c-0.012,1.3491 -0.711,2.2077 -1.84,2.2077c-0.92,0 -1.533,-0.8095 -1.545,-1.8398l0,-3.7408l-0.822,0l0,3.7654c0,1.6067 0.969,2.5266 2.269,2.5266z"/>
  <path fill="#0030AE" d="m115.94022,42.3343l0.932,0l0,-1.0303l-0.932,0l0,1.0303zm0.061,7.5553l0.809,0l0,-6.1325l-0.809,0l0,6.1325z"/>
  <path fill="#0030AE" d="m121.18322,50.0246c0.908,0 1.754,-0.5029 2.098,-1.153l0,1.018l0.785,0l0,-8.5856l-0.785,0l0,3.5569c-0.368,-0.6746 -1.19,-1.1652 -2.134,-1.1652c-1.534,0 -2.723,1.2756 -2.723,3.1644c0,1.8889 1.214,3.1645 2.759,3.1645zm0.062,-0.7727c-1.202,0 -1.963,-1.0058 -1.963,-2.404c0,-1.3982 0.761,-2.3917 1.963,-2.3917c1.251,0 2.072,1.0425 2.072,2.4653c0,1.3614 -0.821,2.3304 -2.072,2.3304z"/>
  <path fill="#0030AE" d="m126.05222,42.3343l0.932,0l0,-1.0303l-0.932,0l0,1.0303zm0.061,7.5553l0.809,0l0,-6.1325l-0.809,0l0,6.1325z"/>
  <path fill="#0030AE" d="m130.46122,49.8896l0.773,0l0.012,-0.7604l-0.711,0c-0.466,0 -0.773,-0.2698 -0.773,-0.8708l0,-3.7777l1.46,0l0,-0.7236l-1.46,0l0,-1.7417l-0.785,0l0,1.7417l-0.932,0l0,0.7236l0.932,0l0,3.8513c0,0.9812 0.589,1.5576 1.484,1.5576z"/>
  <path fill="#0030AE" d="m132.15422,52.3427l0.417,0c1.189,-0.0123 1.692,-0.5888 2.036,-1.4964l2.821,-7.0892l-0.908,0l-1.877,4.7466l-1.901,-4.7466l-0.92,0l2.417,5.7769l-0.454,1.1774c-0.209,0.5274 -0.564,0.8708 -1.239,0.8708l-0.392,0l0,0.7605z"/>
  <path fill="#0030AE" d="m147.60822,49.9019l0.993,0l0,-8.5856l-0.797,0l0,7.3959l-4.771,-7.4082l-0.969,0l0,8.5856l0.797,0l0,-7.3591l4.747,7.3714z"/>
  <path fill="#0030AE" d="m153.15022,50.0246c1.386,0 2.428,-0.8954 2.588,-2.0974l-0.761,0c-0.208,0.8218 -0.969,1.3492 -1.803,1.3492c-1.226,0 -1.987,-0.8831 -1.987,-2.2568l0,-0.0123l4.649,0c0.024,-1.9379 -0.969,-3.3238 -2.686,-3.3238c-1.754,0 -2.809,1.3123 -2.809,3.1889c0,1.9134 1.141,3.1522 2.809,3.1522zm-1.926,-3.7409c0.135,-1.0916 0.748,-1.8643 1.901,-1.8643c1.202,0 1.717,0.7727 1.84,1.8643l-3.741,0z"/>
  <path fill="#0030AE" d="m158.95122,49.8896l0.773,0l0.012,-0.7604l-0.711,0c-0.466,0 -0.773,-0.2698 -0.773,-0.8708l0,-3.7777l1.46,0l0,-0.7236l-1.46,0l0,-1.7417l-0.785,0l0,1.7417l-0.932,0l0,0.7236l0.932,0l0,3.8513c0,0.9812 0.589,1.5576 1.484,1.5576z"/>
  <path fill="#0030AE" d="m162.27522,49.8896l1.018,0l1.374,-4.9428l1.373,4.9428l1.018,0l1.889,-6.1325l-0.932,0l-1.459,5.2494l-1.472,-5.2494l-0.859,0l-1.447,5.2494l-1.472,-5.2494l-0.932,0l1.901,6.1325z"/>
  <path fill="#0030AE" d="m172.58322,49.951c1.656,0 2.858,-1.3001 2.858,-3.1276c0,-1.8521 -1.104,-3.1522 -2.858,-3.1522c-1.668,0 -2.87,1.3001 -2.87,3.1522c0,1.8275 1.202,3.1276 2.87,3.1276zm-0.024,-0.7482c-1.215,0 -2.036,-0.9935 -2.036,-2.3794c0,-1.3983 0.834,-2.3918 2.06,-2.3918c1.337,0 2.073,1.0058 2.073,2.4163c0,1.3737 -0.846,2.3549 -2.097,2.3549z"/>
  <path fill="#0030AE" d="m177.05522,49.8896l0.797,0l0,-3.5323c0,-1.4718 0.871,-1.9379 1.999,-1.9011l0.049,-0.0123l0,-0.7727l-0.061,-0.0123c-1.337,-0.0735 -1.852,0.6133 -1.987,0.9567l0,-0.8585l-0.797,0l0,6.1325z"/>
  <path fill="#0030AE" d="m181.24922,49.8896l0.797,0l0,-2.036l1.055,-1.0916l2.109,3.1154l0.932,0.0122l-2.502,-3.7531l2.269,-2.3794l-0.993,0l-2.87,3.0172l0,-5.4703l-0.797,0l0,8.5856z"/>
</svg>
