<svg width="208" height="78" viewBox="0 0 208 78" fill="none" xmlns="http://www.w3.org/2000/svg">
<rect x="0.161133" width="207.019" height="77.8785" rx="7.88644" fill="white"/>
<path d="M46.965 45.713V26.6826H42.4229V49.8904H58.5357V45.713H46.965Z" fill="#06335D"/>
<path d="M80.1926 26.6826V41.7346L68.5223 26.6826H64.7759V49.8904H69.318V34.8054L80.9883 49.8904H84.7347V26.6826H80.1926Z" fill="#06335D"/>
<path d="M16.0258 49.109C15.794 49.4423 16.026 49.9052 16.4248 49.9052H20.3107C20.4704 49.9052 20.6201 49.8253 20.7119 49.6911L35.9516 27.4131C36.1799 27.0795 35.9475 26.6201 35.5504 26.6201H31.9151C31.7568 26.6201 31.6082 26.6987 31.5161 26.831L16.0258 49.109Z" fill="#FCD000"/>
<path d="M38.2122 30.1568C38.5615 30.8126 38.2858 30.9807 37.9964 30.9807H34.616C34.3366 30.9807 33.9153 30.8955 33.7277 30.5688L31.6973 27.4406C31.3879 26.9278 31.4723 26.6167 31.9613 26.6167H35.4469C35.7563 26.6167 36.0121 26.7596 36.1718 27.0287L38.2122 30.1568Z" fill="#06335D"/>
<path d="M31.9667 49.7271C32.0587 49.8601 32.2077 49.9391 32.3665 49.9391H36.3825C36.7815 49.9391 37.0134 49.4757 36.7812 49.1425L21.2299 26.8272C21.1379 26.6951 20.9894 26.6167 20.8312 26.6167H16.9394C16.5412 26.6167 16.3091 27.0783 16.5396 27.4118L31.9667 49.7271Z" fill="#06335D"/>
<path d="M96.5664 35.2052H101.902V34.4203H97.3882V31.2436H101.644V30.4709H97.3882V27.4046H101.902V26.6196H96.5664V35.2052Z" fill="#06335D"/>
<path d="M102.849 35.2052H103.782L105.499 32.789L107.204 35.2052H108.136L105.953 32.139L108.136 29.0727H107.191L105.499 31.4766L103.782 29.0727H102.849L105.033 32.139L102.849 35.2052Z" fill="#06335D"/>
<path d="M111.593 35.2911C112.942 35.2911 113.985 34.3957 114.144 33.157H113.359C113.224 33.9297 112.513 34.5429 111.63 34.5429C110.477 34.5429 109.692 33.5862 109.692 32.1512C109.692 30.6549 110.489 29.6737 111.654 29.6737C112.488 29.6737 113.2 30.2501 113.359 31.0474H114.144C113.985 29.8208 112.942 28.95 111.642 28.95C110.011 28.95 108.845 30.2133 108.845 32.139C108.845 34.0278 110.035 35.2911 111.593 35.2911Z" fill="#06335D"/>
<path d="M115.768 35.2052H116.565V31.8323C116.578 30.4832 117.277 29.6246 118.405 29.6246C119.325 29.6246 119.938 30.4341 119.951 31.4644V35.2052H120.772V31.4398C120.772 29.8331 119.803 28.9132 118.503 28.9132C117.583 28.9132 116.872 29.4161 116.565 29.9312V26.6196H115.768V35.2052Z" fill="#06335D"/>
<path d="M124.408 35.3279C125.426 35.3279 126.088 34.8618 126.518 34.2976V35.2052H127.327V30.9615C127.327 29.7718 126.493 28.9255 125.034 28.9255C123.635 28.9255 122.691 29.7227 122.568 30.9002L123.402 30.8879C123.513 30.1397 124.101 29.6369 125.058 29.6369C125.843 29.6369 126.518 29.9925 126.518 30.7039C126.518 31.4153 125.352 31.538 124.567 31.6115C123.868 31.6729 123.329 31.8323 122.924 32.1512C122.544 32.4578 122.335 32.9485 122.335 33.4759C122.335 34.6533 123.316 35.3279 124.408 35.3279ZM124.506 34.5675C123.844 34.5675 123.182 34.1995 123.182 33.4513C123.182 32.8013 123.66 32.3843 124.788 32.2739C125.733 32.2003 126.26 32.0408 126.518 31.7955V32.6909C126.518 34.04 125.352 34.5797 124.506 34.5675Z" fill="#06335D"/>
<path d="M129.258 35.2052H130.055V31.8323C130.067 30.4832 130.865 29.6246 131.895 29.6246C132.802 29.6246 133.44 30.336 133.44 31.4644V35.2052H134.262V31.4398C134.262 29.8331 133.293 28.9132 131.993 28.9132C131.073 28.9132 130.362 29.4161 130.055 29.9312V29.0727H129.258V35.2052Z" fill="#06335D"/>
<path d="M138.634 37.7441C140.289 37.7441 141.504 36.7997 141.504 34.8005V29.0727H140.707V30.1397C140.314 29.4038 139.443 28.9377 138.572 28.9377C136.966 28.9377 135.825 30.2746 135.825 32.1022C135.825 33.9419 136.929 35.2666 138.536 35.2666C139.455 35.2666 140.326 34.776 140.707 34.0401V34.8005C140.707 36.3336 139.848 37.0082 138.634 37.0082C137.922 37.0082 136.978 36.6648 136.855 35.6591H136.046C136.107 36.8856 137.162 37.7441 138.634 37.7441ZM138.646 34.5061C137.444 34.5061 136.684 33.5126 136.684 32.1144C136.684 30.7162 137.444 29.7104 138.646 29.7104C139.909 29.7104 140.719 30.6794 140.719 32.0408C140.719 33.4636 139.909 34.5061 138.646 34.5061Z" fill="#06335D"/>
<path d="M145.87 35.3402C147.256 35.3402 148.298 34.4448 148.458 33.2428H147.697C147.489 34.0646 146.728 34.592 145.894 34.592C144.668 34.592 143.907 33.7089 143.907 32.3352V32.3229H148.556C148.58 30.385 147.587 28.9991 145.87 28.9991C144.116 28.9991 143.061 30.3114 143.061 32.188C143.061 34.1014 144.202 35.3402 145.87 35.3402ZM143.944 31.5993C144.079 30.5077 144.692 29.735 145.845 29.735C147.047 29.735 147.562 30.5077 147.685 31.5993H143.944Z" fill="#06335D"/>
<path d="M96.5664 49.8896H101.325V49.1047H97.4127V41.304H96.5664V49.8896Z" fill="#06335D"/>
<path d="M102.696 42.3343H103.628V41.304H102.696V42.3343ZM102.757 49.8896H103.567V43.7571H102.757V49.8896Z" fill="#06335D"/>
<path d="M110.037 52.3427H110.822V43.7571H110.037V44.7751C109.694 44.125 108.848 43.6221 107.94 43.6221C106.395 43.6221 105.18 44.8977 105.18 46.7866C105.18 48.6754 106.37 49.951 107.903 49.951C108.848 49.951 109.669 49.4604 110.037 48.7858V52.3427ZM108.001 49.1905C106.799 49.1905 106.039 48.1971 106.039 46.7988C106.039 45.4006 106.799 44.3949 108.001 44.3949C109.252 44.3949 110.074 45.3638 110.074 46.7252C110.074 48.148 109.252 49.1905 108.001 49.1905Z" fill="#06335D"/>
<path d="M115.077 50.0491C115.997 50.0491 116.708 49.5462 117.015 49.0311V49.8896H117.812V43.7571H117.015V47.13C117.003 48.4791 116.304 49.3377 115.175 49.3377C114.255 49.3377 113.642 48.5282 113.63 47.4979V43.7571H112.808V47.5225C112.808 49.1292 113.777 50.0491 115.077 50.0491Z" fill="#06335D"/>
<path d="M119.805 42.3343H120.737V41.304H119.805V42.3343ZM119.866 49.8896H120.675V43.7571H119.866V49.8896Z" fill="#06335D"/>
<path d="M125.048 50.0246C125.956 50.0246 126.802 49.5217 127.146 48.8716V49.8896H127.931V41.304H127.146V44.8609C126.778 44.1863 125.956 43.6957 125.012 43.6957C123.478 43.6957 122.289 44.9713 122.289 46.8601C122.289 48.749 123.503 50.0246 125.048 50.0246ZM125.11 49.2519C123.908 49.2519 123.147 48.2461 123.147 46.8479C123.147 45.4497 123.908 44.4562 125.11 44.4562C126.361 44.4562 127.183 45.4987 127.183 46.9215C127.183 48.2829 126.361 49.2519 125.11 49.2519Z" fill="#06335D"/>
<path d="M129.917 42.3343H130.849V41.304H129.917V42.3343ZM129.978 49.8896H130.787V43.7571H129.978V49.8896Z" fill="#06335D"/>
<path d="M134.326 49.8896H135.099L135.111 49.1292H134.4C133.934 49.1292 133.627 48.8594 133.627 48.2584V44.4807H135.087V43.7571H133.627V42.0154H132.842V43.7571H131.91V44.4807H132.842V48.332C132.842 49.3132 133.431 49.8896 134.326 49.8896Z" fill="#06335D"/>
<path d="M136.019 52.3427H136.436C137.625 52.3304 138.128 51.7539 138.472 50.8463L141.293 43.7571H140.385L138.508 48.5037L136.607 43.7571H135.687L138.104 49.534L137.65 50.7114C137.441 51.2388 137.086 51.5822 136.411 51.5822H136.019V52.3427Z" fill="#06335D"/>
<path d="M151.473 49.9019H152.466V41.3163H151.669V48.7122L146.898 41.304H145.929V49.8896H146.726V42.5305L151.473 49.9019Z" fill="#06335D"/>
<path d="M157.015 50.0246C158.401 50.0246 159.443 49.1292 159.603 47.9272H158.842C158.634 48.749 157.873 49.2764 157.039 49.2764C155.813 49.2764 155.052 48.3933 155.052 47.0196V47.0073H159.701C159.725 45.0694 158.732 43.6835 157.015 43.6835C155.261 43.6835 154.206 44.9958 154.206 46.8724C154.206 48.7858 155.347 50.0246 157.015 50.0246ZM155.089 46.2837C155.224 45.1921 155.837 44.4194 156.99 44.4194C158.192 44.4194 158.707 45.1921 158.83 46.2837H155.089Z" fill="#06335D"/>
<path d="M162.817 49.8896H163.589L163.602 49.1292H162.89C162.424 49.1292 162.117 48.8594 162.117 48.2584V44.4807H163.577V43.7571H162.117V42.0154H161.332V43.7571H160.4V44.4807H161.332V48.332C161.332 49.3132 161.921 49.8896 162.817 49.8896Z" fill="#06335D"/>
<path d="M166.14 49.8896H167.158L168.532 44.9468L169.905 49.8896H170.923L172.812 43.7571H171.88L170.421 49.0065L168.949 43.7571H168.09L166.643 49.0065L165.171 43.7571H164.239L166.14 49.8896Z" fill="#06335D"/>
<path d="M176.448 49.951C178.104 49.951 179.306 48.6509 179.306 46.8234C179.306 44.9713 178.202 43.6712 176.448 43.6712C174.78 43.6712 173.578 44.9713 173.578 46.8234C173.578 48.6509 174.78 49.951 176.448 49.951ZM176.424 49.2028C175.209 49.2028 174.388 48.2093 174.388 46.8234C174.388 45.4251 175.222 44.4316 176.448 44.4316C177.785 44.4316 178.521 45.4374 178.521 46.8479C178.521 48.2216 177.675 49.2028 176.424 49.2028Z" fill="#06335D"/>
<path d="M180.92 49.8896H181.717V46.3573C181.717 44.8855 182.588 44.4194 183.716 44.4562L183.766 44.4439V43.6712L183.704 43.6589C182.367 43.5854 181.852 44.2722 181.717 44.6156V43.7571H180.92V49.8896Z" fill="#06335D"/>
<path d="M185.114 49.8896H185.911V47.8536L186.966 46.762L189.075 49.8774L190.007 49.8896L187.505 46.1365L189.774 43.7571H188.781L185.911 46.7743V41.304H185.114V49.8896Z" fill="#06335D"/>
</svg>
