<svg xmlns="http://www.w3.org/2000/svg" width="682" height="557" fill="none" xmlns:v="https://vecta.io/nano"><style><![CDATA[.B{stroke-width:2}.C{fill:#272727}.D{fill:#f8c100}.E{stroke:#090909}.F{stroke:#ebebeb}.G{fill:#ecaa00}]]></style><rect y="9" width="320" height="178" rx="5" class="D"/><g fill="#fff"><rect x="10" y="1" width="318" height="176" rx="4" class="B E"/><rect x="11" y="2" width="316" height="57" rx="5"/></g><path d="M11 60H327" class="B F"/><path d="M50.28 104h4.29L46.5 83h-5.34l-8.04 21h4.26l1.74-4.56h9.45l1.71 4.56zm-9.81-8.19l3.36-8.88 3.36 8.88h-6.72zM56.6 104h3.96V82.1H56.6V104zm16.732-15.6c-2.16 0-3.81.87-4.92 2.25v-1.83h-3.96v21.48h3.96v-8.16c1.11 1.38 2.76 2.28 4.92 2.28 4.2 0 7.47-3.42 7.47-8.01 0-4.62-3.27-8.01-7.47-8.01zm-.69 12.48c-2.4 0-4.32-1.86-4.32-4.5 0-2.61 1.92-4.44 4.32-4.44 2.49 0 4.26 1.83 4.26 4.44 0 2.64-1.77 4.5-4.26 4.5zM92.638 88.4c-2.19 0-3.84.99-4.89 2.34V82.1h-3.96V104h3.96v-7.5c0-2.67 1.44-4.41 3.66-4.41 2.19 0 3.24 1.47 3.24 3.78V104h3.96v-8.88c0-4.05-2.01-6.72-5.97-6.72zm16.294 16.02c2.13 0 3.81-.9 4.89-2.28V104h3.99V88.82h-3.99v1.83c-1.08-1.38-2.76-2.25-4.89-2.25-4.2 0-7.5 3.39-7.5 8.01 0 4.59 3.3 8.01 7.5 8.01zm.69-3.54c-2.49 0-4.26-1.86-4.26-4.5 0-2.61 1.77-4.44 4.26-4.44 2.4 0 4.32 1.83 4.32 4.44 0 2.64-1.92 4.5-4.32 4.5zm-75.23 31.136h1.216v-4.64h3.168c2.032 0 3.376-1.344 3.376-3.264 0-1.936-1.312-3.312-3.28-3.328l-4.48.016v11.216zm1.216-5.744l.016-4.384h3.072c1.328 0 2.256.832 2.256 2.224 0 1.344-.928 2.16-2.256 2.16h-3.088zm8.43 5.728h1.184v-4.464c0-1.936 1.168-2.48 2.544-2.432l.112-.016v-1.2l-.144-.016c-1.68-.08-2.336.8-2.512 1.216V124h-1.184v8zm8.505.176c1.84 0 3.168-1.152 3.392-2.736h-1.152c-.288 1.072-1.28 1.632-2.208 1.632-1.52 0-2.48-1.056-2.48-2.736v-.016h5.968c.064-2.544-1.232-4.416-3.536-4.416-2.272 0-3.696 1.712-3.696 4.16 0 2.512 1.504 4.112 3.712 4.112zm-2.4-4.928c.144-1.328.96-2.256 2.352-2.256 1.44 0 2.128.928 2.272 2.256h-4.624zm10.68 4.928c1.776 0 3.008-1.04 3.008-2.432 0-1.36-.816-2.064-3.056-2.384-1.152-.176-1.84-.56-1.84-1.28 0-.704.736-1.152 1.632-1.152 1.008 0 1.856.432 1.936 1.648h1.152c-.032-1.904-1.504-2.72-3.136-2.72s-2.8 1.008-2.8 2.224c0 1.12.736 1.968 3.072 2.352 1.312.208 1.808.576 1.808 1.28 0 .72-.496 1.408-1.728 1.408-1.136 0-2.048-.56-2.176-1.68H57.48c.096 1.824 1.632 2.736 3.344 2.736zm8.129 0c1.84 0 3.168-1.152 3.392-2.736h-1.152c-.288 1.072-1.28 1.632-2.208 1.632-1.52 0-2.48-1.056-2.48-2.736v-.016h5.968c.064-2.544-1.232-4.416-3.536-4.416-2.272 0-3.696 1.712-3.696 4.16 0 2.512 1.504 4.112 3.712 4.112zm-2.4-4.928c.144-1.328.96-2.256 2.352-2.256 1.44 0 2.128.928 2.272 2.256h-4.624zM74.529 132h1.2v-4.304c.016-1.744 1.04-2.832 2.304-2.832 1.12 0 1.904.848 1.904 2.304V132h1.264v-4.912c0-2.24-1.424-3.296-2.976-3.296-1.216 0-2.112.688-2.496 1.296V124h-1.2v8zm11.245 0h1.136v-1.12h-.96c-.656 0-.992-.32-.992-1.12v-4.688h1.936V124h-1.936v-2.352h-1.2V124h-1.216v1.072h1.216v4.864c0 1.28.816 2.064 2.016 2.064zm5.012.16c1.2 0 2.096-.544 2.656-1.28V132h1.232v-5.504c0-1.568-1.088-2.688-3.024-2.688-1.872 0-3.104 1.088-3.264 2.656l1.264-.016c.128-.896.816-1.552 2.032-1.552.976 0 1.76.464 1.76 1.28 0 .912-1.424 1.04-2.448 1.136-.912.08-1.632.288-2.16.704-.496.4-.752 1.04-.752 1.728 0 1.536 1.28 2.416 2.704 2.416zm.16-1.104c-.816-.016-1.584-.496-1.584-1.36 0-.8.608-1.296 1.92-1.408 1.12-.096 1.824-.272 2.16-.576v1.072c-.016 1.632-1.44 2.288-2.496 2.272zm8.222.944h1.136v-1.12h-.96c-.656 0-.992-.32-.992-1.12v-4.688h1.936V124h-1.936v-2.352h-1.2V124h-1.216v1.072h1.216v4.864c0 1.28.816 2.064 2.016 2.064zm2.788-9.68h1.392v-1.52h-1.392v1.52zm.08 9.68h1.232v-8h-1.232v8zm7.069.08c2.16 0 3.76-1.696 3.76-4.08 0-2.416-1.504-4.112-3.76-4.112-2.176 0-3.776 1.696-3.776 4.112 0 2.384 1.6 4.08 3.776 4.08zm-.032-1.136c-1.52 0-2.528-1.232-2.528-2.944 0-1.728 1.024-2.976 2.56-2.976 1.648 0 2.576 1.264 2.576 3.008 0 1.696-1.024 2.912-2.608 2.912zm5.841 1.056h1.2v-4.304c.016-1.744 1.04-2.832 2.304-2.832 1.12 0 1.904.848 1.904 2.304V132h1.264v-4.912c0-2.24-1.424-3.296-2.976-3.296-1.216 0-2.112.688-2.496 1.296V124h-1.2v8zm16.751.08c2.16 0 3.76-1.696 3.76-4.08 0-2.416-1.504-4.112-3.76-4.112-2.176 0-3.776 1.696-3.776 4.112 0 2.384 1.6 4.08 3.776 4.08zm-.032-1.136c-1.52 0-2.528-1.232-2.528-2.944 0-1.728 1.024-2.976 2.56-2.976 1.648 0 2.576 1.264 2.576 3.008 0 1.696-1.024 2.912-2.608 2.912zM137.57 132h1.2v-6.928h1.92V124h-1.92v-.96c0-.8.336-1.136.992-1.136h.96V120.8h-1.136c-1.2 0-2.016.784-2.016 2.064V124h-1.136v1.072h1.136V132zm11.763 0h1.248v-4.608l4.08-6.592h-1.296l-3.408 5.488-3.344-5.488h-1.36l4.08 6.592V132zm8.93.176c1.84 0 3.168-1.152 3.392-2.736h-1.152c-.288 1.072-1.28 1.632-2.208 1.632-1.52 0-2.48-1.056-2.48-2.736v-.016h5.968c.064-2.544-1.232-4.416-3.536-4.416-2.272 0-3.696 1.712-3.696 4.16 0 2.512 1.504 4.112 3.712 4.112zm-2.4-4.928c.144-1.328.96-2.256 2.352-2.256 1.44 0 2.128.928 2.272 2.256h-4.624zm7.976 4.752h1.248v-11.2h-1.248V132zm3.869 0h1.248v-11.2h-1.248V132zm7.085.08c2.16 0 3.76-1.696 3.76-4.08 0-2.416-1.504-4.112-3.76-4.112-2.176 0-3.776 1.696-3.776 4.112 0 2.384 1.6 4.08 3.776 4.08zm-.032-1.136c-1.52 0-2.528-1.232-2.528-2.944 0-1.728 1.024-2.976 2.56-2.976 1.648 0 2.576 1.264 2.576 3.008 0 1.696-1.024 2.912-2.608 2.912zm7.236 1.056h1.424l1.712-6.08 1.712 6.08h1.424l2.512-8h-1.376l-1.84 6.544-1.856-6.544h-1.168l-1.84 6.544-1.856-6.544h-1.36l2.512 8zm9.05 0h1.536v-1.632h-1.536V132zm6.805.08c2.16 0 3.76-1.696 3.76-4.08 0-2.416-1.504-4.112-3.76-4.112-2.176 0-3.776 1.696-3.776 4.112 0 2.384 1.6 4.08 3.776 4.08zm-.032-1.136c-1.52 0-2.528-1.232-2.528-2.944 0-1.728 1.024-2.976 2.56-2.976 1.648 0 2.576 1.264 2.576 3.008 0 1.696-1.024 2.912-2.608 2.912zm5.84 1.056h1.184v-4.464c0-1.936 1.168-2.48 2.544-2.432l.112-.016v-1.2l-.144-.016c-1.68-.08-2.336.8-2.512 1.216V124h-1.184v8zm8.521 3.312c2.208 0 3.824-1.248 3.824-3.904V124h-1.184v1.392c-.512-.96-1.648-1.568-2.784-1.568-2.096 0-3.584 1.744-3.584 4.128 0 2.4 1.408 4.128 3.536 4.128 1.2 0 2.336-.64 2.832-1.6v.928c0 1.968-1.104 2.832-2.624 2.832-.752 0-2.048-.352-2.24-1.664h-1.216c.08 1.568 1.44 2.736 3.44 2.736zm.032-4.368c-1.488 0-2.464-1.232-2.464-2.944 0-1.76.976-3.024 2.464-3.024 1.552 0 2.576 1.216 2.576 2.912 0 1.776-1.024 3.056-2.576 3.056zM37.208 156h1.232v-10.032h4V144.8h-9.248v1.168h4.016V156zm9.218.08c2.16 0 3.76-1.696 3.76-4.08 0-2.416-1.504-4.112-3.76-4.112-2.176 0-3.776 1.696-3.776 4.112 0 2.384 1.6 4.08 3.776 4.08zm-.032-1.136c-1.52 0-2.528-1.232-2.528-2.944 0-1.728 1.024-2.976 2.56-2.976 1.648 0 2.576 1.264 2.576 3.008 0 1.696-1.024 2.912-2.608 2.912zM52.235 156h1.2v-2.656l1.248-1.312 2.704 3.952 1.392.016-3.296-4.864L58.459 148h-1.504l-3.52 3.728V144.8h-1.2V156zm10.943.176c1.84 0 3.168-1.152 3.392-2.736h-1.152c-.288 1.072-1.28 1.632-2.208 1.632-1.52 0-2.48-1.056-2.48-2.736v-.016h5.968c.064-2.544-1.232-4.416-3.536-4.416-2.272 0-3.696 1.712-3.696 4.16 0 2.512 1.504 4.112 3.712 4.112zm-2.4-4.928c.144-1.328.96-2.256 2.352-2.256 1.44 0 2.128.928 2.272 2.256h-4.624zM68.754 156h1.2v-4.304c.016-1.744 1.04-2.832 2.304-2.832 1.12 0 1.904.848 1.904 2.304V156h1.264v-4.912c0-2.24-1.424-3.296-2.976-3.296-1.216 0-2.112.688-2.496 1.296V148h-1.2v8zm13.767-9.68h1.392v-1.52h-1.392v1.52zm.08 9.68h1.232v-8h-1.232v8zm3.853 0h1.2v-4.304c.016-1.744 1.04-2.832 2.304-2.832 1.12 0 1.904.848 1.904 2.304V156h1.264v-4.912c0-2.24-1.424-3.296-2.976-3.296-1.216 0-2.112.688-2.496 1.296V148h-1.2v8zm11.245 0h1.136v-1.12h-.96c-.656 0-.992-.32-.992-1.12v-4.688h1.936V148h-1.936v-2.352h-1.2V148h-1.216v1.072h1.216v4.864c0 1.28.816 2.064 2.016 2.064zm5.864.176c1.84 0 3.168-1.152 3.392-2.736h-1.152c-.288 1.072-1.28 1.632-2.208 1.632-1.52 0-2.48-1.056-2.48-2.736v-.016h5.968c.064-2.544-1.232-4.416-3.536-4.416-2.272 0-3.696 1.712-3.696 4.16 0 2.512 1.504 4.112 3.712 4.112zm-2.4-4.928c.144-1.328.96-2.256 2.352-2.256 1.44 0 2.128.928 2.272 2.256h-4.624zm11.144 8.064c2.208 0 3.824-1.248 3.824-3.904V148h-1.184v1.392c-.512-.96-1.648-1.568-2.784-1.568-2.096 0-3.584 1.744-3.584 4.128 0 2.4 1.408 4.128 3.536 4.128 1.2 0 2.336-.64 2.832-1.6v.928c0 1.968-1.104 2.832-2.624 2.832-.752 0-2.048-.352-2.24-1.664h-1.216c.08 1.568 1.44 2.736 3.44 2.736zm.032-4.368c-1.488 0-2.464-1.232-2.464-2.944 0-1.76.976-3.024 2.464-3.024 1.552 0 2.576 1.216 2.576 2.912 0 1.776-1.024 3.056-2.576 3.056zm6.325 1.056h1.184v-4.464c0-1.936 1.168-2.48 2.544-2.432l.112-.016v-1.2l-.144-.016c-1.68-.08-2.336.8-2.512 1.216V148h-1.184v8zm7.654.16c1.2 0 2.096-.544 2.656-1.28V156h1.232v-5.504c0-1.568-1.088-2.688-3.024-2.688-1.872 0-3.104 1.088-3.264 2.656l1.264-.016c.128-.896.816-1.552 2.032-1.552.976 0 1.76.464 1.76 1.28 0 .912-1.424 1.04-2.448 1.136-.912.08-1.632.288-2.16.704-.496.4-.752 1.04-.752 1.728 0 1.536 1.28 2.416 2.704 2.416zm.16-1.104c-.816-.016-1.584-.496-1.584-1.36 0-.8.608-1.296 1.92-1.408 1.12-.096 1.824-.272 2.16-.576v1.072c-.016 1.632-1.44 2.288-2.496 2.272zm8.221.944h1.136v-1.12h-.96c-.656 0-.992-.32-.992-1.12v-4.688h1.936V148h-1.936v-2.352h-1.2V148h-1.216v1.072h1.216v4.864c0 1.28.816 2.064 2.016 2.064zm2.788-9.68h1.392v-1.52h-1.392v1.52zm.08 9.68h1.232v-8h-1.232v8zm7.07.08c2.16 0 3.76-1.696 3.76-4.08 0-2.416-1.504-4.112-3.76-4.112-2.176 0-3.776 1.696-3.776 4.112 0 2.384 1.6 4.08 3.776 4.08zm-.032-1.136c-1.52 0-2.528-1.232-2.528-2.944 0-1.728 1.024-2.976 2.56-2.976 1.648 0 2.576 1.264 2.576 3.008 0 1.696-1.024 2.912-2.608 2.912zm5.841 1.056h1.2v-4.304c.016-1.744 1.04-2.832 2.304-2.832 1.12 0 1.904.848 1.904 2.304V156h1.264v-4.912c0-2.24-1.424-3.296-2.976-3.296-1.216 0-2.112.688-2.496 1.296V148h-1.2v8zm15.086 0h1.424l1.712-6.08 1.712 6.08h1.424l2.512-8h-1.376l-1.84 6.544-1.856-6.544h-1.168l-1.84 6.544L164.38 148h-1.36l2.512 8zm10.362-9.68h1.392v-1.52h-1.392v1.52zm.08 9.68h1.232v-8h-1.232v8zm5.885 0h1.136v-1.12h-.96c-.656 0-.992-.32-.992-1.12v-4.688h1.936V148h-1.936v-2.352h-1.2V148h-1.216v1.072h1.216v4.864c0 1.28.816 2.064 2.016 2.064zm2.868 0h1.2v-4.304c.016-1.744.944-2.832 2.304-2.832 1.12 0 1.904.944 1.904 2.304V156h1.264v-4.912c0-2.24-1.424-3.296-2.976-3.296-1.216 0-2.112.688-2.496 1.296V144.8h-1.2V156zm16.562 0h1.248v-4.608l4.08-6.592h-1.296l-3.408 5.488-3.344-5.488h-1.36l4.08 6.592V156zm8.93.176c1.84 0 3.168-1.152 3.392-2.736h-1.152c-.288 1.072-1.28 1.632-2.208 1.632-1.52 0-2.48-1.056-2.48-2.736v-.016h5.968c.064-2.544-1.232-4.416-3.536-4.416-2.272 0-3.696 1.712-3.696 4.16 0 2.512 1.504 4.112 3.712 4.112zm-2.4-4.928c.144-1.328.96-2.256 2.352-2.256 1.44 0 2.128.928 2.272 2.256h-4.624zm7.977 4.752h1.248v-11.2h-1.248V156zm3.868 0h1.248v-11.2h-1.248V156zm7.085.08c2.16 0 3.76-1.696 3.76-4.08 0-2.416-1.504-4.112-3.76-4.112-2.176 0-3.776 1.696-3.776 4.112 0 2.384 1.6 4.08 3.776 4.08zm-.032-1.136c-1.52 0-2.528-1.232-2.528-2.944 0-1.728 1.024-2.976 2.56-2.976 1.648 0 2.576 1.264 2.576 3.008 0 1.696-1.024 2.912-2.608 2.912zm7.237 1.056h1.424l1.712-6.08 1.712 6.08h1.424l2.512-8h-1.376l-1.84 6.544-1.856-6.544h-1.168l-1.84 6.544-1.856-6.544h-1.36l2.512 8zm9.049 0h1.536v-1.632h-1.536V156zm6.677.112c1.792 0 3.184-1.184 3.392-2.816h-1.216c-.176.944-1.008 1.712-2.128 1.712-1.424 0-2.416-1.2-2.416-3.024 0-1.872 1.008-3.072 2.432-3.072a2.15 2.15 0 0 1 2.112 1.696h1.216c-.208-1.616-1.584-2.768-3.328-2.768-2.176 0-3.712 1.664-3.712 4.16 0 2.448 1.552 4.112 3.648 4.112zm8.669-.032c2.16 0 3.76-1.696 3.76-4.08 0-2.416-1.504-4.112-3.76-4.112-2.176 0-3.776 1.696-3.776 4.112 0 2.384 1.6 4.08 3.776 4.08zm-.032-1.136c-1.52 0-2.528-1.232-2.528-2.944 0-1.728 1.024-2.976 2.56-2.976 1.648 0 2.576 1.264 2.576 3.008 0 1.696-1.024 2.912-2.608 2.912zm5.841 1.056h1.2v-4.304c.016-1.744.976-2.832 2.24-2.832 1.12 0 1.904.848 1.904 2.304V156h1.264v-4.304c.016-1.744.976-2.832 2.24-2.832 1.12 0 1.904.848 1.904 2.304V156h1.264v-4.912c0-2.24-1.44-3.296-2.96-3.296-1.36 0-2.32.736-2.816 1.616-.64-1.264-1.776-1.616-2.608-1.616-1.216 0-2.048.688-2.432 1.296V148h-1.2v8z" class="C"/><path d="M60.772 32.364c0-7.38-5.832-13.068-13.104-13.068s-13.104 5.688-13.104 13.068c0 7.452 5.832 13.14 13.104 13.14 2.484 0 4.824-.684 6.84-1.908L55.732 45h4.932l-3.204-3.888c2.052-2.304 3.312-5.328 3.312-8.748zm-13.104 8.604c-4.932 0-8.28-3.672-8.28-8.604 0-4.896 3.348-8.532 8.28-8.532s8.28 3.636 8.28 8.532c0 1.944-.54 3.708-1.476 5.112l-3.204-3.924h-5.544l5.76 6.588c-1.116.54-2.412.828-3.816.828zm35.81-5.22h-3.132V30.6h-4.932v5.148h-6.372L77.25 19.8h-5.328l-8.676 16.704v3.6h12.168V45h4.932v-4.896h3.132v-4.356zm18.482 4.788l5.688-5.256c2.88-2.664 4.608-4.896 4.608-8.064 0-5.076-3.708-7.92-8.964-7.92-5.005 0-8.424 3.528-8.928 7.308l4.428 1.26c.54-2.484 2.269-4.14 4.609-4.14 2.484 0 3.96 1.44 3.96 3.744 0 1.8-1.224 3.168-3.096 4.896l-9.828 9.252V45h18.216v-4.464H101.96zm23.375 4.968c6.696 0 10.404-5.58 10.404-13.104 0-7.56-3.708-13.104-10.404-13.104s-10.44 5.544-10.44 13.104c0 7.524 3.744 13.104 10.44 13.104zm0-4.5c-3.708 0-5.508-3.42-5.508-8.604s1.8-8.604 5.508-8.604 5.472 3.42 5.472 8.604-1.764 8.604-5.472 8.604zm19.832-.468l5.688-5.256c2.88-2.664 4.608-4.896 4.608-8.064 0-5.076-3.708-7.92-8.964-7.92-5.004 0-8.424 3.528-8.928 7.308l4.428 1.26c.54-2.484 2.268-4.14 4.608-4.14 2.484 0 3.96 1.44 3.96 3.744 0 1.8-1.224 3.168-3.096 4.896l-9.828 9.252V45h18.216v-4.464h-10.692zM165.684 19.8l-7.632 3.924 1.188 4.212 5.652-2.628V45h5.004V19.8h-4.212z" class="G"/><rect y="253" width="320" height="178" rx="5" class="D"/><g class="B"><rect x="10" y="245" width="318" height="176" rx="4" fill="#fff" class="E"/><path d="M11 304H327" class="F"/></g><path d="M44.79 327h-9.84v21h4.08v-6.42h5.58c4.83 0 7.47-3.75 7.47-7.29 0-3.48-2.67-7.29-7.29-7.29zm-.3 10.92h-5.46v-7.2h5.64c2.01 0 3.42 1.74 3.42 3.6 0 1.83-1.38 3.6-3.6 3.6zm20.565-5.1v7.47c0 2.7-1.41 4.44-3.66 4.44-2.19 0-3.24-1.5-3.24-3.81v-8.1h-3.96v8.85c0 4.08 2.01 6.75 6 6.75 2.19 0 3.84-.99 4.86-2.34V348h3.96v-15.18h-3.96zm16.744-.42c-2.16 0-3.81.87-4.92 2.25v-8.55h-3.96V348h3.96v-1.86c1.11 1.38 2.76 2.28 4.92 2.28 4.2 0 7.47-3.42 7.47-8.01 0-4.62-3.27-8.01-7.47-8.01zm-.69 12.48c-2.4 0-4.32-1.86-4.32-4.5 0-2.61 1.92-4.44 4.32-4.44 2.49 0 4.26 1.83 4.26 4.44 0 2.64-1.77 4.5-4.26 4.5zM92.255 348h3.96v-21.9h-3.96V348zm9.861-17.31c1.32 0 2.37-1.02 2.37-2.34 0-1.26-1.05-2.28-2.37-2.28s-2.37 1.02-2.37 2.28c0 1.32 1.05 2.34 2.37 2.34zm-2.04 17.31h3.99v-15.18h-3.99V348zm15.08.42c4.17 0 6.78-2.64 7.38-4.95l-3.69-1.02c-.33 1.26-1.74 2.43-3.72 2.43-2.52 0-4.14-2.13-4.14-4.5 0-2.4 1.62-4.47 4.14-4.47 1.98 0 3.39 1.26 3.72 2.52l3.69-1.05c-.6-2.28-3.21-4.98-7.41-4.98-4.62 0-8.04 3.45-8.04 7.98 0 4.56 3.42 8.04 8.07 8.04zm31.986-11.43c1.62-.87 2.61-2.37 2.61-4.38-.03-3.33-2.82-5.61-6.93-5.61h-10.02v21h10.59c4.47 0 7.14-2.34 7.14-5.94 0-2.37-1.32-4.14-3.39-5.07zm-4.35-6.45c1.74-.03 2.91 1.08 2.91 2.55.03 1.44-1.11 2.64-2.82 2.64h-6.06v-5.19h5.97zm.57 13.89h-6.54v-5.46h6.57c1.95 0 3.06 1.2 3.06 2.7 0 1.53-1.14 2.76-3.09 2.76zm17.531 3.99c3.99 0 6.45-2.34 7.32-4.32l-3.57-1.05c-.6 1.14-1.77 2.01-3.69 2.01-2.76 0-4.14-1.5-4.41-3.45h11.79c.09-.48.09-.93.09-1.41 0-4.35-2.85-7.8-7.83-7.8-4.77 0-7.95 3.48-7.95 8.01 0 4.8 3.39 8.01 8.25 8.01zm-4.35-9.3c.21-1.74 1.71-3.36 4.02-3.36 2.37 0 3.81 1.5 3.99 3.36h-8.01zm23.102 5.19a3.7 3.7 0 0 1-1.8.42c-1.26 0-1.86-.69-1.86-1.92v-6.51h4.44v-3.48h-4.44v-4.92h-3.99v4.92h-2.55v3.48h2.55v6.51c0 3.27 1.59 5.43 5.07 5.43 1.26 0 2.34-.24 3.54-.72l-.96-3.21zm9.531 4.11c2.13 0 3.81-.9 4.89-2.28V348h3.99v-15.18h-3.99v1.83c-1.08-1.38-2.76-2.25-4.89-2.25-4.2 0-7.5 3.39-7.5 8.01 0 4.59 3.3 8.01 7.5 8.01zm.69-3.54c-2.49 0-4.26-1.86-4.26-4.5 0-2.61 1.77-4.44 4.26-4.44 2.4 0 4.32 1.83 4.32 4.44 0 2.64-1.92 4.5-4.32 4.5zM34.392 376.016h1.216v-4.64h3.168c2.032 0 3.376-1.344 3.376-3.264 0-1.936-1.312-3.312-3.28-3.328l-4.48.016v11.216zm1.216-5.744l.016-4.384h3.072c1.328 0 2.256.832 2.256 2.224 0 1.344-.928 2.16-2.256 2.16h-3.088zm11.326 5.936c1.232 0 2.128-.688 2.496-1.296V376h1.2v-8h-1.2v4.304c-.016 1.744-.928 2.832-2.304 2.832-1.12 0-1.888-.944-1.904-2.304V368h-1.264v4.912c0 2.24 1.424 3.296 2.976 3.296zm10.173-.032c1.936 0 3.616-1.584 3.616-4.128 0-2.528-1.616-4.128-3.568-4.128-1.248 0-2.256.64-2.736 1.44v-4.56h-1.168V376h1.168v-1.28c.4.752 1.456 1.456 2.688 1.456zm-.128-1.152c-1.552 0-2.592-1.216-2.592-2.912 0-1.776 1.04-3.056 2.592-3.056 1.488 0 2.464 1.232 2.464 2.944 0 1.76-.976 3.024-2.464 3.024zm5.797.976h1.248v-11.2h-1.248V376zm3.789-9.68h1.392v-1.52h-1.392v1.52zm.08 9.68h1.232v-8h-1.232v8zm6.941.112c1.792 0 3.184-1.184 3.392-2.816h-1.216c-.176.944-1.008 1.712-2.128 1.712-1.424 0-2.416-1.2-2.416-3.024 0-1.872 1.008-3.072 2.432-3.072a2.15 2.15 0 0 1 2.112 1.696h1.216c-.208-1.616-1.584-2.768-3.328-2.768-2.176 0-3.712 1.664-3.712 4.16 0 2.448 1.552 4.112 3.648 4.112zM85.064 376H86.2v-1.12h-.96c-.656 0-.992-.32-.992-1.12v-4.688h1.936V368h-1.936v-2.352h-1.2V368h-1.216v1.072h1.216v4.864c0 1.28.816 2.064 2.016 2.064zm5.928.08c2.16 0 3.76-1.696 3.76-4.08 0-2.416-1.504-4.112-3.76-4.112-2.176 0-3.776 1.696-3.776 4.112 0 2.384 1.6 4.08 3.776 4.08zm-.032-1.136c-1.52 0-2.528-1.232-2.528-2.944 0-1.728 1.024-2.976 2.56-2.976 1.648 0 2.576 1.264 2.576 3.008 0 1.696-1.024 2.912-2.608 2.912zM96.801 376h1.2v-2.656l1.248-1.312 2.704 3.952 1.392.016-3.296-4.864 2.976-3.136h-1.504l-3.52 3.728V364.8h-1.2V376zm10.942.176c1.84 0 3.168-1.152 3.392-2.736h-1.152c-.288 1.072-1.28 1.632-2.208 1.632-1.52 0-2.48-1.056-2.48-2.736v-.016h5.968c.064-2.544-1.232-4.416-3.536-4.416-2.272 0-3.696 1.712-3.696 4.16 0 2.512 1.504 4.112 3.712 4.112zm-2.4-4.928c.144-1.328.96-2.256 2.352-2.256 1.44 0 2.128.928 2.272 2.256h-4.624zM113.32 376h1.2v-4.304c.016-1.744 1.04-2.832 2.304-2.832 1.12 0 1.904.848 1.904 2.304V376h1.264v-4.912c0-2.24-1.424-3.296-2.976-3.296-1.216 0-2.112.688-2.496 1.296V368h-1.2v8zm11.916.176c1.776 0 3.008-1.04 3.008-2.432 0-1.36-.816-2.064-3.056-2.384-1.152-.176-1.84-.56-1.84-1.28 0-.704.736-1.152 1.632-1.152 1.008 0 1.856.432 1.936 1.648h1.152c-.032-1.904-1.504-2.72-3.136-2.72s-2.8 1.008-2.8 2.224c0 1.12.736 1.968 3.072 2.352 1.312.208 1.808.576 1.808 1.28 0 .72-.496 1.408-1.728 1.408-1.136 0-2.048-.56-2.176-1.68h-1.216c.096 1.824 1.632 2.736 3.344 2.736zm11.691 0c1.776 0 3.008-1.04 3.008-2.432 0-1.36-.816-2.064-3.056-2.384-1.152-.176-1.84-.56-1.84-1.28 0-.704.736-1.152 1.632-1.152 1.008 0 1.856.432 1.936 1.648h1.152c-.032-1.904-1.504-2.72-3.136-2.72s-2.8 1.008-2.8 2.224c0 1.12.736 1.968 3.072 2.352 1.312.208 1.808.576 1.808 1.28 0 .72-.496 1.408-1.728 1.408-1.136 0-2.048-.56-2.176-1.68h-1.216c.096 1.824 1.632 2.736 3.344 2.736zm7.121-.016c1.2 0 2.096-.544 2.656-1.28V376h1.232v-5.504c0-1.568-1.088-2.688-3.024-2.688-1.872 0-3.104 1.088-3.264 2.656l1.264-.016c.128-.896.816-1.552 2.032-1.552.976 0 1.76.464 1.76 1.28 0 .912-1.424 1.04-2.448 1.136-.912.08-1.632.288-2.16.704-.496.4-.752 1.04-.752 1.728 0 1.536 1.28 2.416 2.704 2.416zm.16-1.104c-.816-.016-1.584-.496-1.584-1.36 0-.8.608-1.296 1.92-1.408 1.12-.096 1.824-.272 2.16-.576v1.072c-.016 1.632-1.44 2.288-2.496 2.272zm6.19.944h1.248v-11.2h-1.248V376zm7.02.176c1.84 0 3.168-1.152 3.392-2.736h-1.152c-.288 1.072-1.28 1.632-2.208 1.632-1.52 0-2.48-1.056-2.48-2.736v-.016h5.968c.064-2.544-1.232-4.416-3.536-4.416-2.272 0-3.696 1.712-3.696 4.16 0 2.512 1.504 4.112 3.712 4.112zm-2.4-4.928c.144-1.328.96-2.256 2.352-2.256 1.44 0 2.128.928 2.272 2.256h-4.624zM34.392 400.032l4.24-.032c2.976 0 4.976-2.304 4.976-5.68 0-3.296-2.064-5.568-5.136-5.552l-4.08.032v11.232zm1.216-1.2v-8.8l2.848-.032c2.336-.032 3.904 1.728 3.904 4.384 0 2.64-1.6 4.4-3.984 4.416l-2.768.032zm13.364 1.344c1.84 0 3.168-1.152 3.392-2.736h-1.152c-.288 1.072-1.28 1.632-2.208 1.632-1.52 0-2.48-1.056-2.48-2.736v-.016h5.968c.064-2.544-1.232-4.416-3.536-4.416-2.272 0-3.696 1.712-3.696 4.16 0 2.512 1.504 4.112 3.712 4.112zm-2.4-4.928c.144-1.328.96-2.256 2.352-2.256 1.44 0 2.128.928 2.272 2.256h-4.624zM54.548 400h1.184v-4.464c0-1.936 1.168-2.48 2.544-2.432l.112-.016v-1.2l-.144-.016c-1.68-.08-2.336.8-2.512 1.216V392h-1.184v8zm5.429-9.68h1.392v-1.52h-1.392v1.52zm.08 9.68h1.232v-8h-1.232v8zm5.933 0h1.28l3.152-8h-1.328l-2.464 6.528L64.166 392H62.87l3.12 8zm7.995.16c1.2 0 2.096-.544 2.656-1.28V400h1.232v-5.504c0-1.568-1.088-2.688-3.024-2.688-1.872 0-3.104 1.088-3.264 2.656l1.264-.016c.128-.896.816-1.552 2.032-1.552.976 0 1.76.464 1.76 1.28 0 .912-1.424 1.04-2.448 1.136-.912.08-1.632.288-2.16.704-.496.4-.752 1.04-.752 1.728 0 1.536 1.28 2.416 2.704 2.416zm.16-1.104c-.816-.016-1.584-.496-1.584-1.36 0-.8.608-1.296 1.92-1.408 1.12-.096 1.824-.272 2.16-.576v1.072c-.016 1.632-1.44 2.288-2.496 2.272zm8.222.944h1.136v-1.12h-.96c-.656 0-.992-.32-.992-1.12v-4.688h1.936V392h-1.936v-2.352h-1.2V392h-1.216v1.072h1.216v4.864c0 1.28.816 2.064 2.016 2.064zm2.788-9.68h1.392v-1.52h-1.392v1.52zm.08 9.68h1.232v-8h-1.232v8zm5.933 0h1.28l3.152-8h-1.328l-2.464 6.528L89.344 392h-1.296l3.12 8zm9.003.176c1.84 0 3.168-1.152 3.392-2.736h-1.152c-.288 1.072-1.28 1.632-2.208 1.632-1.52 0-2.48-1.056-2.48-2.736v-.016h5.968c.064-2.544-1.232-4.416-3.536-4.416-2.272 0-3.695 1.712-3.695 4.16 0 2.512 1.504 4.112 3.712 4.112zm-2.4-4.928c.144-1.328.96-2.256 2.352-2.256 1.44 0 2.128.928 2.272 2.256h-4.623zM110.23 400h7.056v-1.2h-5.824v-3.888h5.488v-1.168h-5.488V390h5.824v-1.2h-7.056V400zm8.235 0h1.408l2.176-3.024 2.144 3.024h1.408l-2.864-4 2.864-4h-1.424l-2.128 3.024-2.16-3.024h-1.424l2.88 4-2.88 4zm11.649.112c1.792 0 3.184-1.184 3.392-2.816h-1.216c-.176.944-1.008 1.712-2.128 1.712-1.424 0-2.416-1.2-2.416-3.024 0-1.872 1.008-3.072 2.432-3.072a2.15 2.15 0 0 1 2.112 1.696h1.216c-.208-1.616-1.584-2.768-3.328-2.768-2.176 0-3.712 1.664-3.712 4.16 0 2.448 1.552 4.112 3.648 4.112zm5.452-.112h1.2v-4.304c.016-1.744.944-2.832 2.304-2.832 1.12 0 1.904.944 1.904 2.304V400h1.264v-4.912c0-2.24-1.424-3.296-2.976-3.296-1.216 0-2.112.688-2.496 1.296V388.8h-1.2V400zm11.357.16c1.2 0 2.096-.544 2.656-1.28V400h1.232v-5.504c0-1.568-1.088-2.688-3.024-2.688-1.872 0-3.104 1.088-3.264 2.656l1.264-.016c.128-.896.816-1.552 2.032-1.552.976 0 1.76.464 1.76 1.28 0 .912-1.424 1.04-2.448 1.136-.912.08-1.632.288-2.16.704-.496.4-.752 1.04-.752 1.728 0 1.536 1.28 2.416 2.704 2.416zm.16-1.104c-.816-.016-1.584-.496-1.584-1.36 0-.8.608-1.296 1.92-1.408 1.12-.096 1.824-.272 2.16-.576v1.072c-.016 1.632-1.44 2.288-2.496 2.272zm6.19.944h1.2v-4.304c.016-1.744 1.04-2.832 2.304-2.832 1.12 0 1.904.848 1.904 2.304V400h1.264v-4.912c0-2.24-1.424-3.296-2.976-3.296-1.216 0-2.112.688-2.496 1.296V392h-1.2v8zm12.38 3.312c2.208 0 3.824-1.248 3.824-3.904V392h-1.184v1.392c-.512-.96-1.648-1.568-2.784-1.568-2.096 0-3.584 1.744-3.584 4.128 0 2.4 1.408 4.128 3.536 4.128 1.2 0 2.336-.64 2.832-1.6v.928c0 1.968-1.104 2.832-2.624 2.832-.752 0-2.048-.352-2.24-1.664h-1.216c.08 1.568 1.44 2.736 3.44 2.736zm.032-4.368c-1.488 0-2.464-1.232-2.464-2.944 0-1.76.976-3.024 2.464-3.024 1.552 0 2.576 1.216 2.576 2.912 0 1.776-1.024 3.056-2.576 3.056zm9.477 1.232c1.84 0 3.168-1.152 3.392-2.736h-1.152c-.288 1.072-1.28 1.632-2.208 1.632-1.52 0-2.48-1.056-2.48-2.736v-.016h5.968c.064-2.544-1.232-4.416-3.536-4.416-2.272 0-3.696 1.712-3.696 4.16 0 2.512 1.504 4.112 3.712 4.112zm-2.4-4.928c.144-1.328.96-2.256 2.352-2.256 1.44 0 2.128.928 2.272 2.256h-4.624z" class="C"/><path d="M58.881 276.364c0-7.38-5.832-13.068-13.104-13.068s-13.104 5.688-13.104 13.068c0 7.452 5.832 13.14 13.104 13.14 2.484 0 4.824-.684 6.84-1.908L53.841 289h4.932l-3.204-3.888c2.052-2.304 3.312-5.328 3.312-8.748zm-13.104 8.604c-4.932 0-8.28-3.672-8.28-8.604 0-4.896 3.348-8.532 8.28-8.532s8.28 3.636 8.28 8.532c0 1.944-.54 3.708-1.476 5.112l-3.204-3.924h-5.544l5.76 6.588c-1.116.54-2.412.828-3.816.828zm23.354-.432l5.688-5.256c2.88-2.664 4.608-4.896 4.608-8.064 0-5.076-3.708-7.92-8.964-7.92-5.004 0-8.424 3.528-8.928 7.308l4.428 1.26c.54-2.484 2.268-4.14 4.608-4.14 2.484 0 3.96 1.44 3.96 3.744 0 1.8-1.224 3.168-3.096 4.896l-9.828 9.252V289h18.216v-4.464H69.131zm29.953 0l5.688-5.256c2.88-2.664 4.608-4.896 4.608-8.064 0-5.076-3.708-7.92-8.964-7.92-5.005 0-8.424 3.528-8.928 7.308l4.428 1.26c.54-2.484 2.268-4.14 4.609-4.14 2.484 0 3.96 1.44 3.96 3.744 0 1.8-1.224 3.168-3.096 4.896l-9.828 9.252V289h18.216v-4.464H99.085zm23.375 4.968c6.696 0 10.404-5.58 10.404-13.104 0-7.56-3.708-13.104-10.404-13.104s-10.44 5.544-10.44 13.104c0 7.524 3.744 13.104 10.44 13.104zm0-4.5c-3.708 0-5.508-3.42-5.508-8.604s1.8-8.604 5.508-8.604 5.472 3.42 5.472 8.604-1.764 8.604-5.472 8.604zm19.832-.468l5.688-5.256c2.88-2.664 4.608-4.896 4.608-8.064 0-5.076-3.708-7.92-8.964-7.92-5.004 0-8.424 3.528-8.928 7.308l4.428 1.26c.54-2.484 2.268-4.14 4.608-4.14 2.484 0 3.96 1.44 3.96 3.744 0 1.8-1.224 3.168-3.096 4.896l-9.828 9.252V289h18.216v-4.464h-10.692zm21.093 0l5.688-5.256c2.88-2.664 4.608-4.896 4.608-8.064 0-5.076-3.708-7.92-8.964-7.92-5.004 0-8.424 3.528-8.928 7.308l4.428 1.26c.54-2.484 2.268-4.14 4.608-4.14 2.484 0 3.96 1.44 3.96 3.744 0 1.8-1.224 3.168-3.096 4.896l-9.828 9.252V289h18.216v-4.464h-10.692z" class="G"/><rect x="353" y="379" width="320" height="178" rx="5" class="D"/><g class="B"><rect x="363" y="371" width="318" height="176" rx="4" fill="#fff" class="E"/><path d="M364 430H680" class="F"/></g><path d="M402.68 453l-6 15.78-6-15.78h-4.53l8.28 21h4.5l8.28-21h-4.53zm11.545 21.42c3.99 0 6.45-2.34 7.32-4.32l-3.57-1.05c-.6 1.14-1.77 2.01-3.69 2.01-2.76 0-4.14-1.5-4.41-3.45h11.79c.09-.48.09-.93.09-1.41 0-4.35-2.85-7.8-7.83-7.8-4.77 0-7.95 3.48-7.95 8.01 0 4.8 3.39 8.01 8.25 8.01zm-4.35-9.3c.21-1.74 1.71-3.36 4.02-3.36 2.37 0 3.81 1.5 3.99 3.36h-8.01zm18.832-4.05v-2.25h-3.96V474h3.96v-6.6c0-4.08 1.77-5.58 5.01-5.07v-3.72c-2.37-.33-4.11.69-5.01 2.46zm13.436 13.35c3.87 0 6.57-2.1 6.57-4.95 0-2.73-1.98-3.66-4.26-4.32l-3.78-1.08c-.84-.24-1.26-.6-1.26-1.2 0-.72.93-1.38 2.16-1.38 1.59 0 2.7.81 3.24 1.77l3.51-1.02c-.96-2.28-3.45-3.84-6.72-3.84-3.33 0-6.09 2.01-6.09 4.56 0 2.16 1.59 3.42 3.75 4.05l3.87 1.14c1.11.33 1.68.75 1.68 1.5 0 .84-.99 1.56-2.52 1.56-2.01 0-3.45-1.08-3.96-2.52l-3.57 1.05c.75 2.46 3.63 4.68 7.38 4.68zm11.596-17.73c1.32 0 2.37-1.02 2.37-2.34 0-1.26-1.05-2.28-2.37-2.28s-2.37 1.02-2.37 2.28c0 1.32 1.05 2.34 2.37 2.34zm-2.04 17.31h3.99v-15.18h-3.99V474zm15.14.42c4.68 0 8.1-3.48 8.1-8.01 0-4.56-3.42-8.01-8.1-8.01s-8.13 3.45-8.13 8.01c0 4.53 3.45 8.01 8.13 8.01zm0-3.6c-2.55 0-4.26-1.89-4.26-4.41s1.71-4.41 4.26-4.41c2.52 0 4.26 1.89 4.26 4.41s-1.74 4.41-4.26 4.41zM486.8 458.4c-2.19 0-3.84.99-4.89 2.34v-1.92h-3.96V474h3.96v-7.5c0-2.67 1.44-4.41 3.66-4.41 2.19 0 3.24 1.47 3.24 3.78V474h3.96v-8.88c0-4.05-2.01-6.72-5.97-6.72zm22.537 11.88l4.74-4.38c2.4-2.22 3.84-4.08 3.84-6.72 0-4.23-3.09-6.6-7.47-6.6-4.17 0-7.02 2.94-7.44 6.09l3.69 1.05c.45-2.07 1.89-3.45 3.84-3.45 2.07 0 3.3 1.2 3.3 3.12 0 1.5-1.02 2.64-2.58 4.08l-8.19 7.71V474h15.18v-3.72h-8.91zM390.208 502h1.232v-10.032h4V490.8h-9.248v1.168h4.016V502zm9.218.08c2.16 0 3.76-1.696 3.76-4.08 0-2.416-1.504-4.112-3.76-4.112-2.176 0-3.776 1.696-3.776 4.112 0 2.384 1.6 4.08 3.776 4.08zm-.032-1.136c-1.52 0-2.528-1.232-2.528-2.944 0-1.728 1.024-2.976 2.56-2.976 1.648 0 2.576 1.264 2.576 3.008 0 1.696-1.024 2.912-2.608 2.912zm5.841 1.056h1.2v-2.656l1.248-1.312 2.704 3.952 1.392.016-3.296-4.864 2.976-3.136h-1.504l-3.52 3.728V490.8h-1.2V502zm10.943.176c1.84 0 3.168-1.152 3.392-2.736h-1.152c-.288 1.072-1.28 1.632-2.208 1.632-1.52 0-2.48-1.056-2.48-2.736v-.016h5.968c.064-2.544-1.232-4.416-3.536-4.416-2.272 0-3.696 1.712-3.696 4.16 0 2.512 1.504 4.112 3.712 4.112zm-2.4-4.928c.144-1.328.96-2.256 2.352-2.256 1.44 0 2.128.928 2.272 2.256h-4.624zm7.976 4.752h1.2v-4.304c.016-1.744 1.04-2.832 2.304-2.832 1.12 0 1.904.848 1.904 2.304V502h1.264v-4.912c0-2.24-1.424-3.296-2.976-3.296-1.216 0-2.112.688-2.496 1.296V494h-1.2v8zm11.916.176c1.776 0 3.008-1.04 3.008-2.432 0-1.36-.816-2.064-3.056-2.384-1.152-.176-1.84-.56-1.84-1.28 0-.704.736-1.152 1.632-1.152 1.008 0 1.856.432 1.936 1.648h1.152c-.032-1.904-1.504-2.72-3.136-2.72s-2.8 1.008-2.8 2.224c0 1.12.736 1.968 3.072 2.352 1.312.208 1.808.576 1.808 1.28 0 .72-.496 1.408-1.728 1.408-1.136 0-2.048-.56-2.176-1.68h-1.216c.096 1.824 1.632 2.736 3.344 2.736zm12.195.032c1.232 0 2.128-.688 2.496-1.296V502h1.2v-8h-1.2v4.304c-.016 1.744-.928 2.832-2.304 2.832-1.12 0-1.888-.944-1.904-2.304V494h-1.264v4.912c0 2.24 1.424 3.296 2.976 3.296zm6.317-.208h1.2v-4.304c.016-1.744 1.04-2.832 2.304-2.832 1.12 0 1.904.848 1.904 2.304V502h1.264v-4.912c0-2.24-1.424-3.296-2.976-3.296-1.216 0-2.112.688-2.496 1.296V494h-1.2v8zm9.212 0h1.248v-11.2h-1.248V502zm7.085.08c2.16 0 3.76-1.696 3.76-4.08 0-2.416-1.504-4.112-3.76-4.112-2.176 0-3.776 1.696-3.776 4.112 0 2.384 1.6 4.08 3.776 4.08zm-.032-1.136c-1.52 0-2.528-1.232-2.528-2.944 0-1.728 1.024-2.976 2.56-2.976 1.648 0 2.576 1.264 2.576 3.008 0 1.696-1.024 2.912-2.608 2.912zm8.929 1.168c1.792 0 3.184-1.184 3.392-2.816h-1.216c-.176.944-1.008 1.712-2.128 1.712-1.424 0-2.416-1.2-2.416-3.024 0-1.872 1.008-3.072 2.432-3.072a2.15 2.15 0 0 1 2.112 1.696h1.216c-.208-1.616-1.584-2.768-3.328-2.768-2.176 0-3.712 1.664-3.712 4.16 0 2.448 1.552 4.112 3.648 4.112zm5.453-.112h1.2v-2.656l1.248-1.312 2.704 3.952 1.392.016-3.296-4.864 2.976-3.136h-1.504l-3.52 3.728V490.8h-1.2V502zm-90.925 24.096c2.592 0 4.368-1.664 4.736-3.808h-1.344c-.304 1.376-1.6 2.56-3.376 2.56-2.192 0-3.712-1.808-3.712-4.368 0-2.656 1.536-4.56 3.776-4.56 1.728 0 2.992 1.168 3.312 2.56h1.344c-.336-2.144-2.112-3.776-4.64-3.776-3.008 0-5.168 2.352-5.168 5.76 0 3.312 2.176 5.632 5.072 5.632zm6.869-.096h1.184v-4.464c0-1.936 1.168-2.48 2.544-2.432l.112-.016v-1.2l-.144-.016c-1.68-.08-2.336.8-2.512 1.216V518h-1.184v8zm8.569.08c2.16 0 3.76-1.696 3.76-4.08 0-2.416-1.504-4.112-3.76-4.112-2.176 0-3.776 1.696-3.776 4.112 0 2.384 1.6 4.08 3.776 4.08zm-.032-1.136c-1.52 0-2.528-1.232-2.528-2.944 0-1.728 1.024-2.976 2.56-2.976 1.648 0 2.576 1.264 2.576 3.008 0 1.696-1.024 2.912-2.608 2.912zm8.545 1.232c1.776 0 3.008-1.04 3.008-2.432 0-1.36-.816-2.064-3.056-2.384-1.152-.176-1.84-.56-1.84-1.28 0-.704.736-1.152 1.632-1.152 1.008 0 1.856.432 1.936 1.648h1.152c-.032-1.904-1.504-2.72-3.136-2.72s-2.8 1.008-2.8 2.224c0 1.12.736 1.968 3.072 2.352 1.312.208 1.808.576 1.808 1.28 0 .72-.496 1.408-1.728 1.408-1.136 0-2.048-.56-2.176-1.68h-1.216c.096 1.824 1.632 2.736 3.344 2.736zm7.681 0c1.776 0 3.008-1.04 3.008-2.432 0-1.36-.816-2.064-3.056-2.384-1.152-.176-1.84-.56-1.84-1.28 0-.704.736-1.152 1.632-1.152 1.008 0 1.856.432 1.936 1.648h1.152c-.032-1.904-1.504-2.72-3.136-2.72s-2.8 1.008-2.8 2.224c0 1.12.736 1.968 3.072 2.352 1.312.208 1.808.576 1.808 1.28 0 .72-.496 1.408-1.728 1.408-1.136 0-2.048-.56-2.176-1.68h-1.216c.096 1.824 1.632 2.736 3.344 2.736zm5.249-4.896h5.6v-.928h-5.6v.928zm11.56 4.832c1.792 0 3.184-1.184 3.392-2.816h-1.216c-.176.944-1.008 1.712-2.128 1.712-1.424 0-2.416-1.2-2.416-3.024 0-1.872 1.008-3.072 2.432-3.072a2.15 2.15 0 0 1 2.112 1.696h1.216c-.208-1.616-1.584-2.768-3.328-2.768-2.176 0-3.712 1.664-3.712 4.16 0 2.448 1.552 4.112 3.648 4.112zm5.453-.112h1.2v-4.304c.016-1.744.944-2.832 2.304-2.832 1.12 0 1.904.944 1.904 2.304V526h1.264v-4.912c0-2.24-1.424-3.296-2.976-3.296-1.216 0-2.112.688-2.496 1.296V514.8h-1.2V526zm11.356.16c1.2 0 2.096-.544 2.656-1.28V526h1.232v-5.504c0-1.568-1.088-2.688-3.024-2.688-1.872 0-3.104 1.088-3.264 2.656l1.264-.016c.128-.896.816-1.552 2.032-1.552.976 0 1.76.464 1.76 1.28 0 .912-1.424 1.04-2.448 1.136-.912.08-1.632.288-2.16.704-.496.4-.752 1.04-.752 1.728 0 1.536 1.28 2.416 2.704 2.416zm.16-1.104c-.816-.016-1.584-.496-1.584-1.36 0-.8.608-1.296 1.92-1.408 1.12-.096 1.824-.272 2.16-.576v1.072c-.016 1.632-1.44 2.288-2.496 2.272zm6.11-8.736h1.392v-1.52h-1.392v1.52zm.08 9.68h1.232v-8h-1.232v8zm3.853 0h1.2v-4.304c.016-1.744 1.04-2.832 2.304-2.832 1.12 0 1.904.848 1.904 2.304V526h1.264v-4.912c0-2.24-1.424-3.296-2.976-3.296-1.216 0-2.112.688-2.496 1.296V518h-1.2v8zm16.238.176c1.776 0 3.008-1.04 3.008-2.432 0-1.36-.816-2.064-3.056-2.384-1.152-.176-1.84-.56-1.84-1.28 0-.704.736-1.152 1.632-1.152 1.008 0 1.856.432 1.936 1.648h1.152c-.032-1.904-1.504-2.72-3.136-2.72s-2.8 1.008-2.8 2.224c0 1.12.736 1.968 3.072 2.352 1.312.208 1.808.576 1.808 1.28 0 .72-.496 1.408-1.728 1.408-1.136 0-2.048-.56-2.176-1.68h-1.216c.096 1.824 1.632 2.736 3.344 2.736zm8.13 0c1.84 0 3.168-1.152 3.392-2.736h-1.152c-.288 1.072-1.28 1.632-2.208 1.632-1.52 0-2.48-1.056-2.48-2.736v-.016h5.968c.064-2.544-1.232-4.416-3.536-4.416-2.272 0-3.696 1.712-3.696 4.16 0 2.512 1.504 4.112 3.712 4.112zm-2.4-4.928c.144-1.328.96-2.256 2.352-2.256 1.44 0 2.128.928 2.272 2.256h-4.624zM499.333 526h1.136v-1.12h-.96c-.656 0-.992-.32-.992-1.12v-4.688h1.936V518h-1.936v-2.352h-1.2V518h-1.216v1.072h1.216v4.864c0 1.28.816 2.064 2.016 2.064zm4.9 0h1.136v-1.12h-.96c-.656 0-.992-.32-.992-1.12v-4.688h1.936V518h-1.936v-2.352h-1.2V518h-1.216v1.072h1.216v4.864c0 1.28.816 2.064 2.016 2.064zm2.868 0h1.248v-11.2h-1.248V526zm7.021.176c1.84 0 3.168-1.152 3.392-2.736h-1.152c-.288 1.072-1.28 1.632-2.208 1.632-1.52 0-2.48-1.056-2.48-2.736v-.016h5.968c.064-2.544-1.232-4.416-3.536-4.416-2.272 0-3.696 1.712-3.696 4.16 0 2.512 1.504 4.112 3.712 4.112zm-2.4-4.928c.144-1.328.96-2.256 2.352-2.256 1.44 0 2.128.928 2.272 2.256h-4.624zm7.976 4.752h1.2v-4.304c.016-1.744.976-2.832 2.24-2.832 1.12 0 1.904.848 1.904 2.304V526h1.264v-4.304c.016-1.744.976-2.832 2.24-2.832 1.12 0 1.904.848 1.904 2.304V526h1.264v-4.912c0-2.24-1.44-3.296-2.96-3.296-1.36 0-2.32.736-2.816 1.616-.64-1.264-1.776-1.616-2.608-1.616-1.216 0-2.048.688-2.432 1.296V518h-1.2v8zm17.708.176c1.84 0 3.168-1.152 3.392-2.736h-1.152c-.288 1.072-1.28 1.632-2.208 1.632-1.52 0-2.48-1.056-2.48-2.736v-.016h5.968c.064-2.544-1.232-4.416-3.536-4.416-2.272 0-3.696 1.712-3.696 4.16 0 2.512 1.504 4.112 3.712 4.112zm-2.4-4.928c.144-1.328.96-2.256 2.352-2.256 1.44 0 2.128.928 2.272 2.256h-4.624zm7.976 4.752h1.2v-4.304c.016-1.744 1.04-2.832 2.304-2.832 1.12 0 1.904.848 1.904 2.304V526h1.264v-4.912c0-2.24-1.424-3.296-2.976-3.296-1.216 0-2.112.688-2.496 1.296V518h-1.2v8zm11.244 0h1.136v-1.12h-.96c-.656 0-.992-.32-.992-1.12v-4.688h1.936V518h-1.936v-2.352h-1.2V518h-1.216v1.072h1.216v4.864c0 1.28.816 2.064 2.016 2.064zm5.573.176c1.776 0 3.008-1.04 3.008-2.432 0-1.36-.816-2.064-3.056-2.384-1.152-.176-1.84-.56-1.84-1.28 0-.704.736-1.152 1.632-1.152 1.008 0 1.856.432 1.936 1.648h1.152c-.032-1.904-1.504-2.72-3.136-2.72s-2.8 1.008-2.8 2.224c0 1.12.736 1.968 3.072 2.352 1.312.208 1.808.576 1.808 1.28 0 .72-.496 1.408-1.728 1.408-1.136 0-2.048-.56-2.176-1.68h-1.216c.096 1.824 1.632 2.736 3.344 2.736z" class="C"/><path d="M411.793 402.364c0-7.38-5.832-13.068-13.104-13.068s-13.104 5.688-13.104 13.068c0 7.452 5.832 13.14 13.104 13.14 2.484 0 4.824-.684 6.84-1.908l1.224 1.404h4.932l-3.204-3.888c2.052-2.304 3.312-5.328 3.312-8.748zm-13.104 8.604c-4.932 0-8.28-3.672-8.28-8.604 0-4.896 3.348-8.532 8.28-8.532s8.28 3.636 8.28 8.532c0 1.944-.54 3.708-1.476 5.112l-3.204-3.924h-5.544l5.76 6.588c-1.116.54-2.412.828-3.816.828zm27.683-11.592l5.688-6.264V389.8h-17.316v4.428h10.836l-5.112 6.336.828 2.916c.756-.432 1.512-.612 2.592-.612 2.772 0 4.32 1.872 4.32 4.104 0 2.196-1.656 4.212-4.608 4.212-2.772 0-4.788-2.124-5.22-4.572l-4.428 1.26c.684 3.744 3.744 7.632 9.9 7.632 5.256 0 9.144-3.78 9.144-8.532 0-4.248-2.736-6.984-6.624-7.596zm25.8 11.16l5.688-5.256c2.88-2.664 4.608-4.896 4.608-8.064 0-5.076-3.708-7.92-8.964-7.92-5.004 0-8.424 3.528-8.928 7.308l4.428 1.26c.54-2.484 2.268-4.14 4.608-4.14 2.484 0 3.96 1.44 3.96 3.744 0 1.8-1.224 3.168-3.096 4.896l-9.828 9.252V415h18.216v-4.464h-10.692zm23.376 4.968c6.696 0 10.404-5.58 10.404-13.104 0-7.56-3.708-13.104-10.404-13.104s-10.44 5.544-10.44 13.104c0 7.524 3.744 13.104 10.44 13.104zm0-4.5c-3.708 0-5.508-3.42-5.508-8.604s1.8-8.604 5.508-8.604 5.472 3.42 5.472 8.604-1.764 8.604-5.472 8.604zm19.831-.468l5.688-5.256c2.88-2.664 4.608-4.896 4.608-8.064 0-5.076-3.708-7.92-8.964-7.92-5.004 0-8.424 3.528-8.928 7.308l4.428 1.26c.54-2.484 2.268-4.14 4.608-4.14 2.484 0 3.96 1.44 3.96 3.744 0 1.8-1.224 3.168-3.096 4.896l-9.828 9.252V415h18.216v-4.464h-10.692zm21.094 0l5.688-5.256c2.88-2.664 4.608-4.896 4.608-8.064 0-5.076-3.708-7.92-8.964-7.92-5.004 0-8.424 3.528-8.928 7.308l4.428 1.26c.54-2.484 2.268-4.14 4.608-4.14 2.484 0 3.96 1.44 3.96 3.744 0 1.8-1.224 3.168-3.096 4.896l-9.828 9.252V415h18.216v-4.464h-10.692z" class="G"/><rect x="353" y="135" width="320" height="154" rx="5" class="D"/><g class="B"><rect x="363" y="127" width="318" height="152" rx="4" fill="#fff" class="E"/><path d="M364 186H680" class="F"/></g><path d="M397.79 209h-9.84v21h4.08v-6.42h5.58c4.83 0 7.47-3.75 7.47-7.29 0-3.48-2.67-7.29-7.29-7.29zm-.3 10.92h-5.46v-7.2h5.64c2.01 0 3.42 1.74 3.42 3.6 0 1.83-1.38 3.6-3.6 3.6zm13.815-2.85v-2.25h-3.96V230h3.96v-6.6c0-4.08 1.77-5.58 5.01-5.07v-3.72c-2.37-.33-4.11.69-5.01 2.46zm9.592-4.38c1.321 0 2.371-1.02 2.371-2.34 0-1.26-1.05-2.28-2.371-2.28s-2.369 1.02-2.369 2.28c0 1.32 1.05 2.34 2.369 2.34zM418.858 230h3.99v-15.18h-3.99V230zm18.8-15.18l-4.17 10.8-4.17-10.8h-4.35l6.27 15.18h4.47l6.27-15.18h-4.32zm12.467 15.6c2.13 0 3.81-.9 4.89-2.28V230h3.99v-15.18h-3.99v1.83c-1.08-1.38-2.76-2.25-4.89-2.25-4.2 0-7.5 3.39-7.5 8.01 0 4.59 3.3 8.01 7.5 8.01zm.69-3.54c-2.49 0-4.26-1.86-4.26-4.5 0-2.61 1.77-4.44 4.26-4.44 2.4 0 4.32 1.83 4.32 4.44 0 2.64-1.92 4.5-4.32 4.5zm20.746-.57a3.7 3.7 0 0 1-1.8.42c-1.26 0-1.86-.69-1.86-1.92v-6.51h4.44v-3.48h-4.44v-4.92h-3.99v4.92h-2.55v3.48h2.55v6.51c0 3.27 1.59 5.43 5.07 5.43 1.26 0 2.34-.24 3.54-.72l-.96-3.21zm10.281 4.11c3.99 0 6.45-2.34 7.32-4.32l-3.57-1.05c-.6 1.14-1.77 2.01-3.69 2.01-2.76 0-4.14-1.5-4.41-3.45h11.79c.09-.48.09-.93.09-1.41 0-4.35-2.85-7.8-7.83-7.8-4.77 0-7.95 3.48-7.95 8.01 0 4.8 3.39 8.01 8.25 8.01zm-4.35-9.3c.21-1.74 1.71-3.36 4.02-3.36 2.37 0 3.81 1.5 3.99 3.36h-8.01zm36.595-2.13c1.62-.87 2.61-2.37 2.61-4.38-.03-3.33-2.82-5.61-6.93-5.61h-10.02v21h10.59c4.47 0 7.14-2.34 7.14-5.94 0-2.37-1.32-4.14-3.39-5.07zm-4.35-6.45c1.74-.03 2.91 1.08 2.91 2.55.03 1.44-1.11 2.64-2.82 2.64h-6.06v-5.19h5.97zm.57 13.89h-6.54v-5.46h6.57c1.95 0 3.06 1.2 3.06 2.7 0 1.53-1.14 2.76-3.09 2.76zm17.531 3.99c3.99 0 6.45-2.34 7.32-4.32l-3.57-1.05c-.6 1.14-1.77 2.01-3.69 2.01-2.76 0-4.14-1.5-4.41-3.45h11.79c.09-.48.09-.93.09-1.41 0-4.35-2.85-7.8-7.83-7.8-4.77 0-7.95 3.48-7.95 8.01 0 4.8 3.39 8.01 8.25 8.01zm-4.35-9.3c.21-1.74 1.71-3.36 4.02-3.36 2.37 0 3.81 1.5 3.99 3.36h-8.01zm23.103 5.19a3.7 3.7 0 0 1-1.8.42c-1.26 0-1.86-.69-1.86-1.92v-6.51h4.44v-3.48h-4.44v-4.92h-3.99v4.92h-2.55v3.48h2.55v6.51c0 3.27 1.59 5.43 5.07 5.43 1.26 0 2.34-.24 3.54-.72l-.96-3.21zm9.531 4.11c2.13 0 3.81-.9 4.89-2.28V230h3.99v-15.18h-3.99v1.83c-1.08-1.38-2.76-2.25-4.89-2.25-4.2 0-7.5 3.39-7.5 8.01 0 4.59 3.3 8.01 7.5 8.01zm.69-3.54c-2.49 0-4.26-1.86-4.26-4.5 0-2.61 1.77-4.44 4.26-4.44 2.4 0 4.32 1.83 4.32 4.44 0 2.64-1.92 4.5-4.32 4.5zM387.92 258l1.12-3.024h4.816l1.152 3.024h1.408l-4.304-11.2h-1.328l-4.272 11.184 1.408.016zm1.52-4.224l2.016-5.52 2.016 5.52h-4.032zm12.72 4.4c1.936 0 3.616-1.584 3.616-4.128 0-2.528-1.616-4.128-3.568-4.128-1.248 0-2.256.64-2.736 1.44v-4.56h-1.168V258h1.168v-1.28c.4.752 1.456 1.456 2.688 1.456zm-.128-1.152c-1.552 0-2.592-1.216-2.592-2.912 0-1.776 1.04-3.056 2.592-3.056 1.488 0 2.464 1.232 2.464 2.944 0 1.76-.976 3.024-2.464 3.024zm5.717-8.704h1.392v-1.52h-1.392v1.52zm.08 9.68h1.232v-8h-1.232v8zm3.853 0h1.248v-11.2h-1.248V258zm3.789-9.68h1.392v-1.52h-1.392v1.52zm.08 9.68h1.232v-8h-1.232v8zm5.885 0h1.136v-1.12h-.96c-.656 0-.992-.32-.992-1.12v-4.688h1.936V250h-1.936v-2.352h-1.2V250h-1.216v1.072h1.216v4.864c0 1.28.816 2.064 2.016 2.064zm2.292 3.2h.656c1.488-.016 2.208-.768 2.704-2.016l3.616-9.184h-1.344l-2.336 6.016-2.4-6.016h-1.36l3.136 7.52-.528 1.408c-.272.704-.736 1.136-1.568 1.136h-.576v1.136zm14.752-3.2h1.136v-1.12h-.96c-.656 0-.992-.32-.992-1.12v-4.688h1.936V250h-1.936v-2.352h-1.2V250h-1.216v1.072h1.216v4.864c0 1.28.816 2.064 2.016 2.064zm5.927.08c2.16 0 3.76-1.696 3.76-4.08 0-2.416-1.504-4.112-3.76-4.112-2.176 0-3.776 1.696-3.776 4.112 0 2.384 1.6 4.08 3.776 4.08zm-.032-1.136c-1.52 0-2.528-1.232-2.528-2.944 0-1.728 1.024-2.976 2.56-2.976 1.648 0 2.576 1.264 2.576 3.008 0 1.696-1.024 2.912-2.608 2.912zM454.538 258h1.248v-11.2h-1.248V258zm3.789-9.68h1.392v-1.52h-1.392v1.52zm.08 9.68h1.232v-8h-1.232v8zm6.557.176c1.776 0 3.008-1.04 3.008-2.432 0-1.36-.816-2.064-3.056-2.384-1.152-.176-1.84-.56-1.84-1.28 0-.704.736-1.152 1.632-1.152 1.008 0 1.856.432 1.936 1.648h1.152c-.032-1.904-1.504-2.72-3.136-2.72s-2.8 1.008-2.8 2.224c0 1.12.736 1.968 3.072 2.352 1.312.208 1.808.576 1.808 1.28 0 .72-.496 1.408-1.728 1.408-1.136 0-2.048-.56-2.176-1.68h-1.216c.096 1.824 1.632 2.736 3.344 2.736zm7.009-.176h1.136v-1.12h-.96c-.656 0-.992-.32-.992-1.12v-4.688h1.936V250h-1.936v-2.352h-1.2V250h-1.216v1.072h1.216v4.864c0 1.28.816 2.064 2.016 2.064zm6.458 3.2h.656c1.488-.016 2.208-.768 2.704-2.016l3.616-9.184h-1.344l-2.336 6.016-2.4-6.016h-1.36l3.136 7.52-.528 1.408c-.272.704-.736 1.136-1.568 1.136h-.576v1.136zm11.614-3.12c2.16 0 3.76-1.696 3.76-4.08 0-2.416-1.504-4.112-3.76-4.112-2.176 0-3.776 1.696-3.776 4.112 0 2.384 1.6 4.08 3.776 4.08zm-.032-1.136c-1.52 0-2.528-1.232-2.528-2.944 0-1.728 1.024-2.976 2.56-2.976 1.648 0 2.576 1.264 2.576 3.008 0 1.696-1.024 2.912-2.608 2.912zm8.737 1.264c1.232 0 2.128-.688 2.496-1.296V258h1.2v-8h-1.2v4.304c-.016 1.744-.928 2.832-2.304 2.832-1.12 0-1.888-.944-1.904-2.304V250h-1.264v4.912c0 2.24 1.424 3.296 2.976 3.296zm6.316-.208h1.184v-4.464c0-1.936 1.168-2.48 2.544-2.432l.112-.016v-1.2l-.144-.016c-1.68-.08-2.336.8-2.512 1.216V250h-1.184v8zm11.536 0h1.136v-1.12h-.96c-.656 0-.992-.32-.992-1.12v-4.688h1.936V250h-1.936v-2.352h-1.2V250h-1.216v1.072h1.216v4.864c0 1.28.816 2.064 2.016 2.064zm5.927.08c2.16 0 3.76-1.696 3.76-4.08 0-2.416-1.504-4.112-3.76-4.112-2.176 0-3.776 1.696-3.776 4.112 0 2.384 1.6 4.08 3.776 4.08zm-.032-1.136c-1.52 0-2.528-1.232-2.528-2.944 0-1.728 1.024-2.976 2.56-2.976 1.648 0 2.576 1.264 2.576 3.008 0 1.696-1.024 2.912-2.608 2.912zm5.841 1.056h1.2v-2.656l1.248-1.312 2.704 3.952 1.392.016-3.296-4.864 2.976-3.136h-1.504l-3.52 3.728V246.8h-1.2V258zm10.943.176c1.84 0 3.168-1.152 3.392-2.736h-1.152c-.288 1.072-1.28 1.632-2.208 1.632-1.52 0-2.48-1.056-2.48-2.736v-.016h5.968c.064-2.544-1.232-4.416-3.536-4.416-2.272 0-3.696 1.712-3.696 4.16 0 2.512 1.504 4.112 3.712 4.112zm-2.4-4.928c.144-1.328.96-2.256 2.352-2.256 1.44 0 2.128.928 2.272 2.256h-4.624zm7.976 4.752h1.2v-4.304c.016-1.744 1.04-2.832 2.304-2.832 1.12 0 1.904.848 1.904 2.304V258h1.264v-4.912c0-2.24-1.424-3.296-2.976-3.296-1.216 0-2.112.688-2.496 1.296V250h-1.2v8z" class="C"/><path d="M414.615 158.364c0-7.38-5.832-13.068-13.104-13.068s-13.104 5.688-13.104 13.068c0 7.452 5.832 13.14 13.104 13.14 2.484 0 4.824-.684 6.84-1.908l1.224 1.404h4.932l-3.204-3.888c2.052-2.304 3.312-5.328 3.312-8.748zm-13.104 8.604c-4.932 0-8.28-3.672-8.28-8.604 0-4.896 3.348-8.532 8.28-8.532s8.28 3.636 8.28 8.532c0 1.944-.54 3.708-1.476 5.112l-3.204-3.924h-5.544l5.76 6.588c-1.116.54-2.412.828-3.816.828zm22.076-21.168l-7.632 3.924 1.188 4.212 5.652-2.628V171h5.004v-25.2h-4.212zm24.763 20.736l5.688-5.256c2.88-2.664 4.608-4.896 4.608-8.064 0-5.076-3.708-7.92-8.964-7.92-5.004 0-8.424 3.528-8.928 7.308l4.428 1.26c.54-2.484 2.268-4.14 4.608-4.14 2.484 0 3.96 1.44 3.96 3.744 0 1.8-1.224 3.168-3.096 4.896l-9.828 9.252V171h18.216v-4.464H448.35zm23.375 4.968c6.696 0 10.404-5.58 10.404-13.104 0-7.56-3.708-13.104-10.404-13.104s-10.44 5.544-10.44 13.104c0 7.524 3.744 13.104 10.44 13.104zm0-4.5c-3.708 0-5.508-3.42-5.508-8.604s1.8-8.604 5.508-8.604 5.472 3.42 5.472 8.604-1.764 8.604-5.472 8.604zm19.832-.468l5.688-5.256c2.88-2.664 4.608-4.896 4.608-8.064 0-5.076-3.708-7.92-8.964-7.92-5.004 0-8.424 3.528-8.928 7.308l4.428 1.26c.54-2.484 2.268-4.14 4.608-4.14 2.484 0 3.96 1.44 3.96 3.744 0 1.8-1.224 3.168-3.096 4.896l-9.828 9.252V171h18.216v-4.464h-10.692zm21.094 0l5.688-5.256c2.88-2.664 4.608-4.896 4.608-8.064 0-5.076-3.708-7.92-8.964-7.92-5.004 0-8.424 3.528-8.928 7.308l4.428 1.26c.54-2.484 2.268-4.14 4.608-4.14 2.484 0 3.96 1.44 3.96 3.744 0 1.8-1.224 3.168-3.096 4.896l-9.828 9.252V171h18.216v-4.464h-10.692z" class="G"/><path d="M338 88l-10-4.773v11.547L338 90v-2zm185 44.773l5.774-5.773-5.774-5.774-5.773 5.774 5.773 5.773zM337 90h178v-2H337v2zm185 7v30h2V97h-2zm-7-7a7 7 0 0 1 7 7h2a9 9 0 0 0-9-9v2zM338 332l-10-4.774v11.548L338 334v-2zm185 44.773l5.774-5.773-5.774-5.774-5.773 5.774 5.773 5.773zM337 334h178v-2H337v2zm185 7v30h2v-30h-2zm-7-7a7 7 0 0 1 7 7h2a9 9 0 0 0-9-9v2zM353 205l10-4.774v11.548L353 207v-2zm-185 44.773L162.226 244l5.774-5.774 5.773 5.774-5.773 5.773zM354 207H176v-2h178v2zm-185 7v30h-2v-30h2zm7-7a7 7 0 0 0-7 7h-2a9 9 0 0 1 9-9v2z" class="C"/></svg>