<svg xmlns="http://www.w3.org/2000/svg" width="339" height="849" fill="none" xmlns:v="https://vecta.io/nano"><style><![CDATA[.B{fill:#f8c100}.C{stroke:#090909}.D{stroke-width:2}.E{fill:#f8f8f8}.F{fill:#272727}.G{fill:#ecaa00}]]></style><rect y="6" width="333" height="185" rx="5" class="B"/><rect x="7" y="1" width="331" height="183" rx="4" fill="#fff" class="C D"/><path d="M8 5a3 3 0 0 1 3-3h323a3 3 0 0 1 3 3v55H8V5z" class="E"/><path d="M39.12 101h3.754l-7.061-18.375H31.14L24.105 101h3.727l1.523-3.99h8.269L39.12 101zm-8.584-7.166l2.94-7.77 2.94 7.77h-5.88zM44.65 101h3.465V81.838H44.65V101zm14.64-13.65c-1.89 0-3.334.761-4.305 1.969v-1.601H51.52v18.796h3.465v-7.141c.971 1.207 2.415 1.995 4.305 1.995 3.675 0 6.536-2.993 6.536-7.009 0-4.043-2.861-7.009-6.536-7.009zm-.604 10.92c-2.1 0-3.78-1.627-3.78-3.937 0-2.284 1.68-3.885 3.78-3.885 2.179 0 3.727 1.601 3.727 3.885 0 2.31-1.549 3.938-3.727 3.938zm17.496-10.92c-1.916 0-3.36.866-4.279 2.047v-7.56h-3.465V101h3.465v-6.562c0-2.336 1.26-3.859 3.203-3.859 1.916 0 2.835 1.286 2.835 3.308V101h3.465v-7.77c0-3.544-1.759-5.88-5.224-5.88zm14.257 14.018c1.864 0 3.334-.788 4.279-1.995V101h3.491V87.718h-3.491v1.601c-.945-1.208-2.415-1.969-4.279-1.969-3.675 0-6.562 2.966-6.562 7.009 0 4.016 2.888 7.009 6.563 7.009zm.604-3.098c-2.179 0-3.728-1.627-3.728-3.937 0-2.284 1.549-3.885 3.728-3.885 2.1 0 3.78 1.601 3.78 3.885 0 2.31-1.68 3.938-3.78 3.938zm-65.738 31.745h1.14v-4.35h2.97c1.905 0 3.165-1.26 3.165-3.06 0-1.815-1.23-3.105-3.075-3.12l-4.2.015v10.515zm1.14-5.385l.015-4.11h2.88c1.245 0 2.115.78 2.115 2.085 0 1.26-.87 2.025-2.115 2.025h-2.895zm7.763 5.37h1.11v-4.185c0-1.815 1.095-2.325 2.385-2.28l.105-.015v-1.125l-.135-.015c-1.575-.075-2.19.75-2.355 1.14v-1.02h-1.11v7.5zm7.833.165c1.725 0 2.97-1.08 3.18-2.565h-1.08c-.27 1.005-1.2 1.53-2.07 1.53-1.425 0-2.325-.99-2.325-2.565v-.015h5.595c.06-2.385-1.155-4.14-3.315-4.14-2.13 0-3.465 1.605-3.465 3.9 0 2.355 1.41 3.855 3.48 3.855zm-2.25-4.62c.135-1.245.9-2.115 2.205-2.115 1.35 0 1.995.87 2.13 2.115h-4.335zm9.872 4.62c1.665 0 2.82-.975 2.82-2.28 0-1.275-.765-1.935-2.865-2.235-1.08-.165-1.725-.525-1.725-1.2 0-.66.69-1.08 1.53-1.08.945 0 1.74.405 1.815 1.545h1.08c-.03-1.785-1.41-2.55-2.94-2.55s-2.625.945-2.625 2.085c0 1.05.69 1.845 2.88 2.205 1.23.195 1.695.54 1.695 1.2 0 .675-.465 1.32-1.62 1.32-1.065 0-1.92-.525-2.04-1.575h-1.14c.09 1.71 1.53 2.565 3.135 2.565zm7.48 0c1.725 0 2.97-1.08 3.18-2.565h-1.08c-.27 1.005-1.2 1.53-2.07 1.53-1.425 0-2.325-.99-2.325-2.565v-.015h5.595c.06-2.385-1.155-4.14-3.315-4.14-2.13 0-3.465 1.605-3.465 3.9 0 2.355 1.41 3.855 3.48 3.855zm-2.25-4.62c.135-1.245.9-2.115 2.205-2.115 1.35 0 1.995.87 2.13 2.115h-4.335zM62.23 130h1.125v-4.035c.015-1.635.975-2.655 2.16-2.655 1.05 0 1.785.795 1.785 2.16V130h1.185v-4.605c0-2.1-1.335-3.09-2.79-3.09-1.14 0-1.98.645-2.34 1.215v-1.02H62.23v7.5zm10.401 0h1.065v-1.05h-.9c-.615 0-.93-.3-.93-1.05v-4.395h1.815V122.5h-1.815v-2.205h-1.125v2.205h-1.14v1.005h1.14v4.56c0 1.2.765 1.935 1.89 1.935zm4.558.15c1.125 0 1.965-.51 2.49-1.2V130h1.155v-5.16c0-1.47-1.02-2.52-2.835-2.52-1.755 0-2.91 1.02-3.06 2.49l1.185-.015c.12-.84.765-1.455 1.905-1.455.915 0 1.65.435 1.65 1.2 0 .855-1.335.975-2.295 1.065-.855.075-1.53.27-2.025.66-.465.375-.705.975-.705 1.62 0 1.44 1.2 2.265 2.535 2.265zm.15-1.035c-.765-.015-1.485-.465-1.485-1.275 0-.75.57-1.215 1.8-1.32 1.05-.09 1.71-.255 2.025-.54v1.005c-.015 1.53-1.35 2.145-2.34 2.13zm7.567.885h1.065v-1.05h-.9c-.615 0-.93-.3-.93-1.05v-4.395h1.815V122.5h-1.815v-2.205h-1.125v2.205h-1.14v1.005h1.14v4.56c0 1.2.765 1.935 1.89 1.935zm2.473-9.075h1.305V119.5H87.38v1.425zm.075 9.075h1.155v-7.5h-1.155v7.5zm6.487.075c2.025 0 3.525-1.59 3.525-3.825 0-2.265-1.41-3.855-3.525-3.855-2.04 0-3.54 1.59-3.54 3.855 0 2.235 1.5 3.825 3.54 3.825zm-.03-1.065c-1.425 0-2.37-1.155-2.37-2.76 0-1.62.96-2.79 2.4-2.79 1.545 0 2.415 1.185 2.415 2.82 0 1.59-.96 2.73-2.445 2.73zm5.335.99h1.125v-4.035c.015-1.635.975-2.655 2.16-2.655 1.05 0 1.785.795 1.785 2.16V130h1.185v-4.605c0-2.1-1.335-3.09-2.79-3.09-1.14 0-1.98.645-2.34 1.215v-1.02h-1.125v7.5zm15.422.075c2.025 0 3.525-1.59 3.525-3.825 0-2.265-1.41-3.855-3.525-3.855-2.04 0-3.54 1.59-3.54 3.855 0 2.235 1.5 3.825 3.54 3.825zm-.03-1.065c-1.425 0-2.37-1.155-2.37-2.76 0-1.62.96-2.79 2.4-2.79 1.545 0 2.415 1.185 2.415 2.82 0 1.59-.96 2.73-2.445 2.73zm5.425.99h1.125v-6.495h1.8V122.5h-1.8v-.9c0-.75.315-1.065.93-1.065h.9V119.5h-1.065c-1.125 0-1.89.735-1.89 1.935v1.065h-1.065v1.005h1.065V130zm10.747 0h1.17v-4.32l3.825-6.18h-1.215l-3.195 5.145-3.135-5.145h-1.275l3.825 6.18V130zm8.232.165c1.725 0 2.97-1.08 3.18-2.565h-1.08c-.27 1.005-1.2 1.53-2.07 1.53-1.425 0-2.325-.99-2.325-2.565v-.015h5.595c.06-2.385-1.155-4.14-3.315-4.14-2.13 0-3.465 1.605-3.465 3.9 0 2.355 1.41 3.855 3.48 3.855zm-2.25-4.62c.135-1.245.9-2.115 2.205-2.115 1.35 0 1.995.87 2.13 2.115h-4.335zM144.13 130h1.17v-10.5h-1.17V130zm3.486 0h1.17v-10.5h-1.17V130zm6.501.075c2.025 0 3.525-1.59 3.525-3.825 0-2.265-1.41-3.855-3.525-3.855-2.04 0-3.54 1.59-3.54 3.855 0 2.235 1.5 3.825 3.54 3.825zm-.03-1.065c-1.425 0-2.37-1.155-2.37-2.76 0-1.62.96-2.79 2.4-2.79 1.545 0 2.415 1.185 2.415 2.82 0 1.59-.96 2.73-2.445 2.73zm6.644.99h1.335l1.605-5.7 1.605 5.7h1.335l2.355-7.5h-1.29l-1.725 6.135-1.74-6.135h-1.095l-1.725 6.135-1.74-6.135h-1.275l2.355 7.5zm8.343 0h1.44v-1.53h-1.44V130zm6.24.075c2.025 0 3.525-1.59 3.525-3.825 0-2.265-1.41-3.855-3.525-3.855-2.04 0-3.54 1.59-3.54 3.855 0 2.235 1.5 3.825 3.54 3.825zm-.03-1.065c-1.425 0-2.37-1.155-2.37-2.76 0-1.62.96-2.79 2.4-2.79 1.545 0 2.415 1.185 2.415 2.82 0 1.59-.96 2.73-2.445 2.73zm5.335.99h1.11v-4.185c0-1.815 1.095-2.325 2.385-2.28l.105-.015v-1.125l-.135-.015c-1.575-.075-2.19.75-2.355 1.14v-1.02h-1.11v7.5zm7.848 3.105c2.07 0 3.585-1.17 3.585-3.66V122.5h-1.11v1.305c-.48-.9-1.545-1.47-2.61-1.47-1.965 0-3.36 1.635-3.36 3.87 0 2.25 1.32 3.87 3.315 3.87 1.125 0 2.19-.6 2.655-1.5v.87c0 1.845-1.035 2.655-2.46 2.655-.705 0-1.92-.33-2.1-1.56h-1.14c.075 1.47 1.35 2.565 3.225 2.565zm.03-4.095c-1.395 0-2.31-1.155-2.31-2.76 0-1.65.915-2.835 2.31-2.835 1.455 0 2.415 1.14 2.415 2.73 0 1.665-.96 2.865-2.415 2.865zM27.945 153H29.1v-9.405h3.75V142.5h-8.67v1.095h3.765V153zm8.501.075c2.025 0 3.525-1.59 3.525-3.825 0-2.265-1.41-3.855-3.525-3.855-2.04 0-3.54 1.59-3.54 3.855 0 2.235 1.5 3.825 3.54 3.825zm-.03-1.065c-1.425 0-2.37-1.155-2.37-2.76 0-1.62.96-2.79 2.4-2.79 1.545 0 2.415 1.185 2.415 2.82 0 1.59-.96 2.73-2.445 2.73zm5.335.99h1.125v-2.49l1.17-1.23 2.535 3.705 1.305.015-3.09-4.56 2.79-2.94h-1.41l-3.3 3.495V142.5h-1.125V153zm10.118.165c1.725 0 2.97-1.08 3.18-2.565h-1.08c-.27 1.005-1.2 1.53-2.07 1.53-1.425 0-2.325-.99-2.325-2.565v-.015h5.595c.06-2.385-1.155-4.14-3.315-4.14-2.13 0-3.465 1.605-3.465 3.9 0 2.355 1.41 3.855 3.48 3.855zm-2.25-4.62c.135-1.245.9-2.115 2.205-2.115 1.35 0 1.995.87 2.13 2.115H49.62zM56.957 153h1.125v-4.035c.015-1.635.975-2.655 2.16-2.655 1.05 0 1.785.795 1.785 2.16V153h1.185v-4.605c0-2.1-1.335-3.09-2.79-3.09-1.14 0-1.98.645-2.34 1.215v-1.02h-1.125v7.5zm12.625-9.075h1.305V142.5h-1.305v1.425zm.075 9.075h1.155v-7.5h-1.155v7.5zm3.472 0h1.125v-4.035c.015-1.635.975-2.655 2.16-2.655 1.05 0 1.785.795 1.785 2.16V153h1.185v-4.605c0-2.1-1.335-3.09-2.79-3.09-1.14 0-1.98.645-2.34 1.215v-1.02h-1.125v7.5zm10.401 0h1.065v-1.05h-.9c-.615 0-.93-.3-.93-1.05v-4.395h1.815V145.5h-1.815v-2.205H81.64v2.205H80.5v1.005h1.14v4.56c0 1.2.765 1.935 1.89 1.935zm5.357.165c1.725 0 2.97-1.08 3.18-2.565h-1.08c-.27 1.005-1.2 1.53-2.07 1.53-1.425 0-2.325-.99-2.325-2.565v-.015h5.595c.06-2.385-1.155-4.14-3.315-4.14-2.13 0-3.465 1.605-3.465 3.9 0 2.355 1.41 3.855 3.48 3.855zm-2.25-4.62c.135-1.245.9-2.115 2.205-2.115 1.35 0 1.995.87 2.13 2.115h-4.335zm10.307 7.56c2.07 0 3.585-1.17 3.585-3.66V145.5h-1.11v1.305c-.48-.9-1.545-1.47-2.61-1.47-1.965 0-3.36 1.635-3.36 3.87 0 2.25 1.32 3.87 3.315 3.87 1.125 0 2.19-.6 2.655-1.5v.87c0 1.845-1.035 2.655-2.46 2.655-.705 0-1.92-.33-2.1-1.56h-1.14c.075 1.47 1.35 2.565 3.225 2.565zm.03-4.095c-1.395 0-2.31-1.155-2.31-2.76 0-1.65.915-2.835 2.31-2.835 1.455 0 2.415 1.14 2.415 2.73 0 1.665-.96 2.865-2.415 2.865zm5.789.99h1.11v-4.185c0-1.815 1.095-2.325 2.385-2.28l.105-.015v-1.125l-.135-.015c-1.575-.075-2.19.75-2.355 1.14v-1.02h-1.11v7.5zm7.035.15c1.125 0 1.965-.51 2.49-1.2V153h1.155v-5.16c0-1.47-1.02-2.52-2.835-2.52-1.755 0-2.91 1.02-3.06 2.49l1.185-.015c.12-.84.765-1.455 1.905-1.455.915 0 1.65.435 1.65 1.2 0 .855-1.335.975-2.295 1.065-.855.075-1.53.27-2.025.66-.465.375-.705.975-.705 1.62 0 1.44 1.2 2.265 2.535 2.265zm.15-1.035c-.765-.015-1.485-.465-1.485-1.275 0-.75.57-1.215 1.8-1.32 1.05-.09 1.71-.255 2.025-.54v1.005c-.015 1.53-1.35 2.145-2.34 2.13zm7.567.885h1.065v-1.05h-.9c-.615 0-.93-.3-.93-1.05v-4.395h1.815V145.5h-1.815v-2.205h-1.125v2.205h-1.14v1.005h1.14v4.56c0 1.2.765 1.935 1.89 1.935zm2.473-9.075h1.305V142.5h-1.305v1.425zm.075 9.075h1.155v-7.5h-1.155v7.5zm6.487.075c2.025 0 3.525-1.59 3.525-3.825 0-2.265-1.41-3.855-3.525-3.855-2.04 0-3.54 1.59-3.54 3.855 0 2.235 1.5 3.825 3.54 3.825zm-.03-1.065c-1.425 0-2.37-1.155-2.37-2.76 0-1.62.96-2.79 2.4-2.79 1.545 0 2.415 1.185 2.415 2.82 0 1.59-.96 2.73-2.445 2.73zm5.335.99h1.125v-4.035c.015-1.635.975-2.655 2.16-2.655 1.05 0 1.785.795 1.785 2.16V153h1.185v-4.605c0-2.1-1.335-3.09-2.79-3.09-1.14 0-1.98.645-2.34 1.215v-1.02h-1.125v7.5zm13.862 0h1.335l1.605-5.7 1.605 5.7h1.335l2.355-7.5h-1.29l-1.725 6.135-1.74-6.135h-1.095l-1.725 6.135-1.74-6.135h-1.275l2.355 7.5zm9.574-9.075h1.305V142.5h-1.305v1.425zm.075 9.075h1.155v-7.5h-1.155v7.5zm5.377 0h1.065v-1.05h-.9c-.615 0-.93-.3-.93-1.05v-4.395h1.815V145.5h-1.815v-2.205h-1.125v2.205h-1.14v1.005h1.14v4.56c0 1.2.765 1.935 1.89 1.935zm2.548 0h1.125v-4.035c.015-1.635.885-2.655 2.16-2.655 1.05 0 1.785.885 1.785 2.16V153h1.185v-4.605c0-2.1-1.335-3.09-2.79-3.09-1.14 0-1.98.645-2.34 1.215v-4.02h-1.125V153zm15.246 0h1.17v-4.32l3.825-6.18h-1.215l-3.195 5.145-3.135-5.145h-1.275l3.825 6.18V153zm8.231.165c1.725 0 2.97-1.08 3.18-2.565h-1.08c-.27 1.005-1.2 1.53-2.07 1.53-1.425 0-2.325-.99-2.325-2.565v-.015h5.595c.06-2.385-1.155-4.14-3.315-4.14-2.13 0-3.465 1.605-3.465 3.9 0 2.355 1.41 3.855 3.48 3.855zm-2.25-4.62c.135-1.245.9-2.115 2.205-2.115 1.35 0 1.995.87 2.13 2.115h-4.335zm7.337 4.455h1.17v-10.5h-1.17V153zm3.487 0h1.17v-10.5h-1.17V153zm6.501.075c2.025 0 3.525-1.59 3.525-3.825 0-2.265-1.41-3.855-3.525-3.855-2.04 0-3.54 1.59-3.54 3.855 0 2.235 1.5 3.825 3.54 3.825zm-.03-1.065c-1.425 0-2.37-1.155-2.37-2.76 0-1.62.96-2.79 2.4-2.79 1.545 0 2.415 1.185 2.415 2.82 0 1.59-.96 2.73-2.445 2.73zm6.644.99h1.335l1.605-5.7 1.605 5.7h1.335l2.355-7.5h-1.29l-1.725 6.135-1.74-6.135h-1.095l-1.725 6.135-1.74-6.135h-1.275l2.355 7.5zm8.343 0h1.44v-1.53h-1.44V153zm6.119.105c1.68 0 2.985-1.11 3.18-2.64h-1.14c-.165.885-.945 1.605-1.995 1.605-1.335 0-2.265-1.125-2.265-2.835 0-1.755.945-2.88 2.28-2.88.99 0 1.785.69 1.98 1.59h1.14c-.195-1.515-1.485-2.595-3.12-2.595-2.04 0-3.48 1.56-3.48 3.9 0 2.295 1.455 3.855 3.42 3.855zm7.986-.03c2.025 0 3.525-1.59 3.525-3.825 0-2.265-1.41-3.855-3.525-3.855-2.04 0-3.54 1.59-3.54 3.855 0 2.235 1.5 3.825 3.54 3.825zm-.03-1.065c-1.425 0-2.37-1.155-2.37-2.76 0-1.62.96-2.79 2.4-2.79 1.545 0 2.415 1.185 2.415 2.82 0 1.59-.96 2.73-2.445 2.73zm5.336.99h1.125v-4.035c.015-1.635.915-2.655 2.1-2.655 1.05 0 1.785.795 1.785 2.16V153h1.185v-4.035c.015-1.635.915-2.655 2.1-2.655 1.05 0 1.785.795 1.785 2.16V153h1.185v-4.605c0-2.1-1.35-3.09-2.775-3.09-1.275 0-2.175.69-2.64 1.515-.6-1.185-1.665-1.515-2.445-1.515-1.14 0-1.92.645-2.28 1.215v-1.02h-1.125v7.5z" class="F"/><path d="M50.55 31.944c0-6.457-5.103-11.434-11.466-11.434s-11.466 4.977-11.466 11.435c0 6.52 5.103 11.498 11.466 11.498 2.173 0 4.221-.599 5.985-1.669L46.14 43h4.316l-2.803-3.402a11.4 11.4 0 0 0 2.898-7.654zm-11.466 7.529c-4.315 0-7.245-3.213-7.245-7.529 0-4.284 2.93-7.465 7.245-7.465s7.245 3.182 7.245 7.465c0 1.701-.472 3.245-1.291 4.473l-2.803-3.434h-4.851l5.04 5.765c-.977.472-2.11.724-3.339.724zm31.334-4.568h-2.74V30.4h-4.316v4.505h-5.575l7.182-13.954h-4.662l-7.592 14.616v3.15h10.647V43h4.316v-4.284h2.74v-3.812zm16.171 4.19l4.977-4.599c2.52-2.331 4.032-4.284 4.032-7.056 0-4.442-3.245-6.93-7.844-6.93-4.379 0-7.371 3.087-7.812 6.395l3.874 1.102c.472-2.174 1.984-3.622 4.032-3.622 2.174 0 3.465 1.26 3.465 3.276 0 1.575-1.071 2.772-2.709 4.284l-8.599 8.096V43h15.939v-3.906H86.59zm20.453 4.347c5.859 0 9.103-4.882 9.103-11.466 0-6.615-3.244-11.466-9.103-11.466s-9.135 4.851-9.135 11.466c0 6.584 3.276 11.466 9.135 11.466zm0-3.937c-3.245 0-4.82-2.992-4.82-7.529s1.575-7.529 4.82-7.529 4.788 2.992 4.788 7.529-1.544 7.529-4.788 7.529zm17.353-.41l4.977-4.599c2.52-2.331 4.032-4.284 4.032-7.056 0-4.442-3.245-6.93-7.844-6.93-4.378 0-7.371 3.087-7.812 6.395l3.875 1.102c.472-2.174 1.984-3.622 4.032-3.622 2.173 0 3.465 1.26 3.465 3.276 0 1.575-1.071 2.772-2.709 4.284l-8.6 8.096V43h15.939v-3.906h-9.355zm17.953-18.144l-6.678 3.434 1.039 3.685 4.946-2.299V43h4.378V20.95h-3.685z" class="G"/><rect y="233" width="333" height="160" rx="5" class="B"/><rect x="7" y="228" width="331" height="158" rx="4" fill="#fff" class="C D"/><path d="M8 232a3 3 0 0 1 3-3h323a3 3 0 0 1 3 3v55H8v-55z" class="E"/><path d="M50.288 258.943c0-6.457-5.103-11.434-11.466-11.434s-11.466 4.977-11.466 11.434c0 6.521 5.103 11.498 11.466 11.498 2.173 0 4.221-.599 5.985-1.67L45.878 270h4.316l-2.803-3.402a11.4 11.4 0 0 0 2.898-7.655zm-11.466 7.529c-4.315 0-7.245-3.213-7.245-7.529 0-4.284 2.93-7.465 7.245-7.465s7.245 3.181 7.245 7.465c0 1.701-.472 3.245-1.291 4.473l-2.803-3.433h-4.851l5.04 5.764c-.977.473-2.111.725-3.339.725zm19.316-18.522l-6.678 3.433 1.04 3.686 4.946-2.3V270h4.378v-22.05h-3.685zm21.668 18.144l4.977-4.599c2.52-2.331 4.032-4.284 4.032-7.056 0-4.442-3.245-6.93-7.843-6.93-4.379 0-7.371 3.087-7.812 6.394l3.875 1.103c.472-2.174 1.984-3.623 4.032-3.623 2.174 0 3.465 1.261 3.465 3.276 0 1.575-1.071 2.772-2.709 4.284l-8.6 8.096V270h15.939v-3.906h-9.356zm20.454 4.347c5.859 0 9.103-4.883 9.103-11.466 0-6.615-3.244-11.466-9.103-11.466s-9.135 4.851-9.135 11.466c0 6.583 3.276 11.466 9.135 11.466zm0-3.938c-3.245 0-4.82-2.992-4.82-7.528s1.575-7.529 4.82-7.529 4.788 2.993 4.788 7.529-1.544 7.528-4.788 7.528zm17.353-.409l4.977-4.599c2.52-2.331 4.032-4.284 4.032-7.056 0-4.442-3.245-6.93-7.844-6.93-4.378 0-7.371 3.087-7.812 6.394l3.875 1.103c.472-2.174 1.984-3.623 4.032-3.623 2.173 0 3.465 1.261 3.465 3.276 0 1.575-1.071 2.772-2.709 4.284l-8.6 8.096V270h15.939v-3.906h-9.355zm18.457 0l4.977-4.599c2.52-2.331 4.032-4.284 4.032-7.056 0-4.442-3.245-6.93-7.844-6.93-4.378 0-7.371 3.087-7.812 6.394l3.875 1.103c.472-2.174 1.984-3.623 4.032-3.623 2.173 0 3.465 1.261 3.465 3.276 0 1.575-1.071 2.772-2.709 4.284l-8.6 8.096V270h15.939v-3.906h-9.355z" class="G"/><path d="M34.316 309.625h-8.61V328h3.57v-5.618h4.883c4.226 0 6.536-3.281 6.536-6.378 0-3.045-2.336-6.379-6.379-6.379zm-.262 9.555h-4.778v-6.3h4.935c1.759 0 2.992 1.522 2.992 3.15 0 1.601-1.208 3.15-3.15 3.15zm12.088-2.494v-1.969h-3.465V328h3.465v-5.775c0-3.57 1.549-4.883 4.384-4.436v-3.255c-2.074-.289-3.596.603-4.384 2.152zm8.394-3.832c1.155 0 2.074-.893 2.074-2.048 0-1.102-.919-1.995-2.074-1.995s-2.074.893-2.074 1.995c0 1.155.919 2.048 2.074 2.048zM52.75 328h3.491v-13.283H52.75V328zm16.45-13.283l-3.649 9.45-3.649-9.45h-3.806L63.583 328h3.911l5.486-13.283H69.2zm10.909 13.651c1.864 0 3.334-.788 4.279-1.996V328h3.491v-13.283h-3.491v1.602c-.945-1.208-2.415-1.969-4.279-1.969-3.675 0-6.562 2.966-6.562 7.009 0 4.016 2.887 7.009 6.563 7.009zm.604-3.098c-2.179 0-3.727-1.628-3.727-3.938 0-2.283 1.549-3.885 3.727-3.885 2.1 0 3.78 1.602 3.78 3.885 0 2.31-1.68 3.938-3.78 3.938zm18.153-.499a3.23 3.23 0 0 1-1.575.368c-1.103 0-1.627-.604-1.627-1.68v-5.697h3.885v-3.045h-3.885v-4.305h-3.491v4.305h-2.231v3.045h2.231v5.697c0 2.861 1.391 4.751 4.436 4.751 1.103 0 2.047-.21 3.097-.63l-.84-2.809zm8.996 3.597c3.491 0 5.644-2.048 6.405-3.781l-3.124-.918c-.525.997-1.549 1.758-3.229 1.758-2.415 0-3.622-1.312-3.858-3.018h10.316c.079-.42.079-.814.079-1.234 0-3.806-2.494-6.825-6.852-6.825-4.173 0-6.956 3.045-6.956 7.009 0 4.2 2.966 7.009 7.219 7.009zm-3.806-8.138c.183-1.523 1.496-2.94 3.517-2.94 2.074 0 3.334 1.312 3.491 2.94h-7.008zm32.02-1.864c1.418-.761 2.284-2.074 2.284-3.832-.026-2.914-2.468-4.909-6.064-4.909h-8.767V328h9.266c3.911 0 6.247-2.048 6.247-5.198 0-2.073-1.155-3.622-2.966-4.436zm-3.806-5.644c1.522-.026 2.546.945 2.546 2.232.026 1.26-.971 2.31-2.467 2.31h-5.303v-4.542h5.224zm.499 12.154h-5.723v-4.777h5.749c1.706 0 2.677 1.05 2.677 2.362 0 1.339-.997 2.415-2.703 2.415zm15.34 3.492c3.491 0 5.643-2.048 6.405-3.781l-3.124-.918c-.525.997-1.549 1.758-3.229 1.758-2.415 0-3.622-1.312-3.859-3.018h10.317c.078-.42.078-.814.078-1.234 0-3.806-2.493-6.825-6.851-6.825-4.174 0-6.956 3.045-6.956 7.009 0 4.2 2.966 7.009 7.219 7.009zm-3.807-8.138c.184-1.523 1.497-2.94 3.518-2.94 2.074 0 3.334 1.312 3.491 2.94h-7.009zm20.215 4.541a3.23 3.23 0 0 1-1.575.368c-1.103 0-1.628-.604-1.628-1.68v-5.697h3.885v-3.045h-3.885v-4.305h-3.491v4.305h-2.231v3.045h2.231v5.697c0 2.861 1.391 4.751 4.436 4.751 1.103 0 2.048-.21 3.098-.63l-.84-2.809zm8.339 3.597c1.864 0 3.334-.788 4.279-1.996V328h3.491v-13.283h-3.491v1.602c-.945-1.208-2.415-1.969-4.279-1.969-3.675 0-6.562 2.966-6.562 7.009 0 4.016 2.887 7.009 6.562 7.009zm.604-3.098c-2.179 0-3.727-1.628-3.727-3.938 0-2.283 1.548-3.885 3.727-3.885 2.1 0 3.78 1.602 3.78 3.885 0 2.31-1.68 3.938-3.78 3.938zM25.8 357l1.05-2.835h4.515l1.08 2.835h1.32l-4.035-10.5h-1.245l-4.005 10.485 1.32.015zm1.425-3.96l1.89-5.175 1.89 5.175h-3.78zm11.784 4.125c1.815 0 3.39-1.485 3.39-3.87 0-2.37-1.515-3.87-3.345-3.87-1.17 0-2.115.6-2.565 1.35V346.5h-1.095V357h1.095v-1.2c.375.705 1.365 1.365 2.52 1.365zm-.12-1.08c-1.455 0-2.43-1.14-2.43-2.73 0-1.665.975-2.865 2.43-2.865 1.395 0 2.31 1.155 2.31 2.76 0 1.65-.915 2.835-2.31 2.835zm5.219-8.16h1.305V346.5h-1.305v1.425zm.075 9.075h1.155v-7.5h-1.155v7.5zm3.472 0h1.17v-10.5h-1.17V357zm3.411-9.075h1.305V346.5h-1.305v1.425zm.075 9.075h1.155v-7.5h-1.155v7.5zm5.377 0h1.065v-1.05h-.9c-.615 0-.93-.3-.93-1.05v-4.395h1.815V349.5h-1.815v-2.205h-1.125v2.205h-1.14v1.005h1.14v4.56c0 1.2.765 1.935 1.89 1.935zm2.008 3h.615c1.395-.015 2.07-.72 2.535-1.89l3.39-8.61h-1.26l-2.19 5.64-2.25-5.64h-1.275l2.94 7.05-.495 1.32c-.255.66-.69 1.065-1.47 1.065h-.54V360zm13.549-3h1.065v-1.05h-.9c-.615 0-.93-.3-.93-1.05v-4.395h1.815V349.5H71.31v-2.205h-1.125v2.205h-1.14v1.005h1.14v4.56c0 1.2.765 1.935 1.89 1.935zm5.417.075c2.025 0 3.525-1.59 3.525-3.825 0-2.265-1.41-3.855-3.525-3.855-2.04 0-3.54 1.59-3.54 3.855 0 2.235 1.5 3.825 3.54 3.825zm-.03-1.065c-1.425 0-2.37-1.155-2.37-2.76 0-1.62.96-2.79 2.4-2.79 1.545 0 2.415 1.185 2.415 2.82 0 1.59-.96 2.73-2.445 2.73zm9.246.99h1.17v-10.5h-1.17V357zm3.411-9.075h1.305V346.5h-1.305v1.425zm.075 9.075h1.155v-7.5h-1.155v7.5zm6.007.165c1.665 0 2.82-.975 2.82-2.28 0-1.275-.765-1.935-2.865-2.235-1.08-.165-1.725-.525-1.725-1.2 0-.66.69-1.08 1.53-1.08.945 0 1.74.405 1.815 1.545h1.08c-.03-1.785-1.41-2.55-2.94-2.55s-2.625.945-2.625 2.085c0 1.05.69 1.845 2.88 2.205 1.23.195 1.695.54 1.695 1.2 0 .675-.465 1.32-1.62 1.32-1.065 0-1.92-.525-2.04-1.575h-1.14c.09 1.71 1.53 2.565 3.135 2.565zm6.43-.165h1.065v-1.05h-.9c-.615 0-.93-.3-.93-1.05v-4.395h1.815V349.5h-1.815v-2.205h-1.125v2.205h-1.14v1.005h1.14v4.56c0 1.2.765 1.935 1.89 1.935zm5.773 3h.615c1.395-.015 2.07-.72 2.535-1.89l3.39-8.61h-1.26l-2.19 5.64-2.25-5.64h-1.275l2.94 7.05-.495 1.32c-.255.66-.69 1.065-1.47 1.065h-.54V360zm10.747-2.925c2.025 0 3.525-1.59 3.525-3.825 0-2.265-1.41-3.855-3.525-3.855-2.04 0-3.54 1.59-3.54 3.855 0 2.235 1.5 3.825 3.54 3.825zm-.03-1.065c-1.425 0-2.37-1.155-2.37-2.76 0-1.62.96-2.79 2.4-2.79 1.545 0 2.415 1.185 2.415 2.82 0 1.59-.96 2.73-2.445 2.73zm8.051 1.185c1.155 0 1.995-.645 2.34-1.215V357h1.125v-7.5h-1.125v4.035c-.015 1.635-.87 2.655-2.16 2.655-1.05 0-1.77-.885-1.785-2.16v-4.53h-1.185v4.605c0 2.1 1.335 3.09 2.79 3.09zm5.781-.195h1.11v-4.185c0-1.815 1.095-2.325 2.385-2.28l.105-.015v-1.125l-.135-.015c-1.575-.075-2.19.75-2.355 1.14v-1.02h-1.11v7.5zm10.533 0h1.065v-1.05h-.9c-.615 0-.93-.3-.93-1.05v-4.395h1.815V349.5h-1.815v-2.205h-1.125v2.205h-1.14v1.005h1.14v4.56c0 1.2.765 1.935 1.89 1.935zm5.416.075c2.025 0 3.525-1.59 3.525-3.825 0-2.265-1.41-3.855-3.525-3.855-2.04 0-3.54 1.59-3.54 3.855 0 2.235 1.5 3.825 3.54 3.825zm-.03-1.065c-1.425 0-2.37-1.155-2.37-2.76 0-1.62.96-2.79 2.4-2.79 1.545 0 2.415 1.185 2.415 2.82 0 1.59-.96 2.73-2.445 2.73zm5.336.99h1.125v-2.49l1.17-1.23 2.535 3.705 1.305.015-3.09-4.56 2.79-2.94h-1.41l-3.3 3.495V346.5h-1.125V357zm10.118.165c1.725 0 2.97-1.08 3.18-2.565h-1.08c-.27 1.005-1.2 1.53-2.07 1.53-1.425 0-2.325-.99-2.325-2.565v-.015h5.595c.06-2.385-1.155-4.14-3.315-4.14-2.13 0-3.465 1.605-3.465 3.9 0 2.355 1.41 3.855 3.48 3.855zm-2.25-4.62c.135-1.245.9-2.115 2.205-2.115 1.35 0 1.995.87 2.13 2.115h-4.335zm7.337 4.455h1.125v-4.035c.015-1.635.975-2.655 2.16-2.655 1.05 0 1.785.795 1.785 2.16V357h1.185v-4.605c0-2.1-1.335-3.09-2.79-3.09-1.14 0-1.98.645-2.34 1.215v-1.02h-1.125v7.5zM168 194l-4.774-10h11.548L170 194h-2zm1 39.774L163.227 228l5.773-5.774 5.774 5.774-5.774 5.774zM170 193v35h-2v-35h2z" class="F"/><rect y="435" width="333" height="186" rx="5" class="B"/><rect x="7" y="430" width="331" height="184" rx="4" fill="#fff" class="C D"/><path d="M8 434a3 3 0 0 1 3-3h323a3 3 0 0 1 3 3v55H8v-55z" class="E"/><path d="M50.458 460.943c0-6.457-5.103-11.434-11.466-11.434s-11.466 4.977-11.466 11.434c0 6.521 5.103 11.498 11.466 11.498 2.173 0 4.221-.599 5.985-1.67L46.048 472h4.316l-2.803-3.402a11.4 11.4 0 0 0 2.898-7.655zm-11.466 7.529c-4.315 0-7.245-3.213-7.245-7.529 0-4.284 2.93-7.465 7.245-7.465s7.245 3.181 7.245 7.465c0 1.701-.472 3.245-1.291 4.473l-2.803-3.433h-4.851l5.04 5.764c-.977.473-2.111.725-3.339.725zm20.435-.378l4.977-4.599c2.52-2.331 4.032-4.284 4.032-7.056 0-4.442-3.245-6.93-7.843-6.93-4.379 0-7.371 3.087-7.812 6.394l3.875 1.103c.472-2.174 1.984-3.623 4.032-3.623 2.173 0 3.465 1.261 3.465 3.276 0 1.575-1.071 2.772-2.709 4.284l-8.599 8.096V472h15.939v-3.906h-9.355zm26.209 0l4.977-4.599c2.52-2.331 4.032-4.284 4.032-7.056 0-4.442-3.245-6.93-7.843-6.93-4.379 0-7.371 3.087-7.812 6.394l3.875 1.103c.472-2.174 1.984-3.623 4.032-3.623 2.173 0 3.465 1.261 3.465 3.276 0 1.575-1.071 2.772-2.709 4.284l-8.6 8.096V472h15.939v-3.906h-9.356zm20.454 4.347c5.859 0 9.103-4.883 9.103-11.466 0-6.615-3.244-11.466-9.103-11.466s-9.135 4.851-9.135 11.466c0 6.583 3.276 11.466 9.135 11.466zm0-3.938c-3.245 0-4.82-2.992-4.82-7.528s1.575-7.529 4.82-7.529 4.788 2.993 4.788 7.529-1.544 7.528-4.788 7.528zm17.353-.409l4.977-4.599c2.52-2.331 4.032-4.284 4.032-7.056 0-4.442-3.245-6.93-7.844-6.93-4.378 0-7.371 3.087-7.812 6.394l3.875 1.103c.472-2.174 1.984-3.623 4.032-3.623 2.173 0 3.465 1.261 3.465 3.276 0 1.575-1.071 2.772-2.709 4.284l-8.6 8.096V472h15.939v-3.906h-9.355zm18.457 0l4.977-4.599c2.52-2.331 4.032-4.284 4.032-7.056 0-4.442-3.245-6.93-7.844-6.93-4.378 0-7.371 3.087-7.812 6.394l3.875 1.103c.472-2.174 1.984-3.623 4.032-3.623 2.173 0 3.465 1.261 3.465 3.276 0 1.575-1.071 2.772-2.709 4.284l-8.6 8.096V472h15.939v-3.906H141.9z" class="G"/><path d="M34.316 511.625h-8.61V530h3.57v-5.618h4.883c4.226 0 6.536-3.281 6.536-6.378 0-3.045-2.336-6.379-6.379-6.379zm-.262 9.555h-4.778v-6.3h4.935c1.759 0 2.992 1.522 2.992 3.15 0 1.601-1.208 3.15-3.15 3.15zm17.994-4.463v6.537c0 2.362-1.234 3.885-3.203 3.885-1.916 0-2.835-1.313-2.835-3.334v-7.088h-3.465v7.744c0 3.57 1.759 5.907 5.25 5.907 1.916 0 3.36-.867 4.252-2.048V530h3.465v-13.283h-3.465zm14.651-.367c-1.89 0-3.334.761-4.305 1.969v-7.482h-3.465V530h3.465v-1.628c.971 1.208 2.415 1.996 4.305 1.996 3.675 0 6.536-2.993 6.536-7.009 0-4.043-2.861-7.009-6.536-7.009zm-.604 10.92c-2.1 0-3.78-1.628-3.78-3.938 0-2.283 1.68-3.885 3.78-3.885 2.179 0 3.727 1.602 3.727 3.885 0 2.31-1.549 3.938-3.727 3.938zm9.753 2.73h3.465v-19.163h-3.465V530zm8.629-15.146c1.155 0 2.074-.893 2.074-2.048 0-1.102-.919-1.995-2.074-1.995s-2.074.893-2.074 1.995c0 1.155.919 2.048 2.074 2.048zM82.692 530h3.491v-13.283h-3.491V530zm13.195.368c3.649 0 5.932-2.311 6.457-4.332l-3.228-.892c-.289 1.102-1.522 2.126-3.255 2.126-2.205 0-3.623-1.864-3.623-3.938 0-2.1 1.418-3.911 3.623-3.911 1.733 0 2.966 1.103 3.255 2.205l3.228-.919c-.525-1.995-2.808-4.357-6.483-4.357-4.043 0-7.035 3.019-7.035 6.982 0 3.99 2.993 7.036 7.061 7.036zm27.987-10.002c1.417-.761 2.284-2.074 2.284-3.832-.027-2.914-2.468-4.909-6.064-4.909h-8.768V530h9.267c3.911 0 6.247-2.048 6.247-5.198 0-2.073-1.155-3.622-2.966-4.436zm-3.806-5.644c1.522-.026 2.546.945 2.546 2.232.026 1.26-.971 2.31-2.468 2.31h-5.302v-4.542h5.224zm.498 12.154h-5.722v-4.777h5.749c1.706 0 2.677 1.05 2.677 2.362 0 1.339-.997 2.415-2.704 2.415zm15.34 3.492c3.492 0 5.644-2.048 6.405-3.781l-3.123-.918c-.525.997-1.549 1.758-3.229 1.758-2.415 0-3.623-1.312-3.859-3.018h10.316c.079-.42.079-.814.079-1.234 0-3.806-2.494-6.825-6.851-6.825-4.174 0-6.956 3.045-6.956 7.009 0 4.2 2.966 7.009 7.218 7.009zm-3.806-8.138c.184-1.523 1.496-2.94 3.518-2.94 2.073 0 3.333 1.312 3.491 2.94H132.1zm20.215 4.541c-.525.263-.972.368-1.575.368-1.103 0-1.628-.604-1.628-1.68v-5.697h3.885v-3.045h-3.885v-4.305h-3.491v4.305h-2.231v3.045h2.231v5.697c0 2.861 1.391 4.751 4.436 4.751 1.103 0 2.048-.21 3.098-.63l-.84-2.809zm8.339 3.597c1.864 0 3.334-.788 4.279-1.996V530h3.491v-13.283h-3.491v1.602c-.945-1.208-2.415-1.969-4.279-1.969-3.675 0-6.562 2.966-6.562 7.009 0 4.016 2.887 7.009 6.562 7.009zm.604-3.098c-2.179 0-3.728-1.628-3.728-3.938 0-2.283 1.549-3.885 3.728-3.885 2.1 0 3.78 1.602 3.78 3.885 0 2.31-1.68 3.938-3.78 3.938zM25.305 559.015h1.14v-4.35h2.97c1.905 0 3.165-1.26 3.165-3.06 0-1.815-1.23-3.105-3.075-3.12l-4.2.015v10.515zm1.14-5.385l.015-4.11h2.88c1.245 0 2.115.78 2.115 2.085 0 1.26-.87 2.025-2.115 2.025h-2.895zm10.478 5.565c1.155 0 1.995-.645 2.34-1.215V559h1.125v-7.5h-1.125v4.035c-.015 1.635-.87 2.655-2.16 2.655-1.05 0-1.77-.885-1.785-2.16v-4.53h-1.185v4.605c0 2.1 1.335 3.09 2.79 3.09zm9.396-.03c1.815 0 3.39-1.485 3.39-3.87 0-2.37-1.515-3.87-3.345-3.87-1.17 0-2.115.6-2.565 1.35V548.5h-1.095V559h1.095v-1.2c.375.705 1.365 1.365 2.52 1.365zm-.12-1.08c-1.455 0-2.43-1.14-2.43-2.73 0-1.665.975-2.865 2.43-2.865 1.395 0 2.31 1.155 2.31 2.76 0 1.65-.915 2.835-2.31 2.835zm5.294.915h1.17v-10.5h-1.17V559zm3.411-9.075h1.305V548.5h-1.305v1.425zm.075 9.075h1.155v-7.5h-1.155v7.5zm6.367.105c1.68 0 2.985-1.11 3.18-2.64h-1.14c-.165.885-.945 1.605-1.995 1.605-1.335 0-2.265-1.125-2.265-2.835 0-1.755.945-2.88 2.28-2.88.99 0 1.785.69 1.98 1.59h1.14c-.195-1.515-1.485-2.595-3.12-2.595-2.04 0-3.48 1.56-3.48 3.9 0 2.295 1.455 3.855 3.42 3.855zm10.48-.105h1.065v-1.05h-.9c-.615 0-.93-.3-.93-1.05v-4.395h1.815V551.5h-1.815v-2.205h-1.125v2.205h-1.14v1.005h1.14v4.56c0 1.2.765 1.935 1.89 1.935zm5.417.075c2.025 0 3.525-1.59 3.525-3.825 0-2.265-1.41-3.855-3.525-3.855-2.04 0-3.54 1.59-3.54 3.855 0 2.235 1.5 3.825 3.54 3.825zm-.03-1.065c-1.425 0-2.37-1.155-2.37-2.76 0-1.62.96-2.79 2.4-2.79 1.545 0 2.415 1.185 2.415 2.82 0 1.59-.96 2.73-2.445 2.73zm5.335.99h1.125v-2.49l1.17-1.23 2.535 3.705 1.305.015-3.09-4.56 2.79-2.94h-1.41l-3.3 3.495V548.5h-1.125V559zm10.118.165c1.725 0 2.97-1.08 3.18-2.565h-1.08c-.27 1.005-1.2 1.53-2.07 1.53-1.425 0-2.325-.99-2.325-2.565v-.015h5.595c.06-2.385-1.155-4.14-3.315-4.14-2.13 0-3.465 1.605-3.465 3.9 0 2.355 1.41 3.855 3.48 3.855zm-2.25-4.62c.135-1.245.9-2.115 2.205-2.115 1.35 0 1.995.87 2.13 2.115h-4.335zM97.753 559h1.125v-4.035c.015-1.635.975-2.655 2.16-2.655 1.05 0 1.785.795 1.785 2.16V559h1.185v-4.605c0-2.1-1.335-3.09-2.79-3.09-1.14 0-1.98.645-2.34 1.215v-1.02h-1.125v7.5zm11.031.165c1.665 0 2.82-.975 2.82-2.28 0-1.275-.765-1.935-2.865-2.235-1.08-.165-1.725-.525-1.725-1.2 0-.66.69-1.08 1.53-1.08.945 0 1.74.405 1.815 1.545h1.08c-.03-1.785-1.41-2.55-2.94-2.55s-2.625.945-2.625 2.085c0 1.05.69 1.845 2.88 2.205 1.23.195 1.695.54 1.695 1.2 0 .675-.465 1.32-1.62 1.32-1.065 0-1.92-.525-2.04-1.575h-1.14c.09 1.71 1.53 2.565 3.135 2.565zm10.678 0c1.665 0 2.82-.975 2.82-2.28 0-1.275-.765-1.935-2.865-2.235-1.08-.165-1.725-.525-1.725-1.2 0-.66.69-1.08 1.53-1.08.945 0 1.74.405 1.815 1.545h1.08c-.03-1.785-1.41-2.55-2.94-2.55s-2.625.945-2.625 2.085c0 1.05.69 1.845 2.88 2.205 1.23.195 1.695.54 1.695 1.2 0 .675-.465 1.32-1.62 1.32-1.065 0-1.92-.525-2.04-1.575h-1.14c.09 1.71 1.53 2.565 3.135 2.565zm6.536-.015c1.125 0 1.965-.51 2.49-1.2V559h1.155v-5.16c0-1.47-1.02-2.52-2.835-2.52-1.755 0-2.91 1.02-3.06 2.49l1.185-.015c.12-.84.765-1.455 1.905-1.455.915 0 1.65.435 1.65 1.2 0 .855-1.335.975-2.295 1.065-.855.075-1.53.27-2.025.66-.465.375-.705.975-.705 1.62 0 1.44 1.2 2.265 2.535 2.265zm.15-1.035c-.765-.015-1.485-.465-1.485-1.275 0-.75.57-1.215 1.8-1.32 1.05-.09 1.71-.255 2.025-.54v1.005c-.015 1.53-1.35 2.145-2.34 2.13zm5.662.885h1.17v-10.5h-1.17V559zm6.442.165c1.725 0 2.97-1.08 3.18-2.565h-1.08c-.27 1.005-1.2 1.53-2.07 1.53-1.425 0-2.325-.99-2.325-2.565v-.015h5.595c.06-2.385-1.155-4.14-3.315-4.14-2.13 0-3.465 1.605-3.465 3.9 0 2.355 1.41 3.855 3.48 3.855zm-2.25-4.62c.135-1.245.9-2.115 2.205-2.115 1.35 0 1.995.87 2.13 2.115h-4.335zM25.305 582.03l3.975-.03c2.79 0 4.665-2.16 4.665-5.325 0-3.09-1.935-5.22-4.815-5.205l-3.825.03v10.53zm1.14-1.125v-8.25l2.67-.03c2.19-.03 3.66 1.62 3.66 4.11 0 2.475-1.5 4.125-3.735 4.14l-2.595.03zm12.388 1.26c1.725 0 2.97-1.08 3.18-2.565h-1.08c-.27 1.005-1.2 1.53-2.07 1.53-1.425 0-2.325-.99-2.325-2.565v-.015h5.595c.06-2.385-1.155-4.14-3.315-4.14-2.13 0-3.465 1.605-3.465 3.9 0 2.355 1.41 3.855 3.48 3.855zm-2.25-4.62c.135-1.245.9-2.115 2.205-2.115 1.35 0 1.995.87 2.13 2.115h-4.335zM43.92 582h1.11v-4.185c0-1.815 1.095-2.325 2.385-2.28l.105-.015v-1.125l-.135-.015c-1.575-.075-2.19.75-2.355 1.14v-1.02h-1.11v7.5zm4.95-9.075h1.305V571.5H48.87v1.425zm.075 9.075H50.1v-7.5h-1.155v7.5zm5.422 0h1.2l2.955-7.5h-1.245l-2.31 6.12-2.31-6.12h-1.215l2.925 7.5zm7.355.15c1.125 0 1.965-.51 2.49-1.2V582h1.155v-5.16c0-1.47-1.02-2.52-2.835-2.52-1.755 0-2.91 1.02-3.06 2.49l1.185-.015c.12-.84.765-1.455 1.905-1.455.915 0 1.65.435 1.65 1.2 0 .855-1.335.975-2.295 1.065-.855.075-1.53.27-2.025.66-.465.375-.705.975-.705 1.62 0 1.44 1.2 2.265 2.535 2.265zm.15-1.035c-.765-.015-1.485-.465-1.485-1.275 0-.75.57-1.215 1.8-1.32 1.05-.09 1.71-.255 2.025-.54v1.005c-.015 1.53-1.35 2.145-2.34 2.13zm7.567.885h1.065v-1.05h-.9c-.615 0-.93-.3-.93-1.05v-4.395h1.815V574.5h-1.815v-2.205h-1.125v2.205h-1.14v1.005h1.14v4.56c0 1.2.765 1.935 1.89 1.935zm2.473-9.075h1.305V571.5h-1.305v1.425zm.075 9.075h1.155v-7.5h-1.155v7.5zm5.422 0h1.2l2.955-7.5h-1.245l-2.31 6.12-2.31-6.12h-1.215l2.925 7.5zm8.3.165c1.725 0 2.97-1.08 3.18-2.565h-1.08c-.27 1.005-1.2 1.53-2.07 1.53-1.425 0-2.325-.99-2.325-2.565v-.015h5.595c.06-2.385-1.155-4.14-3.315-4.14-2.13 0-3.465 1.605-3.465 3.9 0 2.355 1.41 3.855 3.48 3.855zm-2.25-4.62c.135-1.245.9-2.115 2.205-2.115 1.35 0 1.995.87 2.13 2.115h-4.335zM94.856 582h6.615v-1.125h-5.46v-3.645h5.145v-1.095h-5.145v-3.51h5.46V571.5h-6.615V582zm7.579 0h1.32l2.04-2.835 2.01 2.835h1.32l-2.685-3.75 2.685-3.75h-1.335l-1.995 2.835-2.025-2.835h-1.335l2.7 3.75-2.7 3.75zm10.781.105c1.68 0 2.985-1.11 3.18-2.64h-1.14c-.165.885-.945 1.605-1.995 1.605-1.335 0-2.265-1.125-2.265-2.835 0-1.755.945-2.88 2.28-2.88.99 0 1.785.69 1.98 1.59h1.14c-.195-1.515-1.485-2.595-3.12-2.595-2.04 0-3.48 1.56-3.48 3.9 0 2.295 1.455 3.855 3.42 3.855zm4.971-.105h1.125v-4.035c.015-1.635.885-2.655 2.16-2.655 1.05 0 1.785.885 1.785 2.16V582h1.185v-4.605c0-2.1-1.335-3.09-2.79-3.09-1.14 0-1.98.645-2.34 1.215v-4.02h-1.125V582zm10.506.15c1.125 0 1.965-.51 2.49-1.2V582h1.155v-5.16c0-1.47-1.02-2.52-2.835-2.52-1.755 0-2.91 1.02-3.06 2.49l1.185-.015c.12-.84.765-1.455 1.905-1.455.915 0 1.65.435 1.65 1.2 0 .855-1.335.975-2.295 1.065-.855.075-1.53.27-2.025.66-.465.375-.705.975-.705 1.62 0 1.44 1.2 2.265 2.535 2.265zm.15-1.035c-.765-.015-1.485-.465-1.485-1.275 0-.75.57-1.215 1.8-1.32 1.05-.09 1.71-.255 2.025-.54v1.005c-.015 1.53-1.35 2.145-2.34 2.13zm5.663.885h1.125v-4.035c.015-1.635.975-2.655 2.16-2.655 1.05 0 1.785.795 1.785 2.16V582h1.185v-4.605c0-2.1-1.335-3.09-2.79-3.09-1.14 0-1.98.645-2.34 1.215v-1.02h-1.125v7.5zm11.466 3.105c2.07 0 3.585-1.17 3.585-3.66V574.5h-1.11v1.305c-.48-.9-1.545-1.47-2.61-1.47-1.965 0-3.36 1.635-3.36 3.87 0 2.25 1.32 3.87 3.315 3.87 1.125 0 2.19-.6 2.655-1.5v.87c0 1.845-1.035 2.655-2.46 2.655-.705 0-1.92-.33-2.1-1.56h-1.14c.075 1.47 1.35 2.565 3.225 2.565zm.03-4.095c-1.395 0-2.31-1.155-2.31-2.76 0-1.65.915-2.835 2.31-2.835 1.455 0 2.415 1.14 2.415 2.73 0 1.665-.96 2.865-2.415 2.865zm8.744 1.155c1.725 0 2.97-1.08 3.18-2.565h-1.08c-.27 1.005-1.2 1.53-2.07 1.53-1.425 0-2.325-.99-2.325-2.565v-.015h5.595c.06-2.385-1.155-4.14-3.315-4.14-2.13 0-3.465 1.605-3.465 3.9 0 2.355 1.41 3.855 3.48 3.855zm-2.25-4.62c.135-1.245.9-2.115 2.205-2.115 1.35 0 1.995.87 2.13 2.115h-4.335zM170 396l4.774-10h-11.548L168 396h2zm-1 39.774l5.774-5.774-5.774-5.774-5.773 5.774 5.773 5.774zM168 395v35h2v-35h-2z" class="F"/><rect y="664" width="333" height="185" rx="5" class="B"/><rect x="7" y="659" width="331" height="183" rx="4" fill="#fff" class="C D"/><path d="M8 663a3 3 0 0 1 3-3h323a3 3 0 0 1 3 3v55H8v-55z" class="E"/><path d="M50.381 689.943c0-6.457-5.103-11.434-11.466-11.434s-11.466 4.977-11.466 11.434c0 6.521 5.103 11.498 11.466 11.498 2.174 0 4.221-.599 5.985-1.67L45.971 701h4.316l-2.803-3.402a11.4 11.4 0 0 0 2.898-7.655zm-11.466 7.529c-4.315 0-7.245-3.213-7.245-7.529 0-4.284 2.929-7.465 7.245-7.465s7.245 3.181 7.245 7.465c0 1.701-.473 3.245-1.292 4.473l-2.803-3.433h-4.851l5.04 5.764c-.976.473-2.11.725-3.339.725zm24.223-10.143l4.977-5.481v-2.898H52.963v3.874h9.481l-4.473 5.544.724 2.552c.662-.378 1.323-.536 2.268-.536 2.425 0 3.78 1.638 3.78 3.591 0 1.922-1.449 3.686-4.032 3.686-2.425 0-4.19-1.859-4.568-4.001l-3.874 1.103c.598 3.276 3.276 6.678 8.662 6.678 4.599 0 8.001-3.308 8.001-7.466 0-3.717-2.394-6.111-5.796-6.646zm22.575 9.765l4.977-4.599c2.52-2.331 4.032-4.284 4.032-7.056 0-4.442-3.244-6.93-7.843-6.93-4.379 0-7.371 3.087-7.812 6.394l3.874 1.103c.472-2.174 1.984-3.623 4.032-3.623 2.174 0 3.465 1.261 3.465 3.276 0 1.575-1.071 2.772-2.709 4.284l-8.599 8.096V701h15.939v-3.906h-9.356zm20.454 4.347c5.859 0 9.103-4.883 9.103-11.466 0-6.615-3.244-11.466-9.103-11.466s-9.135 4.851-9.135 11.466c0 6.583 3.276 11.466 9.135 11.466zm0-3.938c-3.245 0-4.82-2.992-4.82-7.528s1.575-7.529 4.82-7.529 4.788 2.993 4.788 7.529-1.544 7.528-4.788 7.528zm17.353-.409l4.977-4.599c2.52-2.331 4.032-4.284 4.032-7.056 0-4.442-3.245-6.93-7.844-6.93-4.378 0-7.371 3.087-7.812 6.394l3.875 1.103c.472-2.174 1.984-3.623 4.032-3.623 2.173 0 3.465 1.261 3.465 3.276 0 1.575-1.071 2.772-2.709 4.284l-8.6 8.096V701h15.939v-3.906h-9.355zm18.457 0l4.977-4.599c2.52-2.331 4.032-4.284 4.032-7.056 0-4.442-3.245-6.93-7.844-6.93-4.378 0-7.371 3.087-7.812 6.394l3.875 1.103c.472-2.174 1.984-3.623 4.032-3.623 2.173 0 3.465 1.261 3.465 3.276 0 1.575-1.071 2.772-2.709 4.284l-8.6 8.096V701h15.939v-3.906h-9.355z" class="G"/><path d="M40.595 740.625l-5.25 13.807-5.25-13.807h-3.964L33.376 759h3.938l7.245-18.375h-3.964zm10.102 18.743c3.491 0 5.644-2.048 6.405-3.781l-3.124-.918c-.525.997-1.549 1.758-3.229 1.758-2.415 0-3.623-1.312-3.859-3.018h10.316c.079-.42.079-.814.079-1.234 0-3.806-2.494-6.825-6.851-6.825-4.174 0-6.956 3.045-6.956 7.009 0 4.2 2.966 7.009 7.219 7.009zm-3.806-8.138c.184-1.523 1.496-2.94 3.517-2.94 2.074 0 3.334 1.312 3.491 2.94H46.89zm16.478-3.544v-1.969h-3.465V759h3.465v-5.775c0-3.57 1.549-4.883 4.384-4.436v-3.255c-2.074-.289-3.596.603-4.384 2.152zm11.756 11.682c3.386 0 5.749-1.838 5.749-4.332 0-2.389-1.733-3.202-3.727-3.78l-3.308-.945c-.735-.21-1.103-.525-1.103-1.05 0-.63.814-1.207 1.89-1.207 1.391 0 2.363.708 2.835 1.548l3.071-.892c-.84-1.995-3.019-3.36-5.88-3.36-2.914 0-5.329 1.759-5.329 3.99 0 1.89 1.391 2.992 3.281 3.544l3.386.997c.971.289 1.47.656 1.47 1.313 0 .735-.866 1.365-2.205 1.365-1.759 0-3.019-.945-3.465-2.205l-3.124.918c.656 2.153 3.176 4.096 6.457 4.096zm10.147-15.514c1.155 0 2.074-.893 2.074-2.048 0-1.102-.919-1.995-2.074-1.995s-2.074.893-2.074 1.995c0 1.155.919 2.048 2.074 2.048zM83.487 759h3.491v-13.283h-3.491V759zm13.248.368c4.096 0 7.088-3.046 7.088-7.009 0-3.99-2.992-7.009-7.088-7.009s-7.114 3.019-7.114 7.009c0 3.963 3.019 7.009 7.114 7.009zm0-3.151c-2.231 0-3.727-1.653-3.727-3.858s1.496-3.859 3.727-3.859c2.205 0 3.728 1.654 3.728 3.859s-1.523 3.858-3.728 3.858zM114.2 745.35c-1.916 0-3.36.866-4.279 2.047v-1.68h-3.465V759h3.465v-6.562c0-2.337 1.26-3.859 3.203-3.859 1.916 0 2.835 1.286 2.835 3.307V759h3.465v-7.77c0-3.544-1.759-5.88-5.224-5.88zm19.72 10.395l4.147-3.833c2.1-1.942 3.36-3.57 3.36-5.88 0-3.701-2.703-5.775-6.536-5.775-3.649 0-6.142 2.573-6.51 5.329l3.229.919c.394-1.811 1.654-3.019 3.36-3.019 1.811 0 2.887 1.05 2.887 2.73 0 1.313-.892 2.31-2.257 3.57l-7.166 6.746V759h13.282v-3.255h-7.796zM29.945 788H31.1v-9.405h3.75V777.5h-8.67v1.095h3.765V788zm8.501.075c2.025 0 3.525-1.59 3.525-3.825 0-2.265-1.41-3.855-3.525-3.855-2.04 0-3.54 1.59-3.54 3.855 0 2.235 1.5 3.825 3.54 3.825zm-.03-1.065c-1.425 0-2.37-1.155-2.37-2.76 0-1.62.96-2.79 2.4-2.79 1.545 0 2.415 1.185 2.415 2.82 0 1.59-.96 2.73-2.445 2.73zm5.335.99h1.125v-2.49l1.17-1.23 2.535 3.705 1.305.015-3.09-4.56 2.79-2.94h-1.41l-3.3 3.495V777.5h-1.125V788zm10.118.165c1.725 0 2.97-1.08 3.18-2.565h-1.08c-.27 1.005-1.2 1.53-2.07 1.53-1.425 0-2.325-.99-2.325-2.565v-.015h5.595c.06-2.385-1.155-4.14-3.315-4.14-2.13 0-3.465 1.605-3.465 3.9 0 2.355 1.41 3.855 3.48 3.855zm-2.25-4.62c.135-1.245.9-2.115 2.205-2.115 1.35 0 1.995.87 2.13 2.115H51.62zM58.957 788h1.125v-4.035c.015-1.635.975-2.655 2.16-2.655 1.05 0 1.785.795 1.785 2.16V788h1.185v-4.605c0-2.1-1.335-3.09-2.79-3.09-1.14 0-1.98.645-2.34 1.215v-1.02h-1.125v7.5zm11.031.165c1.665 0 2.82-.975 2.82-2.28 0-1.275-.765-1.935-2.865-2.235-1.08-.165-1.725-.525-1.725-1.2 0-.66.69-1.08 1.53-1.08.945 0 1.74.405 1.815 1.545h1.08c-.03-1.785-1.41-2.55-2.94-2.55s-2.625.945-2.625 2.085c0 1.05.69 1.845 2.88 2.205 1.23.195 1.695.54 1.695 1.2 0 .675-.465 1.32-1.62 1.32-1.065 0-1.92-.525-2.04-1.575h-1.14c.09 1.71 1.53 2.565 3.135 2.565zm11.152.03c1.155 0 1.995-.645 2.34-1.215V788h1.125v-7.5H83.48v4.035c-.015 1.635-.87 2.655-2.16 2.655-1.05 0-1.77-.885-1.785-2.16v-4.53H78.35v4.605c0 2.1 1.335 3.09 2.79 3.09zm5.781-.195h1.125v-4.035c.015-1.635.975-2.655 2.16-2.655 1.05 0 1.785.795 1.785 2.16V788h1.185v-4.605c0-2.1-1.335-3.09-2.79-3.09-1.14 0-1.98.645-2.34 1.215v-1.02h-1.125v7.5zm8.496 0h1.17v-10.5h-1.17V788zm6.501.075c2.025 0 3.525-1.59 3.525-3.825 0-2.265-1.41-3.855-3.525-3.855-2.04 0-3.54 1.59-3.54 3.855 0 2.235 1.5 3.825 3.54 3.825zm-.03-1.065c-1.425 0-2.37-1.155-2.37-2.76 0-1.62.96-2.79 2.4-2.79 1.545 0 2.415 1.185 2.415 2.82 0 1.59-.96 2.73-2.445 2.73zm8.23 1.095c1.68 0 2.985-1.11 3.18-2.64h-1.14c-.165.885-.945 1.605-1.995 1.605-1.335 0-2.265-1.125-2.265-2.835 0-1.755.945-2.88 2.28-2.88.99 0 1.785.69 1.98 1.59h1.14c-.195-1.515-1.485-2.595-3.12-2.595-2.04 0-3.48 1.56-3.48 3.9 0 2.295 1.455 3.855 3.42 3.855zm4.972-.105h1.125v-2.49l1.17-1.23 2.535 3.705 1.305.015-3.09-4.56 2.79-2.94h-1.41l-3.3 3.495V777.5h-1.125V788zm-83.555 23.09c2.43 0 4.095-1.56 4.44-3.57h-1.26c-.285 1.29-1.5 2.4-3.165 2.4-2.055 0-3.48-1.695-3.48-4.095 0-2.49 1.44-4.275 3.54-4.275 1.62 0 2.805 1.095 3.105 2.4h1.26c-.315-2.01-1.98-3.54-4.35-3.54-2.82 0-4.845 2.205-4.845 5.4 0 3.105 2.04 5.28 4.755 5.28zm6.299-.09h1.11v-4.185c0-1.815 1.095-2.325 2.385-2.28l.105-.015v-1.125l-.135-.015c-1.575-.075-2.19.75-2.355 1.14v-1.02h-1.11v7.5zm7.893.075c2.025 0 3.525-1.59 3.525-3.825 0-2.265-1.41-3.855-3.525-3.855-2.04 0-3.54 1.59-3.54 3.855 0 2.235 1.5 3.825 3.54 3.825zm-.03-1.065c-1.425 0-2.37-1.155-2.37-2.76 0-1.62.96-2.79 2.4-2.79 1.545 0 2.415 1.185 2.415 2.82 0 1.59-.96 2.73-2.445 2.73zm7.87 1.155c1.665 0 2.82-.975 2.82-2.28 0-1.275-.765-1.935-2.865-2.235-1.08-.165-1.725-.525-1.725-1.2 0-.66.69-1.08 1.53-1.08.945 0 1.74.405 1.815 1.545h1.08c-.03-1.785-1.41-2.55-2.94-2.55s-2.625.945-2.625 2.085c0 1.05.69 1.845 2.88 2.205 1.23.195 1.695.54 1.695 1.2 0 .675-.465 1.32-1.62 1.32-1.065 0-1.92-.525-2.04-1.575h-1.14c.09 1.71 1.53 2.565 3.135 2.565zm7.06 0c1.665 0 2.82-.975 2.82-2.28 0-1.275-.765-1.935-2.865-2.235-1.08-.165-1.725-.525-1.725-1.2 0-.66.69-1.08 1.53-1.08.945 0 1.74.405 1.815 1.545h1.08c-.03-1.785-1.41-2.55-2.94-2.55s-2.625.945-2.625 2.085c0 1.05.69 1.845 2.88 2.205 1.23.195 1.695.54 1.695 1.2 0 .675-.465 1.32-1.62 1.32-1.065 0-1.92-.525-2.04-1.575h-1.14c.09 1.71 1.53 2.565 3.135 2.565zm4.781-4.59h5.25v-.87h-5.25v.87zm10.697 4.53c1.68 0 2.985-1.11 3.18-2.64h-1.14c-.165.885-.945 1.605-1.995 1.605-1.335 0-2.265-1.125-2.265-2.835 0-1.755.945-2.88 2.28-2.88.99 0 1.785.69 1.98 1.59h1.14c-.195-1.515-1.485-2.595-3.12-2.595-2.04 0-3.48 1.56-3.48 3.9 0 2.295 1.455 3.855 3.42 3.855zm4.971-.105h1.125v-4.035c.015-1.635.885-2.655 2.16-2.655 1.05 0 1.785.885 1.785 2.16V811h1.185v-4.605c0-2.1-1.335-3.09-2.79-3.09-1.14 0-1.98.645-2.34 1.215v-4.02h-1.125V811zm10.506.15c1.125 0 1.965-.51 2.49-1.2V811h1.155v-5.16c0-1.47-1.02-2.52-2.835-2.52-1.755 0-2.91 1.02-3.06 2.49l1.185-.015c.12-.84.765-1.455 1.905-1.455.915 0 1.65.435 1.65 1.2 0 .855-1.335.975-2.295 1.065-.855.075-1.53.27-2.025.66-.465.375-.705.975-.705 1.62 0 1.44 1.2 2.265 2.535 2.265zm.15-1.035c-.765-.015-1.485-.465-1.485-1.275 0-.75.57-1.215 1.8-1.32 1.05-.09 1.71-.255 2.025-.54v1.005c-.015 1.53-1.35 2.145-2.34 2.13zm5.587-8.19h1.305V800.5h-1.305v1.425zm.075 9.075h1.155v-7.5h-1.155v7.5zm3.472 0h1.125v-4.035c.015-1.635.975-2.655 2.16-2.655 1.05 0 1.785.795 1.785 2.16V811h1.185v-4.605c0-2.1-1.335-3.09-2.79-3.09-1.14 0-1.98.645-2.34 1.215v-1.02h-1.125v7.5zm14.942.165c1.665 0 2.82-.975 2.82-2.28 0-1.275-.765-1.935-2.865-2.235-1.08-.165-1.725-.525-1.725-1.2 0-.66.69-1.08 1.53-1.08.945 0 1.74.405 1.815 1.545h1.08c-.03-1.785-1.41-2.55-2.94-2.55s-2.625.945-2.625 2.085c0 1.05.69 1.845 2.88 2.205 1.23.195 1.695.54 1.695 1.2 0 .675-.465 1.32-1.62 1.32-1.065 0-1.92-.525-2.04-1.575h-1.14c.09 1.71 1.53 2.565 3.135 2.565zm7.481 0c1.725 0 2.97-1.08 3.18-2.565h-1.08c-.27 1.005-1.2 1.53-2.07 1.53-1.425 0-2.325-.99-2.325-2.565v-.015h5.595c.06-2.385-1.155-4.14-3.315-4.14-2.13 0-3.465 1.605-3.465 3.9 0 2.355 1.41 3.855 3.48 3.855zm-2.25-4.62c.135-1.245.9-2.115 2.205-2.115 1.35 0 1.995.87 2.13 2.115h-4.335zm9.242 4.455h1.065v-1.05h-.9c-.615 0-.93-.3-.93-1.05v-4.395h1.815V803.5h-1.815v-2.205h-1.125v2.205h-1.14v1.005h1.14v4.56c0 1.2.765 1.935 1.89 1.935zm4.453 0h1.065v-1.05h-.9c-.615 0-.93-.3-.93-1.05v-4.395h1.815V803.5h-1.815v-2.205h-1.125v2.205h-1.14v1.005h1.14v4.56c0 1.2.765 1.935 1.89 1.935zm2.548 0h1.17v-10.5h-1.17V811zm6.441.165c1.725 0 2.97-1.08 3.18-2.565h-1.08c-.27 1.005-1.2 1.53-2.07 1.53-1.425 0-2.325-.99-2.325-2.565v-.015h5.595c.06-2.385-1.155-4.14-3.315-4.14-2.13 0-3.465 1.605-3.465 3.9 0 2.355 1.41 3.855 3.48 3.855zm-2.25-4.62c.135-1.245.9-2.115 2.205-2.115 1.35 0 1.995.87 2.13 2.115h-4.335zM148.81 811h1.125v-4.035c.015-1.635.915-2.655 2.1-2.655 1.05 0 1.785.795 1.785 2.16V811h1.185v-4.035c.015-1.635.915-2.655 2.1-2.655 1.05 0 1.785.795 1.785 2.16V811h1.185v-4.605c0-2.1-1.35-3.09-2.775-3.09-1.275 0-2.175.69-2.64 1.515-.6-1.185-1.665-1.515-2.445-1.515-1.14 0-1.92.645-2.28 1.215v-1.02h-1.125v7.5zm16.461.165c1.725 0 2.97-1.08 3.18-2.565h-1.08c-.27 1.005-1.2 1.53-2.07 1.53-1.425 0-2.325-.99-2.325-2.565v-.015h5.595c.06-2.385-1.155-4.14-3.315-4.14-2.13 0-3.465 1.605-3.465 3.9 0 2.355 1.41 3.855 3.48 3.855zm-2.25-4.62c.135-1.245.9-2.115 2.205-2.115 1.35 0 1.995.87 2.13 2.115h-4.335zm7.337 4.455h1.125v-4.035c.015-1.635.975-2.655 2.16-2.655 1.05 0 1.785.795 1.785 2.16V811h1.185v-4.605c0-2.1-1.335-3.09-2.79-3.09-1.14 0-1.98.645-2.34 1.215v-1.02h-1.125v7.5zm10.401 0h1.065v-1.05h-.9c-.615 0-.93-.3-.93-1.05v-4.395h1.815V803.5h-1.815v-2.205h-1.125v2.205h-1.14v1.005h1.14v4.56c0 1.2.765 1.935 1.89 1.935zm5.083.165c1.665 0 2.82-.975 2.82-2.28 0-1.275-.765-1.935-2.865-2.235-1.08-.165-1.725-.525-1.725-1.2 0-.66.69-1.08 1.53-1.08.945 0 1.74.405 1.815 1.545h1.08c-.03-1.785-1.41-2.55-2.94-2.55s-2.625.945-2.625 2.085c0 1.05.69 1.845 2.88 2.205 1.23.195 1.695.54 1.695 1.2 0 .675-.465 1.32-1.62 1.32-1.065 0-1.92-.525-2.04-1.575h-1.14c.09 1.71 1.53 2.565 3.135 2.565zM170 625l4.774-10h-11.548L168 625h2zm-1 39.774l5.774-5.774-5.774-5.774-5.773 5.774 5.773 5.774zM168 624v35h2v-35h-2z" class="F"/></svg>