<svg width="41" height="41" viewBox="0 0 41 41" fill="none" xmlns="http://www.w3.org/2000/svg">
<path d="M20.5117 8.87081C21.2389 8.87512 21.9485 9.08479 22.551 9.47336C23.1535 9.86194 23.6218 10.412 23.897 11.0542C24.1722 11.6964 24.2418 12.402 24.0972 13.0819C23.9525 13.7618 23.6001 14.3857 23.0843 14.8747C22.5684 15.3638 21.9123 15.6962 21.1987 15.8299C20.4851 15.9637 19.746 15.8929 19.0745 15.6264C18.4031 15.3599 17.8294 14.9097 17.4258 14.3326C17.0222 13.7554 16.8069 13.0772 16.8068 12.3834C16.8129 11.4498 17.2059 10.5564 17.9 9.89828C18.5941 9.24017 19.533 8.87079 20.5117 8.87081ZM20.5117 3.41653C18.6517 3.41221 16.8322 3.93444 15.2835 4.9171C13.7348 5.89976 12.5265 7.29867 11.8116 8.93676C11.0967 10.5749 10.9073 12.3785 11.2674 14.1193C11.6274 15.8601 12.5208 17.4599 13.8344 18.7161C15.148 19.9723 16.8228 20.8285 18.6467 21.1763C20.4706 21.524 22.3616 21.3477 24.0804 20.6697C25.7993 19.9917 27.2686 18.8424 28.3024 17.3673C29.3362 15.8923 29.8881 14.1578 29.8881 12.3834C29.8881 10.009 28.9009 7.73154 27.1432 6.05056C25.3854 4.36957 23.0005 3.42231 20.5117 3.41653Z" fill="#FCD000"/>
<path d="M37.5722 37.582H31.9464C31.9464 34.6888 30.7417 31.9142 28.5973 29.8685C26.4529 27.8227 23.5444 26.6734 20.5118 26.6734C17.4791 26.6734 14.5707 27.8227 12.4263 29.8685C10.2819 31.9142 9.07713 34.6888 9.07713 37.582H3.42843C3.34443 35.3931 3.72383 33.2104 4.54394 31.1645C5.36406 29.1186 6.60806 27.2515 8.20162 25.6745C9.79518 24.0976 11.7056 22.8433 13.8187 21.9866C15.9318 21.1299 18.2043 20.6884 20.5003 20.6884C22.7964 20.6884 25.0688 21.1299 27.1819 21.9866C29.2951 22.8433 31.2055 24.0976 32.799 25.6745C34.3926 27.2515 35.6366 29.1186 36.4567 31.1645C37.2768 33.2104 37.6562 35.3931 37.5722 37.582Z" fill="#FCD000"/>
</svg>
