<svg width="41" height="42" viewBox="0 0 41 42" fill="none" xmlns="http://www.w3.org/2000/svg">
<path d="M19.4413 21.4738L13.9404 15.973L16.7649 13.1485L19.4413 15.8363L24.851 10.438L27.6754 13.251L19.4413 21.4738Z" fill="#FCD000"/>
<path d="M41 37.1111H0V41.0972H41V37.1111Z" fill="#FCD000"/>
<path d="M20.5003 4.16287C22.7911 4.16287 25.0304 4.84217 26.9352 6.11487C28.8399 7.38757 30.3244 9.19651 31.2011 11.3129C32.0777 13.4294 32.3071 15.7582 31.8602 18.005C31.4133 20.2518 30.3102 22.3156 28.6903 23.9354C27.0705 25.5553 25.0067 26.6584 22.7599 27.1053C20.5131 27.5522 18.1843 27.3229 16.0678 26.4462C13.9514 25.5696 12.1425 24.085 10.8698 22.1803C9.59706 20.2755 8.91776 18.0362 8.91776 15.7454C8.92077 12.6744 10.142 9.73012 12.3135 7.55864C14.485 5.38715 17.4293 4.16588 20.5003 4.16287ZM20.5003 0.176758C17.4211 0.176758 14.411 1.08984 11.8508 2.80054C9.29056 4.51124 7.29509 6.94273 6.11674 9.78752C4.93839 12.6323 4.63008 15.7626 5.23079 18.7827C5.83151 21.8027 7.31428 24.5767 9.49159 26.754C11.6689 28.9314 14.443 30.4141 17.463 31.0148C20.483 31.6156 23.6133 31.3072 26.4581 30.1289C29.3029 28.9505 31.7344 26.9551 33.4451 24.3948C35.1558 21.8346 36.0689 18.8246 36.0689 15.7454C36.0689 13.7009 35.6662 11.6764 34.8838 9.78752C34.1014 7.89865 32.9546 6.18238 31.5089 4.7367C30.0632 3.29102 28.347 2.14424 26.4581 1.36185C24.5692 0.579452 22.5448 0.176758 20.5003 0.176758V0.176758Z" fill="#FCD000"/>
</svg>
