<svg width="24" height="24" viewBox="0 0 24 24" fill="none" xmlns="http://www.w3.org/2000/svg">
<path fill-rule="evenodd" clip-rule="evenodd" d="M12 0C5.37258 0 0 5.37259 0 12C0 18.6274 5.37258 24 12 24C18.6274 24 24 18.6274 24 12C24 5.37259 18.6274 0 12 0ZM6.19821 17H8.68607V8.98822H6.19821V17ZM6 6.44083C6 7.23639 6.64527 7.89532 7.4408 7.89532C8.23607 7.89532 8.88161 7.23639 8.88161 6.44083C8.88161 6.05872 8.72981 5.69223 8.45961 5.422C8.1894 5.15179 7.82293 5 7.4408 5C7.05868 5 6.6922 5.15179 6.422 5.422C6.1518 5.69223 6 6.05872 6 6.44083ZM15.5148 17H17.9973H18V12.599C18 10.4454 17.5371 8.78732 15.0193 8.78732C13.8088 8.78732 12.9975 9.45163 12.6654 10.0811H12.6305V8.98822H10.2445V17H12.7296V13.033C12.7296 11.9883 12.9279 10.9784 14.2213 10.9784C15.4961 10.9784 15.5148 12.1704 15.5148 13.0999V17Z" fill="#737373"/>
</svg>
