<svg width="41" height="42" viewBox="0 0 41 42" fill="none" xmlns="http://www.w3.org/2000/svg">
<path d="M29.8962 0.0567017H11.1045V4.04281H29.8962V0.0567017Z" fill="#FCD000"/>
<path d="M20.5007 40.7605C17.3044 40.7605 14.1798 39.8126 11.5222 38.0369C8.86457 36.2611 6.7932 33.7371 5.57002 30.7841C4.34685 27.8311 4.02681 24.5817 4.65038 21.4468C5.27395 18.3119 6.81312 15.4323 9.07325 13.1722C11.3334 10.9121 14.213 9.37288 17.3479 8.74931C20.4828 8.12575 23.7322 8.44578 26.6852 9.66896C29.6382 10.8921 32.1622 12.9635 33.9379 15.6211C35.7137 18.2788 36.6615 21.4033 36.6615 24.5996C36.6585 28.8848 34.9549 32.9936 31.9248 36.0237C28.8947 39.0538 24.7859 40.7574 20.5007 40.7605ZM20.5007 12.4249C18.0928 12.4249 15.7389 13.1389 13.7368 14.4767C11.7346 15.8145 10.1742 17.7159 9.25271 19.9406C8.33123 22.1652 8.09013 24.6131 8.5599 26.9748C9.02966 29.3365 10.1892 31.5058 11.8919 33.2085C13.5945 34.9111 15.7638 36.0706 18.1255 36.5404C20.4872 37.0102 22.9351 36.7691 25.1597 35.8476C27.3844 34.9261 29.2858 33.3657 30.6236 31.3635C31.9614 29.3614 32.6754 27.0076 32.6754 24.5996C32.6724 21.3716 31.3887 18.2767 29.1062 15.9941C26.8236 13.7116 23.7287 12.4279 20.5007 12.4249Z" fill="#FCD000"/>
<path d="M26.8891 26.5927H18.5068V18.2105H22.4929V22.6066H26.8891V26.5927Z" fill="#FCD000"/>
</svg>
