<svg width="41" height="42" viewBox="0 0 41 42" fill="none" xmlns="http://www.w3.org/2000/svg">
<path d="M32.9592 30.1574C35.3209 27.1272 36.4937 23.3384 36.257 19.5039C36.0202 15.6694 34.3902 12.0537 31.6736 9.3371C28.957 6.62054 25.3413 4.9905 21.5068 4.75373C17.6723 4.51696 13.8835 5.6898 10.8533 8.05152L2.97223 0.17041L0.15918 2.98347L5.30696 8.13124C2.24777 11.8946 0.692483 16.6586 0.94178 21.5021C1.19108 26.3456 3.22725 30.9246 6.65666 34.354C10.0861 37.7834 14.6651 39.8196 19.5086 40.0689C24.3521 40.3182 29.1161 38.7629 32.8795 35.7037L38.0272 40.8515L40.8403 38.0385L32.9592 30.1574ZM14.0536 16.8779L24.1214 26.9571C22.9961 27.5922 21.724 27.9212 20.4319 27.9114C19.1399 27.9015 17.8729 27.5531 16.7575 26.9009C15.642 26.2487 14.7171 25.3154 14.0748 24.1943C13.4325 23.0731 13.0953 21.8031 13.097 20.511C13.0934 19.2372 13.4232 17.9847 14.0536 16.8779ZM9.49807 31.5468C6.81395 28.8666 5.19726 25.301 4.94995 21.5159C4.70265 17.7308 5.84163 13.9851 8.15418 10.9785L11.1608 13.9965C9.64219 16.19 8.94179 18.847 9.18182 21.5041C9.42185 24.1612 10.5871 26.6497 12.4743 28.5355C14.3614 30.4213 16.8507 31.5848 19.508 31.8229C22.1653 32.061 24.8218 31.3587 27.0142 29.8385L30.0322 32.8565C27.0296 35.1735 23.2863 36.3183 19.5013 36.0773C15.7163 35.8363 12.1484 34.2259 9.4639 31.5468H9.49807ZM30.112 27.3443L13.6664 10.8987C15.9325 9.23526 18.7194 8.43821 21.5224 8.6519C24.3254 8.86558 26.9593 10.0759 28.947 12.0637C30.9348 14.0514 32.1451 16.6853 32.3588 19.4883C32.5725 22.2913 31.7754 25.0782 30.112 27.3443Z" fill="#FCD000"/>
</svg>
