<svg width="41" height="42" viewBox="0 0 41 42" fill="none" xmlns="http://www.w3.org/2000/svg">
<path d="M5.91025 11.7635L0.181641 6.03492L3.00609 3.21048L5.91025 6.12603L11.6844 0.351868L14.4975 3.16492L5.91025 11.7635Z" fill="#FCD000"/>
<path d="M41.0004 4.74908H21.5596V8.73519H41.0004V4.74908Z" fill="#FCD000"/>
<path d="M5.91123 25.363L0.182617 19.6344L3.00706 16.8214L5.91123 19.7255L11.6854 13.9514L14.4985 16.7644L5.91123 25.363Z" fill="#FCD000"/>
<path d="M35.6362 18.3585H21.5596V22.3446H35.6362V18.3585Z" fill="#FCD000"/>
<path d="M5.91123 38.9613L0.182617 33.2327L3.00706 30.4196L5.91123 33.3238L11.6854 27.5496L14.4985 30.3627L5.91123 38.9613Z" fill="#FCD000"/>
<path d="M41.0004 31.9567H21.5596V35.9428H41.0004V31.9567Z" fill="#FCD000"/>
</svg>
