<svg width="41" height="42" viewBox="0 0 41 42" fill="none" xmlns="http://www.w3.org/2000/svg">
<path d="M20.4489 5.20444C22.5412 6.75723 24.8342 8.01775 27.2652 8.95139C30.3426 10.1147 33.5988 10.7314 36.8875 10.7736C36.6603 15.3292 36.24 23.8594 30.9005 30.1347C28.1101 33.3081 24.4898 35.6356 20.4489 36.8542C16.3946 35.6376 12.7618 33.3057 9.96315 30.1233C4.62372 23.8594 4.20338 15.3747 3.97617 10.7622C7.27567 10.7276 10.5437 10.1148 13.6326 8.95139C16.0653 8.02151 18.3588 6.76072 20.4489 5.20444ZM20.4489 0.0111084C18.0736 2.28872 15.2646 4.06278 12.1898 5.22722C9.43919 6.27906 6.52243 6.82684 3.57855 6.84444C2.38043 6.82619 1.18489 6.72726 0 6.54833C0 7.55055 0 9.05389 0 10.8875C0.23857 15.8531 0.681629 25.3742 6.94126 32.7086C10.5057 36.7782 15.2143 39.6723 20.4489 41.0111C25.6876 39.6745 30.4004 36.7802 33.9679 32.7086C40.2275 25.3742 40.6705 15.8531 40.8978 10.8875C40.9731 9.4421 40.9731 7.99373 40.8978 6.54833C39.7307 6.71053 38.5542 6.79424 37.376 6.79889C34.4196 6.80131 31.4871 6.26889 28.7193 5.22722C25.6428 4.05939 22.8307 2.28583 20.4489 0.0111084V0.0111084Z" fill="#FCD000"/>
<path d="M20.5061 15.1581L15.1553 20.5109L20.5061 25.8636L25.8455 20.5109L20.5061 15.1581Z" fill="#FCD000"/>
</svg>
