<svg width="41" height="41" viewBox="0 0 41 41" fill="none" xmlns="http://www.w3.org/2000/svg">
<path d="M26.8581 23.4608C25.9661 23.8503 25.0031 24.0506 24.0298 24.0492C23.3864 24.05 22.7465 23.954 22.1317 23.7645C22.208 24.1521 22.2462 24.5463 22.2456 24.9413C22.2425 26.1848 21.8727 27.3996 21.1826 28.4339C20.665 29.1813 19.9896 29.8059 19.2041 30.2634C18.4186 30.721 17.5422 31.0005 16.6368 31.0821C15.7314 31.1637 14.8191 31.0454 13.9644 30.7355C13.1098 30.4257 12.3336 29.932 11.6908 29.2892C11.048 28.6463 10.5542 27.8702 10.2444 27.0155C9.9346 26.1609 9.8163 25.2486 9.89788 24.3432C9.97945 23.4378 10.2589 22.5613 10.7165 21.7758C11.1741 20.9903 11.7987 20.3149 12.546 19.7974C13.5803 19.1072 14.7952 18.7375 16.0386 18.7344C16.4274 18.7338 16.8153 18.7719 17.1965 18.8483C17.0194 18.2311 16.93 17.5922 16.9307 16.9501C16.9293 15.9769 17.1297 15.0139 17.5192 14.1219C17.0294 14.0448 16.5344 14.0067 16.0386 14.008C14.0273 14.0017 12.053 14.5493 10.3323 15.5909C8.61167 16.6325 7.21108 18.1279 6.28414 19.9129C5.3572 21.6979 4.93972 23.7038 5.07748 25.7104C5.21524 27.7171 5.90293 29.647 7.06512 31.2886C8.22731 32.9303 9.81912 34.2201 11.666 35.0168C13.5128 35.8135 15.5434 36.0862 17.535 35.8051C19.5267 35.5239 21.4024 34.6997 22.9565 33.4229C24.5107 32.1461 25.6832 30.466 26.3456 28.5668C26.7681 27.4051 26.9802 26.1775 26.9719 24.9413C26.9733 24.4456 26.9352 23.9505 26.8581 23.4608Z" fill="#FCD000"/>
<path d="M24.0308 5.08606C21.2976 5.08769 18.6487 6.03306 16.5321 7.76235C14.4154 9.49164 12.9608 11.8988 12.4142 14.5768C12.2614 15.3392 12.1851 16.115 12.1864 16.8925C12.1799 17.8534 12.3012 18.8109 12.547 19.7398C13.0628 21.8267 14.1377 23.7335 15.656 25.2552C17.1744 26.7769 19.0789 27.856 21.1646 28.3763C22.1 28.6221 23.0637 28.7434 24.0308 28.737C24.8085 28.7393 25.5843 28.663 26.3466 28.5092C29.1913 27.8978 31.7115 26.2606 33.4264 23.9099C35.1412 21.5592 35.9308 18.6595 35.6446 15.7639C35.3583 12.8683 34.0162 10.1794 31.8742 8.21001C29.7322 6.24064 26.9403 5.12862 24.0308 5.08606ZM26.8581 23.4608C25.9661 23.8503 25.0031 24.0506 24.0298 24.0492C23.3864 24.05 22.7465 23.954 22.1317 23.7645C20.9542 23.4416 19.8816 22.8183 19.0167 21.9567C18.1517 21.095 17.5239 20.0245 17.1965 18.8483C17.0194 18.2311 16.93 17.5922 16.9307 16.9501C16.9254 15.6638 17.2697 14.3995 17.9252 13.2927C18.5807 12.1859 19.5239 11.2774 20.6544 10.6639C21.785 10.0503 23.0607 9.75451 24.3459 9.80802C25.6311 9.86153 26.8778 10.2623 27.9534 10.9677C29.029 11.6732 29.8934 12.6569 30.4546 13.8143C31.0158 14.9718 31.2529 16.2597 31.1407 17.5411C31.0284 18.8225 30.571 20.0495 29.8171 21.0918C29.0632 22.134 28.04 22.9531 26.8581 23.4608Z" fill="#FCD000"/>
</svg>
