<svg width="24" height="24" viewBox="0 0 24 24" fill="none" xmlns="http://www.w3.org/2000/svg">
<path fill-rule="evenodd" clip-rule="evenodd" d="M12 24C18.6274 24 24 18.6274 24 12C24 5.37258 18.6274 0 12 0C5.37258 0 0 5.37258 0 12C0 18.6274 5.37258 24 12 24ZM19.9846 12.2086C19.9722 11.8709 19.8624 11.5439 19.6684 11.2671C19.4744 10.9903 19.2045 10.7755 18.8912 10.6487C18.5779 10.5219 18.2346 10.4883 17.9027 10.5522C17.5708 10.6161 17.2644 10.7746 17.0206 11.0086C15.6555 10.0807 14.0508 9.56804 12.4006 9.53264L13.1806 5.78864L15.7486 6.32864C15.7791 6.61242 15.9098 6.87603 16.1171 7.07214C16.3245 7.26826 16.595 7.38404 16.88 7.3987C17.1651 7.41337 17.446 7.32596 17.6724 7.15216C17.8988 6.97836 18.0558 6.72956 18.1153 6.45041C18.1748 6.17126 18.1329 5.88005 17.997 5.62905C17.8611 5.37804 17.6402 5.18369 17.374 5.08086C17.1077 4.97804 16.8136 4.97349 16.5443 5.06801C16.2749 5.16254 16.0481 5.34997 15.9046 5.59664L12.9646 5.00864C12.9165 4.99809 12.8668 4.99719 12.8184 5.00599C12.7699 5.01479 12.7237 5.03312 12.6824 5.05991C12.6411 5.08669 12.6055 5.12141 12.5778 5.16205C12.55 5.20269 12.5305 5.24844 12.5206 5.29664L11.6326 9.46064C9.96203 9.48583 8.3353 9.99887 6.95257 10.9366C6.76758 10.7626 6.54695 10.6308 6.30598 10.5505C6.06501 10.4702 5.80946 10.4432 5.55703 10.4715C5.30461 10.4998 5.06135 10.5826 4.84411 10.7142C4.62687 10.8458 4.44085 11.0231 4.29894 11.2338C4.15703 11.4444 4.06262 11.6834 4.02226 11.9342C3.9819 12.185 3.99655 12.4416 4.06519 12.6861C4.13384 12.9307 4.25484 13.1574 4.4198 13.3505C4.58477 13.5436 4.78976 13.6986 5.02057 13.8046C5.00706 13.9804 5.00706 14.1569 5.02057 14.3326C5.02057 17.0206 8.15257 19.2046 12.0166 19.2046C15.8806 19.2046 19.0126 17.0206 19.0126 14.3326C19.0261 14.1569 19.0261 13.9804 19.0126 13.8046C19.3087 13.6575 19.5571 13.4295 19.7291 13.147C19.9011 12.8646 19.9897 12.5393 19.9846 12.2086ZM15.9453 13.4077C15.9453 14.07 15.4084 14.6069 14.7461 14.6069C14.0838 14.6069 13.5469 14.07 13.5469 13.4077C13.5469 12.7454 14.0838 12.2085 14.7461 12.2085C15.4084 12.2085 15.9453 12.7454 15.9453 13.4077ZM9.1875 14.6069C9.84981 14.6069 10.3867 14.07 10.3867 13.4077C10.3867 12.7454 9.84981 12.2085 9.1875 12.2085C8.52519 12.2085 7.98828 12.7454 7.98828 13.4077C7.98828 14.07 8.52519 14.6069 9.1875 14.6069ZM11.9864 16.9945L11.9923 16.9944V16.9945C12.8476 16.9997 13.4801 16.808 13.894 16.6203C14.1025 16.5258 14.2564 16.4318 14.3558 16.3636C14.4055 16.3296 14.4416 16.302 14.4639 16.284C14.4751 16.275 14.4829 16.2685 14.4872 16.2648L14.4907 16.2617C14.6229 16.141 14.8279 16.15 14.9491 16.2819C15.0706 16.414 15.0619 16.6196 14.9297 16.7411L14.9292 16.7415L14.9286 16.7421L14.9271 16.7434L14.9232 16.747L14.9112 16.7575C14.9013 16.7659 14.8878 16.7773 14.8707 16.791C14.8363 16.8186 14.7873 16.8559 14.7234 16.8997C14.5958 16.9872 14.4089 17.1006 14.1624 17.2123C13.6707 17.4353 12.9451 17.6506 11.9864 17.6445C11.0277 17.6506 10.3021 17.4353 9.81037 17.2123C9.56391 17.1006 9.377 16.9872 9.24936 16.8997C9.18554 16.8559 9.13647 16.8186 9.10213 16.791C9.08496 16.7773 9.07146 16.7659 9.06162 16.7575L9.04961 16.747L9.04566 16.7434L9.0442 16.7421L9.0436 16.7415L9.04308 16.7411C8.91092 16.6196 8.90224 16.414 9.02369 16.2819C9.14479 16.1501 9.34955 16.1411 9.48175 16.2614L9.48209 16.2617L9.48561 16.2648C9.48994 16.2685 9.4977 16.275 9.50888 16.284C9.53125 16.302 9.56728 16.3296 9.61697 16.3636C9.71639 16.4318 9.87028 16.5258 10.0788 16.6203C10.4927 16.808 11.1252 16.9997 11.9805 16.9945V16.9944L11.9864 16.9945Z" fill="white"/>
</svg>
