<svg width="41" height="42" viewBox="0 0 41 42" fill="none" xmlns="http://www.w3.org/2000/svg">
<path d="M35.0892 19.5379V35.1976H5.91092V19.5379H35.0892ZM39.0754 15.5518H1.9248V39.1837H39.0754V15.5518Z" fill="#FCD000"/>
<path d="M25.4428 25.3801H15.5459V29.3662H25.4428V25.3801Z" fill="#FCD000"/>
<path d="M35.3738 15.5516H31.3876C31.3876 12.664 30.2405 9.89466 28.1987 7.8528C26.1568 5.81095 23.3875 4.66384 20.4999 4.66384C17.6122 4.66384 14.8429 5.81095 12.801 7.8528C10.7592 9.89466 9.61209 12.664 9.61209 15.5516H5.62598C5.62598 11.6068 7.19304 7.82359 9.98244 5.03419C12.7718 2.2448 16.5551 0.677734 20.4999 0.677734C24.4447 0.677734 28.2279 2.2448 31.0173 5.03419C33.8067 7.82359 35.3738 11.6068 35.3738 15.5516Z" fill="#FCD000"/>
</svg>
