<svg width="41" height="42" viewBox="0 0 41 42" fill="none" xmlns="http://www.w3.org/2000/svg">
<path d="M40.8647 2.07499L40.6717 0.517735L39.1052 0.3245C38.5944 0.279033 27.2434 -0.959947 19.6836 6.57623L18.0944 8.13348H7.74228L0.0576172 15.8629L6.64123 22.4443L20.1717 35.9935L25.3364 41.1767L33.0211 33.4814V23.1263L34.6216 21.5236C42.1473 13.9874 40.8647 2.55239 40.8647 2.07499ZM5.67639 15.8629L9.38818 12.146H14.1216L8.04876 18.2272L5.67639 15.8629ZM22.4986 9.38383C27.0391 4.83711 33.7248 4.21194 36.8691 4.21194H36.9712C36.9712 7.31507 36.4377 14.0783 31.8065 18.716L20.1717 30.3669L10.8525 21.0348L22.4986 9.38383ZM29.0482 31.8332L25.3364 35.5502L22.9754 33.1404L29.0482 27.0705V31.8332Z" fill="#FCD000"/>
<path d="M8.45962 29.9117L0.00195312 38.3694L2.81314 41.1806L11.2708 32.7229L8.45962 29.9117Z" fill="#FCD000"/>
<path d="M3.24177 24.6574L0.00488281 27.8943L2.81607 30.7055L6.05296 27.4686L3.24177 24.6574Z" fill="#FCD000"/>
<path d="M13.68 35.1325L10.4453 38.3716L13.2546 41.1847L16.4892 37.9456L13.68 35.1325Z" fill="#FCD000"/>
</svg>
