<svg width="72" height="69" viewBox="0 0 72 69" fill="none" xmlns="http://www.w3.org/2000/svg">
<path d="M36 0C16.1129 0 0 15.4415 0 34.5C0 53.5585 16.1129 69 36 69C55.8871 69 72 53.5585 72 34.5C72 15.4415 55.8871 0 36 0ZM53.6806 23.6353L47.7726 50.3171C47.3371 52.2091 46.1613 52.6681 44.521 51.7778L35.521 45.4204L31.1806 49.4268C30.7016 49.8859 30.2952 50.2754 29.3661 50.2754L30.0048 41.4974L46.6839 27.0575C47.4097 26.4454 46.5242 26.0976 45.5661 26.7097L24.9532 39.1464L16.0694 36.4893C14.1387 35.905 14.0952 34.6391 16.4758 33.7488L51.1839 20.9226C52.7952 20.3661 54.2032 21.2982 53.6806 23.6353Z" fill="#F8C100"/>
<path d="M53.6806 23.6353L47.7726 50.3171C47.3371 52.2091 46.1613 52.6681 44.521 51.7778L35.521 45.4204L31.1806 49.4268C30.7016 49.8859 30.2952 50.2754 29.3661 50.2754L30.0048 41.4974L46.6839 27.0575C47.4097 26.4454 46.5242 26.0976 45.5661 26.7097L24.9532 39.1464L16.0694 36.4893C14.1387 35.905 14.0952 34.6391 16.4758 33.7488L51.1839 20.9226C52.7952 20.3661 54.2032 21.2982 53.6806 23.6353Z" fill="#F8C100"/>
<path d="M52.6806 22.6353L46.7726 49.3171C46.3371 51.2091 45.1613 51.6681 43.521 50.7778L34.521 44.4204L30.1806 48.4268C29.7016 48.8859 29.2952 49.2754 28.3661 49.2754L29.0048 40.4974L45.6839 26.0575C46.4097 25.4454 45.5242 25.0976 44.5661 25.7097L23.9532 38.1464L15.0694 35.4893C13.1387 34.905 13.0952 33.6391 15.4758 32.7488L50.1839 19.9226C51.7952 19.3661 53.2032 20.2982 52.6806 22.6353Z" fill="black"/>
</svg>
