<svg width="22" height="22" viewBox="0 0 22 22" fill="none" xmlns="http://www.w3.org/2000/svg">
<path d="M14.7188 16.07L14.719 16.069L16.5242 7.56198C16.6087 7.16757 16.5445 6.85533 16.3524 6.66824C16.1588 6.47973 15.873 6.45444 15.5973 6.5538L15.5973 6.55377L15.5947 6.55477L4.98947 10.6443L4.989 10.6445C4.79894 10.7186 4.64916 10.8036 4.54284 10.897C4.43717 10.9898 4.3648 11.1 4.3541 11.2232C4.34306 11.3504 4.40005 11.4624 4.49302 11.5498C4.58422 11.6355 4.71472 11.7032 4.87258 11.753L4.87298 11.7532L7.58749 12.6003L7.64233 12.6174L7.69095 12.5868L13.9893 8.62152L13.9894 8.62156L13.9921 8.61975C14.0536 8.57871 14.1113 8.55563 14.158 8.54526C14.163 8.54414 14.1678 8.5432 14.1724 8.54239L9.08466 13.1386L9.0474 13.1723L9.04391 13.2224L8.84875 16.0212L8.83946 16.1544H8.97298C9.13511 16.1544 9.25904 16.1184 9.36438 16.0571C9.46331 15.9995 9.54081 15.922 9.61075 15.8521L9.61465 15.8482L10.8643 14.6445L13.5297 16.6091L13.5358 16.6136L13.5423 16.6172C13.8075 16.7675 14.0677 16.8226 14.2898 16.7221C14.5115 16.6218 14.6488 16.3873 14.7188 16.07ZM0.124539 11C0.124539 4.99217 4.99217 0.124539 11 0.124539C17.0078 0.124539 21.8755 4.99217 21.8755 11C21.8755 17.0078 17.0078 21.8755 11 21.8755C4.99217 21.8755 0.124539 17.0078 0.124539 11Z" fill="black" stroke="black" stroke-width="0.249079"/>
</svg>
