<svg width="72" height="72" viewBox="0 0 72 72" fill="none" xmlns="http://www.w3.org/2000/svg">
<path fill-rule="evenodd" clip-rule="evenodd" d="M36 0C16.1178 0 0 16.1178 0 36C0 55.8823 16.1178 72 36 72C55.8823 72 72 55.8823 72 36C72 16.1178 55.8823 0 36 0ZM34.9974 30.5092L34.9218 29.2636C34.6952 26.035 36.6845 23.086 39.8322 21.942C40.9905 21.5353 42.9546 21.4844 44.2389 21.8403C44.7425 21.9929 45.6994 22.5013 46.3793 22.9589L47.6132 23.7978L48.9729 23.3656C49.7284 23.1368 50.7356 22.7555 51.1889 22.5013C51.617 22.2725 51.9947 22.1454 51.9947 22.2217C51.9947 22.6538 51.063 24.1283 50.2824 24.9418C49.2248 26.0858 49.5269 26.1875 51.6673 25.4248C52.9516 24.9927 52.9768 24.9927 52.725 25.4757C52.5739 25.7299 51.7933 26.6197 50.9623 27.4332C49.5521 28.8314 49.4766 28.9839 49.4766 30.1533C49.4766 31.9583 48.6204 35.7208 47.7642 37.78C46.1778 41.6441 42.7784 45.6354 39.3789 47.6437C34.5945 50.4656 28.2236 51.1774 22.86 49.525C21.0721 48.9657 18 47.542 18 47.2878C18 47.2115 18.9317 47.1099 20.0649 47.0844C22.4319 47.0336 24.7989 46.3726 26.8134 45.2032L28.1732 44.3897L26.612 43.8558C24.396 43.0932 22.4067 41.3391 21.9031 39.6866C21.752 39.1528 21.8024 39.1273 23.2125 39.1273L24.673 39.1019L23.4392 38.5172C21.9786 37.78 20.644 36.5343 19.9893 35.2632C19.5109 34.348 18.9065 32.0346 19.0828 31.8566C19.1332 31.7803 19.662 31.9329 20.2663 32.1363C22.0038 32.7718 22.2305 32.6193 21.2232 31.5516C19.3346 29.6195 18.7554 26.7468 19.662 24.0266L20.09 22.8064L21.752 24.4588C25.1515 27.7891 29.1553 29.772 33.7383 30.3567L34.9974 30.5092Z" fill="#F8C100"/>
<path d="M34.9218 29.2636L34.9974 30.5092L33.7383 30.3567C29.1553 29.772 25.1515 27.7891 21.752 24.4588L20.09 22.8064L19.662 24.0266C18.7554 26.7468 19.3346 29.6195 21.2232 31.5516C22.2305 32.6193 22.0038 32.7718 20.2663 32.1363C19.662 31.9329 19.1332 31.7803 19.0828 31.8566C18.9065 32.0346 19.5109 34.348 19.9893 35.2632C20.644 36.5343 21.9786 37.78 23.4392 38.5172L24.673 39.1019L23.2125 39.1273C21.8024 39.1273 21.752 39.1528 21.9031 39.6866C22.4067 41.3391 24.396 43.0932 26.612 43.8558L28.1732 44.3897L26.8134 45.2032C24.7989 46.3726 22.4319 47.0336 20.0649 47.0844C18.9317 47.1099 18 47.2115 18 47.2878C18 47.542 21.0721 48.9657 22.86 49.525C28.2236 51.1774 34.5945 50.4656 39.3789 47.6437C42.7784 45.6354 46.1778 41.6441 47.7642 37.78C48.6204 35.7208 49.4766 31.9583 49.4766 30.1533C49.4766 28.9839 49.5521 28.8314 50.9623 27.4332C51.7933 26.6197 52.5739 25.7299 52.725 25.4757C52.9768 24.9927 52.9516 24.9927 51.6673 25.4248C49.5269 26.1875 49.2248 26.0858 50.2824 24.9418C51.063 24.1283 51.9947 22.6538 51.9947 22.2217C51.9947 22.1454 51.617 22.2725 51.1889 22.5013C50.7356 22.7555 49.7284 23.1368 48.9729 23.3656L47.6132 23.7978L46.3793 22.9589C45.6994 22.5013 44.7425 21.9929 44.2389 21.8403C42.9546 21.4844 40.9905 21.5353 39.8322 21.942C36.6845 23.086 34.6952 26.035 34.9218 29.2636Z" fill="#F8C100"/>
<path d="M35.9218 30.2636L35.9974 31.5092L34.7383 31.3567C30.1553 30.772 26.1515 28.7891 22.752 25.4588L21.09 23.8064L20.662 25.0266C19.7554 27.7468 20.3346 30.6195 22.2232 32.5516C23.2305 33.6193 23.0038 33.7718 21.2663 33.1363C20.662 32.9329 20.1332 32.7803 20.0828 32.8566C19.9065 33.0346 20.5109 35.348 20.9893 36.2632C21.644 37.5343 22.9786 38.78 24.4392 39.5172L25.673 40.1019L24.2125 40.1273C22.8024 40.1273 22.752 40.1528 22.9031 40.6866C23.4067 42.3391 25.396 44.0932 27.612 44.8558L29.1732 45.3897L27.8134 46.2032C25.7989 47.3726 23.4319 48.0336 21.0649 48.0844C19.9317 48.1099 19 48.2115 19 48.2878C19 48.542 22.0721 49.9657 23.86 50.525C29.2236 52.1774 35.5945 51.4656 40.3789 48.6437C43.7784 46.6354 47.1778 42.6441 48.7642 38.78C49.6204 36.7208 50.4766 32.9583 50.4766 31.1533C50.4766 29.9839 50.5521 29.8314 51.9623 28.4332C52.7933 27.6197 53.5739 26.7299 53.725 26.4757C53.9768 25.9927 53.9516 25.9927 52.6673 26.4248C50.5269 27.1875 50.2248 27.0858 51.2824 25.9418C52.063 25.1283 52.9947 23.6538 52.9947 23.2217C52.9947 23.1454 52.617 23.2725 52.1889 23.5013C51.7356 23.7555 50.7284 24.1368 49.9729 24.3656L48.6132 24.7978L47.3793 23.9589C46.6994 23.5013 45.7425 22.9929 45.2389 22.8403C43.9546 22.4844 41.9905 22.5353 40.8322 22.942C37.6845 24.086 35.6952 27.035 35.9218 30.2636Z" fill="black"/>
</svg>
