<svg width="22" height="23" viewBox="0 0 22 23" fill="none" xmlns="http://www.w3.org/2000/svg">
<path fill-rule="evenodd" clip-rule="evenodd" d="M11 0.5C4.92487 0.5 0 5.42487 0 11.5C0 17.5751 4.92487 22.5 11 22.5C17.0751 22.5 22 17.5751 22 11.5C22 5.42487 17.0751 0.5 11 0.5ZM10.6936 9.82227L10.6706 9.44164C10.6013 8.45513 11.2092 7.55406 12.1709 7.2045C12.5249 7.08022 13.125 7.06468 13.5174 7.17343C13.6713 7.22004 13.9637 7.3754 14.1714 7.51522L14.5485 7.77156L14.964 7.6395C15.1948 7.56959 15.5026 7.45307 15.6411 7.3754C15.7719 7.30548 15.8873 7.26664 15.8873 7.28995C15.8873 7.422 15.6026 7.87254 15.3641 8.12111C15.0409 8.47066 15.1332 8.50173 15.7872 8.2687C16.1797 8.13664 16.1873 8.13664 16.1104 8.28423C16.0642 8.36191 15.8257 8.63379 15.5718 8.88236C15.1409 9.30959 15.1178 9.3562 15.1178 9.71352C15.1178 10.265 14.8562 11.4147 14.5946 12.0439C14.1099 13.2246 13.0712 14.4441 12.0324 15.0578C10.5705 15.92 8.62387 16.1375 6.98499 15.6326C6.4387 15.4617 5.5 15.0267 5.5 14.9491C5.5 14.9258 5.78469 14.8947 6.13093 14.8869C6.85419 14.8714 7.57745 14.6694 8.193 14.3121L8.60849 14.0635L8.13144 13.9004C7.45435 13.6674 6.8465 13.1314 6.69261 12.6265C6.64645 12.4633 6.66184 12.4556 7.09271 12.4556L7.53898 12.4478L7.16196 12.2691C6.7157 12.0439 6.3079 11.6633 6.10785 11.2749C5.96166 10.9952 5.77699 10.2883 5.83085 10.234C5.84624 10.2107 6.00782 10.2573 6.19248 10.3194C6.72339 10.5136 6.79264 10.467 6.48487 10.1408C5.9078 9.5504 5.73083 8.67263 6.00782 7.84147L6.13862 7.46861L6.64645 7.97352C7.68517 8.99111 8.90856 9.597 10.3089 9.77566L10.6936 9.82227Z" fill="black"/>
</svg>
