<svg width="24" height="24" viewBox="0 0 24 24" fill="none" xmlns="http://www.w3.org/2000/svg">
<path fill-rule="evenodd" clip-rule="evenodd" d="M12 0C5.37258 0 0 5.37258 0 12C0 18.6274 5.37258 24 12 24C18.6274 24 24 18.6274 24 12C24 5.37258 18.6274 0 12 0ZM11.6658 10.1692L11.6406 9.75395C11.5651 8.67774 12.2282 7.69476 13.2774 7.31343C13.6635 7.17784 14.3182 7.16089 14.7463 7.27953C14.9142 7.33038 15.2331 7.49986 15.4598 7.65239L15.8711 7.93203L16.3243 7.78797C16.5761 7.71171 16.9119 7.5846 17.063 7.49986C17.2057 7.42359 17.3316 7.38122 17.3316 7.40664C17.3316 7.5507 17.021 8.04219 16.7608 8.31336C16.4083 8.69469 16.509 8.72859 17.2224 8.47437C17.6505 8.33031 17.6589 8.33031 17.575 8.49132C17.5246 8.57606 17.2644 8.87265 16.9874 9.14382C16.5174 9.60989 16.4922 9.66073 16.4922 10.0505C16.4922 10.6522 16.2068 11.9063 15.9214 12.5927C15.3926 13.8808 14.2595 15.2112 13.1263 15.8807C11.5315 16.8213 9.40786 17.0586 7.61999 16.5077C7.02404 16.3213 6 15.8468 6 15.762C6 15.7366 6.31057 15.7027 6.68829 15.6942C7.4773 15.6773 8.26631 15.457 8.93781 15.0672L9.39108 14.796L8.87066 14.618C8.13201 14.3638 7.46891 13.7791 7.30103 13.2283C7.25067 13.0503 7.26746 13.0419 7.73751 13.0419L8.22434 13.0334L7.81305 12.8385C7.32621 12.5927 6.88134 12.1775 6.66311 11.7538C6.50362 11.4487 6.30218 10.6776 6.36093 10.6183C6.37772 10.5929 6.55399 10.6437 6.75544 10.7115C7.33461 10.9234 7.41015 10.8725 7.0744 10.5166C6.44487 9.87258 6.25181 8.91502 6.55399 8.0083L6.69668 7.60154L7.25067 8.15236C8.38383 9.26245 9.71843 9.92343 11.2461 10.1183L11.6658 10.1692Z" fill="white"/>
</svg>
